<svg xmlns="http://www.w3.org/2000/svg" viewBox="0 0 93.27 83.6"><defs><style>.cls-1{fill:#333945;}</style></defs><title>abtest_ico</title><g id="Layer_2" data-name="Layer 2"><g id="features"><path class="cls-1" d="M13.34,39.32c3.73-1.65,7.58-3,10.95-5.06a108.74,108.74,0,0,0,12.48-8.83c4-3.3,8.31-5.9,11.9-9.42a66.91,66.91,0,0,0,5.18-5.42c.77-1,1.51-2,2.35-2.94S58.2,6,59,5.06c.5-.61.83-1.68,1.53-1.89.22,1.35-1.19,5.16-.11,5.3.89.12,1-2.6,1.05-3.29.16-1.85.64-4.25-.12-5.18-1.53.05-2.69,1.79-4.12,2.59-.87.48-2.57.7-2.35,2,1.54.22,3.35-1.25,4.59-2.12,0,.12-.1.14-.12.23-.93,1.67-2.46,2.6-3.65,3.89C54.1,8.36,52.87,10.36,51.25,12a76.22,76.22,0,0,1-10.71,9.3c-5.83,4.1-11.3,8.86-17.55,12.48-3.25,1.88-6.93,3-10.36,4.59-1,.47-2.57.71-3.06,2C10.89,40.7,12.23,39.82,13.34,39.32Z"/><path class="cls-1" d="M87.52,12c-1-.68-1.51-2.11-2.71-1.53-1.43.7-2.15,1.61-4.24,2.59-1.45.68-4.19,1.73-4.49,2.82-.51,1.87-.49,5.2-.49,7.77V78.42a34.65,34.65,0,0,1,6,2.82c.76.51,2,2.09,3,2.12a7.2,7.2,0,0,0,2.13-.94,20.88,20.88,0,0,1,6.42-2.7c-.33-19.85.57-41-.21-60.17a14.71,14.71,0,0,1,.37-3.89C91.87,14.44,89.38,13.23,87.52,12Zm-4,27.08v42.5A17,17,0,0,1,81,80.19c-1.37-.89-1.41-1.67-5.39-2.36v-61c4,1.52,5.26,3.22,7.49,4.71.19.86.22,1,0,1.53.55.32.45,1,.51,1.65C84,29.37,83.55,34.3,83.55,39.08Zm.91-18.37C82.35,19,79.95,17.61,78,15.77c2.08-1.84,5.2-2.65,7.18-4.59,1.73,1.88,4.55,2.67,6.36,4.47C89.71,17.89,86.66,18.88,84.46,20.72Zm6.12-2.47c-2,.88-3.33,2.48-5.42,3.29,2-2,4.78-3.07,6.94-4.83.05,1-.33,1.55-.23,2.59a.67.67,0,0,0-.48-.12c-2.12,1.33-4.34,2.56-6.35,4,.22-1.08,1.44-1.59,2.23-2.12a13,13,0,0,0,2.59-1.76c.35-.14.79.16.94-.36S90.68,18.46,90.58,18.25Zm-5.3,63.7c.3-.65,1.34-.55,1.77-1.06C87.06,81.3,85.68,81.95,85.28,81.95Zm6.95-46.51c0,.38-.61,0-.83.35-1.06.69-2.07,1.52-3.18,2.24s-2.47,1.22-2.83,2.59c.76.18.79-.68,1.28-1.06,1.53-1.2,4.82-2.25,4.82-3.42v2.59c0,.35-1.62,1-2.46,1.65a11.76,11.76,0,0,0-2.29,2c1,.28,1.65-.6,2.43-1.18s2.32-1.43,2.32-1.77v17.9c0,.58-2.19,1.61-3.52,2.47A5.21,5.21,0,0,0,85.58,62c.68.28.9-.5,1.37-.82,1.52-1,4.56-2.08,4.56-3.18v3.89c0,.48-.16-.14-.35.24-1,.58-2,1.13-3,1.76s-2.18,1.15-2.5,2.36a15.36,15.36,0,0,0,2.86-1.77c1.09-.68,3-1.46,3-1.88v7.18c0,1.22-4.17,2.13-5.64,3.88,1.14.08,1.9-.9,2.88-1.41s2.76-1.12,2.76-1.77v8.24c0,.32-1.57,1-2.7,1.3.33-.77,2.47-.92,2.77-2.12-2.14.44-4.23,2.5-6.39,2.95,1.5-2.19,5.31-2.11,6.4-4.71-.72-.24-1.86.59-2.37.94-1.45,1-1.69,1.56-5.67,2.59V63.81c0,.18,1.31.39,1.46.94,1.45-1,3.69-1.6,4.91-2.82-1.42-.38-2.51,1.34-3.9,1.76,1.93-1.52,4.73-2.28,5.87-4.59-1.27.13-2.92,1.48-4.11,2.24s-4.23,1.33-4.23,2V55.92c4-1.22,5.45-2.56,6.87-4.59-1.17,0-2.5,1.21-3.5,1.88s-3.38,1.45-3.38,2V53.1c4-1.24,5.17-2.92,7.11-4.59-1.16-.27-1.81.95-2.74,1.64s-1.83,1.65-2.73,2.36c-.28-1.26.07-3,0-4.48,1.29-.3,2.24-1.3,3.24-2S90.75,45,91.26,43.8c-2.25.38-4.09,2.8-6,3.53-.18-.8.71-1.2,1.19-1.53,1.43-1,3.34-1.89,4.48-3.29-2.16.24-3.88,2.55-5.65,3.18.11-.77,1-1.07,1.54-1.41,1.72-1.08,4-2,5.18-3.65a12.72,12.72,0,0,0-4.28,1.77c-1.09.67-4.17,1.42-4.17,2V35.67c0-.69,3.41-1.3,4.52-2.12s2.69-1.63,3.26-2.83c-1.23.16-1.82,1.36-2.84,2.12S86.29,34.16,85.29,35c-.27-.16,0-.82-.06-1.18,0-.56.23.2.62,0,.93-.79,1.84-1.58,2.84-2.35s2.3-1.15,2.95-2.24c-1.36,0-2.32,1-3.29,1.77a20.71,20.71,0,0,0-2.94,2.35,15.68,15.68,0,0,1-.12-3.06,9.28,9.28,0,0,0,3.65-1.88c1-.72,2.27-1.41,2.83-2.59a9,9,0,0,0-3.18,1.88,11.54,11.54,0,0,1-3.3,2c0-1.86.07-3.84-.11-5.54,1.88-1.81,4.53-2.84,6.59-4.48C92.76,24.07,92,30.27,92.23,35.44Z"/><path class="cls-1" d="M91.4,21.31a.76.76,0,0,0-.59-.12c-1.49,1.42-3.95,1.86-5.18,3.54,1.12.07,2.09-.85,3.06-1.41S91,22.32,91.4,21.31Z"/><path class="cls-1" d="M60.37,80.89c.74.4,3.41,2.11,4.21,2.11s1.17-1.08,2-1.41c1.84-.73,5-1.32,5-2.35V45.68c0-3.78,1.51-7.74,1.12-11.19-.06-.54.25-1,.21-1.65-.11-1.85.57-3.87.63-5.18-1.07-1.36-2.95-2.27-4.45-3.18-.64-.38-1.25-.49-1.81-.82-.75-.44-1-1.53-1.85-.94A22,22,0,0,1,63,23.78a23.08,23.08,0,0,0-2.22,1.29c-1,.64-4,2-4.43,3.3a22.73,22.73,0,0,0-.66,6V78.88C55.7,79.48,58.92,80.12,60.37,80.89Zm12.43-17c-1.68,1.17-4.13,1.78-5.89,2.82-.42.25-1,.51-.94,1.18.62.23.34-.44.81-.71,1.63-.9,4.83-1.45,4.83-2.47V78.65c0,.44-1.57,1.13-2.94,1.42.93-1,3-1.16,3.48-2.59-1.72.36-2.93,1.87-4.68,2.71a5.56,5.56,0,0,1-1.1.35c-.48.38-.08.87-.67,1.06-.49-.29-.1-1.45-.22-2.11.31,0,.68,0,.84-.12a28.36,28.36,0,0,1,3.07-1.66,12.57,12.57,0,0,0,3.07-1.64c-1.26-.44-2.46.62-3.54,1.18A21.62,21.62,0,0,0,65.62,79c-.27-2.83,0-6.16-.12-9.18a26.8,26.8,0,0,0,3.41-1.53A10,10,0,0,0,72,66.4c-1.1-.29-3.16.66-4.22,1.18s-4.1,1.1-4.1,1.65V66.64c4-1.34,5.85-2,7.52-3.77-1-.19-1.74.72-2.84,1.29a15.3,15.3,0,0,1-3.07,1.53c0-.74,1.26-.43,1.18-1.29,1-.39,2-.85,3-1.29a7.46,7.46,0,0,0,2.74-1.42c-1.13-.35-2.34.48-3.4.94s-2.24,1.1-3.29,1.53c-.27-.93.84-1.14,1.42-1.41a58.53,58.53,0,0,0,5.77-2.94A28.21,28.21,0,0,1,72.8,63.93Zm0-4.48c-2.53.38-4.94,2.52-7.3,3.07,0-.68.88-.86,1.3-1.06a16.3,16.3,0,0,0,4.35-2.7c-1.9-.21-3.52,2.13-5.65,2.47.09-1.61,2-1.77,3.06-2.36a11.28,11.28,0,0,0,3.29-2.12c-1-.21-2.17.64-3.18,1.17a16,16,0,0,1-3.18,1.53c.11-1.39,1.78-1.57,2.71-2.11a14.31,14.31,0,0,0,2.82-2c-1-.42-1.88.56-2.71,1.06s-1.86,1-2.71,1.53c-.48-.85.68-1.36,1.18-1.64,1.73-1,4-2,5.41-3.42C71,52.55,69,53.76,68,54.4s-4.34,1.26-4.34,1.88v-.59c0-.57,1,.17,1.28.12,2-1.76,5.3-2.69,7.17-4.59-.57-.45-1.14.28-1.65.59a25.33,25.33,0,0,0-4.95,3.53c-.27-.87,0-2.24-.06-3.3,2-1.91,4.87-3,7.21-4.59C72.93,51.21,72.72,55.49,72.8,59.45Zm-.92-12.83A46.25,46.25,0,0,1,63.65,51v-.71c4-2,6.26-2.67,8-4.95-1.33.09-1.92,1.22-3.07,1.88s-2.2,1.26-3.3,2a4.81,4.81,0,0,1,.23-1.41c2.08-1.21,4.48-2.17,6.06-3.89-1.09-.35-2.89.83-3.84,1.41s-4.07,1.2-4.07,1.65V45.33c4-1.8,6.19-2.82,8-5.06-.73-.28-.79.47-1.31.82a36.75,36.75,0,0,1-5.06,3.18,17.49,17.49,0,0,0,.23-2.59A26.2,26.2,0,0,1,69,39c1.2-.77,2.83-1.18,3.56-2.47a14.16,14.16,0,0,0-4.62,1.77c-1.11.71-.29,1.71-4.26,2.23v1.34h2.67c1.86-4,4.31-4,6.24-5.73a5.07,5.07,0,0,0-3.65,1.2,17.41,17.41,0,0,1-3.3,2c0-1.81-.2-3.55-.12-5.44,1.86-.88,3-2.51,5.18-3.13-1.16,1.48-3.1,2.13-4.12,3.73.5.36,1.14-.32,1.53-.61,1.35-1,2.82-2.46,4.12-3.54-.11-.45-1-.21-1.06.12A1.77,1.77,0,0,1,72.22,29C72.16,34.63,72,40.54,71.88,46.62Zm-6.14-23c2.24,1.37,4.74,2.49,6.83,4-1.16,1-2.45,1.71-3.89,2.71-1.06.73-2.77,2.47-4,2.47-1,0-2-1.32-3.06-1.88a23.47,23.47,0,0,1-3.53-2.35C60,26.38,62.87,25,65.74,23.66ZM64.56,34c.09,15.51-.06,31.5,0,47.57-2.28-1-4.22-2.44-6.59-3.41-.07-16.1.15-32.49-.12-48.39A74.75,74.75,0,0,0,64.56,34Z"/><path class="cls-1" d="M88.34,24.37c-1.06.52-2.54.91-2.94,2.12,1.14-.17,2.22-1,3.42-1.65s2.73-.94,3.29-2.12c-.15,0-.22-.17-.47-.12A33.17,33.17,0,0,1,88.34,24.37Z"/><path class="cls-1" d="M91.4,23.93c-1.64,2-3,2.37-4.59,3.34-.42.26-1.15.26-1.18,1,1.32.21,2.42-1.06,3.41-1.8s2.65-.51,2.71-2.5Z"/><path class="cls-1" d="M88.7,29.2c-.92.64-2.22,1-2.71,2.12,1.16,0,2.23-1,3.18-1.65A9.75,9.75,0,0,0,92,27.31a.77.77,0,0,0-.59-.12C90.48,27.79,89.63,28.56,88.7,29.2Z"/><path class="cls-1" d="M68.56,33.79c-1,.72-2.83,1.44-2.71,2.82,2.1-1.78,4.67-3.1,6.48-5.18a.77.77,0,0,0-.59-.12C70.73,32.06,69.67,33,68.56,33.79Z"/><path class="cls-1" d="M91.52,32.73c-.16,0-.23-.17-.47-.12C89.27,34,87,35,85.64,36.85c1.2,0,2.13-1.06,3.06-1.76S91,33.84,91.52,32.73Z"/><path class="cls-1" d="M71.74,33.44a19.35,19.35,0,0,0-3.18,2.11C67.67,36.24,66,37,66,38.14a15.22,15.22,0,0,0,3.18-2.24c1.08-.82,2.27-1.36,3.3-2.23C72.44,33.37,72,33.44,71.74,33.44Z"/><path class="cls-1" d="M86,37.79c1.2,0,2.19-1,3.18-1.65s2.29-1.28,2.82-2.35c-.16,0-.23-.17-.47-.12C89.8,35.16,87.43,36,86,37.79Z"/><path class="cls-1" d="M91.88,37.91a.81.81,0,0,0-.59-.12c-.85.7-1.83,1.41-2.83,2.12s-2.38,1.27-2.59,2.24A8.29,8.29,0,0,0,89,40.38,10.39,10.39,0,0,0,91.88,37.91Z"/><path class="cls-1" d="M68.91,40.74c-.92.81-2.25,1.39-2.82,2.59,1.77-.29,2.88-2,4.36-3.06.71-.52,1.7-.73,2-1.65-.16,0-.22-.17-.47-.12A14.84,14.84,0,0,0,68.91,40.74Z"/><path class="cls-1" d="M65.62,46.51a.78.78,0,0,0,.59.12c1.58-1.6,4-2.35,5.42-4.12-1.22-.06-2.22,1-3.18,1.65S66.15,45.41,65.62,46.51Z"/><path class="cls-1" d="M22.4,81.36c.91.75,2.32,2.33,3.54,2.23.89-.07,2.06-1.46,2.95-2.12,1.62-1.18,3.06-2.09,4.59-2.11.12-9.78.35-20.68-.12-30.26-1.24-.9-2.66-1.44-4-2.24s-2.84-1.69-4-2.35c-1.59,1.9-3.93,3.07-5.89,4.59-.61,9,.07,20.37-.35,29.79C20.06,79.81,21.2,80.36,22.4,81.36Zm9.19-2.82c-.24-.16.16-.77-.41-.59.3-.41,1.09-.41,1.15-1.06-.83-.3-1.78.67-2.66,1.17s-2.3.87-2.33,2a29.42,29.42,0,0,0,3.66-2,8.55,8.55,0,0,1-3.64,2.47c0,.31-.11.74.36.59-.14.37-.61.41-.83.71-.28-3,0-6.55-.12-9.78,1.66-1,3.77-1.49,4.59-3.3-.85,0-1.47.83-2.23,1.29s-1.6.89-2.36,1.29c.15-1.25,1.41-1.63,2.36-2.12s2.71-1.15,2.71-1.65v8.71C31.83,77.07,32.5,78.29,31.59,78.54Zm.94-13.31c-1.43,1.32-3.76,1.73-4.83,3.42,1.75-.09,3.26-2.07,4.83-2.35-.41,1.18-1.8,1.37-2.82,1.88a19.32,19.32,0,0,0-2.83,1.77,43.86,43.86,0,0,1-.12-5.19c1.58-.87,3.84-2,5.53-3.18C32.84,62.33,32.38,64.08,32.53,65.22Zm0-4.35a42.07,42.07,0,0,0-5.65,3.18c-.35-1.29,1.32-1.54,2.12-2a7.69,7.69,0,0,0,2.47-1.88c-1.5-.23-3.06,1.77-4.71,2.24.2-1.27,1.54-1.66,2.47-2.24a7.55,7.55,0,0,0,2.71-2c-.82-.27-1.79.57-2.59,1.06s-1.73,1.14-2.47,1.65c-.26,0,0-.51-.12-.71,1.53-1.46,4.06-1.91,5.42-3.53-.85-.25-1.89.56-2.82,1.06a12.43,12.43,0,0,1-2.59,1.42C28,57,30.84,56.58,32.41,54.87c-1.91-.29-3.87,2.39-5.65,2.71,1.18-1.73,3.4-2.4,4.71-4-.76-.41-1.6.48-2.24.94s-1.41,1.09-2,1.53a18.12,18.12,0,0,1,3.15-3.65c-2-.38-2.53,2.27-6.51,2.82V54.4A21.79,21.79,0,0,0,31,50.86C31.24,54,32.45,57.57,32.53,60.87ZM25.35,45.8c2.46,1,4.33,2.65,6.82,3.65-1.48,1.66-3.77,2.51-5.53,3.89-2.65-.64-3.77-2.82-6-3.89C22.18,48.21,24.19,47.43,25.35,45.8Zm-5.46,4.71c2,.68,4,2.82,4,3.76V82.53c0-1.17-2-2.81-4-4.11Z"/><path class="cls-1" d="M86.11,49.1c1.13,0,2.13-1,3.06-1.65A10.5,10.5,0,0,0,92,45.21a.79.79,0,0,0-.59-.12C89.64,46.43,87.42,47.31,86.11,49.1Z"/><path class="cls-1" d="M88.46,48.74c-.95.65-2.32,1-2.71,2.24a9.76,9.76,0,0,0,3.17-1.77,10.26,10.26,0,0,0,2.95-2.36.78.78,0,0,0-.59-.11C90.32,47.33,89.42,48.09,88.46,48.74Z"/><path class="cls-1" d="M69,51.21c-1,.72-2.34,1.1-2.95,2.24.54.42,1.21-.29,1.65-.59s1.13-.8,1.65-1.18a14.37,14.37,0,0,0,3.18-2.47A.75.75,0,0,0,72,49.1,18.1,18.1,0,0,0,69,51.21Z"/><path class="cls-1" d="M90.7,49.92c-.83.67-1.78,1.43-2.71,2.12s-2.2,1.22-2.47,2.24a8.08,8.08,0,0,0,3.06-1.76A10.34,10.34,0,0,0,91.29,50,.77.77,0,0,0,90.7,49.92Z"/><path class="cls-1" d="M85.4,57.45c.69.24,1.26-.44,1.77-.82a23.6,23.6,0,0,0,4.59-3.88.76.76,0,0,0-.59-.12C89.37,54.37,86.93,55.46,85.4,57.45Z"/><path class="cls-1" d="M91.4,53.77h-.35c-.91,2-1.88,1.69-2.83,2.43S86,57.59,85.64,58.83c1.23-.31,2.19-1.59,3.18-2.35S91.27,55.76,91.4,53.77Z"/><path class="cls-1" d="M85.87,60.14C87,60.23,88.08,59,89,58.36s2.55-.61,2.47-2.6h-.35C89.77,57.75,87.25,58.37,85.87,60.14Z"/><path class="cls-1" d="M.51,79.36c2.73,1.36,5,3.19,8.36,3.88,2.07-1.15,3.83-2.61,5.89-3.76.07-6.52-.16-13.34.11-19.66-2.36-1-4.9-3.4-7.65-3.42-.27,0-.33.14-.47.24C4.91,58,3.08,60.09.63,61,.55,67.08.77,73.46.51,79.36ZM13.69,79a16.49,16.49,0,0,0-4.83,3.18c-.26,0-.05-.42-.11-.6,1.61-1.32,3.33-2.15,4.43-4-1.84.32-3.23,2.35-5.22,3.06V78.54c0-.49.56,0,.87-.12.64-.54,1.54-1.21,2.32-1.77s2.11-.77,1.75-1.88a19.18,19.18,0,0,0-4.07,3.18c-.27-.36,0-1.22-.09-1.77.81-.66,1.52-1.43,2.36-2.12s1.93-1.13,2.24-2.24c-1.74.32-3,2.4-4.59,3.3,0-2.34,3.87-2.74,4.47-4.71-1.63.22-3.06,2.28-4.47,2.71.19-1.05,1.34-1.37,2.12-1.88A5.68,5.68,0,0,0,13,69.47c-1.45-.22-2.72,1.74-4.23,2.24,1.33-1.54,3.3-2.43,5.06-3.54C13.73,71.74,14,75.63,13.69,79ZM11.94,61.73v5.62c0,1-2,2.13-4,3.17V68.29c2-1.15,3.86-1.72,5.1-3.06-1.61-.34-3.13,1.84-4.5,2.13.31-.92,1.47-1.38,2.21-1.89s1.83-.8,2.4-1.53c-1.67-.44-3,1.48-4.33,2.13.64-1.44,3.16-2,4.25-3.42-1.59-.43-3,1.9-4.35,2.12-.16-.68.66-.65,1.06-.87,1.24-.66,2.57-2.16,3.65-2.16ZM7.45,57.34c2.35.51,3.93,1.8,5.89,2.7a16.51,16.51,0,0,1-4.83,3.18,52.07,52.07,0,0,0-5.77-2.12C4.51,60,5.72,58.44,7.45,57.34ZM0,62.4c0-.2.87-.3,1-.35a18.77,18.77,0,0,1,6.4,2.12c0,6.45-.63,11.51-.59,17.78C4.49,81.18,4,79.83,0,78.88Z"/><path class="cls-1" d="M48.43,58.87c-.74.56-2,1.1-1.77,2.12,1.67-1.28,3.6-2.28,4.95-3.89A.78.78,0,0,0,51,57C50.22,57.61,49.3,58.21,48.43,58.87Z"/><path class="cls-1" d="M48.54,60.52c-.63.62-1.59,1.28-1.65,2.12.92-.05,1.58-1,2.24-1.65s1.66-1.32,2-2.24c-.16,0-.23-.17-.48-.12C50,59.2,49.22,59.84,48.54,60.52Z"/><path class="cls-1" d="M29,64.16c-.78.57-2,1-2,2.13a11.68,11.68,0,0,0,2.59-1.65,7.61,7.61,0,0,0,2.47-2c-.16,0-.23-.17-.48-.12A19.29,19.29,0,0,0,29,64.16Z"/><path class="cls-1" d="M88.93,66.17c1.09-.66,2.52-1.24,3.06-2.48-.16,0-.23-.16-.47-.11a19.89,19.89,0,0,1-3.41,2.24c-1,.6-2.47,1.22-2.6,2.35A24.49,24.49,0,0,0,88.93,66.17Z"/><path class="cls-1" d="M26.88,67.47a6.76,6.76,0,0,0,2.83-1.06c.84-.46,2-1.08,2.24-2-.16,0-.23-.17-.47-.12C30.32,65.71,27.88,65.88,26.88,67.47Z"/><path class="cls-1" d="M91.17,65.82a27.28,27.28,0,0,1-2.94,1.88c-.87.51-2.12.9-2.35,2A10.49,10.49,0,0,0,88.93,68c1-.58,2.35-1.07,2.83-2.11A.73.73,0,0,0,91.17,65.82Z"/><path class="cls-1" d="M8.87,69.7c.55.52,1.13-.37,1.65-.71s1.62-.58,1.53-1.41A5.33,5.33,0,0,0,8.87,69.7Z"/><path class="cls-1" d="M86.34,71.11c1.06.14,1.91-.84,2.7-1.41s2-1.13,2.36-2.12a.76.76,0,0,0-.59-.12C89.56,68.91,87.46,69.53,86.34,71.11Z"/><path class="cls-1" d="M66,71.47c1.14.05,2.2-.86,3.18-1.42s2.37-1,3-2a.8.8,0,0,0-.59-.11C69.8,69.25,67.32,69.79,66,71.47Z"/><path class="cls-1" d="M88.58,71.16c-1.05.53-2.77.59-2.71,1.92,1.06-.5,2.27-.86,3.42-1.46A33,33,0,0,0,92,69.68h-.36C90.8,69.68,89.71,70.59,88.58,71.16Z"/><path class="cls-1" d="M71.39,69.47c-1.44,1.38-4,1.69-5.06,3.42.13,0,.18.13.23.24.73.14.58-.6,1.06-.71C69.15,71.55,71,71,72,69.59A.79.79,0,0,0,71.39,69.47Z"/><path class="cls-1" d="M32.06,69.68h-.36c-.87,0-2.38,1.64-3.65,2.3-.41.22-1.31.26-1.18,1,1,.11,2-.75,2.94-1.25S32.3,71.67,32.06,69.68Z"/><path class="cls-1" d="M46.55,73.35c1.58-1.2,3.93-1.64,5.18-3.18a.79.79,0,0,0-.59-.12C49.78,71.26,46.78,71.43,46.55,73.35Z"/><path class="cls-1" d="M31.24,71.47c-1.2,1-3.78,1.24-3.89,2.94a26.14,26.14,0,0,0,2.35-1.29,7.33,7.33,0,0,0,2.24-1.41C31.93,71.4,31.55,71.47,31.24,71.47Z"/><path class="cls-1" d="M46.42,74.77c.92,0,1.84-.81,2.71-1.3s2-.89,2.36-1.88c-.16,0-.22-.17-.47-.11C49.8,72.86,47.22,73,46.42,74.77Z"/><path class="cls-1" d="M66.44,74.88a39.89,39.89,0,0,0,4.24-2.35c.41-.21,1-.11,1.18-.71-1.1-.51-2.28.57-3.29,1.18S66.46,74,66.44,74.88Z"/><path class="cls-1" d="M85.64,75.83c1.07-.64,2.16-1.25,3.29-1.89A10.43,10.43,0,0,0,92,71.82c-1.34-.2-2.54,1.08-3.77,1.77S85.47,74.63,85.64,75.83Z"/><path class="cls-1" d="M68.68,74.18c-1,.56-2.37,1-2.59,2.12,1.14,0,1.95-1.17,3.06-1.76s2.68-.75,3.3-1.88a.78.78,0,0,0-.59-.12C70.87,73,69.74,73.59,68.68,74.18Z"/><path class="cls-1" d="M31.71,73c-.16,0-.22-.17-.47-.12-1.23,1.25-3.4,1.54-4.36,3.06A8.35,8.35,0,0,0,31.71,73Z"/><path class="cls-1" d="M88.22,75.24c-.91.56-2.17.92-2.71,1.88,1.26.06,2.39-.9,3.42-1.53s2.41-1.15,2.95-2.24a.79.79,0,0,0-.59-.12A25.4,25.4,0,0,1,88.22,75.24Z"/><path class="cls-1" d="M11,75c-.74.57-1.72,1.11-2,2,.22.23.43,0,.71,0,1-1.29,2.88-1.75,3.65-3.3C12.47,73.64,11.66,74.48,11,75Z"/><path class="cls-1" d="M27.35,77.24c0,.28.34.13.35.35-.3.21-.85.17-.7.83a6.38,6.38,0,0,0,2.7-1.06c.85-.44,2-.8,2.36-1.65-1.45-.1-2.5,1.18-3.89,1.53,1.09-1.3,3.34-1.45,4-3.18-.16,0-.23-.17-.47-.12C30.49,75.27,28.32,75.65,27.35,77.24Z"/><path class="cls-1" d="M66,77.94c.68.47.93-.37,1.29-.59,1.69-1,4-1.54,5.06-3.18a.76.76,0,0,0-.59-.12C70.13,75.67,67.09,75.85,66,77.94Z"/><path class="cls-1" d="M88.22,76.53c-.92.54-2.13,1.12-2.59,2.12a9,9,0,0,0,3.18-1.53,6.85,6.85,0,0,0,2.71-2.24c-.16,0-.23-.17-.47-.12A19.33,19.33,0,0,1,88.22,76.53Z"/><path class="cls-1" d="M9,79.95c1-.18,1.61-1.08,2.36-1.66s1.78-1,2.24-1.88a1,1,0,0,0-.71-.12C11.67,77.61,9.55,78,9,79.95Z"/><path class="cls-1" d="M38.07,78.88a21.49,21.49,0,0,1,4.47,2.59c.59.41,2.59,1.94,3.18,1.89s1.32-.91,1.88-1.17a39.9,39.9,0,0,0,5.3-2.71c.09-13.48,0-26.73,0-40.39-.8-1-2.07-.87-3.18-1.53-.49-.29-.72-.85-1.18-1.18-.87-.62-3.09-2.08-3.77-1.53a24.75,24.75,0,0,1-3.53,2c-1,.53-3,1.33-3.3,2.23-.34,1.15,0,3.23,0,4.95C37.95,55.25,37.85,69,38.07,78.88ZM52,72.77a11.94,11.94,0,0,0-2.82,1.53c-.85.51-2.09.88-2.35,2a25.63,25.63,0,0,0,5.06-2.94,45.78,45.78,0,0,1,.11,5.3,12.54,12.54,0,0,1-4.47,2.47c1.3-1.13,3.32-1.55,4.12-3.18-1.82.34-3.52,2.44-5.3,2.82,0-.72.63-1.32,1.06-1.65,1.26-1,3.14-1.36,4.12-2.59-1.76-.22-3.77,2-5.18,2.47.9-2.28,4-2.33,5.42-4.12-.92-.35-3.13.58-4,1.06s0,1-4,1.53V72.06c4-1.25,5.18-2.14,6.69-3.65-.94-.34-1.32.63-2.19,1.18S46.81,70.92,46,71.11c.13-1.25,1.67-1.61,2.52-2.13a20.73,20.73,0,0,1,3-1.52c.14,0,.25,0,.27-.12A47.12,47.12,0,0,1,52,72.77Zm0-6c-2.28.47-4.18,1.94-5.65,2.83.22-2.14,3.12-2,4.35-3.3.37-.15.9-.13,1.06-.47-.82-.85-2,.29-2.83.7s-1.92,1-2.59,1.29c0-1.22,1.42-1.46,2.23-1.88s1.79-1.06,2.6-1.53c0-.69.64-.69.59-1.41-1.3,0-2.08,1.53-3.42,1.88-.26,0-.25.3-.23.59a6.59,6.59,0,0,0-1.65.83c-.26-.09,0-.67-.11-.94a24.69,24.69,0,0,1,2.59-2.23c.9-.61,2.29-.9,2.59-2.12a7.36,7.36,0,0,0-2.71,1.41,16.67,16.67,0,0,0-2.35,1.88,38.69,38.69,0,0,1-.11-4.83c2-1.11,3.67-2.53,5.53-3.76C52.12,59.14,51.88,63.11,52,66.76Zm0-13.42c-1.24.28-2,1.27-2.94,2s-2.18,1.21-2.47,2.47c.64.3.78-.5,1.17-.83a14.33,14.33,0,0,1,4-2.94V55.1c-2,.86-4,2.64-6,3.65V56.16a21.08,21.08,0,0,0,5-3.53c-.86-.41-1.54.57-2.21,1.06a14,14,0,0,1-2.29,1.53c.13-1.3,1.56-1.82,2.5-2.35a27.2,27.2,0,0,0,3-1.77C52.23,51.39,51.82,52.66,52,53.33Zm0-2.94c-2.1.84-3.68,2.2-5.65,3.18.2-1.28,1.6-1.76,2.47-2.35a11.49,11.49,0,0,0,2.71-2.12c-1-.48-1.8.74-2.59,1.29a21.09,21.09,0,0,1-2.59,1.53,6.28,6.28,0,0,1,2.23-2.12,7.55,7.55,0,0,0,2.36-1.88c-1.54-.35-3.16,2.3-4.59,2.59.22-1.36,1.75-1.72,2.71-2.36a12,12,0,0,0,2.83-2.23c-.93-.27-1.94.69-2.83,1.29a8.88,8.88,0,0,1-2.71,1.65c.12-.63.86-.85,1.29-1.18l4.12-3.18c-1-.42-2.11.67-2.95,1.29a11.68,11.68,0,0,1-2.59,1.88c0-1.18,1.37-1.69,2.24-2.35s2-1.24,2.47-2.24c-1.91.09-3.08,2.58-4.83,2.83-.05-.59,0-.39.48-.36.71-.6,1.5-1.24,2.35-1.88s2.16-1,1.89-2.12a26.88,26.88,0,0,0-4.59,3.53c.78-2.28,3.8-3.35,5.65-4.94C52.12,43.33,51.88,47,52,50.39Zm-6.7-14.72c2.24,1,3.54,2.89,6.12,3.53-1.75,1.54-4.11,2.49-5.53,4.36a44,44,0,0,0-6.36-4.48C41.1,37.65,43.53,37,45.25,35.67ZM39.78,40s1.61,1.19,3,2.12c1,.7,2.36,1.61,2.61,2.47.31,1.11,0,3.19,0,4.6.25,10.47-.25,22.44-.05,32.62-.44.05-.52-.51-1-.83-1.5-1-4.53-2-4.53-3.06Z"/></g></g></svg>