<svg xmlns="http://www.w3.org/2000/svg" viewBox="0 0 105 114.53"><defs><style>.cls-1{fill:#333945;}</style></defs><title>invoice_ico</title><g id="Layer_2" data-name="Layer 2"><g id="features"><path class="cls-1" d="M86.69,8.67c-.15,0-.18.12-.3.15-.11,2.33,3,2.05,4.47,2.68,2.33,1,4.72,3.3,6.7,4.62,2.15,1.42,4.63,2,5.36,4.46,0,1.41.57,2.84,1.79,2.53.94-2.15-1-4.83-2.38-6.1S98.74,14.79,97,13.43a30.85,30.85,0,0,0-9.82-4.76C87.08,8.42,86.95,8.7,86.69,8.67Z"/><path class="cls-1" d="M93.54,9.86c.52.48,1.74.25,2.68.3,1.08,1.18,2.84,1.57,4.32,2.68S103.15,17,105,15.52c-1.36-3.15-5.55-4.76-8.33-7C95.19,8.51,92.88,8.2,93.54,9.86Z"/><path class="cls-1" d="M27.44.08C25.73,1.26,23.32,2,21.34,3.65,19,5.57,16.7,8.11,14.79,10c-.16,1.64-2,2.23-1.79,3.72,2,1,2.14-1.39,2.83-2.38.25-.37.82-.58,1.19-1s.45-1,.75-1.34c.73-.87,2.1-1.69,3.12-2.68A20.21,20.21,0,0,1,24,3.65c1.61-1,3.63-1.28,4.61-3C28.44.29,27.83-.19,27.44.08Z"/><path class="cls-1" d="M29.08,3.2c-1.94.91-4,2.77-6.25,4.46a27.48,27.48,0,0,0-7.74,8.19c-.69.22-1.2.68-.89,1.49,2.34.64,3-2.22,4.17-3.57,2.41-2.79,5.33-4.67,8.18-7,.45-.37,4.34-2.52,4.32-3C30.82,2.89,29.74,2.89,29.08,3.2Z"/><path class="cls-1" d="M87.65,107.28c-.87.21-1.62.66-2.22.78-.85.17-2.33-.37-2.57,1.06.68,1.06,2.21.52,3.37.21,3.1-.83,7.15-1.11,9.83-4.81a2.27,2.27,0,0,0-.64-.82c-1.49.33-2.58,1.85-3.71,2.5A14,14,0,0,1,87.65,107.28Z"/><path class="cls-1" d="M84.4,114.51c3.47-.06,9-.57,12.08-2.4,1-.58,2.09-1.19,2.11-2.39,0-.39-.24-.16-.46-.59a18.74,18.74,0,0,1-9.77,3.44c-2.33.18-5,.62-6.81.2-.78-.18-1.54-1.24-2.3-.29C79.79,114.79,82.32,114.54,84.4,114.51Z"/><path class="cls-1" d="M13.91,99.71c0-1-3.76-1.72-5.06-2.23A20.52,20.52,0,0,1,4.24,94.8a28.88,28.88,0,0,0-2.68-4c-.29-.28-.27.09-.75,0C.45,92.47,2.16,94.91,3.2,96c2,2.09,5.43,3.24,8.48,4C12.27,100.71,14,100.93,13.91,99.71Z"/><path class="cls-1" d="M2.9,98.81C2,98,1.82,97,.81,96.73c0-.09,0-.18-.15-.15s-.24.16-.45.15c-.84,1,.92,2.6,1.64,3.27a21.47,21.47,0,0,0,5.21,3.13c1,.38,5,1.54,5.06.3s-3.79-1.68-4.76-2.08A17.46,17.46,0,0,1,2.9,98.81Z"/><path class="cls-1" d="M83.59,27.33a23.42,23.42,0,0,0-2.16,9.83,5.62,5.62,0,0,0,3.37-1.81c1.64-1.88,2.06-4.54,2-7,0-.46,0-.92-.09-1.38A5.69,5.69,0,0,0,83.59,27.33Z"/><path class="cls-1" d="M19.2,71.47l-.28,0c-3.27.49-5.14,3.7-5.24,6.47a4.84,4.84,0,0,0,3.81,5.25C23,84.42,69.77,91.92,70.25,92h0a3.72,3.72,0,0,0,.82.1c4.64,0,7.94-8.66,9.07-23.74.33-4.42.48-9.33.63-14.09.16-5.23.33-10.53.73-15.06l6.86,1.21h.08a.46.46,0,0,0,.21-.05c3.4-1.76,5.51-5.37,5-8.59-.27-1.8-1.61-5-7.5-6l-47-8.28a5.49,5.49,0,0,0-5.07,1.95c-3.68,3.89-5.31,12.29-5,18.22.39,6.81-3.38,24.38-7.29,34.07C20.55,71.56,19.64,71.47,19.2,71.47ZM30,37.59c-.33-5.81,1.35-14,4.72-17.53A4.6,4.6,0,0,1,39,18.38l45.39,8c-3.74,2.79-4.1,14.52-4.51,27.85-.15,4.75-.3,9.65-.63,14-1.07,14.33-4.12,22.89-8.15,22.89a2.83,2.83,0,0,1-.59-.07c-.53-.32-4.12-2.59-4.55-5-.47-2.65,1.62-6.4,1.64-6.43a.46.46,0,0,0-.32-.68C65.7,78.71,34,73.3,22.76,71.83,26.73,61.94,30.41,44.6,30,37.59Zm58.36,1.88-6.78-1.19c.66-6.62,1.89-11.41,4.49-11.59,3.91.7,6.28,2.56,6.69,5.22S91.36,37.87,88.38,39.47ZM65,86.24c.32,1.82,2,3.47,3.36,4.52-9.05-1.46-45.87-7.39-50.7-8.46A3.92,3.92,0,0,1,14.6,78c.08-2.4,1.68-5.18,4.46-5.59h.14c3.72,0,41.91,6.47,47.28,7.38C65.87,81,64.62,83.9,65,86.24Z"/><path class="cls-1" d="M56.19,85.16a2.26,2.26,0,0,0-2.06,1.3c-.1.24.2.55.4.31a3.69,3.69,0,0,1,1.73-1.06A.28.28,0,0,0,56.19,85.16Z"/><path class="cls-1" d="M61.62,83.54c-2.11.5-4,2.22-5.59,3.59-.19.16.06.49.27.34a44.05,44.05,0,0,1,5.56-3.38C62.17,83.93,61.95,83.46,61.62,83.54Z"/><path class="cls-1" d="M62.25,85.89c-.87.57-1.67,1.26-2.5,1.88-.23.17,0,.55.23.39a10.39,10.39,0,0,0,2.61-1.84C62.78,86.1,62.53,85.71,62.25,85.89Z"/><path class="cls-1" d="M62.75,87.79a6.27,6.27,0,0,0-1.22.92c-.24.23.11.57.36.36s.76-.62,1.12-1C63.19,88,63,87.67,62.75,87.79Z"/><path class="cls-1" d="M86.54,28.67a2.59,2.59,0,0,0-1.35.48c-.26.21-.13.5.15.57a.15.15,0,0,0,.18-.22l0,0,.4-.13a3.13,3.13,0,0,0,.67-.3C86.8,29,86.75,28.65,86.54,28.67Z"/><path class="cls-1" d="M88.69,28.86a15.86,15.86,0,0,0-4.87,3.74c-.21.25.12.59.36.36A16.17,16.17,0,0,1,86.63,31,13.71,13.71,0,0,0,89,29.31.29.29,0,0,0,88.69,28.86Z"/><path class="cls-1" d="M88.48,31.42a5.92,5.92,0,0,0-1.22.93c-.27.25.12.63.4.4s.77-.61,1.12-.95C89,31.61,88.72,31.29,88.48,31.42Z"/><path class="cls-1" d="M72.61,82.23a13.94,13.94,0,0,0-1.61.91.26.26,0,0,0,.26.45,8.72,8.72,0,0,0,1.66-1C73.17,82.43,72.85,82.13,72.61,82.23Z"/><path class="cls-1" d="M73.76,83.84c-1.69.92-3.33,1.91-5,2.82-.2.11,0,.4.18.3,1.73-.79,3.71-1.45,5.15-2.73C74.29,84,74,83.71,73.76,83.84Z"/><path class="cls-1" d="M71.92,87.29a5.74,5.74,0,0,1-.71.43c-.29.14-.08.66.22.53a1.84,1.84,0,0,0,.79-.56C72.4,87.48,72.18,87.11,71.92,87.29Z"/><path class="cls-1" d="M72.71,37.5a29.21,29.21,0,0,0-8.24-3.34c-2.57-.69-5.28.28-7.83.58S52,33.22,49.78,32.41s-4.54.42-6.31,1.63c-.12.08,0,.32.11.26a31.5,31.5,0,0,1,3.36-1.36c1.72-.5,3.34.36,4.8,1.16a9.38,9.38,0,0,0,4.91,1.51c2.6,0,4.94-1,7.58-.56,2.81.52,5.54,2.13,8.18,3.17C72.84,38.39,73.06,37.74,72.71,37.5Z"/><path class="cls-1" d="M70.17,46.49c-5.7-3.77-12.93,0-19-1.4-5.29-1.24-10.47-5.23-15.53-1.17-.15.12,0,.38.21.27,5.76-3.9,11.07,1.12,16.88,2,2.54.4,5.35-.29,7.9-.42a23.73,23.73,0,0,1,9.3,1.36C70.29,47.31,70.5,46.71,70.17,46.49Z"/><path class="cls-1" d="M68.56,54.54c-5.7-3.77-12.93,0-19-1.4C44.23,51.9,39,47.91,34,52c-.15.12,0,.38.21.27,5.76-3.9,11.07,1.12,16.88,2,2.54.4,5.35-.29,7.9-.42a23.73,23.73,0,0,1,9.3,1.36C68.69,55.35,68.89,54.76,68.56,54.54Z"/><path class="cls-1" d="M66.95,62.59c-5.7-3.77-12.93,0-19-1.4C42.62,60,37.44,56,32.38,60c-.15.12,0,.38.21.27,5.76-3.9,11.07,1.12,16.88,2,2.54.4,5.35-.29,7.9-.42a23.73,23.73,0,0,1,9.3,1.36C67.08,63.4,67.28,62.81,66.95,62.59Z"/><path class="cls-1" d="M65.34,70.64c-5.7-3.77-12.93,0-19-1.4C41,68,35.83,64,30.77,68.07c-.15.12,0,.38.21.27,5.76-3.9,11.07,1.12,16.88,2,2.54.4,5.35-.29,7.9-.42a23.73,23.73,0,0,1,9.3,1.36C65.47,71.45,65.67,70.86,65.34,70.64Z"/></g></g></svg>