<svg xmlns="http://www.w3.org/2000/svg" viewBox="0 0 106 98.93"><defs><style>.cls-1{fill:#333945;}</style></defs><title>mplaces_ico</title><g id="Layer_2" data-name="Layer 2"><g id="features"><path class="cls-1" d="M52.08,5c-11.22-.54-22.85,5.45-31.23,12.23-9.29,7.51-13,20-13.09,31.32-.18,22.88,17.81,42,41,45,22.38,2.94,40.89-9.82,47.92-29.93,6.62-18.95,2.2-42.19-15.75-53.72C72.13,4.26,60.62,2.7,50.34,4.09c-9.94,1.35-24,5.38-29.54,14.28-.41.66.6,1.46,1.13.84C29.2,10.73,43.86,6.94,54.76,6.28c12.37-.75,24.45,3.51,32.68,12.56,15.95,17.52,10.82,48.78-6.32,63.67C60.88,100.09,27.71,90.07,15.6,68.69,8.27,55.75,8.93,39,16.53,26.37,23.35,15,38.93,7.42,52.08,6a.51.51,0,0,0,0-1Z"/><path class="cls-1" d="M54.36,14.2C46,11.71,37.33,21,38,28.7c.78,8.68,13.32,10.11,20,8.43,7.9-2,12.36-9.71,8.74-17C63,12.65,51,11.57,45.06,16.7c-.21.18.07.53.3.38,6-4,15-2.74,19.45,2.94,5,6.43-.77,13.57-7.25,15.57-6,1.86-15.27.3-17.63-6.12-3-8,7.6-14.44,14.33-14.67a.31.31,0,0,0,.08-.6Z"/><path class="cls-1" d="M25.86,14.81c-6.62,6.2-3.68,16.88.61,23.51,5.85,9,18.43,11,28.53,10.46,9.57-.48,19.18-3.67,25.1-11.34,5.48-7.1,8.24-17.67,2.86-25.6-.34-.49-1.26-.19-1,.42,2.92,8,3.15,14.81-1.55,22.24-5.21,8.23-14.31,11.66-23.79,12.66s-19.16-.61-26.41-6.75-8.45-17.68-3.83-25.25c.18-.29-.23-.59-.48-.36Z"/><path class="cls-1" d="M9.78,43.7C15.26,62.37,38.28,68.58,56,68.4s39.93-12.87,40.63-32a.48.48,0,0,0-.94-.12c-2.5,8.89-6.36,15.83-13.76,21.82-7.82,6.32-17.76,8.69-27.77,8.8-18,.19-36-7-43.56-23.57-.21-.45-.95-.13-.81.33Z"/><path class="cls-1" d="M16,72.65c8.58,10.53,28.21,13,41.1,12.89a54.25,54.25,0,0,0,20.18-4.27c5.23-2.2,14.22-6.19,16.24-11.86.22-.61-.64-1-1.09-.61A52.55,52.55,0,0,1,57.07,83.92c-13.77.63-30-3-40.6-11.75a.35.35,0,0,0-.5.48Z"/><path class="cls-1" d="M53.45,21.92C52,21.91,51.2,23.82,51.2,25c0,1.83,1.94,2.45,3.52,2a2.43,2.43,0,0,0,1.47-3.51c-.6-1.3-2.63-2.63-4-1.52a.56.56,0,0,0,.12.9c.85.35,1.72.18,2.29,1,.38.56.41,1.36-.33,1.61s-1.54,0-1.53-.82.71-1.4,1.14-2.06a.51.51,0,0,0-.45-.76Z"/><path class="cls-1" d="M52.06,25.9c-10,6.91-15.59,21.45-18.7,32.51a87.59,87.59,0,0,0-3,16.93C30,79.21,29.74,85.28,33,88.2a.65.65,0,0,0,1-.76C29.19,78.89,32.61,66.88,35.12,58c3.22-11.41,8.93-22.82,17.66-31.21.46-.45-.16-1.28-.71-.9Z"/><path class="cls-1" d="M53.76,27.05c-3.18,10.86-4.26,22.78-4,34,.23,10.31,2.06,22.86,8.41,31.45.35.47,1.27.2,1-.42C57.32,87.29,55,82.8,53.67,77.8a75.65,75.65,0,0,1-2.36-16.72c-.52-11.47,1.81-22.48,3.47-33.75.09-.64-.83-.93-1-.27Z"/><path class="cls-1" d="M55.4,27c5.06,8,11.11,15.42,15.93,23.64a82.26,82.26,0,0,1,11,31.07c.15,1.13,2,1.18,1.88,0-1.8-20-14.09-40.76-27.89-55.42a.59.59,0,0,0-.94.7Z"/><path class="cls-1" d="M55.84,25.08c3.76.59,7.56.61,11.32,1.35,4.49.88,8.69,3.18,12.71,5.24,7.55,3.87,13.48,8.7,17.54,16a.77.77,0,0,0,1.41-.57c-1.88-7.53-10.26-12.66-16.74-16.24-8.12-4.49-16.74-7.72-26.23-6.31a.28.28,0,0,0,0,.54Z"/><path class="cls-1" d="M56.46,23.64c3.4-4.91,7.33-7.08,13.3-8.53a30.44,30.44,0,0,1,8-.75c2.14.06,4.29,1.32,6.35,1.09a.44.44,0,0,0,.38-.65c-2-4.49-13-2.1-16.45-1.22-4.23,1.06-12.62,4.58-12.17,9.9a.32.32,0,0,0,.59.15Z"/><path class="cls-1" d="M52.68,5.22c-1.63,3-1.84,7-1.94,10.37,0,1.61-.26,6.94,2.16,7.23a.39.39,0,0,0,.39-.29c.13-.83-.33-1.3-.6-2.11a15.38,15.38,0,0,1-.51-4.83,35.14,35.14,0,0,1,1.55-9.94.58.58,0,0,0-1-.43Z"/><path class="cls-1" d="M29.09,13.72c9.19,1,15.76,5.23,22.64,10.91A.87.87,0,0,0,53,23.41C47.92,17.53,37.2,11.3,29,13.17c-.34.08-.23.52.08.55Z"/><path class="cls-1" d="M51.54,25C36.19,23.11,9.91,35.91,9,52.58c0,.71,1,.8,1.24.16C16,34.9,33.94,28.39,51.54,26.18a.58.58,0,0,0,0-1.16Z"/><path class="cls-1" d="M31.4,29.16c-3.38,3.18.47,6.29,2.41,9.23,3.11,4.73-5,10.26-2.34,15.7a38.51,38.51,0,0,0,2.28,4c2.31,3.62-2.5,6.32-4.51,8.11a9.45,9.45,0,0,0-2.77,6.26c-.08,3,.83,5.42,1.93,8.17.62,1.56.51,4.17,2.1,5.1a1,1,0,0,0,1.39-1.34c-.86-1.39-1.08-4-1.72-5.65-1.66-4.21-2-8.34,1.78-11.72,2.5-2.21,6.43-5.13,4.44-9S32.2,51.6,34.32,47.39a15.41,15.41,0,0,0,1.94-4.85,8.2,8.2,0,0,0-.69-5.15C34.4,35,30.4,32.9,32.35,29.86c.37-.57-.46-1.16-.95-.71Z"/><path class="cls-1" d="M37.85,27.64a.19.19,0,1,0,0-.37.19.19,0,1,0,0,.37Z"/><path class="cls-1" d="M31.24,30c3.43-10.77,8.67-3,10.16-.5A10.52,10.52,0,0,0,43,31.62a11.74,11.74,0,0,0,5,3c2.24.69,4.89.38,7.18.28,2.51-.11,4.66.63,7.07.82a.56.56,0,0,0,.5-.84c-1.15-2.26-3.84-2.21-6.21-2.25-2.69,0-5.23.3-7.92-.16-3.39-.58-4.74-3.6-6.48-6-3.69-5-10.87-2.11-11.88,3.24a.53.53,0,0,0,1,.27Z"/><path class="cls-1" d="M59.47,34.43c6.56.13,8,5.82,6.31,11-1,3-2.33,4-5.65,4.42-3,.38-3.89,1.92-5.13,4.44s-2,4-4.85,5.16a47.52,47.52,0,0,0-4.5,1.83,4.76,4.76,0,0,0-2.51,6,.47.47,0,0,0,.84.11c1.86-3.26,3.14-4.63,6.73-5.94,1.63-.59,3.74-1.42,4.72-2.9,1.79-2.72,1.62-6.31,5.76-6.79,1.43-.17,3.55-.53,4.7-1.52,2.13-1.82,4.34-8.12,3.45-10.68C68,35.5,64,31.35,59.3,33.19a.63.63,0,0,0,.17,1.24Z"/><path class="cls-1" d="M44.1,63.79c-2.17,6.58,6.45,8.05,10.71,10.33,4.05,2.16-3.53,4.78-4.93,5.4s-3.5,1.48-4.21,2.94c-1.47,3-2.59,7.34.24,9.93A1,1,0,0,0,47.31,91c-3.38-4.23.86-8.62,4.6-10.1a27.9,27.9,0,0,0,4.51-2.06c1.42-.88,2.36-2.95,1.49-4.48C54.87,69,45.5,71.75,45.31,64a.62.62,0,0,0-1.21-.16Z"/><path class="cls-1" d="M88.76,18.79a.06.06,0,1,0,0-.12.06.06,0,1,0,0,.12Z"/><path class="cls-1" d="M88.67,18.7c-.33,2.09-.2,1.65.12,4.24.42,3.44-1.68,6.3-3.78,8.82-3.43,4.12-4.46,9.58-7.69,13.86s-1.21,7.65,4.22,6.51a.63.63,0,0,0,0-1.22c-.79-.12-4.24-.33-3.88-1.92s2.27-3.55,3.16-4.92c2.65-4.05,4-8.44,6.93-12.4,2.8-3.79,4.66-9.08,1.07-13a.09.09,0,0,0-.15,0Z"/><path class="cls-1" d="M76.85,50.6c2,2.45,5.64,1.57,8.5,1.4,3.06-.18,5.12,2.45,5.24,5.19.07,1.68-1.65,2.94-2.9,3.79-2.67,1.81-9.06,4-8.16,8.12.11.5.81.42,1,0,2-5.48,9.67-5.29,11.68-10.67.94-2.5-.95-5.57-2.82-7.12a6.41,6.41,0,0,0-4-1.07c-2.88-.07-5.37.4-8.3,0a.2.2,0,0,0-.2.33Z"/><path class="cls-1" d="M81.81,64.91c-1.9,1.67-5.21,4.59-3.32,7.25a7.19,7.19,0,0,0,3.34,2.4c2.84,1,1.21,3.69,1.59,5.91a.43.43,0,0,0,.71.18c1.76-1.79,2.34-5.2.39-7.11-.72-.71-2-.86-2.89-1.34-3.29-1.81-.09-4.46,1-6.66a.53.53,0,0,0-.85-.63Z"/><path class="cls-1" d="M36.8,24.29A10.59,10.59,0,0,0,33.48,27a24.76,24.76,0,0,0-2.95,3.5.7.7,0,0,0,1,.93c1.17-.59,2-2,2.69-3A18.52,18.52,0,0,1,37.36,25c.41-.35-.11-.91-.56-.7Z"/><path class="cls-1" d="M39.75,25.75a19.87,19.87,0,0,0-4.69,4.59c-1.14,1.44-3.09,3.66-3,5.57a.59.59,0,0,0,1,.39C34.31,35.11,35,33,36,31.6c1.31-1.88,2.91-3.56,4.18-5.46.16-.24-.16-.55-.4-.39Z"/><path class="cls-1" d="M42.18,28.6a20.22,20.22,0,0,0-4.68,5c-1.21,1.64-3.23,3.89-3.26,6a.47.47,0,0,0,.7.39c1.62-1.1,2.45-3.38,3.49-5,1.34-2,3-3.87,4.26-5.94a.37.37,0,0,0-.51-.49Z"/><path class="cls-1" d="M45.93,32.17a34,34,0,0,0-7.72,7.76c-2.13,2.84-5.25,6.94-5.54,10.53,0,.33.43.48.66.26,2.19-2.15,3.37-5.57,5.05-8.13A42.85,42.85,0,0,1,46.57,33c.45-.38-.15-1.14-.64-.8Z"/><path class="cls-1" d="M52.12,33.15c-1.79.8-2.65,2.39-3.74,3.94-2,2.79-4.33,5.37-6.48,8-2.82,3.5-7.34,7.28-8.17,11.8a.58.58,0,0,0,1.05.43c5.57-8.15,12.33-15.46,18-23.6.28-.41-.25-.78-.63-.61Z"/><path class="cls-1" d="M62.18,33.43c-5.83,3.11-10,8.43-14.29,13.25S38.24,55.33,35.1,61a.8.8,0,0,0,1.4.79c3.56-5.29,8.44-9.18,12.94-13.67s9-9.23,13.48-13.82a.59.59,0,0,0-.73-.92Z"/><path class="cls-1" d="M66.31,35.94C63.19,37.18,61.25,40,59,42.33c-3.71,3.86-7.64,7.38-11.17,11.43C41.57,61,33.48,67.37,28.74,75.68a.88.88,0,0,0,1.53.86C35,68.4,42.78,61.93,48.94,54.83c5.55-6.4,12.17-11.78,17.89-18,.32-.35,0-1.08-.52-.87Z"/><path class="cls-1" d="M66.38,41.12C59.43,46.27,54,54,48.2,60.33c-.72.78.47,1.95,1.2,1.16,3-3.22,5.91-6.47,8.84-9.72S64.55,45.36,67,41.68c.21-.33-.23-.82-.58-.56Z"/><path class="cls-1" d="M43.58,65.54c-2.67,1-4.94,3.9-6.86,5.92-2.62,2.75-4.53,6.06-7.34,8.65-.88.81.45,2.08,1.33,1.28,2.58-2.38,4.4-5.33,6.71-7.93,2-2.27,5.6-4.37,6.8-7.11.16-.38-.11-1-.64-.8Z"/><path class="cls-1" d="M46.34,70.21a31.22,31.22,0,0,0-8.14,7.57c-2.33,2.83-5.09,5.3-7.1,8.38-.59.9.87,1.71,1.46.83,2-2.93,4.64-5.28,6.86-8s4.89-5.52,7.24-8.34a.26.26,0,0,0-.33-.41Z"/><path class="cls-1" d="M50.31,71.63a65.57,65.57,0,0,0-7.9,7.92c-2.45,2.88-5.22,5.68-7.26,8.84-.37.58.44,1.1.93.69,2.85-2.41,5.11-5.58,7.51-8.4s4.74-5.82,7-8.84c.13-.17-.14-.33-.28-.21Z"/><path class="cls-1" d="M54.44,74a19.23,19.23,0,0,0-3.94,3.74c-1.14,1.31-2.84,2.84-3.18,4.57a.26.26,0,0,0,.38.28c1.58-.84,2.58-2.65,3.71-4a25.35,25.35,0,0,0,3.32-4.33c.09-.18-.1-.41-.3-.29Z"/><path class="cls-1" d="M44.51,86.25c-.36.64-.68,1.3-1.09,1.92a8.81,8.81,0,0,0-1.33,2.08c-.17.55.56.92,1,.54a9.14,9.14,0,0,0,1.42-2,3.82,3.82,0,0,0,.74-2.33.38.38,0,0,0-.69-.18Z"/><path class="cls-1" d="M78.39,45.7a33,33,0,0,0,.86,5.13.79.79,0,0,0,.56.54l.2,0a.48.48,0,0,0,.45-.12c.67-.69.14-1.58,0-2.39a12.8,12.8,0,0,0-1.07-3.46c-.23-.42-1-.24-1,.25Z"/><path class="cls-1" d="M81.42,40.54a13.76,13.76,0,0,0,.93,5.76c.53,1.7.84,4,1.78,5.5a.3.3,0,0,0,.51,0c.73-1.39.09-3.08-.34-4.51a43.12,43.12,0,0,1-1.88-6.75.5.5,0,0,0-1,0Z"/><path class="cls-1" d="M83.94,35.12c.15,5.74,2.11,13.34,5.83,17.94a.32.32,0,0,0,.55-.22c-.36-2.88-1.82-5.58-2.8-8.31A55.17,55.17,0,0,1,85.07,35c-.1-.63-1.15-.47-1.13.15Z"/><path class="cls-1" d="M87,31.85c2.29,8.9,5.75,17.55,8.81,26.23a.31.31,0,0,0,.59-.16c-1.6-9.06-5.79-17.52-8.16-26.4a.64.64,0,0,0-1.24.33Z"/><path class="cls-1" d="M88.85,27.61c2.42,7.41,6.44,14.14,9.67,21.21.2.44.87.12.77-.32-.72-3.12-2.22-5.77-3.63-8.64-2-4.1-3.83-8.37-5.63-12.56-.3-.69-1.43-.44-1.19.32Z"/><path class="cls-1" d="M89.51,23.61c.38,2.31,2,4.08,3.38,5.92,1.67,2.2,2.37,4.94,4.33,6.94a.23.23,0,0,0,.38-.22,23.31,23.31,0,0,0-3.19-6.76c-1.35-2-3.31-3.74-3.94-6.14-.16-.62-1.06-.34-1,.26Z"/><path class="cls-1" d="M82.9,65.6c-.52,1.51,0,3.27.26,4.79s.42,4.15,1.75,5.22a.22.22,0,0,0,.36-.09c.57-1.42-.4-3.34-.73-4.78-.39-1.69-.41-3.62-1.17-5.19-.1-.21-.41-.13-.47.06Z"/><path class="cls-1" d="M85.84,63.17a12.87,12.87,0,0,0,.83,6c.57,1.85,1,4.29,2.28,5.8a.33.33,0,0,0,.54-.14c.29-1.76-.72-3.6-1.27-5.27a48.53,48.53,0,0,1-1.46-6.44.48.48,0,0,0-.92,0Z"/><path class="cls-1" d="M88.92,60.78a17.83,17.83,0,0,0,1.26,4.84c.62,1.81,1.16,3.67,1.93,5.43.34.77,1.44.18,1.31-.54a42.8,42.8,0,0,0-1.61-5.33,31,31,0,0,0-1.65-4.73.68.68,0,0,0-1.24.33Z"/><path class="cls-1" d="M91.1,56.15a12.28,12.28,0,0,0,1,4,39.1,39.1,0,0,0,1.54,4c.32.66,1.39.19,1.2-.49-.37-1.3-.91-2.57-1.37-3.85A14.71,14.71,0,0,0,91.84,56a.4.4,0,0,0-.74.19Z"/><path class="cls-1" d="M27.57,3.65C15.35,6.94,5,17.08,3.26,29.47c-.05.38.5.71.7.29C9.21,18.76,15.4,9,27.87,4.71a.55.55,0,0,0-.3-1.05Z"/><path class="cls-1" d="M1.22,39.87c-1.81,3-1.63,8.73.69,11.47.3.35.83,0,.85-.34.12-1.69-.55-3.41-.77-5.08a17.86,17.86,0,0,1,.28-5.61.58.58,0,0,0-1.05-.43Z"/><path class="cls-1" d="M22.61,91.18c3.59,4.77,10.19,8.39,16.45,7a.42.42,0,0,0,0-.81c-2.47-.63-5-.85-7.44-1.58a19.14,19.14,0,0,1-8.18-5.25c-.4-.42-1.18.14-.83.62Z"/><path class="cls-1" d="M98.12,22.45c5.67,8.67,6.88,17.94,6.24,28,0,.31.48.37.55.07,2.39-9.7,1-21-5.88-28.77-.43-.48-1.25.14-.91.68Z"/><path class="cls-1" d="M102.66,61.94c-2.24,5.34-3.7,10.76-7,15.62-.2.29.24.59.48.36,4.48-4.12,6.74-9.86,7.78-15.65a.63.63,0,0,0-1.21-.32Z"/><path class="cls-1" d="M68.23.89c4.43.14,7.52,2.66,11.3,4.41a.38.38,0,0,0,.53-.51C77.95,1,72.32-.33,68.23.07a.41.41,0,0,0,0,.82Z"/><path class="cls-1" d="M64.4,98.92c2.16.09,6.06-.09,7.24-2.21a.45.45,0,0,0-.4-.67,15.77,15.77,0,0,0-3,1,16.6,16.6,0,0,1-3.86.67.58.58,0,1,0,0,1.17Z"/></g></g></svg>