<svg xmlns="http://www.w3.org/2000/svg" viewBox="0 0 149.77 143.42"><defs><style>.cls-1{fill:#95165b;}</style></defs><title>responce_ico</title><g id="Layer_2" data-name="Layer 2"><g id="features"><path class="cls-1" d="M140.89,99.51c0-1.15,0-2.29,0-3.44,0-.63,0-1.26,0-1.88,0-.26,0-.51,0-.77a5,5,0,0,0,0-.65.67.67,0,0,0-.57-.49q-.07-.44-.15-.88a16.82,16.82,0,0,0-.42-1.81,10.89,10.89,0,0,0-.41-1.06c-.12-.28-.24-.56-.38-.83-.29-.58-.62-1.14-1-1.69s-.68-1-1-1.57l-1.06-1.59c-.34-.51-.64-1-.95-1.57a.81.81,0,0,0-.7-.4.78.78,0,0,0-.73.5h-.24a1.53,1.53,0,0,0-.36,0h-5.38l-1.76,0h-2l-1.55,0H111.51l-8.68,0-17.48,0-8.78,0-8.66,0-10.64,0,.71-.31a11.19,11.19,0,0,1,1.69-.52c.63-.14,1.27-.24,1.9-.34l.92-.16c.3-.05.6-.13.9-.2s.52-.13.77-.21l1.3-.4a.85.85,0,0,0,.27-1.52l.18-.61c.13-.42.26-.84.43-1.25a4.07,4.07,0,0,1,.2-.4,4.25,4.25,0,0,1,.25-.38.47.47,0,0,0,0-.37.48.48,0,0,0-.46-.35l-.13,0a.51.51,0,0,0-.29.22l0,.05a.57.57,0,0,0-.07-.23.62.62,0,0,0-.34-.26l-.55-.2-.48-.14c-.3-.08-.6-.17-.9-.24-.64-.15-1.29-.27-1.94-.4a17.56,17.56,0,0,1-1.91-.47c-.64-.2-1.29-.4-1.91-.66l-.08,0a.39.39,0,0,0-.36-.23l-.13,0-1.6-.73-1.83-.84a.7.7,0,0,0-.3-.08l-.14,0-.14.06-.17,0a.68.68,0,0,0-.64.48c-.1.31-.15.63-.22.94s-.14.62-.2.94c-.12.61-.23,1.23-.32,1.85s-.19,1.37-.27,2.05-.15,1.25-.22,1.88-.16,1.43-.25,2.15c0,.31-.09.61-.14.92-3.23,0-6.46,0-9.69,0a.51.51,0,0,0-.3.1l-.37-.08a.6.6,0,0,0-.18-.18.55.55,0,0,0-.28-.07l-.14,0a.55.55,0,0,0-.33.25l0,.09h0l-.37-.06H39a.34.34,0,0,0-.18,0,.37.37,0,0,0-.13.5.35.35,0,0,0,.22.17l.11,0c-.09.26-.17.51-.25.77s-.19.61-.26.92c-.16.62-.3,1.24-.43,1.86s-.24,1.26-.33,1.89-.15,1.16-.22,1.75a.56.56,0,0,0,0,.2.55.55,0,0,0,0,.08c-.06.57-.11,1.14-.15,1.72,0,.23,0,.46,0,.69l-.88,0h0l-.86,0h-.08a.48.48,0,0,0-.14-.33.5.5,0,0,0-.7,0,.53.53,0,0,0-.14.35c-.07.6-.13,1.21-.18,1.81,0,.27,0,.55-.07.82s0,.34,0,.51,0,.25,0,.37a.51.51,0,0,0-.18.37.49.49,0,0,0,.14.34.45.45,0,0,0,.13.09.48.48,0,0,0,.86.11l.89.07,1.16.13.61.09c0,.37,0,.74,0,1.12,0,.82,0,1.63-.05,2.45s0,1.77,0,2.66,0,1.75,0,2.63c0,3.44.06,6.88.07,10.31,0,2.48,0,5,0,7.45a2.55,2.55,0,0,0-.43-.08h-.09a.73.73,0,0,0-.64.34.74.74,0,0,0-.08.52,1.36,1.36,0,0,0,.18.4.54.54,0,0,0,.73.19.53.53,0,0,0,.22-.26l.06,0a14.76,14.76,0,0,1,2,1.15l1,.65.42.27.27.16a4,4,0,0,0,.59.28.52.52,0,0,0,.19,0l0,0a.87.87,0,0,0-.09.67.84.84,0,0,0,.4.52.94.94,0,0,0,.46.13h.65l1.44,0,3.83-.06c2.6,0,5.19-.14,7.79-.19l8.86-.19,9.19-.2,8.56-.17q0,2.08,0,4.17c0,1.64,0,3.27,0,4.91q0,1.23,0,2.46c0,.8,0,1.6,0,2.4v.63c0,.11,0,.22,0,.33s0,.15,0,.23a.89.89,0,0,0,.13.41A.3.3,0,0,0,84,143l0-.11c0-.14,0-.28,0-.42s0-.2,0-.3,0-.4,0-.6,0-.49,0-.74h0a.41.41,0,0,0,.06.18.41.41,0,0,0,.47.19l.07,0c0,.13,0,.26,0,.38a.46.46,0,0,0,.13.31.44.44,0,0,0,.42.11l.18-.07a.55.55,0,0,0,.18-.19.85.85,0,0,0,.11-.39c0-.11,0-.21,0-.32s0-.31,0-.47c0-.39.06-.78.08-1.16h0a.46.46,0,0,0,.27,0,.44.44,0,0,0,.31.13h.08c0,.25,0,.51,0,.76s0,.49,0,.73a3.45,3.45,0,0,0,.05.82.32.32,0,0,0,.31.23.32.32,0,0,0,.31-.23,6.63,6.63,0,0,0,.07-.7c0-.21,0-.42,0-.63,0-.4,0-.79,0-1.19,0-.84,0-1.67-.08-2.51s-.1-1.7-.16-2.54c0-.43-.07-.85-.11-1.28l-.11-1.25c-.08-.89-.2-1.77-.33-2.65q-.08-.55-.18-1.1l0,0,.17.11a.34.34,0,0,0,.46-.12.32.32,0,0,0,0-.29l4.77-.09c0,2.07,0,4.15-.06,6.22,0,1,0,2,0,2.93s0,2,0,3c0,.44,0,.88-.07,1.32q0,.32-.05.65l0,.29a1.11,1.11,0,0,0,0,.15,1.09,1.09,0,0,0,0,.19.51.51,0,0,0,.13.22.43.43,0,0,0,.32.13.45.45,0,0,0,.39-.22.6.6,0,0,0,.09-.24,1.88,1.88,0,0,0,0-.24q0-.18,0-.37c0-.24,0-.47,0-.71,0-.49,0-1,0-1.46,0-1,0-2,.07-3,.05-2.06.06-4.11.08-6.17,0-.92,0-1.84,0-2.76h.42l10-.18,11.58-.14,11.55-.16,6-.09,2.92,0,1.17,0c.34,0,.68,0,1,0h.11c.33,0,.67,0,1-.06h0l.21,0a.79.79,0,0,0,.35-.2l0,0h.08l.59-.08a.54.54,0,0,0,.24-.14l0-.06a.38.38,0,0,0,.31-.37v0a.4.4,0,0,0,.34-.4l0-.27a.69.69,0,0,0,.21-.5c0-4.21,0-8.41,0-12.62S140.88,103.69,140.89,99.51ZM35.15,95.7c0-.3,0-.61.06-.91l0-.18.8.1c0,.07,0,.14,0,.21s0,.29,0,.44,0,.28,0,.41Zm.91-1.77c0,.05,0,.1,0,.15l-.77-.1c0-.36.07-.71.11-1.07l.76,0C36.11,93.23,36.08,93.58,36.06,93.93Zm15-6.62c.24-1.28.49-2.56.74-3.83l.14-.7a.93.93,0,0,1-.12-.45,2.46,2.46,0,0,1,.06-.4c0-.1,0-.2.06-.3v0l.1-.38c0-.11.07-.23.1-.34a2.76,2.76,0,0,1,.11-.28l.07-.09q.08-.51.15-1c.18-1.27.33-2.55.48-3.83q.1-.86.21-1.73c.07-.46.15-.93.25-1.38s.17-.76.24-1.14L55,72a.46.46,0,0,0,0,.36c.2.63.4,1.27.62,1.9a17.64,17.64,0,0,0,.68,1.7A.47.47,0,0,0,57,76a.45.45,0,0,0,0-.36c-.42-1-.74-2-1.06-3.08L57,73,57,73v.18c0,.21,0,.42.06.63s.08.67.13,1a4.86,4.86,0,0,0,.19.8l.08.22c0,.12.1.23.15.35a.36.36,0,0,0,.62,0,.35.35,0,0,0,0-.28A6.05,6.05,0,0,1,58,74.66c-.06-.43-.1-.86-.13-1.29l.38.16a14.74,14.74,0,0,0,.61,2.25A.38.38,0,0,0,59,76a.36.36,0,0,0,.27,0,.35.35,0,0,0,.25-.44,11.4,11.4,0,0,1-.35-1.23c0-.17-.08-.34-.11-.51l.55.2c.08.34.16.67.24,1a.25.25,0,0,0,.48-.13l-.15-.69.61.18.24.69a.22.22,0,0,0,.27.15.22.22,0,0,0,.15-.27l-.14-.45.38.08,0,.18a6.19,6.19,0,0,0,.18.8.49.49,0,0,0,.9.12.52.52,0,0,0,0-.38c0-.13,0-.25-.06-.38v-.12l.26.05.11,0c0,.21.1.42.15.63a.17.17,0,0,0,.32-.09c0-.15-.07-.31-.11-.46l.09,0a.58.58,0,0,0,.49.28.57.57,0,0,0,.32-.1l.19,0a4.09,4.09,0,0,0,.76.06.56.56,0,0,0,.21,0,7.46,7.46,0,0,0-.29.71c-.09.25-.17.51-.25.77a6.17,6.17,0,0,0-.2.93l-1.24.38c-.32.1-.65.18-1,.25-.7.17-1.4.29-2.11.43s-1.35.29-2,.48c-.32.09-.64.21-1,.32a4.53,4.53,0,0,0-1.15.59l-.12.09,0,0a.54.54,0,0,0-.26.34l-.12.86H55.7a2.25,2.25,0,0,1-.05.91l0,.23h.06c-.08.52-.16,1-.25,1.56q-.28,1.61-.6,3.21l-.62,3.17c-.1.54-.22,1.07-.29,1.62s-.15,1.14-.23,1.7l-.09.71,0-.13c-.1.7-.22,1.4-.35,2.09q-.06.3-.12.59L52,97.26a17.57,17.57,0,0,1-1.9.16h-.83c.12-.82.24-1.65.39-2.47.23-1.34.48-2.68.72-4S50.82,88.52,51,87.31Zm-11.94,4.4c0-.55.09-1.1.14-1.66s.08-1.15.13-1.72.11-1.15.18-1.73l.05-.41c.08-.57.18-1.14.28-1.72l0,.25c.07.43.15.87.23,1.3s.18.87.28,1.31.19.82.28,1.23.18.86.27,1.29c.19.87.37,1.75.51,2.63l0,.25c0,.16,0,.32.05.48a.31.31,0,0,0-.17.08l0,0q-.1-.51-.21-1a.51.51,0,0,0-.5-.38l-.13,0a.52.52,0,0,0-.31.24l0,0,0,0V92a.43.43,0,1,0-.86,0v.11h-.26C39.09,92,39.1,91.85,39.11,91.71Zm-.94-2.92c0,.11,0,.21,0,.32h0Zm-.3,2.6c0-.38.07-.76.12-1.14h.07c0,.34-.06.68-.08,1s0,.58-.05.88h-.1C37.83,91.9,37.85,91.64,37.87,91.39Zm.94,4.37a.49.49,0,0,0-1,0,2,2,0,0,0,0,.23l-.14,0-1.23-.14c0-.29,0-.59,0-.88,0-.06,0-.12,0-.18l.84.1a.3.3,0,0,0,.22-.09.31.31,0,0,0,0-.44l-.06,0a.32.32,0,0,0-.16,0l-.81-.1c0-.17,0-.34,0-.51s0-.5.06-.75h0l.69,0c0,.15,0,.31,0,.46a.26.26,0,0,0,.51,0c0-.16,0-.32,0-.48h.12s0,0,0,.07a3.73,3.73,0,0,0,.09.71.49.49,0,0,0,.47.36.49.49,0,0,0,.25-.07.47.47,0,0,0,.23-.29c0-.2.06-.41.08-.61s0-.14,0-.21h.33q0,.82.06,1.64c0,.31,0,.63,0,.94s0,.57.07.85v0l-.68-.1A2,2,0,0,0,38.81,95.75Zm3.42,16.46c0,.49,0,1-.05,1.46s-.05.89-.07,1.34c0,1-.09,1.9-.13,2.85,0,.15,0,.3,0,.45l-.13,0-.11,0a.44.44,0,0,0-.3.53c.11.45.18.91.25,1.37.17,1.92.21,3.85.29,5.78l-.34-.24-.62-.41-1.15-.73-.58-.34-.38-.2a.56.56,0,0,0,0-.16c0-1.88,0-3.76,0-5.63s0-3.57,0-5.36,0-3.42,0-5.13,0-3.4,0-5.11c0-1.22,0-2.44-.06-3.67,0-.53,0-1.06,0-1.58,0-.1,0-.2,0-.29l.66.1.5.05h.54a.46.46,0,0,0,.39-.69.44.44,0,0,0-.27-.21l-.35-.05c0-.29,0-.57,0-.86l0-1q0-.86-.06-1.73.2.93.38,1.87c.11.58.24,1.16.41,1.72a.46.46,0,0,0,.56.32l.05,0c0,.55.08,1.11.1,1.66q0,1.17,0,2.33c0,.77,0,1.55,0,2.32,0,.38,0,.77,0,1.15s0,.72,0,1.08q0,1.18.11,2.35,0,.56.08,1.12c0,.36.07.71.1,1.07.07.73.13,1.45.18,2.18ZM47,126.79l-2.65,0H43.26l0-.88c0-.75.06-1.5.05-2.24,0-1.5-.05-3-.09-4.48,0-.77,0-1.54-.05-2.31s0-1.53-.08-2.29-.09-1.43-.13-2.14q0-.44-.05-.88c0-.41.05-.81.08-1.22s0-1,.06-1.43c0-.95,0-1.89,0-2.84s0-1.87-.05-2.8c0-.65,0-1.3-.05-2,0-.44,0-.88,0-1.32,0-1.19,0-2.38,0-3.57,0-.71,0-1.43,0-2.14q0-.51,0-1,0-.26,0-.52a1,1,0,0,0-.09-.52.56.56,0,0,0-.47-.27h0c0-.08,0-.16,0-.25q-.2-1.46-.43-2.91c-.08-.49-.17-1-.27-1.45s-.18-.9-.29-1.34c-.16-.69-.32-1.38-.48-2.07l-.06-.37-.18-1.05,1.1.16a.31.31,0,0,0,0,.16c0,.32.07.64.13,1s.11.56.16.84c.1.52.19,1,.29,1.55.05.27.11.54.16.81s.08.5.12.75c.08.54.17,1.07.26,1.6s.15.89.23,1.33.18,1,.27,1.44c.17.89.34,1.78.46,2.67.07.52.14,1,.2,1.55s.13,1.13.21,1.7.18,1.13.27,1.7.16,1.06.24,1.59l0,.31c.07.52.14,1,.16,1.57,0,.15,0,.3,0,.45s0,.17,0,.26c0,1,0,2-.06,2.94s0,1.89,0,2.84-.05,1.86-.09,2.79v0c-.06.74-.12,1.49-.18,2.23l-.28,3.38c-.09,1.06-.23,2.12-.24,3.18,0,.19,0,.37,0,.56a3.09,3.09,0,0,0,.11.64s0,0,0,.05a2.92,2.92,0,0,0,0,.45,1.12,1.12,0,0,0,.3.53,1.39,1.39,0,0,0,.43.3,2.89,2.89,0,0,0,.41.15l.41.11a4.12,4.12,0,0,1,.58.31l.17.17a3.34,3.34,0,0,1,.27.49,10.22,10.22,0,0,1,.34,1.18c0,.17.07.34.11.51ZM43.34,86.58c.16.63.31,1.26.46,1.9s.28,1.34.39,2,.21,1.36.31,2c0,.17,0,.34.06.51-.12-.57-.24-1.14-.36-1.71q-.34-1.61-.6-3.24C43.51,87.58,43.43,87.08,43.34,86.58Zm41.17,45.67h0l-.12.05v-.2l.13,0Zm.95-4.11a.38.38,0,0,0-.22-.18.4.4,0,0,0,.19-.11v0l.05.31Zm53.44-2.82a.69.69,0,0,0-.38-.1h-1.39a2.61,2.61,0,0,1-.67,0h0l-.31,0a4.13,4.13,0,0,1-.49-.12l-.09,0v.22l-1.87,0-4.46.1-8.91.19-17.16.41-1,0q-9.08.16-18.17.32a.45.45,0,0,0-.66,0q-9,.14-18.06.26l-6.57.09-6.36.08-3.9.05v-.12c0-.1,0-.19,0-.29s0-.34,0-.5,0-.4-.06-.59l-.05-.28a2.56,2.56,0,0,0-.18-.51,1.68,1.68,0,0,0-.39-.53,1.83,1.83,0,0,0-.72-.4l-.32-.08-.4-.2-.53-.22-.22-.13-.12-.12a2.05,2.05,0,0,1-.13-.22,2.8,2.8,0,0,1-.14-.5,6,6,0,0,1,0-.93c0-.28,0-.56.06-.85.05-.55.12-1.09.19-1.64s.1-1,.15-1.54.11-1.16.17-1.75c.11-1.1.24-2.2.33-3.3s.12-2.18.12-3.27,0-2.17,0-3.25c0-.54,0-1.09,0-1.63,0-.29,0-.58,0-.86s-.06-.6-.1-.9c-.08-.58-.17-1.17-.26-1.75v-.49c0-.93,0-1.85-.06-2.78s-.11-2-.19-3q-.06-.68-.14-1.37c-.06-.5-.14-1-.22-1.49s-.15-.94-.23-1.41-.18-.95-.28-1.42-.2-.91-.31-1.36-.21-.92-.34-1.37-.28-.92-.43-1.37-.31-1-.48-1.46l0-.1a.29.29,0,0,0,.14-.28l6.83,0h.65l-.28,1.69q-.33,2-.64,4T49.14,92c-.2,1.3-.42,2.6-.61,3.9l-.22,1.54h-.78a.48.48,0,0,0-.48.48.47.47,0,0,0,.28.43s0,.06,0,.09,0,.12,0,.18,0,.24,0,.36,0,.35,0,.52c0,.39,0,.78.06,1.17,0,.72.07,1.44.1,2.16s.06,1.45.12,2.18.09,1.49.12,2.24c0,.16,0,.32,0,.48l0,.13a.52.52,0,0,0-.25.14.55.55,0,0,0,0,.78.53.53,0,0,0,.39.16q1.73-.15,3.45-.26l1.61-.09c.5,0,1,0,1.51-.07.24,0,.47-.06.71-.09a.42.42,0,0,0,.19-.11.43.43,0,0,0,0-.6.45.45,0,0,0-.3-.12c-.28,0-.56-.06-.84-.07h-.75q-.76,0-1.53,0c-1.09.05-2.19.14-3.28.23l-.22,0c0-.22,0-.44,0-.66s0-.71,0-1.06c0-.75,0-1.5-.1-2.25s-.11-1.44-.17-2.16c0-.57-.1-1.13-.15-1.7l0,0a.25.25,0,0,0,.08-.18l-.1-.72,0-.35,0-.29h.18l-.06.4a.53.53,0,0,0,0,.37.48.48,0,0,0,.66.17A.46.46,0,0,0,49,99l.09-.64c.67,0,1.33,0,2-.07s1.16-.12,1.73-.2a2.06,2.06,0,0,0-.05.47.41.41,0,0,0,.8.11c.08-.23.13-.47.19-.7l.45-.06,1.08-.16a.47.47,0,0,0,.19-.11.52.52,0,0,0,0,.17q0,1.64,0,3.29c0,1.08.06,2.17.09,3.25q.05,2,.1,4a.48.48,0,0,0,1,0c-.06-2.35-.11-4.69-.13-7,0-.57,0-1.14,0-1.71s0-1.17,0-1.76a.52.52,0,0,0-.15-.36.5.5,0,0,0-.36-.15.49.49,0,0,0-.34.14.47.47,0,0,0-.43-.63h0c-.3,0-.61,0-.91,0l-.21,0c.1-.41.19-.82.28-1.24s.19-1,.28-1.56l.27-1.6c.18-1,.43-2,.64-3.07s.42-2.09.61-3.14c.22-1.25.42-2.5.61-3.75h2l8.79,0,8.68,0c5.85,0,11.69,0,17.54,0l17.37,0h11.2l1.25,0,2.83,0,2.66,0h2.27c.39,0,.77,0,1.16,0h.38a1.72,1.72,0,0,0,.35,0h.05q0,.45,0,.91h0l.22,0a.9.9,0,0,1,.46.12c.26.12.39.42.53.66l.29.5h0l.24.43q0-.22,0-.43c0-.13,0-.25,0-.38l.68,1a33,33,0,0,1,2,3.19c.21.4.41.81.6,1.23a15,15,0,0,1,.55,1.68c.07.3.14.6.19.9s.14.79.2,1.19c0,.23.07.47.11.7s.08.64.11,1l0,.28c0,1,0,1.93,0,2.9q0,3.1,0,6.2c0,4.17,0,8.35,0,12.53q0,3.76,0,7.53a.68.68,0,0,0,.07.3c0,.14,0,.28,0,.41A5.2,5.2,0,0,0,138.89,125.32Z"/><path class="cls-1" d="M53.27,101.77a2.64,2.64,0,0,0-.39-.33l0,0a.47.47,0,0,0-.22-.46.26.26,0,0,1-.25-.4.49.49,0,0,0-.42-.24.44.44,0,0,0-.23.06c-.26.16-.51.32-.76.49l-.13.05a1.15,1.15,0,0,0-.2.12.7.7,0,0,0-.25.28,2.82,2.82,0,0,0-.33.38,2.07,2.07,0,0,0-.26.5,2,2,0,0,0-.08,1,2.2,2.2,0,0,0,.14.52,2.37,2.37,0,0,0,.32.55,2.78,2.78,0,0,0,.83.7,2.2,2.2,0,0,0,1.16.3,1.72,1.72,0,0,0,.52-.11,1.92,1.92,0,0,0,.56-.35,2.15,2.15,0,0,0,.38-.46,2.06,2.06,0,0,0,.25-.54,2,2,0,0,0,.07-.53,2,2,0,0,0-.09-.6A2.43,2.43,0,0,0,53.27,101.77Zm-.43,1.76a1.91,1.91,0,0,1-.05.19,1.93,1.93,0,0,1-.14.25l-.17.17-.13.08-.16,0H52l-.31-.09a2.79,2.79,0,0,1-.44-.26,1.27,1.27,0,0,1-.42-.54,2.39,2.39,0,0,1-.1-.38,2,2,0,0,1,0-.27,1.91,1.91,0,0,1,.07-.27,1.88,1.88,0,0,1,.13-.22.68.68,0,0,0,.39-.08l0,0h.14l.13,0c-.16.39-.31.78-.46,1.18a.47.47,0,0,0,0,.38.49.49,0,0,0,.67.17.52.52,0,0,0,.22-.29l.36-1a2.49,2.49,0,0,1,.21.2,1.82,1.82,0,0,1,.13.22,1.86,1.86,0,0,1,.07.25A1.88,1.88,0,0,1,52.84,103.53Z"/><path class="cls-1" d="M131.28,95.48h0l-1.13,0-1.42,0-3,.08-6.51.19-6.44.18-6.8.19-6.66.19-6.7.19-6.81.21L78.91,97,60,97.59a.26.26,0,0,0,0,.52l13.69-.42,13.7-.4,6.8-.2,6.67-.21,3.4-.11,3.27-.11,6.82-.22,8.91-.28,4.25-.13,1.94-.07,1.07,0,.73,0a.21.21,0,0,0,0-.42Z"/><path class="cls-1" d="M115.17,65.14c1.3-1.89,2.63-3.76,3.92-5.66.55-.81,1.11-1.61,1.64-2.43s1-1.6,1.46-2.41c.08-.14.17-.26.25-.4l.81-1.26c.32-.5.62-1,1-1.51l.84-1.21c.16-.23.3-.47.47-.69q.65-.86,1.3-1.74l1-1.27q.65-.81,1.28-1.63l.35-.46.24-.31h0a2.34,2.34,0,0,1,.21-.24l0,0H130a.15.15,0,0,0-.1,0,.84.84,0,0,0-.35.17l-.51.31-.94.63q-1,.69-2,1.42c-.7.52-1.39,1.08-2.07,1.63s-1.21,1-1.8,1.58-1,1-1.5,1.48-1,1-1.4,1.5c-.73.9-1.45,1.82-2.13,2.76q-.38.53-.74,1.06c-.37.54-.68,1.13-1,1.7a37.19,37.19,0,0,0-2.75,6.25,43.22,43.22,0,0,0-1.54,6.48h0C112.54,69,113.85,67.06,115.17,65.14Z"/><path class="cls-1" d="M87.49,55.52c-.17-.52-.36-1-.56-1.56s-.39-1-.62-1.51c-.63-1.36-1.29-2.73-2-4s-1.64-2.87-2.51-4.28c-.4-.66-.8-1.33-1.24-2l-.93-1.31c-.21-.29-.44-.56-.66-.83s-.65-.75-1-1.12-.74-.71-1.11-1.07l0-.05v0h0a.6.6,0,0,0,.12.3l.19.3.31.5.64,1c.22.34.41.7.61,1.05s.3.56.44.85L79.72,43c.14.27.24.55.36.83.31.7.63,1.4.95,2.11.62,1.38,1.27,2.73,1.91,4.1q.66,1.41,1.37,2.8c.64,1.24,1.24,2.51,1.79,3.79A45.21,45.21,0,0,1,87.65,61a37.13,37.13,0,0,1,1,4.56h0a25.59,25.59,0,0,0,0-3.34,27.59,27.59,0,0,0-.43-3.41A25.64,25.64,0,0,0,87.49,55.52Z"/><path class="cls-1" d="M36.67,49.24l1.35.52c.33.12.66.24,1,.37a57.16,57.16,0,0,1,6,3q1.49.86,3,1.76c1,.6,1.91,1.23,2.86,1.84,1.42.93,2.84,1.86,4.29,2.73l1.82,1.12c.83.5,1.66,1,2.5,1.47h0c-.65-.76-1.32-1.5-2-2.24-.48-.52-1-1-1.46-1.55-1.28-1.28-2.59-2.56-4-3.73a28.93,28.93,0,0,0-5.84-3.94,32.23,32.23,0,0,0-6.72-2.4c-1.5-.36-3-.57-4.54-.84l-2.14-.36-1.89-.33h0a10,10,0,0,0,.9.57c.33.18.67.34,1,.5.64.3,1.29.56,1.94.81S36,49,36.67,49.24Z"/><path class="cls-1" d="M149.6,16.89a.34.34,0,0,0-.17,0,.36.36,0,0,0-.31.17,4.54,4.54,0,0,0-.38.76.57.57,0,0,0-.2-.12L148,17.5l-.2,0-.2,0-.89-.12-.82-.08-.79-.06c-.54,0-1.07-.05-1.61-.06h-1.67l-3.74.06c-1.12,0-2.25.07-3.37.11-.48,0-1,.06-1.45.09s-1,.05-1.49.1l-3.23.28-1.81.16-1,.09c-1.05.07-2.11.15-3.16.2a.48.48,0,1,0,0,1l.68,0c0,.08,0,.17,0,.25h0a.56.56,0,0,0-.27.07.52.52,0,0,0-.19.72.55.55,0,0,0,.31.24l.18.07q0,.41,0,.82,0,1.15,0,2.31c0,.31,0,.62,0,.94l0,1.29c0,.74,0,1.48.08,2.22s.06,1.49.09,2.23c0,.29,0,.57,0,.86s0,.69.06,1q.09,1.14.2,2.28.08.88.16,1.77l-.44,0-.15,0a.56.56,0,0,0-.25.94.54.54,0,0,0,.4.17l.57-.06a.39.39,0,0,0,.07.09.42.42,0,0,0,.3.12.43.43,0,0,0,.4-.29l3.74-.41,1.5-.13,1.54-.12c.66,0,1.31-.09,2-.12l2.05-.09a31.61,31.61,0,0,1,3.8,0c.49,0,1,.09,1.47.15l1.21.16.17,0,1.27.17c.42.06.85.09,1.27.14l.58,0,.54,0c.45,0,.89,0,1.34,0a.53.53,0,0,0,.36-.15l.08-.1a.47.47,0,0,0,.2-.06.44.44,0,0,0,.2-.26.46.46,0,0,0-.05-.35c0-.08,0-.17,0-.25s0-.21,0-.31c0-.38,0-.77,0-1.15,0-.86.1-1.72.16-2.58l.08-1.16c0-.43,0-.85.06-1.28,0-.17,0-.33,0-.5l0-.84c0-.4,0-.81,0-1.21,0-.77,0-1.54,0-2.32,0-.39,0-.79,0-1.18l.11-1.55c0-.39.08-.79.13-1.18s.15-.93.24-1.39a7.23,7.23,0,0,1,.36-1.3,4.77,4.77,0,0,1,.31-.6A.35.35,0,0,0,149.6,16.89Zm-25.78,2.63v0c0-.15,0-.3,0-.44l.93-.06,1.3-.09,3.37-.28,2.22-.18,1.28-.08,1.2-.07.56,0,1.84-.05c2.23-.06,4.45-.07,6.68-.05a39.48,39.48,0,0,1,4,.25l-.19.11-.27.19c-.17.13-.34.26-.51.4l-1,.82c-.64.54-1.26,1.1-1.89,1.66-1.19,1.07-2.37,2.15-3.56,3.22l-2,1.76c-.9-.61-1.83-1.17-2.77-1.72s-2-1.11-2.94-1.63c-.46-.24-.91-.5-1.38-.72l-2-1-.54-.26c-.19-.09-.39-.16-.58-.24l-2.21-.9-.59-.24c-.32-.13-.65-.25-1-.37Zm.8,15.33c-.09-.73-.18-1.46-.26-2.19-.14-1.38-.23-2.76-.3-4.14,0-.72-.08-1.44-.11-2.15s-.07-1.46-.08-2.19c0-.5,0-1,0-1.5a.23.23,0,0,0,.1-.19c0-.61-.06-1.22-.08-1.83l.78.3,1.12.46,1.9.78,1.64.79c.42.2.85.4,1.26.62l1.64.87-.65.78-.67.82-1.74,2.18-1.47,1.87q-.38.48-.73,1l-.34.47c-.12.18-.25.36-.37.55s-.37.57-.54.86l-.5.85-.48.85ZM145.55,36l-.81-.07-.94-.11-1.5-.21-1.2-.17c-.48-.07-1-.12-1.46-.16-.82-.07-1.65-.11-2.48-.11q-.73,0-1.45,0l-2.12.09c-.63,0-1.27.08-1.9.12l-1.52.12-1.55.13-2.29.24-1.57.17V36l0-.05c.22-.38.45-.75.68-1.12l.67-1.08c.41-.67.85-1.32,1.31-2l.86-1.15c1-1.32,2.08-2.63,3.13-3.94l.68-.83.83-1h0l.82.46,1,.56.88.53,1.85,1.1.11.05h.06a.51.51,0,0,0,.55-.23l0-.09,1.88-1.69v0c0,.11.08.21.13.32l.15.33q.43.93.9,1.84l.53,1c.16.29.32.58.49.87.33.58.65,1.16,1,1.75s.64,1.24,1,1.85a13.09,13.09,0,0,0,1.17,1.73,6,6,0,0,0,.41.47,4.09,4.09,0,0,0,.32.28Zm2.94-17.41c-.07.28-.12.56-.17.84s-.11.62-.16.93-.08.6-.12.9,0,.37-.06.55l-.05.69c0,.38-.07.77-.09,1.15s0,.93-.06,1.4,0,.91,0,1.36,0,.86,0,1.28c0,.78,0,1.56-.08,2.34-.09,1.64-.24,3.27-.31,4.91,0,.3,0,.59,0,.89l-.26-.13-.35-.23a4.76,4.76,0,0,1-.54-.5c-.17-.19-.33-.39-.49-.59a30.12,30.12,0,0,1-2.07-3.5c-.32-.59-.67-1.16-1-1.74s-.69-1.2-1-1.81l-.47-.88c-.17-.32-.33-.64-.48-1l.22.26,0,0L141,26l0,0,.08.11a.21.21,0,0,0,.11.09.19.19,0,0,0,.21-.28c-.21-.28-.43-.55-.66-.81l1.79-1.61c1.19-1.07,2.38-2.15,3.61-3.18l.78-.65.42-.35a3.53,3.53,0,0,0,.47-.46.37.37,0,0,0,.1-.24.33.33,0,0,0,0-.06l.38.07a.58.58,0,0,0,.21,0Z"/><path class="cls-1" d="M54.35,21.77l.4.56.28.49c.33.57.65,1.14,1,1.71l2,3.34c.58,1,1.16,2,1.73,3l1,1.69c.28.48.56,1,.83,1.44.39.69.77,1.37,1.16,2.05l-.85.67a.37.37,0,0,0-.11.27.38.38,0,0,0,.39.39.42.42,0,0,0,.27-.11l1-.78L64,36a.31.31,0,0,0,.22.36.31.31,0,0,0,.38-.21,5.23,5.23,0,0,0,.18-.72l.74-.54,1-.73c.18-.13.37-.25.55-.37L69.76,32l1.87-1.24,4.44-2.91,1.73-1.14c.63-.42,1.27-.83,1.89-1.25l2.48-1.69.71-.5.62-.44a.34.34,0,0,0,.4,0C85.3,22,86.64,21,88,20.06q.94-.68,1.9-1.34l.3-.2.33-.23.18-.14,0,0h0a.38.38,0,0,0,.14-.73,1.31,1.31,0,0,0-.15-.19L90.53,17l-.71-.85c-.49-.59-1-1.16-1.52-1.73s-1.06-1.14-1.57-1.72L85.21,11l-.83-1-.77-.93L82.13,7.26c-.48-.58-1-1.16-1.43-1.75L80.32,5l-.49-.67c-.13-.17-.25-.34-.37-.52L78.9,3c-.13-.2-.25-.41-.37-.62s-.23-.43-.33-.65l0,0c.45-.37.89-.74,1.32-1.13A.32.32,0,0,0,79.35,0a.34.34,0,0,0-.22.09l-.33.26,0,0,0,0h0l-.22.17L77.92,1c-.09-.26-.17-.53-.25-.79A.29.29,0,0,0,77.4,0h-.07a.28.28,0,0,0-.2.34c.07.25.14.5.22.75,0,.08.06.16.09.25l-.25.18-.51.34c-.31.21-.64.4-1,.6l-1.08.64c-.67.39-1.35.77-2,1.15l-.71.39-1.43.78-1.67.91-1.45.79-.61.33L64.51,8.74c-.54.31-1.09.61-1.63.92l-4,2.38-2.41,1.43-1.15.68-.44.28-1.41.92-.53.35-.89.61a.39.39,0,0,0-.17.22.36.36,0,0,0,0,.06l-.27-.09-.1,0-.12,0-.13,0a.41.41,0,0,0-.19.24.4.4,0,0,0,0,.32Zm34.52-3.39a.36.36,0,0,0-.15,0,.33.33,0,0,0-.17,0c-.71.44-1.4.91-2.09,1.39l-2.26,1.58-2.1,1.47c-.65.46-1.31.9-2,1.35l-1.7,1.14L76,26.94l-3.78,2.48-2.58,1.71-1.94,1.31-1.27.85-.43.3-1,.71,0-.17c.1-.68.17-1.36.23-2s.12-1.38.18-2.06.15-1.32.24-2l0-.15c.09-.59.17-1.19.26-1.78s.2-1.3.3-2,.18-1.19.28-1.78c.13-.79.27-1.57.41-2.36q.8.19,1.61.3h.06l.27,0H69l.16,0h.19c.77.1,1.55.16,2.32.26l.21,0,.12,0a.38.38,0,0,0,.75,0c.33-1.12.68-2.24,1-3.35,1.84-.1,3.69-.07,5.54,0l2.67.08c.91,0,1.83,0,2.74.15l.3,0,1.24.21c.51.09,1,.18,1.54.23l.71,0h.7ZM77.35,4.09c.06-.26.12-.52.19-.77a6.22,6.22,0,0,1,.23-.69l.13-.3.15.3c.11.2.22.4.34.58l.68,1.06c.09.14.2.28.3.42l.43.6.26.34.51.65c.47.6,1,1.19,1.43,1.78l1.43,1.81c1,1.23,2,2.41,3,3.61.5.59,1,1.18,1.53,1.76s1,1.14,1.45,1.72l.33.38h-.56c-.46,0-.92,0-1.39-.1-.87-.13-1.73-.31-2.59-.44a19.43,19.43,0,0,0-2.84-.16H79.6l-2.27,0h-.49c-1,0-1.92,0-2.88.07.11-.35.21-.7.31-1.05.24-.84.47-1.68.71-2.52s.47-1.58.7-2.38c.47-1.65.91-3.31,1.3-5Q77.16,4.91,77.35,4.09ZM53.26,16.36l.45-.29,1.36-.89.49-.32,1-.62,4-2.38,2.56-1.5,1.5-.85L67.1,8.14l.49-.27L69,7.12l1.73-.94,1.39-.76L73,5l1.08-.61.85-.48,1.18-.7.4-.25.39-.24c0,.11-.09.22-.13.33-.13.38-.21.78-.3,1.17-.2.84-.39,1.69-.6,2.53-.4,1.67-.85,3.33-1.32,5-.22.77-.44,1.54-.65,2.32s-.48,1.78-.74,2.67c-.18.61-.37,1.21-.55,1.82-.13.41-.25.82-.37,1.23l-.08,0c-.6-.11-1.22-.17-1.83-.23L69,19.31h-.11l-.21,0c-.45-.07-.91-.14-1.35-.24L67,18.95l-.47-.13h-.06L66,18.67l-.15,0-.13,0c-.4-.07-.81-.11-1.21-.17l-1.1-.13-1.22-.11-2.47-.19c-.69-.05-1.37-.13-2.05-.19l-1.33-.2L56,17.63l-.58-.12-1.48-.3-.33-.09-.85-.24-.17,0ZM53,17.68c.32.09.64.19,1,.26l1.64.34c.33.07.66.12,1,.17s.81.14,1.22.18l1.56.17,1.21.11,1.18.1,1.75.17c.56.06,1.12.14,1.68.21h-.11l.34.05a.58.58,0,0,0,.35.3l.64.19c-.15.82-.29,1.64-.43,2.46s-.22,1.36-.32,2c-.19,1.21-.38,2.43-.55,3.65-.09.67-.19,1.34-.25,2s-.13,1.39-.19,2.08c0,.48-.1,1-.16,1.45s-.11.77-.18,1.16v.07l-.94.7-.15.11c-.56-1-1.13-2-1.72-3l-.82-1.36-.9-1.52c-.33-.56-.65-1.12-1-1.67l-1.08-1.8-.92-1.53-.43-.73h0a.35.35,0,0,0,.12-.48,10.67,10.67,0,0,0-.66-1.14l-.75-1.1c-.48-.69-1-1.38-1.47-2.07l-.38-.54-.09-.15-.22-.37c-.07-.12-.16-.24-.24-.36a.24.24,0,0,0-.12-.09l-.21-.29Z"/><path class="cls-1" d="M69.27,20.45h0Z"/><path class="cls-1" d="M69.2,20.44h0Z"/><path class="cls-1" d="M69.15,20.43h0Z"/><path class="cls-1" d="M69.13,20.43h0Z"/><path class="cls-1" d="M1.53,42h0Z"/><polygon class="cls-1" points="1.53 41.98 1.52 41.96 1.52 41.97 1.53 41.98"/><polygon class="cls-1" points="1.52 41.96 1.52 41.96 1.52 41.96 1.52 41.96"/><path class="cls-1" d="M31.47,36.32a.45.45,0,0,0,.6-.16c.15-.23.32-.45.48-.68h0l.26-.34,1-1.28.43-.5.61-.68.07.07a.39.39,0,0,0,.61-.08.38.38,0,0,0,0-.3l0-.09.63-.11A.46.46,0,0,0,36.5,32a.48.48,0,0,0-.17-.65.46.46,0,0,0-.24-.06H36l-.82.16-.32,0-.26-.22c-.32-.27-.63-.55-.94-.84-.61-.57-1.2-1.17-1.81-1.75S30.57,27.54,29.95,27q-.51-.45-1-.92c-.3-.29-.59-.59-.87-.89q-.91-1-1.84-1.93c-.59-.6-1.2-1.19-1.8-1.78-.25-.24-.49-.48-.72-.73s-.57-.62-.83-.95c0-.07,0-.14,0-.2a1.45,1.45,0,0,0-.05-.41.36.36,0,0,0-.25-.25H22.5a.37.37,0,0,0-.17,0l-.17-.29a.37.37,0,0,0-.5-.13.37.37,0,0,0-.13.5l.09.16a.27.27,0,0,0-.13,0l-1.11.83-.57.46-.46.41-1.86,1.72c-.63.58-1.26,1.16-1.87,1.76s-1.28,1.28-1.91,1.93-1.28,1.3-1.92,1.94L10,30,8.14,31.88l-2,2L4.29,35.66l-.92.91-.95,1c-.28.29-.55.6-.82.91a13,13,0,0,0-.89,1.09,4.86,4.86,0,0,0-.46.74,3.06,3.06,0,0,0-.24.79.4.4,0,0,0,0,.29.37.37,0,0,0,.51.13.36.36,0,0,0,.17-.22c0-.06,0-.12,0-.19l.15.2.5.64a.16.16,0,0,0,.09.05h0l1,1.34.34.41.71.85.3.36.59.65c.31.35.62.7.94,1l.74.77.46.49L7.86,49.1c.36.36.73.71,1.1,1.06s.75.69,1.12,1l1.07,1,1.13,1,.83.75.35.3-.35.35a.37.37,0,0,0,.52.52l.41-.4.11.09a.26.26,0,0,0,.13,0,.26.26,0,0,0,.26-.26.25.25,0,0,0-.08-.18l-.06-.05.16-.16a3.67,3.67,0,0,0,.09.39.3.3,0,0,0,.28.21.29.29,0,0,0,.29-.29c0-.24,0-.48,0-.72l0-.22.94-1,1.11-1.18.38-.43,2.14-2.52,1.55-1.86.5-.61.2-.24.78-.88,1.16-1.31.44-.48,2.15-2.25.67-.69,1.21-1.24c.56-.57,1.13-1.13,1.69-1.7L31.26,36A.43.43,0,0,0,31.47,36.32Zm-9.12-12c.13-.94.22-1.89.33-2.84,0-.25.06-.49.09-.74l.06.07c.29.33.6.66.91,1l.91.91.89.92c.59.62,1.18,1.25,1.76,1.88.29.32.58.64.89.94s.62.59.93.87c.65.57,1.3,1.14,1.93,1.73s1.19,1.16,1.79,1.74l.76.71h-.93c-.9,0-1.79,0-2.68.1s-1.79.17-2.68.22-1.82.07-2.73.09l-1.81,0-1.7.08.16-.79c.09-.45.17-.89.25-1.34.16-.92.31-1.84.45-2.75S22.22,25.3,22.35,24.36ZM1,40.42l.1,0,.4-.09a.07.07,0,0,0,0-.13l-.37.08c.12-.18.24-.36.38-.53.41-.52.86-1,1.31-1.49l.39-.4.42-.43,1.93-1.87,2-1.91c.6-.58,1.18-1.17,1.77-1.75s1.22-1.2,1.83-1.8,1.31-1.25,1.94-1.89l.88-.89.91-.93c.66-.67,1.32-1.32,2-2l1.79-1.68,1-.94c.3-.28.59-.57.9-.84s.49-.41.75-.6h0l0,0h0l.06,0h0l.6-.47,0,0-.08.52c-.07.43-.14.86-.2,1.29s-.1.85-.15,1.27-.1.87-.16,1.3q-.19,1.37-.4,2.73c-.13.87-.26,1.73-.41,2.6-.08.45-.15.91-.24,1.36l-.2,1c0,.15-.06.31-.09.46L19.66,34c-.08.32-.15.64-.24,1l-.53,1.92c-.2.72-.41,1.44-.62,2.16a.45.45,0,0,0,0,.34l-.47,0-.75,0-1.43.09-1.24.1-.68.06a.27.27,0,0,0-.26-.22.28.28,0,0,0-.28.27l-.35,0c-1,.09-1.92.16-2.89.23l-2.45.2-3.14.27-.47,0-.74,0-.85,0H1.36l-.25,0H1Zm0,.87,0,0H1Zm.47.61h0Zm0,0h0ZM14.16,53.55l-.31.32-.65-.58-1.1-1-1.28-1.12-1.2-1.07c-.39-.35-.77-.72-1.15-1.08s-.72-.7-1.08-1.06l-.44-.43L6.42,47c-.33-.34-.67-.68-1-1L4.19,44.61l-.34-.4-.72-.85L2.83,43l-.6-.76L1.26,41l0,0,0,0-.13-.16h0l.21,0,.49,0h.45l.67,0c.43,0,.86,0,1.29,0l3.16-.19,2.48-.15,1.54-.08,1.32-.06.54,0q.06,1.07.13,2.14c0,.32.05.64.08,1s0,.56.07.83c.12,1.4.24,2.8.4,4.19.11,1,.26,2,.4,3,.06.52.12,1,.16,1.55,0,.09,0,.17,0,.26Zm.36-4.83h0v0ZM29.86,36.23,28,38.09c-.64.64-1.26,1.3-1.89,1.95S25,41.25,24.4,41.86l-.82.87-.18.2-.5.57-1.19,1.35-.44.52-1.91,2.32c-.59.71-1.18,1.41-1.78,2.11l-.72.85-.15.16-.46.49-1.19,1.28c0-.26-.06-.52-.09-.77s-.1-.73-.16-1.09-.13-.8-.18-1.2v0h0v-.08h0l-.1-.73h0v0h0v0c-.09-.67-.16-1.35-.23-2s-.12-1.23-.18-1.85-.13-1.48-.19-2.21-.09-1.33-.13-2c0-.13,0-.25,0-.38l.45,0,1.3-.07,1.42,0c.48,0,1,0,1.45-.05l.25,0h.09a.34.34,0,0,0,.15-.09.34.34,0,0,0,.1-.24.33.33,0,0,0,0-.14.48.48,0,0,0,.22-.28c.2-.68.4-1.37.59-2.05l.53-1.89c.08-.3.16-.6.23-.9l.39-1.6,1.32-.06,1.47,0,2.63,0,1.42,0L29,32.55q1.33-.07,2.67-.09l2,0c-.1.08-.18.17-.27.26l-.31.3-.47.46-.87.85Z"/><polygon class="cls-1" points="14.96 51.8 14.96 51.81 14.96 51.81 14.96 51.8"/><path class="cls-1" d="M14.62,49.51h0v0Z"/><polygon class="cls-1" points="14.51 48.71 14.51 48.71 14.51 48.71 14.51 48.71"/><path class="cls-1" d="M14.52,48.76h0v0h0v0Z"/></g></g></svg>