<svg xmlns="http://www.w3.org/2000/svg" viewBox="0 0 85.66 102.46"><defs><style>.cls-1{fill:#95165b;}</style></defs><title>zoom_ico</title><g id="Layer_2" data-name="Layer 2"><g id="features"><g id="_27" data-name="27"><path class="cls-1" d="M11.14,100.08l24.58-31.5a.46.46,0,0,0,.34-.16.37.37,0,0,0,.11-.26l0,0,3-3.82A.51.51,0,0,0,39.4,64l.45-.6a28.33,28.33,0,0,0,10,1.49A33,33,0,0,0,74,52.9,24.25,24.25,0,0,0,78.4,32.27a36.05,36.05,0,0,0-6-13.28,24.77,24.77,0,0,0-11-8.48,32.8,32.8,0,0,0-6.24-1.8C40.82,6,27.16,13.7,22.73,27A29.41,29.41,0,0,0,22,42.41a27.74,27.74,0,0,0,6,12.4c.24.28.47.53.8.88l-.24.39a.58.58,0,0,0-.43.23.41.41,0,0,0-.1.28,0,0,0,0,0,0,0L21.5,65.36,7.06,84.6c-.25.07-.42.3-.39.45L1.22,92.4a.53.53,0,0,0-.4.21,4.45,4.45,0,0,0-.68,3.77,8.71,8.71,0,0,0,3.33,5.05,5.84,5.84,0,0,0,4.38.92A5.17,5.17,0,0,0,11.14,100.08Zm-7.47-2a.48.48,0,0,0,.58.07.6.6,0,0,0,.28-.63.54.54,0,0,0-.18-.3A9.3,9.3,0,0,1,1.77,93.4l.16-.21a8.48,8.48,0,0,0,2.55,3,.51.51,0,0,0,.61,0,.58.58,0,0,0,.27-.6.53.53,0,0,0-.21-.31,7.75,7.75,0,0,1-2.48-3.13l.39-.52L6,94.82a.56.56,0,0,0,.68.11.53.53,0,0,0,.3-.57l-.1-.21-3-3.21a.51.51,0,0,0-.16-.12l.09-.12,2.62,2.72a.56.56,0,0,0,.69.1A.52.52,0,0,0,7.39,93a.51.51,0,0,0-.14-.25L5.84,91.25,4.45,89.83,5,89.09a10.46,10.46,0,0,0,2.51,3.07.49.49,0,0,0,.59.05.6.6,0,0,0,.28-.62.55.55,0,0,0-.19-.31A9.23,9.23,0,0,1,5.78,88.2l-.05-.06.37-.49A18.77,18.77,0,0,0,9.72,90.9a.54.54,0,0,0,.62,0,.58.58,0,0,0,.26-.58.52.52,0,0,0-.22-.32,17.26,17.26,0,0,1-3.6-3.26l.44-.59a14.92,14.92,0,0,0,3.17,3.24.52.52,0,0,0,.61,0,.58.58,0,0,0,.26-.6.52.52,0,0,0-.21-.31,13.75,13.75,0,0,1-3.13-3.28l.68-.9a13.54,13.54,0,0,0,3.75,4.29.52.52,0,0,0,.61,0,.58.58,0,0,0,.26-.6.53.53,0,0,0-.21-.31A12.76,12.76,0,0,1,9.3,83.39l.47-.63a15.14,15.14,0,0,0,3.89,3.53.55.55,0,0,0,.62,0,.57.57,0,0,0,.25-.57.49.49,0,0,0-.23-.32,14.07,14.07,0,0,1-3.84-3.54l.65-.87a7,7,0,0,0,2.7,3.27.55.55,0,0,0,.62,0,.57.57,0,0,0,.25-.57.49.49,0,0,0-.23-.32A6,6,0,0,1,11.94,80a.34.34,0,0,0,0-.11l.35-.46a14.36,14.36,0,0,0,3,3.07.51.51,0,0,0,.6,0,.58.58,0,0,0,.27-.6.54.54,0,0,0-.2-.31,14,14,0,0,1-3-3.09l.65-.87a7.27,7.27,0,0,0,2.56,3,.54.54,0,0,0,.62,0,.58.58,0,0,0,.26-.58.51.51,0,0,0-.22-.32,6.33,6.33,0,0,1-2.4-3.08l0-.09.47-.63,2.69,2.83a.57.57,0,0,0,.69.11.52.52,0,0,0,.29-.56.51.51,0,0,0-.14-.25l-2.87-3,.76-1A8,8,0,0,0,18.78,77a.53.53,0,0,0,.62,0,.56.56,0,0,0,.26-.58.53.53,0,0,0-.22-.32A7.17,7.17,0,0,1,17,73.2l.63-.83a14.08,14.08,0,0,0,3.55,3.36.54.54,0,0,0,.62,0,.57.57,0,0,0,.25-.57.52.52,0,0,0-.23-.32,13.05,13.05,0,0,1-3.5-3.39l.81-1.08a9.55,9.55,0,0,0,3.18,3.44.55.55,0,0,0,.62,0,.56.56,0,0,0,.25-.57.49.49,0,0,0-.23-.32,8.52,8.52,0,0,1-3.09-3.52l.66-.88a7.15,7.15,0,0,0,3,3.08.47.47,0,0,0,.52,0,.62.62,0,0,0,.22-.61.58.58,0,0,0-.28-.38,6.54,6.54,0,0,1-2.73-3l.72-1a10.53,10.53,0,0,0,3.23,3A.59.59,0,0,0,26,69a.49.49,0,0,0-.24-.32,9.62,9.62,0,0,1-3.16-3l.76-1a6.33,6.33,0,0,0,3,3.32.47.47,0,0,0,.52,0,.61.61,0,0,0,.21-.6.56.56,0,0,0-.29-.38,5.22,5.22,0,0,1-2.57-3.29l0-.07.4-.54a19.65,19.65,0,0,0,2.57,3.22.58.58,0,0,0,.7.1.52.52,0,0,0,.29-.55A.48.48,0,0,0,28,65.6a19.26,19.26,0,0,1-2.71-3.45l.44-.58a14.91,14.91,0,0,0,8.87,6.77L10.62,99a.54.54,0,0,0-.24.23,4,4,0,0,1-2.76,2.05,4.79,4.79,0,0,1-3.93-1,8,8,0,0,1-2.46-4.12,4.38,4.38,0,0,1-.09-1.42A10.09,10.09,0,0,0,3.67,98.08ZM23,42.18a28.33,28.33,0,0,1,.73-14.84C28,14.58,41.16,7.21,55,9.81a31.71,31.71,0,0,1,6,1.74,25,25,0,0,1,5.64,3.16,23.18,23.18,0,0,1,4.83,4.94A34.89,34.89,0,0,1,77.32,32.5a23.19,23.19,0,0,1-4.23,19.72A31.82,31.82,0,0,1,49.79,63.8C43.46,63.87,38.44,62.35,34,59a33.69,33.69,0,0,1-5.16-4.91A26.66,26.66,0,0,1,23,42.18ZM37.9,64.12l-2.55,3.26a13.72,13.72,0,0,1-8.91-6.76l2.21-2.94A18.18,18.18,0,0,0,37.9,64.12Zm-4.57-4.24.11-.15-.11.15A24.22,24.22,0,0,0,38.78,63l-.15.19a17.27,17.27,0,0,1-9.29-6.42l.2-.27A31.38,31.38,0,0,0,33.34,59.89Z"/><path class="cls-1" d="M72.33,33.19a28.31,28.31,0,0,0-4.71-10.43A19.47,19.47,0,0,0,59,16.09a25.76,25.76,0,0,0-4.91-1.41C42.78,12.55,32,18.59,28.55,29A23.1,23.1,0,0,0,28,41.17a21.86,21.86,0,0,0,4.74,9.75,27.14,27.14,0,0,0,4.19,4,20,20,0,0,0,12.95,3.95,25.92,25.92,0,0,0,19-9.43A19.09,19.09,0,0,0,72.33,33.19ZM29,40.93a22,22,0,0,1,.56-11.55c3.3-9.92,13.52-15.65,24.29-13.63a24.36,24.36,0,0,1,4.7,1.35A19.18,19.18,0,0,1,63,19.57a18.1,18.1,0,0,1,3.76,3.84,27.15,27.15,0,0,1,4.52,10A18,18,0,0,1,68,48.74a24.76,24.76,0,0,1-18.14,9A19,19,0,0,1,37.55,54a26.29,26.29,0,0,1-4-3.82A20.72,20.72,0,0,1,29,40.93Z"/><path class="cls-1" d="M69.41,32.5l-.79-2.26a.5.5,0,0,0-.63-.33.56.56,0,0,0-.42.66l0,.07.79,2.25a.5.5,0,0,0,.63.33A.58.58,0,0,0,69.41,32.5Z"/><path class="cls-1" d="M47.8,53.75a.49.49,0,0,0-.46.14.58.58,0,0,0-.14.53.54.54,0,0,0,.45.43,18.09,18.09,0,0,0,15-4.16A18.36,18.36,0,0,0,69,36.1a.48.48,0,0,0-.55-.37.58.58,0,0,0-.53.6A17.19,17.19,0,0,1,47.8,53.75Z"/><path class="cls-1" d="M34.19,39.49a0,0,0,0,0,0,0,13.16,13.16,0,0,1-.52-1.8A14.75,14.75,0,0,1,37,25.19c3.24-3.81,8.25-6.11,14.13-6.48a.5.5,0,0,0,.38-.19.55.55,0,0,0,.09-.45.56.56,0,0,0-.59-.46c-6.3.39-11.85,3.06-15.22,7.31a15.9,15.9,0,0,0-3.17,13,14.43,14.43,0,0,0,.57,2,.51.51,0,0,0,.64.32A.58.58,0,0,0,34.19,39.49Z"/><path class="cls-1" d="M52,60.74c6.68-.25,13.34-3.87,17.8-9.71a23.3,23.3,0,0,0,4.69-18.9l-.21-.9a24.54,24.54,0,0,0-9.09-13.3,25.83,25.83,0,0,0-5.46-3.16,25.3,25.3,0,0,0-25.08,3,23.41,23.41,0,0,0-9.1,16,21.51,21.51,0,0,0,.36,6.87,25.47,25.47,0,0,0,9.77,14.9,25.35,25.35,0,0,0,16.06,5.27Zm0-1.1h-.28a24.27,24.27,0,0,1-15.36-5.05,24.39,24.39,0,0,1-9.35-14.25,20.41,20.41,0,0,1-.34-6.51,22.29,22.29,0,0,1,8.67-15.22,24.19,24.19,0,0,1,24-2.82,24.56,24.56,0,0,1,5.23,3,23.41,23.41,0,0,1,8.69,12.7l.2.86a22.17,22.17,0,0,1-4.49,18C64.61,55.93,58.27,59.4,51.91,59.63Z"/></g><path class="cls-1" d="M22.68,16C16.74,21.63,14,30.73,16.88,38.57c.09.24.51.26.49,0-.44-8.07,0-15.71,5.8-22,.31-.34-.15-.86-.5-.53Z"/><path class="cls-1" d="M47.18,69.13c3.54,1.73,8.43,1.87,11.57-.82a.28.28,0,0,0-.25-.48c-1.6.37-3.11,1-4.73,1.31a12.31,12.31,0,0,1-6.3-.63c-.36-.13-.63.44-.28.61Z"/><path class="cls-1" d="M68.75,5.81c5.94,3.4,9.52,8.51,12.3,14.64a.18.18,0,0,0,.34-.12c-1.67-6.45-6-12.7-12.34-15.19-.4-.15-.67.46-.31.67Z"/><path class="cls-1" d="M83.67,27.73c.39,3.82,1.25,7.46.86,11.34,0,.23.32.27.39.07,1.27-3.78.76-7.85-.45-11.58a.41.41,0,0,0-.79.18Z"/><path class="cls-1" d="M45,2.11c2.57-1.25,5.12-.7,7.82-.81a.25.25,0,0,0,.14-.46c-2.38-1.59-6-.68-8.21.79a.27.27,0,0,0,.26.48Z"/><path class="cls-1" d="M73.41,61.09c1.26-.6,3.43-1.88,3.44-3.49,0-.2-.24-.41-.44-.28A9.94,9.94,0,0,0,75,58.84a10.38,10.38,0,0,1-2,1.56.39.39,0,0,0,.36.69Z"/></g></g></svg>