<svg xmlns="http://www.w3.org/2000/svg" viewBox="0 0 268.97 194.05"><defs><style>.cls-1{fill:#b9c95e;}</style></defs><title>basic</title><g id="Layer_2" data-name="Layer 2"><g id="plans"><path class="cls-1" d="M154.64,25.18c-11-.74-21.6,3.25-30.37,9A71.37,71.37,0,0,0,111.8,44.56a36,36,0,0,0-8.32,14c-3.37,10.56-2.44,21.92,1,32.34s9.62,20,16.73,28.81c3.55,4.37,7.35,8.57,11.27,12.67s7.92,7.88,10.57,12.64a21.77,21.77,0,0,1,1.66,3.79c.1.29.6.17.5-.13-1.57-4.75-4.87-8.74-8.37-12.46-3.79-4-7.66-8-11.29-12.12-7.42-8.49-14.13-17.67-18.5-27.83S100.62,74.87,102.59,64A37.08,37.08,0,0,1,109,48.53a58.11,58.11,0,0,1,11.85-11.44c8.43-6.37,18.74-11.26,29.84-11.69,1.33-.05,2.65,0,4,0A.13.13,0,1,0,154.64,25.18Z"/><path class="cls-1" d="M150.81,25.18c11-.74,21.6,3.25,30.37,9a71.37,71.37,0,0,1,12.47,10.36,36,36,0,0,1,8.32,14c3.37,10.56,2.44,21.92-1,32.34s-9.62,20-16.73,28.81c-3.55,4.37-7.35,8.57-11.27,12.67S165,140.24,162.36,145a21.78,21.78,0,0,0-1.66,3.79c-.1.29-.6.17-.5-.13,1.57-4.75,4.87-8.74,8.37-12.46,3.79-4,7.66-8,11.29-12.12,7.42-8.49,14.13-17.67,18.5-27.83s6.48-21.38,4.51-32.24a37.08,37.08,0,0,0-6.38-15.48,58.11,58.11,0,0,0-11.85-11.44c-8.43-6.37-18.74-11.26-29.84-11.69-1.33-.05-2.65,0-4,0A.13.13,0,1,1,150.81,25.18Z"/><path class="cls-1" d="M160.85,148.25c-1.25,0-2.53.41-3.78.57s-2.66.28-4,.33c-2.63.11-5.2-.17-7.82-.25a.17.17,0,0,0,0,.34,31.84,31.84,0,0,0,7.87.42q2-.08,4-.33a16.52,16.52,0,0,0,3.83-.69C161.1,148.57,161.09,148.25,160.85,148.25Z"/><path class="cls-1" d="M196.62,100.43a103.69,103.69,0,0,1-17.32,1.17c-5.68,0-11.37,0-17,0H127.67a147.5,147.5,0,0,1-19.09-.93c-.16,0-.2.25,0,.29,5.51,1.1,11.21,1.1,16.8,1.11H143q17.46,0,34.92,0a104.77,104.77,0,0,0,18.86-1.24C197,100.78,196.88,100.38,196.62,100.43Z"/><path class="cls-1" d="M190.43,110.52a455.6,455.6,0,0,1-58.13,2.07q-4.16-.12-8.31-.3a35.2,35.2,0,0,1-8.25-.93.17.17,0,0,0-.09.32,26.34,26.34,0,0,0,6.9.95q3.61.19,7.22.32,7.41.26,14.82.27,14.64,0,29.27-.9,8.3-.52,16.58-1.33C190.72,111,190.73,110.49,190.43,110.52Z"/><path class="cls-1" d="M202.37,62.18Q182.79,64.27,163.1,65t-39.19-.14q-5.5-.22-11-.56c-3.49-.21-7.15-.25-10.38-1.73-.17-.08-.31.17-.15.25a20.92,20.92,0,0,0,7.89,1.72c3.28.24,6.57.42,9.85.58q10,.49,20,.6,19.87.2,39.72-1.1,11.27-.74,22.49-2C202.64,62.58,202.65,62.15,202.37,62.18Z"/><path class="cls-1" d="M152.7,25c-4,5.17-5.86,11.66-7.22,18A119.7,119.7,0,0,0,142.85,65a.23.23,0,0,0,.46,0,121.52,121.52,0,0,1,2.55-21.76c1.34-6.4,3.24-12.69,7.07-18.08C153,25,152.8,24.83,152.7,25Z"/><path class="cls-1" d="M188,42.54c-2.49-3.2-5.09-6.4-8.46-8.71a53.1,53.1,0,0,0-10.71-5.51,43.36,43.36,0,0,0-13.28-3.16h0a15.72,15.72,0,0,0-2.43-.05,5.64,5.64,0,0,0-.58-.11.12.12,0,0,0-.11-.2l-.67.11c-3.85-.05-7.85,1.28-11.35,2.76A66.18,66.18,0,0,0,130,33.34a28.42,28.42,0,0,0-4.71,3.54,33.91,33.91,0,0,0-3.6,4.67,90,90,0,0,0-6.39,10.2,33.08,33.08,0,0,0-3.83,12.52c0,.29.43.29.46,0,.6-7.9,4.84-14.83,9.23-21.2,1.12-1.63,2.21-3.31,3.48-4.83a21,21,0,0,1,4.65-3.92,72.75,72.75,0,0,1,10.05-5.77,40.56,40.56,0,0,1,6.14-2.26,35.13,35.13,0,0,1,4.25-.83A24.55,24.55,0,0,0,144,28.52a28.78,28.78,0,0,0-6.95,6.36c-2,2.71-3.19,6.08-4.5,9.14a71.54,71.54,0,0,0-3.46,9.62,35.45,35.45,0,0,0-1.27,11.47c0,.31.5.31.48,0-.44-6.7,1.49-13.2,4-19.34a85.62,85.62,0,0,1,4.11-9,24.21,24.21,0,0,1,6.78-7.14,27.53,27.53,0,0,1,9.16-4.54.1.1,0,0,0,.06.14l.13,0a.07.07,0,0,0,.07.07h.19c2.47.75,4.55,2.82,6.05,4.83a25.91,25.91,0,0,1,3.66,7.35,114.92,114.92,0,0,1,4.09,17.26,88.72,88.72,0,0,1,1.17,10.47c0,.3.48.3.47,0a105.6,105.6,0,0,0-2.93-19.09C164,40.5,162.7,34.49,159.12,29.8a13.24,13.24,0,0,0-5.24-4.43A21.9,21.9,0,0,1,163,28a48.25,48.25,0,0,1,8.09,5.94,41.38,41.38,0,0,1,3.75,3.5,20.73,20.73,0,0,1,3,4.48,97.31,97.31,0,0,1,4.57,10,39.84,39.84,0,0,1,2.73,11.86c0,.3.48.3.46,0-.41-7.44-3.43-14.33-6.73-20.9a28.86,28.86,0,0,0-2.71-4.65,26.81,26.81,0,0,0-3.86-3.88A55.08,55.08,0,0,0,163.89,28a23.88,23.88,0,0,0-4.16-1.91A52.36,52.36,0,0,1,166.85,28a58.69,58.69,0,0,1,10.81,5.14,33.37,33.37,0,0,1,8.68,8.06A78.9,78.9,0,0,1,193,50.61a27.32,27.32,0,0,1,4,12.19c0,.32.51.32.5,0C197.1,55.05,192.57,48.47,188,42.54Z"/><path class="cls-1" d="M203.51,64.62l-.38.08c0-.1-.07-.2-.11-.29s-.32,0-.28.12l.05.25h0A102.64,102.64,0,0,1,184,66.83c-6.53.2-13.06.17-19.59.15q-19.91-.05-39.8-.83l-.76,0,0-.1c.07-.17-.19-.25-.28-.12l-.15.2c-7-.25-14.15-.29-21-1.76-.21,0-.31.28-.09.33h0a.13.13,0,0,0,0,0,10.48,10.48,0,0,0,8.77,9.53c4.56.63,8.15-2.18,10.84-5.56-2.09,4-5.15,7.61-10,7.93a7.58,7.58,0,0,1-6.84-3c-1.77-2.51-2.17-5.74-2.86-8.65,0-.09-.16-.07-.16,0s0,.27,0,.4c-.06,0-.15,0-.14.07s0,.24.05.36a0,0,0,0,0,0,0l.05.31c.27,1.73.67,3.45.91,5.18.14,1,.24,2.07.28,3.1s.18,3-1.34,3.21c-.29,0-.29.5,0,.46,2.2-.29,1.83-3.14,1.7-4.72,0-.3-.06-.59-.09-.89a83.12,83.12,0,0,0,4.51,11.72A134.09,134.09,0,0,0,118,101a7.47,7.47,0,0,0,.07.83,3.61,3.61,0,0,0,.11.61c0,.21.11.43.17.64a.23.23,0,0,0,.29.15.19.19,0,0,0,.29,0,35.44,35.44,0,0,0,4,8.07c1.64,2.77,3.38,5.47,5.13,8.17-2.44-3.11-4.91-6.19-7.23-9.39,0-.05-.12,0-.09.05,2.91,4.09,5.86,8.26,9.12,12.11,3.53,5.42,7.1,10.83,10.56,16.29a32.83,32.83,0,0,1,4.51,10.64c.07.32.55.18.48-.13a31.75,31.75,0,0,0-3.55-9.06c-1.79-3.06-3.82-6-5.76-9-1.59-2.44-3.2-4.86-4.8-7.29a.06.06,0,0,0,0-.07l-.33-.43c-2.25-3.42-4.49-6.85-6.64-10.33-1.91-3.09-4.09-6.35-5.25-9.84.28-.24.25-.88.24-1.2a3.79,3.79,0,0,0-.19-1,111.08,111.08,0,0,0,4-19.9.18.18,0,0,0-.05-.16c2-.13,1.37-4.07,1.31-5.24a46.8,46.8,0,0,0-.52-4.87c.42,1.43.93,2.83,1.43,4.2a70.52,70.52,0,0,0,2.93,6.85,71.59,71.59,0,0,0,8.07,12.79,69.52,69.52,0,0,0,5.2,5.86.73.73,0,0,0-.05.23c0,.55,0,1.1,0,1.65a.6.6,0,0,0,.13.38,1.41,1.41,0,0,0,.11.68c.61,5.8,1.51,11.58,2.3,17.35q1.25,9.12,2.51,18.23.72,5.23,1.43,10.47c0,.31.51.18.46-.13-1.7-12.09-3.33-24.18-5-36.27-.43-3.12-.84-6.24-1.36-9.34a.6.6,0,0,0,.56,0,.62.62,0,0,0,.33-.43.56.56,0,0,0-.05-.4c0-.09,0-.21,0-.26s0-.3,0-.45a7.86,7.86,0,0,0,0-1.44,21.78,21.78,0,0,0,2.87-3.56,40.13,40.13,0,0,0,4.63-8.64,29.45,29.45,0,0,1,2.23-5.22,1.48,1.48,0,0,0,.74.36c2.09.3,1.41-4.45,1.3-5.46-.16-1.45-.43-2.89-.67-4.33,0-.29-.09-.57-.12-.86A142,142,0,0,0,166.62,101q0,.65-.06,1.29c0,.13,0,.26,0,.39a.67.67,0,0,0,.24.56c-.34,1.27-.48,2.67-.75,3.92-.36,1.64-.75,3.27-1.18,4.89-.84,3.2-1.77,6.37-2.74,9.53-2,6.38-4.07,12.72-5.65,19.2-.45,1.85-.86,3.7-1.21,5.57-.15.78-.35,1.59-.41,2.38,0,.4,0,.77.4,1s.55-.3.25-.44.11-2,.18-2.44q.21-1.16.45-2.31c.32-1.53.68-3.06,1.06-4.58.77-3.1,1.65-6.17,2.58-9.23,1.83-6.07,3.84-12.08,5.43-18.22q.65-2.52,1.2-5.06c.19-.88.36-1.75.52-2.64.07-.38.21-.9.28-1.39a.73.73,0,0,0,.87-.72c0-.41,0-.82,0-1.24a58.22,58.22,0,0,0,8.75-10.79,52.06,52.06,0,0,0,6-12.82,3.53,3.53,0,0,0,.37,1.64c.29.54.94,1.32,1.64,1.22s1-.94,1.19-1.46a9.76,9.76,0,0,0,.27-3.25,28.42,28.42,0,0,0-.31-3.62,24.38,24.38,0,0,0-.47-2.56,11.11,11.11,0,0,0,.64,1.51.11.11,0,0,0,0,.11c1,4.95,2.23,9.85,3.23,14.8q1.39,6.87,2.53,13.78v0a2.38,2.38,0,0,0-.1.29.62.62,0,0,0-.15.43c0,.34,0,.67,0,1,0,0,0,0,0,0s0,.18,0,.28a.71.71,0,0,0,.07.29,157.68,157.68,0,0,1-13.69,17.56c-4.78,5.5-9.52,11.11-13.1,17.5a45.22,45.22,0,0,0-4.53,11.16c-.08.31.4.44.47.13C164.36,134,176,123.42,185.16,112a71.08,71.08,0,0,0,6.67-9.46.68.68,0,0,0,1.1-.53c0-.09,0-.18,0-.27s0,0,0,0c0-.22,0-.44,0-.66l0-.34a.81.81,0,0,0,0-.26c2.18-2.94,3.44-6.45,4.8-9.82l4.78-11.77a1.39,1.39,0,0,0,1,.53.16.16,0,0,0,.11-.26,7.29,7.29,0,0,1-.89-.81l.24-.6c.11-.28-.34-.4-.45-.12l-.07.18a3.65,3.65,0,0,1-.18-1.44c.06-1.25.4-2.51.57-3.75.13-.93.22-1.86.29-2.79a8.66,8.66,0,0,0,.1-4.72l.36-.08C203.92,65,203.79,64.55,203.51,64.62Zm-1.09.7a11,11,0,0,1-3.11,3.15,10.39,10.39,0,0,1-4.23,1.47c-3.31.39-6.37-.82-9.15-2.5a.11.11,0,0,0-.16.06l-.06-.1a.19.19,0,0,0-.14-.17A100.66,100.66,0,0,0,202.41,65.32Zm0,.82a10.78,10.78,0,0,1-.17,1.47,6.17,6.17,0,0,1-1.75,2.81,9.28,9.28,0,0,1-5.91,2.64,8.84,8.84,0,0,1-5.66-1.66,9.4,9.4,0,0,1-2.22-2.24A9.71,9.71,0,0,1,186,68c-.07-.13-.12-.25-.17-.37a12.92,12.92,0,0,0,9.52,2.7A10,10,0,0,0,202.41,66.13ZM182,67.34l3.36-.1a.2.2,0,0,0-.08.07l-.11.15h0c0-.12-.23-.1-.22,0v.05c-1.28.46-2.5,1.12-3.75,1.62s-2.69,1-4.06,1.43a33.51,33.51,0,0,1-8.78,1.48,23.53,23.53,0,0,1-14.85-4.67C163,67.53,172.54,67.55,182,67.34Zm3.24,1.81c-.07-.21-.15-.42-.24-.63a.13.13,0,0,0-.06-.07h0l.11-.14C185.13,68.59,185.2,68.87,185.28,69.15Zm-1.1-.43h0a17.21,17.21,0,0,1-5.49,4.32,21.67,21.67,0,0,1-9.4,2c-1.6,0-3.2-.07-4.79-.2a13.91,13.91,0,0,1-4.66-.92,11.18,11.18,0,0,1-3.43-2.83c-1-1.08-1.93-2.21-2.86-3.34,3.87,3.48,9.4,4.85,14.5,4.78a33.17,33.17,0,0,0,8.71-1.36c1.49-.43,2.95-.94,4.38-1.51a31.57,31.57,0,0,0,3.57-1.54v0l-.35.43a.33.33,0,0,0-.1-.06.11.11,0,0,0-.13.08l0,.06A.09.09,0,0,0,184.17,68.72Zm-30.88-.85a24.21,24.21,0,0,0,4.9,5.51c1.87,1.46,4.2,1.71,6.49,1.89,5.19.41,10.65.31,15.28-2.38a17.2,17.2,0,0,0,4.2-3.46C182,73.64,177.72,76,173.07,77c-5.23,1.07-11.59,1.16-16-2.34a10.34,10.34,0,0,1-3.87-6.35C153.25,68.14,153.28,68,153.3,67.87Zm-11.63-.72q5.6.13,11.2.22a.12.12,0,0,0,0,0c0,.06,0,.11,0,.17l-.18.2a.19.19,0,0,0-.23-.11c-9,2.26-20.5,7.11-27.79-1.05Q133.17,67,141.67,67.16Zm-18.07-.58.74,0c2.24,3.6,7,5.05,11,5.08a32.75,32.75,0,0,0,8.24-1.2c2.93-.74,5.86-1.52,8.75-2.38a22.33,22.33,0,0,1-15.07,6.94c-2.88.14-6.11-.15-8.61-1.71s-3.18-4.61-5.14-6.71Zm-.33.49.13.61-.08-.25a.13.13,0,0,0-.16-.09l0-.1Zm-12,6.74c-4.65-.62-7.6-4.4-8.49-8.76a15.82,15.82,0,0,0,4,5,8.92,8.92,0,0,0,5.85,2.12,14.1,14.1,0,0,0,6.53-2c.65-.36,1.39-.78,2.1-1.25C118.69,71.91,115.37,74.36,111.23,73.81Zm7.56-3.93a13.4,13.4,0,0,1-6.49,1.87,8.77,8.77,0,0,1-5.82-2.46,47.89,47.89,0,0,1-3.7-4.51c6.1,1.43,12.49,1.45,18.72,1.71l1.48.06-.35.5a.1.1,0,0,0-.1.07l0,.12A15.78,15.78,0,0,1,118.78,69.88Zm3.85,11.05a112.55,112.55,0,0,1-3.78,19.27l0-.06c0-.07,0-.14,0-.22a.26.26,0,0,0-.27-.22l-.07-.09a.17.17,0,0,0-.31.06.2.2,0,0,0-.07.13c0,.16,0,.31,0,.47v.08a130.57,130.57,0,0,1-9.53-16,85.72,85.72,0,0,1-3.67-9.07c-.36-1.06-.69-2.13-1-3.2l.15.34a7.71,7.71,0,0,0,4.33,4.12c4.08,1.49,8.47-.35,11.24-3.44a18,18,0,0,0,2-2.79,49.76,49.76,0,0,0-.91,5.41c-.18,1.51-.13,4.83,2,5A.22.22,0,0,0,122.63,80.93Zm1.23-7.12c.09,1.09.15,2.18.16,3.28,0,.92.23,4-1.66,3.12-1-.47-1.3-2.05-1.33-3a16.21,16.21,0,0,1,.34-3.15c.3-1.75.72-3.49,1.07-5.23.17-.34.32-.69.47-1A46.47,46.47,0,0,1,123.86,73.81Zm-.28-6.46c1.35,1.66,2,3.81,3.54,5.33a10.7,10.7,0,0,0,6.2,2.63A22.79,22.79,0,0,0,152.5,68.6c0,.13,0,.26,0,.39a12.62,12.62,0,0,1-.86,2,13.92,13.92,0,0,1-2.17,2.91A13.51,13.51,0,0,1,143,77.63a25.78,25.78,0,0,1-8.94.22c-2.72-.33-5.48-1.19-7.32-3.33A17.23,17.23,0,0,1,123.58,67.35ZM152.14,83a18.45,18.45,0,0,0-2,4.45,40.35,40.35,0,0,1-4.75,9.15c-.87,1.25-1.91,2.37-2.8,3.59a.67.67,0,0,0-.88-.21,70.46,70.46,0,0,1-15.38-23.39c-.54-1.35-1-2.71-1.43-4.08A11,11,0,0,0,126,74.25a10.46,10.46,0,0,0,6.74,3.84c5.61,1,12,.76,16.42-3.26a14.82,14.82,0,0,0,3.38-4.5,17.68,17.68,0,0,1-.35,3c-.33,1.56-.82,3.1-1.05,4.68a6.82,6.82,0,0,0,.32,3.67,4.83,4.83,0,0,0,.78,1.28Zm1.67-7.14a29.12,29.12,0,0,1,.41,3.9,15,15,0,0,1-.05,1.81,4.42,4.42,0,0,1-.13.86q-.05.62-.73.37a.56.56,0,0,1-.79-.18c-1-.78-1.14-2.46-1.1-3.59a20.63,20.63,0,0,1,.7-3.91,19.74,19.74,0,0,0,.78-5.71l.07-.2a10.45,10.45,0,0,0,0,1.48.11.11,0,0,0,0,.08v0C153.1,72.49,153.55,74.24,153.81,75.85Zm29.06.86c0,.16,0,.33-.06.49a.22.22,0,0,0-.32.11,68.82,68.82,0,0,1-6.14,13.08A58.72,58.72,0,0,1,168,100.81l0-.45a.65.65,0,0,0-1.27-.17c-5.52-9-9.19-18.85-13.11-28.63l-.11-1.17c1.44,3.79,5.34,6.38,9.31,7.19a25.54,25.54,0,0,0,9,0,20.23,20.23,0,0,0,8.52-3.12,13.12,13.12,0,0,0,3.86-4.13c0,.11,0,.22,0,.33-.1.67-.25,1.34-.39,2C183.41,74,183.08,75.37,182.87,76.71Zm2.95-1.41a15.81,15.81,0,0,1-.07,3.08,3.48,3.48,0,0,1-.47,1.39c-.57.87-1.41.14-1.76-.51a5.08,5.08,0,0,1-.06-3.39c.22-1.08.45-2.15.67-3.23a16.6,16.6,0,0,0,.42-2.9c0-.06,0-.13,0-.21s.18-.4.26-.6c.17,1,.47,1.91.63,2.88A27.62,27.62,0,0,1,185.81,75.3Zm16.27-.55a6.32,6.32,0,0,0-.08,3.15,3.34,3.34,0,0,0,.24.55L197.6,89.89c-1.4,3.45-2.66,7.1-4.87,10.15a.61.61,0,0,0-.48-.27q-1.14-6.85-2.54-13.65c-1-4.74-2-9.53-3.27-14.2A9.16,9.16,0,0,0,193,76.43a9,9,0,0,0,9.58-5.08C202.46,72.49,202.29,73.63,202.08,74.75Zm.75-5.22a8.56,8.56,0,0,1-.78,2,8.44,8.44,0,0,1-5.77,4.34,9.13,9.13,0,0,1-7.07-1.47A11,11,0,0,1,185.3,68l.13-.18a6.43,6.43,0,0,0,1,1.76,9.83,9.83,0,0,0,2.11,2.12,9.22,9.22,0,0,0,6,1.8,9.73,9.73,0,0,0,5.83-2.4,7.69,7.69,0,0,0,2-2.57,11.38,11.38,0,0,0,.57-3,11.88,11.88,0,0,1,.15,1.49Q203,68.28,202.84,69.54Z"/><path class="cls-1" d="M167.38,49.18q-.86-3.69-2-7.32a51.89,51.89,0,0,0-2.45-7c0-.06-.12,0-.1,0,.66,2.37,1.6,4.67,2.3,7s1.33,4.76,1.88,7.16A116.8,116.8,0,0,1,169.45,64c0,.22.37.22.35,0A112.24,112.24,0,0,0,167.38,49.18Z"/><path class="cls-1" d="M169.8,54.46a79.42,79.42,0,0,0-2.64-10.2,0,0,0,0,0-.06,0c.95,3.33,1.77,6.69,2.39,10.09q.49,2.7.83,5.43c.2,1.61.27,3.25.49,4.86,0,.17.29.12.29,0A57.56,57.56,0,0,0,169.8,54.46Z"/><path class="cls-1" d="M169.08,45.12a0,0,0,0,0-.06,0c.74,3.07,1.56,6.1,2.15,9.2A96,96,0,0,1,172.48,64c0,.22.37.23.35,0A75.68,75.68,0,0,0,169.08,45.12Z"/><path class="cls-1" d="M170.72,46.07a0,0,0,0,0-.08,0,100.61,100.61,0,0,1,3.44,18.16c0,.22.37.23.36,0A72.72,72.72,0,0,0,170.72,46.07Z"/><path class="cls-1" d="M172.32,47.16a0,0,0,0,0-.09,0,87.06,87.06,0,0,1,3,17.18c0,.23.37.23.36,0A68.07,68.07,0,0,0,172.32,47.16Z"/><path class="cls-1" d="M176.78,60.43c-.17-1.33-.39-2.66-.64-4a46.18,46.18,0,0,0-2.21-8.36,0,0,0,0,0-.06,0c.62,2.76,1.39,5.48,1.9,8.27.26,1.46.48,2.93.66,4.4s.18,2.69.45,4c0,.15.25.1.25,0A22.48,22.48,0,0,0,176.78,60.43Z"/><path class="cls-1" d="M175.69,48.43a.06.06,0,0,0-.11,0c.61,2.56,1.21,5.11,1.73,7.69s.87,5.18,1.34,7.77c0,.2.38.16.36,0A78.33,78.33,0,0,0,175.69,48.43Z"/><path class="cls-1" d="M174.3,43.11s-.08,0-.06,0a97,97,0,0,1,5.6,21c0,.2.39.16.36,0A68.84,68.84,0,0,0,174.3,43.11Z"/><path class="cls-1" d="M180,53.85a82.8,82.8,0,0,0-3.48-10.34s-.09,0-.07,0c1.21,3.36,2.28,6.78,3.17,10.24s1.39,7,2.12,10.52c0,.21.39.16.37-.05A62.85,62.85,0,0,0,180,53.85Z"/><path class="cls-1" d="M178.45,44.78c0-.06-.12,0-.1,0a81.19,81.19,0,0,1,4,18.33c0,.27.44.27.42,0A60,60,0,0,0,178.45,44.78Z"/><path class="cls-1" d="M183.18,57.92c-.33-1.55-.67-3.09-1.06-4.62,0-.07-.12,0-.11,0,.28,1.5.56,3,.84,4.5s.43,3,.84,4.49c0,.16.31.14.3,0A35.24,35.24,0,0,0,183.18,57.92Z"/><path class="cls-1" d="M198.7,62.48a55.23,55.23,0,0,0-12.61-22.86c-.06-.07-.16,0-.1.1a62.83,62.83,0,0,1,12.34,22.86A.19.19,0,0,0,198.7,62.48Z"/><path class="cls-1" d="M200.38,62.5c-3.14-8.83-6.62-18.56-14.55-24.27-.07-.05-.16.07-.09.12,7.7,6.08,11.11,15.29,14.23,24.26C200.06,62.88,200.47,62.76,200.38,62.5Z"/><path class="cls-1" d="M200.62,59.77q-.4-1.06-.8-2.13c-.57-1.48-1.16-2.94-1.8-4.39a41.06,41.06,0,0,0-4.82-8.56s-.07,0-.05,0a66.13,66.13,0,0,1,4.5,8.56c.68,1.57,1.3,3.17,1.9,4.77a25.64,25.64,0,0,0,1.62,4.28.15.15,0,0,0,.28-.12A13,13,0,0,0,200.62,59.77Z"/><path class="cls-1" d="M201.14,58.37c-.24-.7-.49-1.41-.75-2.1-.48-1.29-1-2.58-1.58-3.83,0-.05-.12,0-.1,0,.48,1.34,1,2.68,1.45,4q.34,1,.66,1.95a7.19,7.19,0,0,0,.67,1.79.07.07,0,0,0,.14,0A6.29,6.29,0,0,0,201.14,58.37Z"/><path class="cls-1" d="M160.72,31.64a13.51,13.51,0,0,0-2.12-3c-.85-1-1.87-1.73-2.71-2.69,0,0-.09,0-.07.05a14.35,14.35,0,0,0,2.28,2.48,38.57,38.57,0,0,1,2.5,3.25A.06.06,0,0,0,160.72,31.64Z"/><path class="cls-1" d="M157.38,26.58s-.09,0-.05.05a30.59,30.59,0,0,1,7.83,11c0,.06.14,0,.11,0A25.26,25.26,0,0,0,157.38,26.58Z"/><path class="cls-1" d="M160.25,28.34s-.07,0,0,0a33.71,33.71,0,0,1,3.81,5c1.06,1.72,1.85,3.53,2.74,5.33,0,.06.13,0,.11,0A26.19,26.19,0,0,0,160.25,28.34Z"/><path class="cls-1" d="M166.24,34.27a27.64,27.64,0,0,0-4-5s-.07,0,0,0a38.7,38.7,0,0,1,3.91,5.2c1.1,1.78,1.81,3.72,2.81,5.55A.08.08,0,0,0,169,40,19.73,19.73,0,0,0,166.24,34.27Z"/><path class="cls-1" d="M163.81,29s-.12,0-.07.07a34.12,34.12,0,0,1,7.81,12.65.09.09,0,0,0,.17,0A26.14,26.14,0,0,0,163.81,29Z"/><path class="cls-1" d="M171.26,37a28.67,28.67,0,0,0-3.82-5.33c0-.05-.12,0-.08.08a34.48,34.48,0,0,1,3.7,5.55c1,1.89,1.65,3.91,2.49,5.87,0,.1.17,0,.16-.07A20.58,20.58,0,0,0,171.26,37Z"/><path class="cls-1" d="M170.21,34.07s-.1,0-.07.06A45.28,45.28,0,0,1,173,39c.86,1.68,1.51,3.44,2.27,5.16,0,.09.17,0,.15-.06A26.43,26.43,0,0,0,170.21,34.07Z"/><path class="cls-1" d="M173.49,35.91s-.1,0-.07,0a19,19,0,0,1,1.76,3.45c.44,1.13.64,2.32,1,3.45a.07.07,0,0,0,.13,0C176.35,40.39,174.9,37.81,173.49,35.91Z"/><path class="cls-1" d="M151.21,25.89a28.53,28.53,0,0,0-4.65,8,73.38,73.38,0,0,0-3,9.31,145.3,145.3,0,0,0-4.07,21.66c0,.26.37.25.4,0a180,180,0,0,1,3.81-21.46,63.72,63.72,0,0,1,2.78-8.9A40.54,40.54,0,0,1,151.31,26C151.35,25.91,151.26,25.83,151.21,25.89Z"/><path class="cls-1" d="M144.31,45.09a82,82,0,0,0-1.86,10.12q-.34,2.3-.64,4.61a29.37,29.37,0,0,0-.56,5.29.15.15,0,0,0,.29,0,37.48,37.48,0,0,0,.56-5q.3-2.62.69-5.24c.48-3.28,1.23-6.54,1.63-9.83C144.43,45,144.33,45,144.31,45.09Z"/><path class="cls-1" d="M148.5,28.12a74.72,74.72,0,0,0-7.58,17.72,83.69,83.69,0,0,0-2.24,9.55c-.26,1.52-.48,3-.67,4.58a25.5,25.5,0,0,0-.4,4.89c0,.18.29.24.33,0,.3-1.49.26-3.09.42-4.61s.4-3.21.67-4.81a87.73,87.73,0,0,1,2.13-9.41,101.62,101.62,0,0,1,7.36-17.95A0,0,0,0,0,148.5,28.12Z"/><path class="cls-1" d="M144.85,33.4c-3,4.55-4.72,10-6,15.29a113.68,113.68,0,0,0-2.52,16.43c0,.25.38.25.4,0a110.73,110.73,0,0,1,2.39-16.35,63.91,63.91,0,0,1,2.29-7.66,76.41,76.41,0,0,1,3.51-7.66A0,0,0,0,0,144.85,33.4Z"/><path class="cls-1" d="M140,41.46c-4.18,7-5,15.69-5.41,23.65,0,.25.36.24.39,0,.34-4.07.55-8.14,1.28-12.17a40.23,40.23,0,0,1,3.81-11.45A0,0,0,0,0,140,41.46Z"/><path class="cls-1" d="M137.79,43.27a34.62,34.62,0,0,0-3.47,10.61A88.47,88.47,0,0,0,133,65.12c0,.22.32.21.34,0,.42-3.73.62-7.46,1.28-11.16a46.4,46.4,0,0,1,3.27-10.64C137.9,43.26,137.82,43.22,137.79,43.27Z"/><path class="cls-1" d="M136.86,42.27A53.14,53.14,0,0,0,131.4,65a.18.18,0,0,0,.37,0,57.75,57.75,0,0,1,5.16-22.67S136.89,42.23,136.86,42.27Z"/><path class="cls-1" d="M135.57,41A57.91,57.91,0,0,0,130,64.86a.18.18,0,0,0,.37,0A63.64,63.64,0,0,1,135.64,41S135.59,40.91,135.57,41Z"/><path class="cls-1" d="M130.5,52.78a4.71,4.71,0,0,0-.61,2.1q-.2,1.44-.36,2.88-.35,3.12-.62,6.25c0,.21.31.21.32,0,.15-1.85.32-3.69.5-5.53.09-.89.18-1.78.27-2.67a7.46,7.46,0,0,1,.55-3A0,0,0,0,0,130.5,52.78Z"/><path class="cls-1" d="M137.71,28.47c-5.35,1.67-10.1,5.56-13.8,9.66A57.25,57.25,0,0,0,114.11,54c-1.43,3.33-2.68,6.74-3.83,10.17-.09.27.33.38.42.12,3.77-11.56,8.83-23.43,18.76-31a40.3,40.3,0,0,1,8.28-4.7S137.75,28.45,137.71,28.47Z"/><path class="cls-1" d="M122.41,38.32a43.83,43.83,0,0,0-7.48,11.93c-.94,2.08-1.78,4.21-2.57,6.36-.43,1.17-.84,2.34-1.25,3.51-.14.39-.29.8-.45,1.21.9-3.05,1.77-6.11,2.89-9.11a56.33,56.33,0,0,1,6-12s0-.06-.05,0a50.31,50.31,0,0,0-6.14,11.62,111.9,111.9,0,0,0-4.14,12.9.18.18,0,0,0,.34.09c.13-.42.26-.84.39-1.25v.06c0,.14.16.24.24.1a19.39,19.39,0,0,0,1.09-3.1q.57-1.69,1.17-3.37c.81-2.27,1.68-4.53,2.66-6.74a54.81,54.81,0,0,1,7.33-12.18S122.44,38.3,122.41,38.32Z"/><path class="cls-1" d="M117.16,41.78a70.47,70.47,0,0,0-5.52,10.6q-1.16,2.79-2.1,5.67-.46,1.4-.86,2.81a10.2,10.2,0,0,0-.67,2.9.11.11,0,0,0,.2.05,11.47,11.47,0,0,0,.73-2.54q.38-1.42.82-2.82.9-2.88,2-5.69a84.19,84.19,0,0,1,5.38-11A0,0,0,0,0,117.16,41.78Z"/><path class="cls-1" d="M114.9,44.21A12.21,12.21,0,0,0,112.3,48c-.84,1.7-1.62,3.42-2.36,5.17s-1.33,3.23-1.93,4.87a32.76,32.76,0,0,0-1.82,5.42c0,.15.19.27.26.11.72-1.56,1.11-3.33,1.7-5s1.21-3.25,1.87-4.85,1.44-3.38,2.22-5A15.77,15.77,0,0,1,115,44.32.07.07,0,0,0,114.9,44.21Z"/><path class="cls-1" d="M112.33,45.74a56.51,56.51,0,0,0-7.42,17.59c-.08.21.29.32.35.1a70.49,70.49,0,0,1,2.87-8.94,81.52,81.52,0,0,1,4.26-8.7A0,0,0,0,0,112.33,45.74Z"/><path class="cls-1" d="M110.12,47.21a71.88,71.88,0,0,0-3.42,7.57A54.19,54.19,0,0,0,104,63c-.07.2.25.28.31.09.87-2.62,1.56-5.29,2.52-7.88s2.13-5.32,3.34-7.91C110.23,47.21,110.15,47.16,110.12,47.21Z"/><path class="cls-1" d="M106.23,54a51.75,51.75,0,0,0-2.84,8,.17.17,0,0,0,.33.09c.72-2.75,1.63-5.43,2.57-8.1C106.31,54,106.25,53.95,106.23,54Z"/><path class="cls-1" d="M162.38,31.34a21.28,21.28,0,0,0-6.8-5.59c-.12-.06-.22.12-.11.18a27.61,27.61,0,0,1,6.82,5.47S162.42,31.39,162.38,31.34Z"/><path class="cls-1" d="M161.17,29c-1.31-1-2.62-2-4-3-.06,0-.13.05-.08.1,1.19,1,2.4,1.91,3.61,2.85a9.74,9.74,0,0,1,2.94,2.85,0,0,0,0,0,.09,0C163.38,30.51,162.15,29.78,161.17,29Z"/><path class="cls-1" d="M166.13,32.34a13,13,0,0,0-3.43-3.42,17.59,17.59,0,0,0-4.49-2.39c-.05,0-.07.06,0,.08A19.81,19.81,0,0,1,162.46,29a37,37,0,0,1,3.53,3.4A.09.09,0,0,0,166.13,32.34Z"/><path class="cls-1" d="M171,34.88a19.41,19.41,0,0,0-4.3-4.11,27.74,27.74,0,0,0-5.62-3.26s-.08,0,0,.07a31.77,31.77,0,0,1,5.17,3.13c1.71,1.28,3.12,2.81,4.69,4.24C171,35,171.05,34.94,171,34.88Z"/><path class="cls-1" d="M200.86,85a75.87,75.87,0,0,1-6.77,17.26,79,79,0,0,1-10.85,15c-.05.06,0,.14.08.08A67.9,67.9,0,0,0,200.88,85,0,0,0,0,0,200.86,85Z"/><path class="cls-1" d="M192.24,103.62c-2.38,4.18-6.1,7.41-8.48,11.56a0,0,0,0,0,.07,0c1.43-2.05,3-4,4.55-5.93a33.37,33.37,0,0,0,3.91-5.64S192.26,103.58,192.24,103.62Z"/><path class="cls-1" d="M119.62,114.26a96.64,96.64,0,0,1-10.46-16.94,82.64,82.64,0,0,1-3.74-9.55c-1-3.18-1.76-6.4-2.52-9.65,0-.07-.11,0-.1,0a69.74,69.74,0,0,0,4.43,15.25,83.19,83.19,0,0,0,7.14,13.87,62.07,62.07,0,0,0,5.16,7.06S119.65,114.31,119.62,114.26Z"/><path class="cls-1" d="M117.25,109.18c-1.34-2.46-2.94-4.79-4.27-7.26s-2.5-5-3.77-7.53c0,0-.1,0-.08,0a65.87,65.87,0,0,0,3.58,7.46,55.71,55.71,0,0,0,4.42,7.37A.07.07,0,0,0,117.25,109.18Z"/><path class="cls-1" d="M116.76,106.31c-1.18-2.68-2.72-5.29-4.14-7.85,0-.06-.12,0-.09.05a71.29,71.29,0,0,0,4.05,7.9A.1.1,0,0,0,116.76,106.31Z"/><path class="cls-1" d="M136.94,135.79c-2-3.78-5-7.09-7.85-10.25a126.22,126.22,0,0,1-8.71-10.35s-.12,0-.08,0a105.78,105.78,0,0,0,8.19,10c1.44,1.64,2.87,3.28,4.24,5s2.73,3.73,4,5.65A.1.1,0,0,0,136.94,135.79Z"/><path class="cls-1" d="M133.65,128.26c-1.47-2.07-3.24-4-4.9-5.9s-3.52-4-5.36-5.92c0,0-.09,0-.06.06,1.71,2,3.44,3.92,5.12,5.91s3.26,4.08,5,6C133.56,128.48,133.72,128.36,133.65,128.26Z"/><path class="cls-1" d="M200.29,78.12c-1.3,4.28-2.71,8.46-4.31,12.64,0,.05.07.09.09,0a61.74,61.74,0,0,0,4.28-12.66A0,0,0,0,0,200.29,78.12Z"/><path class="cls-1" d="M106,84.29a25.23,25.23,0,0,1-2-5.44c0-.05-.09,0-.09,0a17,17,0,0,0,1.67,4.88c.8,1.87,1.53,3.79,2.43,5.61,0,.09.2,0,.17-.07C107.53,87.58,106.75,85.94,106,84.29Z"/><path class="cls-1" d="M181.24,118.09c-2.6,2.68-5.07,5.5-7.5,8.34s-4.77,5.5-6.89,8.44c0,.06.05.13.1.08,2.42-2.77,4.66-5.7,7-8.51s4.85-5.55,7.27-8.32C181.27,118.1,181.25,118.08,181.24,118.09Z"/><path class="cls-1" d="M179.14,122.09a74.58,74.58,0,0,0-9,10.73s0,.08.06,0c2.93-3.64,5.79-7.3,8.94-10.75C179.18,122.09,179.16,122.07,179.14,122.09Z"/><path class="cls-1" d="M142.46,139.48q-.89-2.12-2-4.16a25.21,25.21,0,0,0-2.32-4s-.05,0,0,0c.66,1.37,1.52,2.65,2.22,4s1.48,3,2.11,4.58a76,76,0,0,1,2.81,8.88.09.09,0,0,0,.18-.05A47.56,47.56,0,0,0,142.46,139.48Z"/><path class="cls-1" d="M143.78,139.5a34,34,0,0,0-2.76-6.12,0,0,0,0,0,0,0,54.33,54.33,0,0,1,2.67,6.31c.7,2.08,1.06,4.22,1.63,6.33,0,.06.13.05.12,0A26.75,26.75,0,0,0,143.78,139.5Z"/><path class="cls-1" d="M143.55,135.21s-.08,0-.07,0a62.32,62.32,0,0,1,2.29,8.76c0,.11.2.08.19,0A34.28,34.28,0,0,0,143.55,135.21Z"/><path class="cls-1" d="M145.21,137.25a.06.06,0,0,0-.11,0c.44,1.69.62,3.4,1,5.11a.07.07,0,0,0,.14,0A20.69,20.69,0,0,0,145.21,137.25Z"/><path class="cls-1" d="M148,139a46.65,46.65,0,0,0-.73-5.53s-.09,0-.08,0c.18,1.9.45,3.79.6,5.7s.16,3.82.28,5.73a.1.1,0,0,0,.2,0A48.92,48.92,0,0,0,148,139Z"/><path class="cls-1" d="M148.48,135.55c0-.05-.1,0-.09,0,.18,1.49.37,3,.5,4.49s.13,3,.28,4.52a.1.1,0,0,0,.19,0A38.4,38.4,0,0,0,148.48,135.55Z"/><path class="cls-1" d="M150.27,140.73q-.12-1.74-.31-3.47c0-.08-.13-.08-.12,0,.1,1.21.18,2.42.25,3.64a29,29,0,0,0,.18,3.31c0,.06.09,0,.1,0A19.38,19.38,0,0,0,150.27,140.73Z"/><path class="cls-1" d="M151.71,141.09q0-1.85-.17-3.7c0-.09-.15-.1-.15,0,.07,1.17.11,2.35.12,3.53s-.11,2.37,0,3.53c0,.06.11.09.12,0A19.05,19.05,0,0,0,151.71,141.09Z"/><path class="cls-1" d="M153,137.87c0-.09-.14-.09-.14,0,.14,2.11.12,4.22.18,6.33a.08.08,0,0,0,.17,0A44.35,44.35,0,0,0,153,137.87Z"/><path class="cls-1" d="M154.36,138.6c0-.1-.17-.1-.16,0,.13,1.83.06,3.65.14,5.48a0,0,0,0,0,.09,0A28.73,28.73,0,0,0,154.36,138.6Z"/><path class="cls-1" d="M152.18,81.24a20.94,20.94,0,0,1,0-2.46c0,.2,0,.4-.05.6a10.24,10.24,0,0,0,0,1.49C152.15,81,152.16,81.12,152.18,81.24Z"/><path class="cls-1" d="M152.31,81.85a2.87,2.87,0,0,0,.22.56c0-.21,0-.43,0-.64l0,.05A.15.15,0,0,1,152.31,81.85Z"/><path class="cls-1" d="M153.23,80.34q0-.89-.05-1.77c0-.09,0-.17,0-.25,0,.56-.07,1.13-.07,1.7a8.06,8.06,0,0,0,.14,2.1s0-.1,0-.15c0-.28,0-.63,0-.73Q153.23,80.78,153.23,80.34Z"/><path class="cls-1" d="M153.9,78.15c0-.21-.06-.43-.09-.64s0-.61-.05-.92A59.63,59.63,0,0,0,152.9,70c0-.19-.33-.14-.33,0,0,.67,0,1.34.1,2q-.05,1.54-.08,3.07a.12.12,0,0,0-.14.1,27.27,27.27,0,0,0-.7,5.37,7.2,7.2,0,0,0,.19,1.51c-1.79,2.92-2.52,6.43-3.94,9.53a26.29,26.29,0,0,1-5.88,8.07c-.2.19.1.48.3.3a25.26,25.26,0,0,0,5.76-7.88c.71-1.51,1.27-3.09,1.84-4.65s1.31-3.32,2-5c.18.49.47.86.92.8a.59.59,0,0,0,.3-.13h0a.2.2,0,0,0,.3-.11c0-.07,0-.13.06-.2C154.68,81.69,154.08,79.48,153.9,78.15Zm-1.74,1.23c0-.2,0-.4.05-.6a20.94,20.94,0,0,0,0,2.46c0-.12,0-.25,0-.37A10.24,10.24,0,0,1,152.16,79.38Zm.37,3a2.87,2.87,0,0,1-.22-.56.15.15,0,0,0,.19,0l0-.05C152.53,82,152.53,82.2,152.53,82.41Zm.71-.46s0,.1,0,.15a8.06,8.06,0,0,1-.14-2.1c0-.57,0-1.13.07-1.7,0,.09,0,.17,0,.25q0,.88.05,1.77,0,.44,0,.89C153.22,81.32,153.24,81.68,153.24,82Z"/><path class="cls-1" d="M185.41,72v0c0-.12,0-.23-.07-.35a.16.16,0,0,0-.05-.08c0-.68-.06-1.36-.11-2a.2.2,0,0,0-.29-.17l-.05,0h0a.13.13,0,0,0-.19.11v.06a5,5,0,0,0-.68,2.39q-.35,1.86-.58,3.75c-.14,1.17-.89,4.27.85,4.63a.39.39,0,0,0,.47.17.86.86,0,0,0,.34-.21.19.19,0,0,0,.21-.15l0-.19a7.26,7.26,0,0,0,.55-2.6A16.44,16.44,0,0,0,185.41,72Zm-.53.14V72c0-.28,0-.56,0-.83a.16.16,0,0,0-.06-.12q0-.43.07-.86Q184.87,71.18,184.88,72.12Zm-.43,4.95c0-.56,0-1.12.06-1.68C184.5,76,184.5,76.51,184.45,77.07Zm.85-3.39a17,17,0,0,1-.14,4.68c0-.43,0-.85,0-1.28Q185.29,75.38,185.3,73.67Zm-1.39,1.11q.18-1.38.43-2.76c0-.23.07-.58.12-.93q-.09.94-.17,1.89c-.08.84-.15,1.69-.19,2.53,0,.61-.07,1.23-.08,1.85a13.33,13.33,0,0,0,0,2.26C183.12,78.78,183.8,75.64,183.91,74.79Z"/><path class="cls-1" d="M203.71,74.09c-.09-2.12-.18-4.23-.26-6.35a.19.19,0,0,0-.38,0c0,.31,0,.63,0,.94a.07.07,0,0,0-.07,0,11.53,11.53,0,0,0-.45,2.62q-.18,1.56-.32,3.13c-.12,1.36-.35,2.85.6,4v.07a.22.22,0,0,0,.44,0l0-.58,0-.2a.74.74,0,0,0,.54-.71A17.09,17.09,0,0,0,203.71,74.09Zm-1-.47c.06-.65.16-1.33.26-2-.06,2-.11,4-.15,6C202.25,76.47,202.61,74.83,202.72,73.62Z"/><path class="cls-1" d="M121.91,72.42c-.09.49-.18,1-.25,1.46a19.22,19.22,0,0,0-.2,3,4.19,4.19,0,0,0,.44,2.24q-.09-2.38,0-4.74C121.92,73.7,121.91,73.06,121.91,72.42Z"/><path class="cls-1" d="M122.82,76.13c0,.7-.06,1.4-.14,2.1,0,.31,0,.63-.07.94a.19.19,0,0,1,0,.07l0,.27h.08a5,5,0,0,0,.28-.84.2.2,0,0,1-.07-.15Z"/><path class="cls-1" d="M121.91,72.42c-.09.49-.18,1-.25,1.46a19.22,19.22,0,0,0-.2,3,4.19,4.19,0,0,0,.44,2.24q-.09-2.38,0-4.74C121.92,73.7,121.91,73.06,121.91,72.42Z"/><path class="cls-1" d="M122.82,76.13c0,.7-.06,1.4-.14,2.1,0,.31,0,.63-.07.94a.19.19,0,0,1,0,.07l0,.27h.08a5,5,0,0,0,.28-.84.2.2,0,0,1-.07-.15Z"/><path class="cls-1" d="M142.32,100.3a37,37,0,0,1-11.15-12.17,77.61,77.61,0,0,1-4.08-7.94c-.65-1.43-1.27-2.87-1.87-4.31l-.79-1.9c-.11-.27-.25-.54-.38-.82v0a25.88,25.88,0,0,0-.4-3.79.13.13,0,0,0-.07-.1l0-.23a.14.14,0,0,0-.11-.12,5.91,5.91,0,0,0-.22-1,.19.19,0,0,0-.28-.11c-.32.14-.37.38-.47.71l0,.07a.14.14,0,0,0-.09.13c0,.08,0,.16,0,.23-.09.33-.18.66-.26,1A.16.16,0,0,0,122,70c0,.14,0,.28,0,.43l-.06.24a32.49,32.49,0,0,0-.71,3.88c-.15,1.34-.58,4.27.81,5.29,0,.15,0,.3,0,.44a.16.16,0,0,0,0,.1h0a41.79,41.79,0,0,0-.74,5.22q-.39,2.61-.89,5.21T119.26,96c-.41,1.69-1.07,3.4-1.32,5.12,0,.16.21.3.28.12a29.78,29.78,0,0,0,1.4-5.14q.61-2.57,1.1-5.17t.86-5.22a25.84,25.84,0,0,0,.54-5.24.15.15,0,0,0,.2-.12l0-.12a.18.18,0,0,0,.34.09l.09-.13a.84.84,0,0,0,.51-.1c0,.11,0,.21,0,.32a.19.19,0,0,0,.37,0q.05-.48.1-1a5.59,5.59,0,0,0,.22-1.9,31,31,0,0,0,.08-3.67c.18.41.37.8.51,1.15.55,1.37,1.11,2.74,1.69,4.1A77.44,77.44,0,0,0,130.69,88a38.75,38.75,0,0,0,11.39,12.66C142.33,100.87,142.57,100.46,142.32,100.3ZM121.9,79.07a4.19,4.19,0,0,1-.44-2.24,19.22,19.22,0,0,1,.2-3c.07-.49.15-1,.25-1.46,0,.64,0,1.28,0,1.91Q121.81,76.7,121.9,79.07Zm.8.43h-.08l0-.27a.19.19,0,0,0,0-.07c0-.31,0-.63.07-.94.08-.7.12-1.4.14-2.1l.08,2.38a.2.2,0,0,0,.07.15A5,5,0,0,1,122.7,79.5Z"/><path class="cls-1" d="M119.14,102.06a5.66,5.66,0,0,0-.18-1.55.36.36,0,0,0-.17-.17,105,105,0,0,1-8.65-13.22c-1.28-2.31-2.51-4.65-3.73-7a60.59,60.59,0,0,1-2.94-6,12,12,0,0,0-.23-2.06,40.1,40.1,0,0,0-.69-4.29c0-.18-.34-.14-.32,0l0,.21a.14.14,0,0,0-.16.15q0,.36,0,.73c0-.25-.06-.49-.1-.74l0-.24,0,0c.1.1.26-.06.16-.16l-.24-.23c.05-.66.1-1.33.14-2,0-.12-.19-.15-.21,0a54,54,0,0,0-.65,7.9c0,.87-.72,5.13,1.29,4.59a.15.15,0,0,0,0-.29l0,0,0,0a.2.2,0,0,0,.18-.1,5.83,5.83,0,0,0,.49-1.06l.06.45c0,.23.39.24.37,0s-.08-.74-.11-1.11a.17.17,0,0,0,.05-.13c0-.27,0-.54,0-.8,0-.05,0-.1,0-.16A51.61,51.61,0,0,0,106,80c1.25,2.45,2.52,4.9,3.85,7.31a93,93,0,0,0,8.43,13.09l0,0a3.19,3.19,0,0,0-.41,1.74.81.81,0,0,0,.8,1.23.83.83,0,0,0,.72-.81A.75.75,0,0,0,119.14,102.06ZM101.91,72q0,2.63-.06,5.26a.18.18,0,0,0,0,0c-.56-.7-.34-1.94-.32-2.79q0-1.53.11-3c0-.74.08-1.48.14-2.22.07.87.13,1.75.18,2.62A.19.19,0,0,0,101.91,72Zm.56.54q0-.73,0-1.47v.08c0,.43.08.86.12,1.29A.2.2,0,0,0,102.47,72.57Zm.23,4q.05-1.2.1-2.4l.08.49.11.86A5.79,5.79,0,0,1,102.7,76.55Z"/><path class="cls-1" d="M184,68.7a98.86,98.86,0,0,1-6.67,17.43,38.64,38.64,0,0,1-4.86,7.82c-1.7,2-3.76,3.63-5.21,5.8-2.69-4.91-5.38-9.79-7.77-14.87-1.27-2.7-2.5-5.42-3.62-8.19-.54-1.33-1-2.66-1.5-4s-.8-2.86-1.27-4.27c0,0-.08,0-.07,0a33.33,33.33,0,0,0,2.43,8.22c1.05,2.7,2.23,5.36,3.45,8A160.47,160.47,0,0,0,167,100.21a.21.21,0,0,0,.13.22l.17.28a.22.22,0,0,0,.38-.22l-.15-.28c1.6-2.4,3.85-4.19,5.66-6.42A42.18,42.18,0,0,0,177.85,86a74.47,74.47,0,0,0,6.39-17.27A.11.11,0,0,0,184,68.7Z"/><path class="cls-1" d="M143.29,100a.73.73,0,0,0-1.1,0,.72.72,0,0,0-.3.14c-1.41,1.12-1.54,4,.56,4.47,1.17.24,1.69-.77,1.76-1.76A4,4,0,0,0,143.29,100Z"/><path class="cls-1" d="M169.18,102.14c-.15-.87-1.06-3.13-2.31-2.21a.92.92,0,0,0-.42.84,3.17,3.17,0,0,0-.69,1.38,2,2,0,0,0,1.84,2.5C168.89,104.61,169.36,103.23,169.18,102.14Z"/><path class="cls-1" d="M193.16,99.08l-.16,0a.93.93,0,0,0-.39-.12,1.47,1.47,0,0,0-1.29.85,3.18,3.18,0,0,0,.24,3.39,1.52,1.52,0,0,0,1.86.48,2.37,2.37,0,0,0,1.11-1.5A2.3,2.3,0,0,0,193.16,99.08Z"/><path class="cls-1" d="M160.26,147.33a65.26,65.26,0,0,1-8.19,1.34,14.61,14.61,0,0,1-3.8-.25,22.37,22.37,0,0,0-3.16-.71.14.14,0,0,0-.1.23c1.63,1.55,4.57,1.74,6.71,1.68a57,57,0,0,0,8.79-1.36C161.13,148.15,160.87,147.21,160.26,147.33Z"/><path class="cls-1" d="M142.13,174.49c-9.89-21.46-19.73-42.94-29.24-64.57-2.65-6-5.26-12.09-7.92-18.12,0-.08-.17,0-.14.06,8.81,21.8,18.64,43.21,28.41,64.6q4.18,9.17,8.38,18.33C141.78,175.12,142.29,174.83,142.13,174.49Z"/><path class="cls-1" d="M144.55,175.17c-3.48-11.7-7.13-23.35-10.7-35l-1.54-5-.75-2.43a7.11,7.11,0,0,0-.86-2.22,0,0,0,0,0-.09,0c-.07,1.31.66,2.81,1,4.05q.68,2.26,1.37,4.51l2.63,8.67L141,165.25c1,3.35,2,6.71,3.06,10.06A.27.27,0,0,0,144.55,175.17Z"/><path class="cls-1" d="M183.15,119.43c-3.4,7.88-6.45,15.93-9.62,23.91L164,167.43l-1.35,3.39a15.35,15.35,0,0,0-1.23,3.2c-.13,1,1.07,1.07.93.2a.2.2,0,0,0-.14-.14l-.11,0a.18.18,0,0,0-.14,0,20.44,20.44,0,0,1,.9-2.25l1.07-2.72,2.08-5.26,4.22-10.69q4.22-10.69,8.43-21.39c1.6-4.07,3.23-8.14,4.71-12.25C183.36,119.41,183.19,119.34,183.15,119.43Z"/><path class="cls-1" d="M202.61,82a305.39,305.39,0,0,1-11.91,37,90.56,90.56,0,0,1-4,9c-1.49,2.8-3.21,5.46-4.76,8.23-3.14,5.58-5.4,11.65-7.88,17.54l-8.82,21c-.14.34.41.49.55.15l7.79-18.65c2.55-6.11,4.86-12.41,8-18.27,1.48-2.8,3.19-5.47,4.75-8.23a75.68,75.68,0,0,0,4-8.36c2.46-6,4.65-12,6.64-18.15A219.14,219.14,0,0,0,202.73,82,.06.06,0,0,0,202.61,82Z"/><path class="cls-1" d="M146.3,159.82a128.27,128.27,0,0,0-2.15-14.8c0-.21-.34-.11-.31.09.72,5,1.53,10,2,15.07s.58,9.9.81,14.87a.25.25,0,0,0,.5,0A131,131,0,0,0,146.3,159.82Z"/><path class="cls-1" d="M152.57,162.3c0-2.22-.12-4.44-.24-6.66a62.37,62.37,0,0,0-.51-6.51c0-.2-.38-.16-.36,0,0,2.21.28,4.44.39,6.65s.18,4.44.22,6.66q.11,6.66-.24,13.32c0,.35.53.35.54,0Q152.69,169.05,152.57,162.3Z"/><path class="cls-1" d="M167.34,175.32H157a28.85,28.85,0,0,0,.1-3.14q0-1.71.11-3.41.14-3.5.36-7t.52-6.8c.11-1.19.18-2.38.37-3.56a27,27,0,0,1,.85-2.91.1.1,0,0,0-.17-.1c-1.16,1.27-1.2,3.52-1.37,5.14q-.38,3.66-.64,7.34t-.42,7.17q-.08,1.79-.13,3.59a26.23,26.23,0,0,0,0,3.67h-2.41c-4.4,0-8.86-.2-13.25.12a.16.16,0,0,0,0,.32c4.39.31,8.85.12,13.25.12h13.25a.28.28,0,0,0,0-.57Z"/><path class="cls-1" d="M168,177.61a.19.19,0,0,0-.27-.17q.07-.86.13-1.71c0-.36-.54-.36-.57,0s-.07.89-.1,1.33c-4.37-.29-8.8-.09-13.17-.08h-9.79a14.74,14.74,0,0,0-2.68.07,7.59,7.59,0,0,0-.35-1c-.09-.21-.45-.06-.37.16a9.38,9.38,0,0,1,.26,1,.07.07,0,0,0,0,.08c.69,3.28-.26,6.71.79,9.94a9.64,9.64,0,0,0,6.15,6.14,18.63,18.63,0,0,0,5.49.66c2.05,0,4.12,0,6.16-.22a9.39,9.39,0,0,0,4.55-1.29,6.08,6.08,0,0,0,2.31-3.48,22.51,22.51,0,0,0,.63-4.61.27.27,0,0,0,0-.54c0-.21,0-.42,0-.63q.14-1.73.27-3.46a1.56,1.56,0,0,0,0-.47l0-.63A1.78,1.78,0,0,0,168,177.61Zm-1,1.88c-.73,1.78-2.77,1.37-4.46.46a11.46,11.46,0,0,0,1.6.15,5.26,5.26,0,0,0,2.88-.82Zm-7.67-1.66a.26.26,0,0,0,.12-.25c2.57,0,5.14,0,7.7-.14l-.06.83a2.67,2.67,0,0,1-.85.79,4.47,4.47,0,0,1-2.59.43,9.14,9.14,0,0,1-2.69-.6,6.07,6.07,0,0,1-.59-.55.27.27,0,0,0-.4,0,4.2,4.2,0,0,1-.63-.52Zm.33,1a5.75,5.75,0,0,1-4.86,2.78,4.61,4.61,0,0,1-3.91-2.47c2.48,1.31,5.68.47,8.08-1.06A3.19,3.19,0,0,0,159.73,178.81Zm-5.66-1.3c1.57,0,3.15,0,4.74.05-2.42,1.56-5.76,2.48-8.16.76,0-.11-.06-.21-.08-.32s-.28-.19-.38-.05a5.3,5.3,0,0,1-.43-.44Zm-4,1a4,4,0,0,1-3.36,3.07,4.07,4.07,0,0,1-4-2.37A4.27,4.27,0,0,0,145,180a6.53,6.53,0,0,0,4.36-2.11A5.76,5.76,0,0,0,150.05,178.52Zm-8.35-1.08a15.43,15.43,0,0,0,2.4.06H149a6.37,6.37,0,0,1-3.72,2,4.08,4.08,0,0,1-3.54-1.79C141.73,177.6,141.72,177.51,141.7,177.44Zm24.72,9.38a8,8,0,0,1-1.66,4.52,7.1,7.1,0,0,1-4.73,1.85c-1.8.18-3.61.24-5.42.25a24.34,24.34,0,0,1-5.45-.39,9.08,9.08,0,0,1-6.76-6.22,10.77,10.77,0,0,1-.39-2.46l.09,0c.39,0,.79.06,1.19.08h.38c1.4,0,2.83,0,4.21,0h18.78Q166.56,185.64,166.42,186.81Zm-12-2.91h-6.32c-1.56,0-3.19-.1-4.78,0-.4,0-.79,0-1.18.08a.24.24,0,0,0-.11,0c-.06-1.82.12-3.68-.1-5.47a4.19,4.19,0,0,0,.34.34.15.15,0,0,0,0,.08,4.22,4.22,0,0,0,8.15,0,5.07,5.07,0,0,0,4.23,3.11,6.21,6.21,0,0,0,5.57-3,5.08,5.08,0,0,0,.56.29,7.4,7.4,0,0,0,4,1.83,3.38,3.38,0,0,0,2.26-.55c-.08,1.07-.16,2.14-.26,3.2Z"/><path class="cls-1" d="M196.63,101.18c-11,2.22-22.41,2.17-33.62,2.25s-22.54-.08-33.8-.47c-6.42-.23-12.83-.61-19.24-.82-.12,0-.11.17,0,.18,11.46,1,23,1.24,34.51,1.43,11.31.19,22.66.25,34-.2a115.67,115.67,0,0,0,18.3-2C197,101.53,196.89,101.13,196.63,101.18Z"/><path class="cls-1" d="M190.42,111.1c-4.66,1.16-9.47,1.3-14.24,1.55s-9.72.5-14.58.71c-9.59.4-19.2.62-28.8.33-5.52-.16-11-.72-16.51-1-.09,0-.12.15,0,.16A126.18,126.18,0,0,0,130.64,114c4.91.2,9.83.25,14.75.21,9.85-.08,19.69-.55,29.53-1.07,5.21-.27,10.52-.34,15.6-1.64A.19.19,0,0,0,190.42,111.1Z"/><path class="cls-1" d="M203.17,64c-2,.39-4.07.69-6.11.94a44.88,44.88,0,0,0,5.65-1.68.23.23,0,0,0,.14-.27h.07c.3,0,.17-.5-.13-.46-10.73,1.52-21.5,2.41-32.32,3.05h0l-6.1-.2c-13-.43-26.06.14-39.08-.38-7.4-.3-14.77-.92-22.15-1.56-.11,0-.14.18,0,.2a273.28,273.28,0,0,0,39.35,2c4.45,0,8.9-.08,13.34,0-3.33.1-6.67.27-10,.43-6.73.33-13.46.39-20.19.09-7.68-.34-15.3-1.17-22.9-2.27-.18,0-.26.24-.08.28a194.85,194.85,0,0,0,40.49,2.4c6.69-.27,13.35-.77,20.05-.62,6.34.14,12.67.6,19,.56a78.94,78.94,0,0,0,9.8-.63,98.49,98.49,0,0,0,11.29-1.44C203.54,64.39,203.43,64,203.17,64Zm-1.44-.86a48.76,48.76,0,0,1-9.8,2.28c-6.21.44-12.46.4-18.7.23A268.2,268.2,0,0,0,201.73,63.18Z"/><path class="cls-1" d="M118.43,100.81q-4.23-6.29-7.94-12.9c-2.47-4.41-4.64-9-6.88-13.49-.05-.11-.24,0-.2.08.44,1.07.9,2.13,1.39,3.19-.62-1.26-1.22-2.52-1.79-3.79,0-.06-.13,0-.1,0a57.61,57.61,0,0,0,3.19,6.77q1.82,3.57,3.72,7.1,3.8,7.06,8,13.91a.17.17,0,0,0,.29-.17q-1.86-3.06-3.65-6.16,1.77,2.85,3.64,5.64C118.22,101.26,118.59,101,118.43,100.81Z"/><path class="cls-1" d="M141.75,100.27c-1.89-2.22-4-4.25-6.06-6.36a39.64,39.64,0,0,1-5.46-6.47,67,67,0,0,1-3.58-7.15,43.82,43.82,0,0,1-3-8.11c0-.08-.14,0-.12,0A42.5,42.5,0,0,0,126.16,80a64.23,64.23,0,0,0,3.74,7.63A37.67,37.67,0,0,0,135,93.8c2.13,2.24,4.18,4.62,6.44,6.74A.19.19,0,0,0,141.75,100.27Z"/><path class="cls-1" d="M166.5,101.31a96.16,96.16,0,0,1-12.84-28.72.13.13,0,0,0-.24.07,88.93,88.93,0,0,0,12.7,28.88C166.27,101.77,166.66,101.55,166.5,101.31Z"/><path class="cls-1" d="M202.89,73.59a138.46,138.46,0,0,1-5.4,13.68q-2.61,6.16-5.21,12.33c-.34-2.15-.9-4.29-1.35-6.42q-.84-3.94-1.72-7.87C188,80.14,186.81,75,185.48,69.83a.08.08,0,0,0-.15,0c1.15,5.13,2.32,10.25,3.44,15.38q.84,3.85,1.65,7.7c.09.43.17.85.26,1.28l-1.84-8.32c-1.08-4.88-2.08-9.8-3.31-14.64,0-.12-.2-.07-.18.05.91,4.92,2.06,9.8,3.12,14.69l3.19,14.67a.18.18,0,0,0,.1.13.26.26,0,1,0,.48.18l.1-.23a.15.15,0,0,0,.08-.16v0l.28-.67a.23.23,0,0,0,.33-.08C196.5,92,199.82,84,202.86,76c.05-.14-.19-.25-.25-.1l-1,2.37c.55-1.53,1.06-3.07,1.49-4.64A.11.11,0,0,0,202.89,73.59Z"/><path class="cls-1" d="M184.87,69.34c-3.72,11.86-7.38,25-17.42,33.18-.21.17.07.55.29.38,4.79-3.67,8.17-8.92,10.69-14.33a113.17,113.17,0,0,0,6.63-19.17A.1.1,0,0,0,184.87,69.34Z"/><path class="cls-1" d="M153.38,80.38c-.53,1.82-.92,3.63-1.61,5.4a44.09,44.09,0,0,1-2.54,5.34c-.9,1.62-1.88,3.19-2.9,4.74s-2.29,3.19-3.27,4.88c-.07.12.1.26.19.15a52.27,52.27,0,0,0,3.33-4.69c1.11-1.67,2.18-3.38,3.16-5.14a42.15,42.15,0,0,0,2.39-5,22,22,0,0,0,1.59-5.62C153.73,80.23,153.43,80.21,153.38,80.38Z"/><path class="cls-1" d="M118.4,102.28l-.28.39c0,.06,0,.1,0,.16a1.4,1.4,0,0,0,.09.19,1,1,0,0,0,.75.1l-.14-.25a.16.16,0,0,1,.28-.16l.12.2,0,0a2.25,2.25,0,0,0-.31-1.18C118.76,101.89,118.57,102.07,118.4,102.28Z"/><path class="cls-1" d="M122.66,85.38a90.32,90.32,0,0,1-3.67,15.1,1,1,0,0,1,.17.15,14.21,14.21,0,0,0,1.21-3.14A57.85,57.85,0,0,0,122.66,85.38Z"/><path class="cls-1" d="M118.4,102.28l-.28.39c0,.06,0,.1,0,.16a1.4,1.4,0,0,0,.09.19,1,1,0,0,0,.75.1l-.14-.25a.16.16,0,0,1,.28-.16l.12.2,0,0a2.25,2.25,0,0,0-.31-1.18C118.76,101.89,118.57,102.07,118.4,102.28Z"/><path class="cls-1" d="M122.66,85.38a90.32,90.32,0,0,1-3.67,15.1,1,1,0,0,1,.17.15,14.21,14.21,0,0,0,1.21-3.14A57.85,57.85,0,0,0,122.66,85.38Z"/><path class="cls-1" d="M147.94,145c-.89,0-1.78-.1-2.66-.17l-.34,0,.1.29a64,64,0,0,0,8,0c.52,0,1-.09,1.55-.15l-1.66.08C151.25,145.08,149.59,145.06,147.94,145Z"/><path class="cls-1" d="M162.74,143.49l-.53.09-.08-.06c-.1-.08-.21,0-.24.11a70.78,70.78,0,0,1-9.16.91c-1.6.05-3.2.06-4.8,0-.83,0-1.66-.06-2.48-.12l-.67-.07c-1.74-4.73-5.37-8.61-8.51-12.51a61.93,61.93,0,0,1-5.65-8.71l-5.39-9.6c-1.91-3.4-3.8-6.82-5.76-10.2a1.23,1.23,0,0,0,.13-.36,2.46,2.46,0,0,0,0-1.58,4,4,0,0,0-.17-.37,7.67,7.67,0,0,0,.72-1.56,52.11,52.11,0,0,0,1.87-7,61.54,61.54,0,0,0,1.09-14.32.18.18,0,0,0-.36,0c.06,7.65-2.08,14.92-4,22.23a.55.55,0,0,0-.19,0c-.52.15-.88,1.23-1,1.68a1.44,1.44,0,0,0,0,.51,1.08,1.08,0,0,0,0,.32.85.85,0,0,0,.19.82,1,1,0,0,0,1.49-.09c3.3,6.09,6.73,12.11,10.12,18.15a78.52,78.52,0,0,0,5.34,8.78c2,2.62,4.17,5,6.1,7.7a27,27,0,0,1,3.41,6.05,2.55,2.55,0,0,0-.9.1,0,0,0,0,0,0,0,2.62,2.62,0,0,0,1.07.29l.11.3-.44,0c-.24,0-.22.33,0,.36l.58.07a16.57,16.57,0,0,1,.59,2.57c0,.31.5.17.46-.13a16.38,16.38,0,0,0-.51-2.38,47.22,47.22,0,0,0,8.21.08,39.18,39.18,0,0,0,8.94-1.44.25.25,0,0,0,.11-.07l.45-.07C163.2,143.94,163.06,143.43,162.74,143.49ZM119.23,102.9l-.12-.2a.16.16,0,0,0-.28.16l.14.25a1,1,0,0,1-.75-.1,1.4,1.4,0,0,1-.09-.19c0-.05,0-.1,0-.16l.28-.39c.17-.21.36-.39.54-.58a2.25,2.25,0,0,1,.31,1.18Zm-.07-2.28a1,1,0,0,0-.17-.15,90.32,90.32,0,0,0,3.67-15.1,57.85,57.85,0,0,1-2.29,12.11A14.21,14.21,0,0,1,119.16,100.63ZM153,145.09a64,64,0,0,1-8,0l-.1-.29.34,0c.89.07,1.77.13,2.66.17,1.66.07,3.32.09,5,0l1.66-.08C154.07,145,153.55,145.06,153,145.09Z"/><path class="cls-1" d="M167.15,103.37a141.44,141.44,0,0,1-4.29,17.89c-1.81,5.94-3.81,11.83-5.36,17.85-.43,1.66-.83,3.33-1.17,5a35.23,35.23,0,0,0-.84,5,.22.22,0,0,0,.44.06c.34-1.5.51-3.05.81-4.57s.64-3,1-4.53c.73-3,1.58-5.89,2.46-8.8,1.8-5.94,3.77-11.84,5.28-17.87a71.63,71.63,0,0,0,1.89-10C167.39,103.28,167.17,103.25,167.15,103.37Z"/><path class="cls-1" d="M143.34,112.48q-.22-2.5-.41-5c-.06-.84-.12-1.67-.19-2.51,0-.36,0-.73-.29-.92a.11.11,0,0,0-.13,0c-.1.08-.1.09-.09.21a.06.06,0,0,0,0,.06l.07,0a0,0,0,0,0,0-.08,6,6,0,0,1,.08,1.58q0,.72.09,1.43.1,1.43.21,2.86.2,2.68.45,5.36.52,5.63,1.21,11.24c.9,7.32,2,14.62,3.31,21.88.06.32.55.19.49-.14Q144.94,130.6,143.34,112.48Z"/><path class="cls-1" d="M192.22,102.53a41.68,41.68,0,0,0-3.17,4.67c-1.14,1.66-2.32,3.29-3.6,4.85-2.46,3-5.42,5.5-7.81,8.56s-4.49,6.18-7.26,8.86a36.92,36.92,0,0,0-6.55,8.06,32.1,32.1,0,0,0-3.91,11c-.05.35.47.5.53.15a32.87,32.87,0,0,1,9.92-18.51,68.16,68.16,0,0,0,7-8.36c2.39-3.18,5.35-5.77,7.91-8.8,1.29-1.52,2.48-3.13,3.61-4.77.62-.91,1.23-1.82,1.83-2.75a19.3,19.3,0,0,0,1.71-2.82C192.45,102.55,192.3,102.44,192.22,102.53Z"/><path class="cls-1" d="M167.87,175.14a23.27,23.27,0,0,0-6-.32l-7,.15-6.84.14-3.42.08-1.8,0-1.06.07a14.81,14.81,0,0,1,3.35-.24.16.16,0,0,0,0-.32,8.94,8.94,0,0,0-4.3.31.24.24,0,0,0-.06.43c1.49,1,3.76.61,5.46.58l7.21-.14,14.42-.26A.26.26,0,0,0,167.87,175.14Zm-20.43.4-3.42.07c-.4,0-.8,0-1.19,0l.27,0,3.6-.05,7-.12H154Z"/><path class="cls-1" d="M166.82,184.25a56.44,56.44,0,0,0-6.15.08l-6.15.12-6,.13c-1.9,0-3.88,0-5.79.15-.12-1,0-1.93-.07-2.91a0,0,0,0,0-.08,0,5.86,5.86,0,0,0-.19,3l-.2,0a.16.16,0,0,0,0,.31l.26,0a14.77,14.77,0,0,0,1.1,3.32c.87,1.89,2,3.63,4.35,3.57a.09.09,0,0,0,0-.17c-1-.37-1.93-.42-2.67-1.22a9.64,9.64,0,0,1-1.55-2.62,12.57,12.57,0,0,1-.9-2.85c1.83.09,3.72-.05,5.54-.08l6.15-.11,6-.11a58.34,58.34,0,0,0,6.33-.16A.21.21,0,0,0,166.82,184.25Z"/><path class="cls-1" d="M147.13,190.77c-1.93-.75-2.71-2.45-3.38-4.29,0-.06-.12,0-.1,0,.55,1.76,1.34,4.09,3.42,4.47A.11.11,0,0,0,147.13,190.77Z"/><path class="cls-1" d="M147.5,189.77a12.53,12.53,0,0,1-1.25-.65,3.77,3.77,0,0,1-1-1.17,0,0,0,0,0-.08,0,2.76,2.76,0,0,0,.9,1.31,2.11,2.11,0,0,0,1.37.59A.06.06,0,0,0,147.5,189.77Z"/><path class="cls-1" d="M166.12,181.81c0-.15-.24-.2-.27,0a33.25,33.25,0,0,1-1.13,5.56,6.64,6.64,0,0,1-3.61,4,15.21,15.21,0,0,1-5.6,1.09c-2.08.11-4.15.1-6.23.14a.11.11,0,0,0,0,.23,51.33,51.33,0,0,0,7.05,0,13.39,13.39,0,0,0,5.37-1.24,6.77,6.77,0,0,0,3.23-3.44A15.62,15.62,0,0,0,166.12,181.81Z"/><path class="cls-1" d="M165.87,187.72a8,8,0,0,1-3.59,4.14c-.07,0,0,.14.06.11a6.17,6.17,0,0,0,3.65-4.2C166,187.71,165.91,187.65,165.87,187.72Z"/><path class="cls-1" d="M164.71,182.27a.11.11,0,0,0-.22,0,13.36,13.36,0,0,1-1.31,5.75,7.14,7.14,0,0,1-4.12,3.23,0,0,0,0,0,0,.06c1.72,0,3.28-1.41,4.18-2.77A10.44,10.44,0,0,0,164.71,182.27Z"/><path class="cls-1" d="M167.43,178.59a3.4,3.4,0,0,1-3.64,2.71,4.27,4.27,0,0,1-3.61-3.32v0h.32c2.3,0,4.63.18,6.93.09a.25.25,0,0,0,0-.5l-.76,0a.2.2,0,0,0-.21-.22,30,30,0,0,1-4.16.1.21.21,0,0,0-.15.06h-1.28l-6.56-.08c-4.31,0-8.67.11-12.9-.87a.2.2,0,0,0-.11.38,30.86,30.86,0,0,0,8.89,1v0c-.31,2.21-1.66,4.15-4.1,4.13s-3.9-2.11-4-4.44c0-.14-.22-.18-.25,0-.53,2.45,1.63,4.77,4,4.95a4.58,4.58,0,0,0,4.5-2.85,4.63,4.63,0,0,0,4.2,3,5.86,5.86,0,0,0,5.49-4,4.48,4.48,0,0,0,3.91,3.23c1.83.15,3.88-1.22,3.85-3.18A.16.16,0,0,0,167.43,178.59Zm-7.68-.62c-.85,2.11-2.41,4-4.83,4.15a4,4,0,0,1-4.4-3.77h0c0-.15,0-.3,0-.45a.13.13,0,0,0,0,0c1.16,0,2.31,0,3.43,0l5.84.1Z"/><path class="cls-1" d="M161,147.09c-.23,1.64-1.9,2-3.3,2.09s-2.71.07-4.06.08-2.74,0-4.1-.07l-2.14-.1a3.8,3.8,0,0,1-2.33-.5.18.18,0,0,0-.25.25,1.73,1.73,0,0,0,1.26.59c.9.13,1.84.14,2.75.19q2.85.15,5.71.14c1.95,0,6.91.52,6.81-2.64C161.34,146.95,161,146.89,161,147.09Z"/><path class="cls-1" d="M152.71,25.19c-3.27,3.68-4.72,8.76-5.8,13.46a146,146,0,0,0-2.85,17.18q-.26,2.46-.44,4.93a21.3,21.3,0,0,0-.18,4.81c0,.18.31.17.35,0a13.34,13.34,0,0,0,.21-2.52q.08-1.41.19-2.82.2-2.64.49-5.28.62-5.59,1.65-11.12c1.21-6.52,2.6-13,6.63-18.46C153,25.24,152.82,25.07,152.71,25.19Z"/><path class="cls-1" d="M164.61,46.54c-.78-3-1.59-6-2.52-9a29.92,29.92,0,0,0-3.16-7.35,11.91,11.91,0,0,0-5.19-4.71.26.26,0,0,0-.19-.41c-8.64-.69-16.69,3.34-23.38,8.45a89.71,89.71,0,0,0-9.75,8.52A31.06,31.06,0,0,0,114,51.64a27.35,27.35,0,0,0-2.29,13.08.16.16,0,0,0,.33,0,34.85,34.85,0,0,1,1.82-11.4A29.82,29.82,0,0,1,120,43.23a81.94,81.94,0,0,1,9.2-8.31,50.51,50.51,0,0,1,10.46-6.66,28.26,28.26,0,0,1,13.57-2.7c4.9,2.2,7,7.47,8.5,12.29,1.75,5.67,3.2,11.44,4.46,17.24q1.09,5,2,10.06c.05.32.54.18.48-.13Q167,55.69,164.61,46.54Z"/><path class="cls-1" d="M183.91,55.27A55.88,55.88,0,0,0,182,50h0c-.38-1.07-.78-2.13-1.22-3.17-.26-.68-.52-1.37-.78-2a27.46,27.46,0,0,0-5.15-7.79,46.08,46.08,0,0,0-6.69-6.63c-2.51-2-5.73-4-9-4.32-.08,0-.08.1,0,.13a42,42,0,0,1,4.29,1.71,25.87,25.87,0,0,1,3.57,2.23,43.35,43.35,0,0,1,6.79,6.49,33.81,33.81,0,0,1,4.94,6.68l.94,2.19c1,2.66,2,5.36,2.95,8a88.57,88.57,0,0,1,2.19,10.73c0,.27.5.21.48-.07,0-.12,0-.23,0-.35a.16.16,0,0,0,.2,0c0,.16,0,.32.06.48,0,.34.57.34.53,0A38.91,38.91,0,0,0,183.91,55.27Z"/><path class="cls-1" d="M152.44,25.43c-2.25,1.8-3.4,4.63-4.22,7.31-1,3.39-1.79,6.87-2.52,10.33a179.56,179.56,0,0,0-3.2,22c0,.34.5.34.53,0a182.57,182.57,0,0,1,3-21.56c.68-3.35,1.41-6.71,2.34-10a17.39,17.39,0,0,1,4.2-7.94C152.71,25.48,152.55,25.34,152.44,25.43Z"/><path class="cls-1" d="M190.78,95.38c-2.13,4.31-4.26,8.63-6.67,12.8-1.17,2-2.42,4-3.76,5.94-1.46,2.1-3.09,4-4.71,6-.06.07,0,.18.11.11a58.5,58.5,0,0,0,8.37-11.67c2.48-4.25,4.65-8.67,6.81-13.09C191,95.37,190.83,95.29,190.78,95.38Z"/><path class="cls-1" d="M183.72,102.94c-1.51,3.07-3.09,6.1-4.85,9s-3.72,5.73-5.7,8.53c0,.06.06.14.1.08A88.8,88.8,0,0,0,183.8,103S183.75,102.89,183.72,102.94Z"/><path class="cls-1" d="M179.19,106.18a61.28,61.28,0,0,1-4.11,8.23,87.73,87.73,0,0,1-5.15,7.25s0,.09.07.06a42,42,0,0,0,5.31-7.35,51.93,51.93,0,0,0,4-8.15C179.3,106.14,179.22,106.12,179.19,106.18Z"/><path class="cls-1" d="M175.52,109.43c-1.34,2.5-2.79,4.94-4.37,7.29s-3.51,4.7-5.33,7c0,0,0,.11.07.07a53.8,53.8,0,0,0,9.66-14.36S175.53,109.41,175.52,109.43Z"/><path class="cls-1" d="M171.41,112.29a52.26,52.26,0,0,1-3.92,6.1,66.71,66.71,0,0,1-5,5.66.07.07,0,0,0,.1.1,39.5,39.5,0,0,0,8.86-11.84S171.42,112.26,171.41,112.29Z"/><path class="cls-1" d="M167.44,114.72a57.4,57.4,0,0,1-7.48,8.63s0,.12.07.07a33.25,33.25,0,0,0,7.47-8.67S167.46,114.68,167.44,114.72Z"/><path class="cls-1" d="M163.17,117.06a24.59,24.59,0,0,0-5,5.61c0,.06.06.14.11.08a73.36,73.36,0,0,1,4.9-5.68S163.18,117.06,163.17,117.06Z"/><path class="cls-1" d="M196.52,79.57c-.37,2.16-.72,4.31-1.25,6.44s-1.22,4.2-1.9,6.28c0,.09.11.12.14,0a45.26,45.26,0,0,0,3.15-12.73C196.67,79.51,196.53,79.49,196.52,79.57Z"/><path class="cls-1" d="M138,128.66a85.11,85.11,0,0,1-7-9.2,73.81,73.81,0,0,1-5.33-9.93s-.09,0-.07,0a64.8,64.8,0,0,0,12.23,19.24C137.9,128.92,138,128.77,138,128.66Z"/><path class="cls-1" d="M138.12,125.94c-2.33-3.47-4.89-6.82-7.36-10.19,0,0-.11,0-.08,0,2.39,3.43,4.73,6.92,7.26,10.24C138,126.14,138.2,126,138.12,125.94Z"/><path class="cls-1" d="M139.29,124a25,25,0,0,1-3.74-5.39c0-.07-.13,0-.1.06a20,20,0,0,0,3.66,5.51C139.22,124.32,139.4,124.14,139.29,124Z"/><path class="cls-1" d="M159.05,124.72a29.17,29.17,0,0,0-4.11,12.92s.07,0,.07,0a34,34,0,0,1,4.19-12.83A.09.09,0,0,0,159.05,124.72Z"/><path class="cls-1" d="M163.11,124.73a28.14,28.14,0,0,0-5.4,15.45c0,.08.12.08.13,0a35.81,35.81,0,0,1,1.64-8.06,32.34,32.34,0,0,1,3.7-7.35S163.14,124.69,163.11,124.73Z"/><path class="cls-1" d="M165.34,125.47a27.49,27.49,0,0,0-4.21,7.31,23.71,23.71,0,0,0-1.89,8.51c0,.06.1.08.11,0a40.68,40.68,0,0,1,1.86-8.19,31.59,31.59,0,0,1,4.23-7.58C165.47,125.49,165.38,125.42,165.34,125.47Z"/><path class="cls-1" d="M167.63,126.28A29,29,0,0,0,161.26,139a.07.07,0,0,0,.13,0,34.07,34.07,0,0,1,6.32-12.72C167.75,126.3,167.68,126.22,167.63,126.28Z"/><path class="cls-1" d="M169.19,126.74a11.54,11.54,0,0,0-2.75,3.91c0,.09.11.15.15.06a19.66,19.66,0,0,1,2.64-3.92A0,0,0,0,0,169.19,126.74Z"/><path class="cls-1" d="M146.51,147.79c-1.92-5.77-6.52-10.18-11-14.08a125.84,125.84,0,0,1-13.63-13.17,82.48,82.48,0,0,1-17.45-34.36,70.71,70.71,0,0,1-1.62-21.57c0-.21-.3-.2-.32,0a72.17,72.17,0,0,0,6.64,36.9,84.85,84.85,0,0,0,10,16.53,94.86,94.86,0,0,0,13.25,13.72c5.4,4.65,10.93,9.35,13.59,16.16C146.14,148.22,146.61,148.11,146.51,147.79Z"/><path class="cls-1" d="M173.12,134l-.36.37a0,0,0,0,0,0,0l.37-.36S173.15,133.92,173.12,134Z"/><path class="cls-1" d="M202.61,62l.14-.12c.2-.18,0-.45-.24-.42h0c-.18-.69-.38-1.38-.61-2.06-.07-.21-.4-.12-.34.09.21.67.4,1.35.57,2l-.44.07a.22.22,0,0,0-.17,0l-.14.05q-12.7,2.16-25.53,3.34l-9.72,0-6.37,0c-11.46-.11-22.92-.31-34.36-.79-7.41-.31-14.82-.74-22.21-1.36a.23.23,0,0,0-.06.44c13.25,2.69,27,2.06,40.44,2.12l12.1.05,7,.08,6.38.08-4,.26a334.23,334.23,0,0,1-37.62.11c-7-.38-14.06-.9-21-1.7-.13,0-.13.19,0,.21a324.25,324.25,0,0,0,37.73,2.42q15.24.07,30.44-1.26c2.36,0,4.73,0,7.09-.09h.15l3.61,0c5.62,0,12.27.54,16.9-3.24,3,12.79-1.23,26-6.85,37.5-1.78,3.65-3.65,7.29-5.65,10.85a.21.21,0,0,0-.18-.05A383.69,383.69,0,0,1,132,112.66c-5.41-.21-10.8-.59-16.2-.91a.12.12,0,0,0-.13.09l-1.26-.1c-.15,0-.15.22,0,.24a259.2,259.2,0,0,0,29.38,1.82q14.72.21,29.42-.91,8.15-.62,16.26-1.63c-1.26,2.21-2.58,4.39-4,6.52A85.86,85.86,0,0,1,173,132.41c-4.79,4.65-9.71,9.35-12.88,15.31-.12.23.22.43.34.2,3-5.49,7.45-9.92,11.91-14.24A92.34,92.34,0,0,0,185,119.41a154.74,154.74,0,0,0,10.2-18,84.63,84.63,0,0,0,7.32-19.38A43.75,43.75,0,0,0,202.61,62Zm-77.06,2.75a142.72,142.72,0,0,1-17.39-1.13c7.46.54,14.94.92,22.41,1.2Zm56.87.28H180.6l1.24-.13q8.3-.91,16.55-2.24A65.09,65.09,0,0,1,182.42,65.06Zm6.16,0a52.15,52.15,0,0,0,13-2.95h.09C198.06,65,193.14,65.11,188.58,65.09Z"/><path class="cls-1" d="M195.07,99.62a613,613,0,0,1-66.59,2.56c-6.07-.09-12.13-.39-18.19-.54.4-.26.8-.52,1.22-.75,0,0,0-.1,0-.07-.63.31-1.29.52-1.92.83-.18.09-.07.33.09.34,5.54.4,11.11.49,16.66.61s11.11.17,16.67.13q16.67-.11,33.31-1.13,9.4-.58,18.79-1.43C195.42,100.14,195.42,99.59,195.07,99.62Z"/><path class="cls-1" d="M0,90.57c.28,2.58,2,4.09,3.78,5.66a7.65,7.65,0,0,0,1.92,1.5A8.78,8.78,0,0,0,9,99.58a42.63,42.63,0,0,0,6.89,1.51,12.2,12.2,0,0,0,3.08,0,10.73,10.73,0,0,1,6.76,1.74c1.4.91,2.64,2.05,4.14,2.84a6.78,6.78,0,0,0,5.23.57,33,33,0,0,0,4.2-1.31,4.23,4.23,0,0,1,3.86.58c1.37.76,2.63,1.67,4,2.4,1.79.94,3.6.51,5.41.54s3.31-1.48,5.07-2a8.76,8.76,0,0,1,3.85-.41,26.26,26.26,0,0,0,3.59.05c2.44,0,4.9,0,7.33.21,2.12.19,4.25.45,6.37.71a21.91,21.91,0,0,0,9-.29,8.07,8.07,0,0,0,3.73-2c.37-.38.33-.52-.07-.8-.77-.54-1.72-.59-2.53-1.08a9,9,0,0,1-4.27-4.77,6.39,6.39,0,0,0-3.57-3.84,8.74,8.74,0,0,0-3.55-.53h-.89a5.21,5.21,0,0,0-2.55.43c-.54.26-.75,0-.87-.51-.21-.93-.43-1.86-.68-2.78a5.79,5.79,0,0,0-4.47-4.16,13.82,13.82,0,0,0-8.35.07c-.32.11-.41,0-.59-.24a8.91,8.91,0,0,0-9.92-3.88A13.89,13.89,0,0,0,45.3,84a1.81,1.81,0,0,0-.65.63c-.5-.66-.6-1.57-1.25-2.17-1.37-1.27-3-1.05-4.62-.74A8,8,0,0,0,35.54,83a7.58,7.58,0,0,1-2,.91c-.69.24-1-.46-1.4-.79a7.56,7.56,0,0,1-1.26-1.32,6.52,6.52,0,0,0-5.43-2.37,14,14,0,0,0-10.57,4A16.14,16.14,0,0,0,13,86.46a2.91,2.91,0,0,1-2.56,1.48c-2.39,0-4.77-.27-7.17-.19a7.57,7.57,0,0,0-1.58.19A2.18,2.18,0,0,0,0,90.57Zm1.75-2.1a6.19,6.19,0,0,1,2.12-.17c1.77.3,3.57.16,5.33.46a4.12,4.12,0,0,0,4.5-2.06,19.41,19.41,0,0,1,3-3.59,11,11,0,0,1,9.54-3,5.59,5.59,0,0,1,4,2.06,14.79,14.79,0,0,0,2.33,2.22.8.8,0,0,0,1,.16c.67-.31,1.34-.6,2-.95a10,10,0,0,1,5.72-1.48,2,2,0,0,1,1.61.87,7.73,7.73,0,0,1,1.43,3.26c.06.35.19.57.53.49s.26-.29.21-.59A1.54,1.54,0,0,1,46.42,84a22.84,22.84,0,0,1,6.07-.92,5.41,5.41,0,0,1,2.14.45,10.28,10.28,0,0,1,4.61,4.28c.69,1.11,1.28,2.29,1.89,3.46.09.17.17.31.34.27s.27-.29.22-.48a2.16,2.16,0,0,0-.25-.52c-.48-.86-1-1.72-1.46-2.56-.31-.51-.17-.69.38-.84a13.53,13.53,0,0,1,7.91.35A5.11,5.11,0,0,1,72,91.32a11.74,11.74,0,0,1,.33,2.51c0,1,.51,1.28,1.39,1a6.13,6.13,0,0,1,3.39-.43,18.59,18.59,0,0,0,2.25.39c2.1.25,3.73,1.11,4.45,3.28A8.85,8.85,0,0,0,85.32,101a13.87,13.87,0,0,0,3.86,2.7c.55.33,1.16.57,1.84.9a11.36,11.36,0,0,1-5.9,1.89,80.38,80.38,0,0,1-8.85-.57c-1.49-.16-3-.37-4.49-.45a11.79,11.79,0,0,0-2.24-.33,19.83,19.83,0,0,1-3.55.3c-1.45-.05-2.91-.28-4.34-.19a16.14,16.14,0,0,0-3,.09,55.31,55.31,0,0,0-5.54,1.91c-2,.74-3.87,1.19-5.86.09-1.4-.77-2.73-1.65-4.1-2.48a4.2,4.2,0,0,0-3.66-.7c-1.55.59-3.11,1.09-4.71,1.54a5.8,5.8,0,0,1-5.6-1.25c-3-2.49-6.27-4.18-10.31-4A27.45,27.45,0,0,1,13,100c-1.34-.23-2.63-.62-4-.88a20.05,20.05,0,0,1-2.75-1.73,28.31,28.31,0,0,1-3.1-2.8A14.43,14.43,0,0,1,.81,91.67C.1,90.43.28,88.73,1.77,88.47Z"/><path class="cls-1" d="M54.51,84.95A7.14,7.14,0,0,1,57,86.79,12.41,12.41,0,0,1,59.68,91c.1.26,0,.34-.21.42s-.26-.25-.34-.43c-1.07-2.33-2.38-4.45-4.9-5.49A.34.34,0,0,1,54,85C54.12,84.74,54.32,84.87,54.51,84.95Z"/><path class="cls-1" d="M23.36,80.76c.63,0,1.25,0,1.88,0a5.57,5.57,0,0,1,4.9,2.8c.09.13.44.22.19.46s-.41-.09-.51-.22a8,8,0,0,0-1.66-1.66c-1.56-1.11-3.25-1-5-.74-.15,0-.41.22-.37-.21S23.13,80.78,23.36,80.76Z"/><path class="cls-1" d="M70.57,92.27c.27-.09.29.25.34.39a7.75,7.75,0,0,1,.21,1.11c-.05.19-.11.41-.18.62a.3.3,0,0,1-.39.23c-.07,0-.13-.28-.08-.37a1.38,1.38,0,0,0-.12-1.36C70.21,92.58,70.3,92.36,70.57,92.27Z"/><path class="cls-1" d="M42.24,83.49c.13-.05.33-.06.38.07a14.16,14.16,0,0,1,.53,1.4c.06.19-.13.3-.28.37s-.19-.05-.19-.08a3.4,3.4,0,0,0-.53-1.43C42.12,83.67,42.11,83.54,42.24,83.49Z"/><path class="cls-1" d="M21.54,81.27a.29.29,0,0,1,.43.24c-.07.4-.5.3-.74.44-.21-.07-.57.14-.54-.24S21.26,81.45,21.54,81.27Z"/><path class="cls-1" d="M70,90.06c.37.16.3.64.56.89a.32.32,0,0,1-.33.32c-.39-.13-.25-.59-.46-.87S69.94,90,70,90.06Z"/><path class="cls-1" d="M52.08,84.2c.13.27.66-.09.68.39,0,.2-.17.3-.35.25s-.57-.14-.64-.46C51.73,84.22,51.9,84.16,52.08,84.2Z"/><path class="cls-1" d="M19.64,81.95c.11,0,.3.17.29.22a.46.46,0,0,1-.41.35.26.26,0,0,1-.22-.31C19.37,82.09,19.46,81.92,19.64,81.95Z"/><path class="cls-1" d="M219.11,127.81c.71.8,1.75.75,2.66,1,2,.58,4.22.52,6.26,1.18a36.39,36.39,0,0,1,5.1,2.13,51.15,51.15,0,0,0,6.37,2.27,5.63,5.63,0,0,0,3.11-.08c2.63-.67,4.67-2.32,6.74-3.93a10,10,0,0,1,6.08-.42,16.07,16.07,0,0,0,2,.13,16.67,16.67,0,0,0,5.63,0,11.77,11.77,0,0,0,3.59-1.91c.23-.16.44-.35.67-.5,1.92-1.28,2.16-2.66.71-4.46a6.43,6.43,0,0,0-5.17-2.76c-1.24,0-2.49.08-3.73.08a1.41,1.41,0,0,1-1-.38,24.29,24.29,0,0,1-1.82-1.66c-1.66-1.82-3.84-2.3-6.15-2.64a7.26,7.26,0,0,0-5,1.22c-.67.52-.82-.29-1-.51a6.43,6.43,0,0,0-3.14-2.35,5.35,5.35,0,0,0-5,.73,8.38,8.38,0,0,0-.67.6c-.45.69-.88.91-1.71.35a4.87,4.87,0,0,0-6.76,1.57,26.58,26.58,0,0,1-2.73,3.71c-.48.61-1.22.66-1.83,1a11.57,11.57,0,0,0-3.55,2.65A1.87,1.87,0,0,0,219.11,127.81Zm.92-3.09a8,8,0,0,1,3-1.89,6.3,6.3,0,0,0,3.09-2.66,21.09,21.09,0,0,1,2.75-3.45c1.46-1.69,4.4-.79,5.38.71a8.43,8.43,0,0,0-3-1c-.58-.12-.5.18-.61.53a4.9,4.9,0,0,1,2.44.36c.54.26,1,.47.52,1.21a9.77,9.77,0,0,1-.56,1.12c-.21.27-.2.45.11.6s.36-.07.43-.31a14.74,14.74,0,0,1,2-3.8,5.12,5.12,0,0,1,7-.4c.57.51,1.06,1.06,1.59,1.6.14.2.15.31-.06.55a2.12,2.12,0,0,0-.79,1.26c0,.15-.05.29.09.37s.26-.06.35-.16a10.81,10.81,0,0,1,1.1-1.19,8.44,8.44,0,0,1,9.19-.61,18.28,18.28,0,0,1,3.72,3.25,2.52,2.52,0,0,0,2.36.77,13.11,13.11,0,0,1,2.56-.12c2.34,0,4.22.87,5.25,3.13a2,2,0,0,1-.78,2.55c-.65.4-1.26.86-1.88,1.29a7.86,7.86,0,0,1-3.24,1.3,16.54,16.54,0,0,1-4.07,0c-1.38-.1-2.75-.38-4.13-.46a7,7,0,0,0-4.5.78c-1.3.9-2.57,1.85-3.91,2.68a7.66,7.66,0,0,1-4.69,1.4,22.66,22.66,0,0,1-7.57-2.41,27.9,27.9,0,0,0-6.34-2.44c-1.93-.4-3.9-.59-5.82-1.06a3.85,3.85,0,0,1-1.86-.9A2.92,2.92,0,0,1,220,124.72Z"/><path class="cls-1" d="M250.49,117.67a10.4,10.4,0,0,1,5.92,2.77c.12.11.2.22.13.36s-.28.13-.43,0a1.76,1.76,0,0,1-.4-.29,7.81,7.81,0,0,0-3.14-1.93c-.88-.32-1.83-.3-2.7-.67A.53.53,0,0,1,250.49,117.67Z"/><path class="cls-1" d="M243,117.33c.11.13.25.26.09.43a.3.3,0,0,1-.22.07,5.33,5.33,0,0,1-1.44-1.9A9.37,9.37,0,0,1,243,117.33Z"/><path class="cls-1" d="M248.6,117.66c.2.08.55-.16.61.16s-.22.39-.51.37-.61,0-.64-.32S248.35,117.56,248.6,117.66Z"/><path class="cls-1" d="M240.8,115.4c0,.08-.12.23-.29.23-.36,0-.57-.21-.79-.47.11-.08.25-.25.32-.22C240.31,115.06,240.64,115.13,240.8,115.4Z"/><path class="cls-1" d="M238.62,114.92c.23,0,.44.12.48.37s-.14.15-.24.15a.46.46,0,0,1-.52-.32C238.34,114.91,238.48,114.9,238.62,114.92Z"/><path class="cls-1" d="M64.44,13.84c.71.8,1.75.75,2.66,1,2,.58,4.22.52,6.26,1.18a36.4,36.4,0,0,1,5.1,2.13,51.15,51.15,0,0,0,6.37,2.27,5.63,5.63,0,0,0,3.11-.08c2.63-.67,4.67-2.32,6.74-3.93a10,10,0,0,1,6.08-.42,16.06,16.06,0,0,0,2,.13,16.67,16.67,0,0,0,5.63,0A11.77,11.77,0,0,0,112,14.26c.23-.16.44-.35.67-.5,1.92-1.28,2.16-2.66.71-4.46a6.43,6.43,0,0,0-5.17-2.76c-1.24,0-2.49.08-3.73.08a1.41,1.41,0,0,1-1-.38,24.29,24.29,0,0,1-1.82-1.66C100,2.76,97.82,2.28,95.5,1.94a7.26,7.26,0,0,0-5,1.22c-.67.52-.82-.29-1-.51A6.43,6.43,0,0,0,86.4.3a5.35,5.35,0,0,0-5,.73,8.37,8.37,0,0,0-.67.6c-.45.69-.88.91-1.71.35A4.87,4.87,0,0,0,72.3,3.55a26.58,26.58,0,0,1-2.73,3.71c-.48.61-1.22.66-1.83,1a11.57,11.57,0,0,0-3.55,2.65A1.87,1.87,0,0,0,64.44,13.84Zm.92-3.09a8,8,0,0,1,3-1.89,6.3,6.3,0,0,0,3.09-2.66A21.09,21.09,0,0,1,74.2,2.74c1.46-1.69,4.4-.79,5.38.71a8.43,8.43,0,0,0-3-1c-.58-.12-.5.18-.61.53a4.9,4.9,0,0,1,2.44.36c.54.26,1,.47.52,1.21a9.77,9.77,0,0,1-.56,1.12c-.21.27-.2.45.11.6s.36-.07.43-.31a14.74,14.74,0,0,1,2-3.8,5.12,5.12,0,0,1,7-.4c.57.51,1.06,1.06,1.59,1.6.14.2.15.31-.06.55a2.12,2.12,0,0,0-.79,1.26c0,.15-.05.29.09.37s.26-.06.35-.16a10.79,10.79,0,0,1,1.1-1.19,8.44,8.44,0,0,1,9.19-.61,18.28,18.28,0,0,1,3.72,3.25,2.52,2.52,0,0,0,2.36.77A13.11,13.11,0,0,1,108,7.47c2.34,0,4.22.87,5.25,3.13a2,2,0,0,1-.78,2.55c-.65.4-1.26.86-1.88,1.29a7.86,7.86,0,0,1-3.24,1.3,16.55,16.55,0,0,1-4.07,0c-1.38-.1-2.75-.38-4.13-.46a7,7,0,0,0-4.5.78c-1.3.9-2.57,1.85-3.91,2.68A7.66,7.66,0,0,1,86,20.09a22.66,22.66,0,0,1-7.57-2.41,27.9,27.9,0,0,0-6.34-2.44c-1.93-.4-3.9-.59-5.82-1.06a3.85,3.85,0,0,1-1.86-.9A2.92,2.92,0,0,1,65.37,10.74Z"/><path class="cls-1" d="M95.83,3.69a10.4,10.4,0,0,1,5.92,2.77c.12.11.2.22.13.36s-.28.13-.43,0a1.76,1.76,0,0,1-.4-.29A7.81,7.81,0,0,0,97.9,4.65c-.88-.32-1.83-.3-2.7-.67A.53.53,0,0,1,95.83,3.69Z"/><path class="cls-1" d="M88.38,3.35c.11.13.25.26.09.43a.3.3,0,0,1-.22.07,5.33,5.33,0,0,1-1.44-1.9A9.37,9.37,0,0,1,88.38,3.35Z"/><path class="cls-1" d="M93.93,3.68c.2.08.55-.16.61.16s-.22.39-.51.37-.61,0-.64-.32S93.68,3.59,93.93,3.68Z"/><path class="cls-1" d="M86.13,1.42c0,.08-.12.23-.29.23-.36,0-.57-.21-.79-.47.11-.08.25-.25.32-.22C85.65,1.08,86,1.15,86.13,1.42Z"/><path class="cls-1" d="M84,.94c.23,0,.44.12.48.37s-.14.15-.24.15a.46.46,0,0,1-.52-.32C83.67.94,83.82.92,84,.94Z"/><path class="cls-1" d="M100.7,153.51a35.62,35.62,0,0,0-20.35,18.07,1.34,1.34,0,1,0,2.45,1A33.87,33.87,0,0,1,101,154.25c.42-.18.12-.89-.31-.74Z"/><path class="cls-1" d="M67.13,167.31a19.59,19.59,0,0,1,12.2,5.5,1.2,1.2,0,0,0,1.7-1.7,16.63,16.63,0,0,0-13.9-4.87.54.54,0,0,0,0,1.08Z"/></g></g></svg>