<svg xmlns="http://www.w3.org/2000/svg" viewBox="0 0 128.58 225.6"><defs><style>.cls-1{fill:#b9c95e;}</style></defs><title>free</title><g id="Layer_2" data-name="Layer 2"><g id="plans"><path class="cls-1" d="M34.7,119.18c-.14-.08-1.2-.91-.85-1.09s10.28-2.2,20.84-4.2c8.77-1.66,18.07-3.35,22.92-4.09,10.27-1.56,47-8.45,49.1-8.84.75-.1,2.08.3,1.84.85h0c-.28.65-5.37,7.81-11.65,16.65-9,12.7-20.53,28.88-23.75,34.18-3.65,6-5.66,9-6.59,10.31l-.52.72-.14.18c-.09.11-.5,0-.91-.34a2.82,2.82,0,0,1-.38-.32c-.33-.34-8.08-8.27-14.14-14.64l-11.42,8h0c-.09.06-.35,0-.67-.2s-.78-.6-.81-.79c-.57-3.11-1.16-6.26-1.49-9.44s-3.45-15.56-3.76-16.8c-.44-.34-.25-.13-2.53-1.55-3.12-1.94-15.06-8.58-15.1-8.6ZM56,115c-7.35,1.39-14.34,2.77-18,3.55,4.14.23,11.56.48,18.8.71,8.86.29,17.44.56,19.46.82,15-5.71,33.43-12.68,43.36-16.43-12,2.23-33.2,6.13-40.67,7.26-4.78.73-14.09,2.42-22.9,4.09Zm21.47,12.88L117,106.29c-13.17,5-26.42,10-39.52,15-.55,1.77,0,4.78.08,6.61Zm7.39,34.55c1.39-4.33-.95-29.57-.11-36.66L62.38,138a3.73,3.73,0,0,1,.05.52c.54.62,1.35,1.58,2.57,3.08,2.44,3,16.12,16.9,19.91,20.79Zm30.51-45c4-5.7,7.6-10.69,9.69-13.7L86,125.11c1.21,1,.31,30.67.45,34.76,1.14-1.72,2.82-4.35,5.21-8.28,3.21-5.3,14.72-21.48,23.75-34.19ZM59,154.52l10.31-7.25c-2.58-2.72-4.69-5-5.55-6.07l-1.34-1.65a34.83,34.83,0,0,1-.66,4.2c-.8,3.85-2.1,8.5-2.76,10.76ZM53.8,130.08s3.43,13.45,3.8,17c.12,1.18.33,2.64.56,4.06.66-2.4,1.49-5.57,2.08-8.35.21-1,.25-5.48.32-5.58l0,0,.26-.14s.05-.07.12-.07l15.15-8.3c-.07-.95-.34-4.55-.33-6.74-2.89,1.1-21.76,7.15-22,8.18ZM36.28,119.44c3.48,1.94,11,6.14,13.51,7.73a31.84,31.84,0,0,1,3,2S72,121.7,74,121c-3.74-.18-9.75-.38-15.89-.57-9.62-.31-19.57-.63-21.79-.95Zm-4.56-2.65a2.39,2.39,0,0,0-.63,2.88c-.35-.1-.64-1-.57-1.56s.56-1.37,1.2-1.31Zm2.36-.9a4.48,4.48,0,0,0-1.6,5.31,2.7,2.7,0,0,1-1.09-3c.42-1.71,1.7-2.48,2.69-2.27ZM55,129.09c0-.15.08-.23.26-.19a.53.53,0,0,1,.38.34s3.6,15.35,4,20.25c0,.14-.12.21-.3.15a.5.5,0,0,1-.34-.36c-.43-4.85-4-20.15-4-20.19ZM56.89,128c0-.15.07-.24.24-.2a.54.54,0,0,1,.39.33c.43,1.53,2,9.69,2.8,14.08.28,1.5.48,2.55.53,2.76s-.08.23-.26.19a.53.53,0,0,1-.38-.34c0-.17-.24-1.25-.53-2.78-.83-4.38-2.37-12.51-2.79-14Zm1.76-.2c-.06-.15,0-.26.2-.24a.55.55,0,0,1,.41.31c.59,1.49,2.31,11.49,2.32,11.52s-.1.22-.27.17a.52.52,0,0,1-.36-.35s-1.72-10-2.29-11.42Zm1.67-1c0-.13.15-.18.33-.11a.47.47,0,0,1,.31.37c0,.5,1.72,9.17,1.72,9.19s-.1.22-.27.17a.52.52,0,0,1-.36-.35s-1.76-8.6-1.73-9.28Zm1.86-.84c0-.14.12-.21.29-.15a.51.51,0,0,1,.35.36c.06.59,1.75,9.45,1.75,9.47s-.09.22-.27.18a.52.52,0,0,1-.37-.35s-1.68-8.76-1.76-9.51Zm1.88-.62c0-.14.12-.21.3-.15a.5.5,0,0,1,.35.36c.09.84,1.55,9.13,1.55,9.15s-.09.23-.27.18a.52.52,0,0,1-.37-.34s-1.47-8.35-1.56-9.19ZM66,125c0-.14.09-.23.27-.18a.52.52,0,0,1,.37.34c.18.91,1.56,8.39,1.56,8.41s-.09.22-.27.18a.52.52,0,0,1-.37-.35S66.15,125.91,66,125Zm2.09-1c0-.14.13-.2.31-.14a.5.5,0,0,1,.34.36c.1,1.79,1.21,8.32,1.21,8.34s-.11.21-.28.16a.51.51,0,0,1-.36-.35s-1.12-6.62-1.22-8.37Zm1.87-.7c0-.14.12-.21.3-.15a.5.5,0,0,1,.35.36l.87,8.31c0,.14-.12.21-.3.15a.5.5,0,0,1-.35-.36l-.87-8.31Zm1.9-.51c0-.12.2-.15.38-.06s.29.26.26.39c-.35,1.37.3,8.37.3,8.39s-.12.21-.3.15a.51.51,0,0,1-.35-.36s-.66-7.09-.29-8.52Zm1.62-.66c0-.13.17-.17.35-.09a.45.45,0,0,1,.3.38,48.39,48.39,0,0,0,.59,8c0,.14-.1.22-.28.17a.51.51,0,0,1-.36-.35,48.76,48.76,0,0,1-.59-8.13ZM79.23,120c0-.13.15-.18.33-.11a.47.47,0,0,1,.31.37l-.26,7.24c0,.13-.15.18-.33.11a.47.47,0,0,1-.31-.37l.26-7.24Zm2.52-.94c0-.13.14-.19.32-.12a.48.48,0,0,1,.32.37c0,1.38-.18,6.38-.18,6.39s-.16.18-.34.11a.47.47,0,0,1-.31-.37s.18-6,.18-6.37Zm3.11-1.16c.05-.11.23-.11.4,0s.27.28.21.39c-.75,1.57-.53,6.43-.53,6.44s-.15.19-.32.12a.48.48,0,0,1-.32-.37s-.22-4.93.56-6.57Zm1.77-.62c0-.14.14-.2.31-.13a.49.49,0,0,1,.33.37l.23,5.83c0,.14-.14.2-.31.13a.49.49,0,0,1-.33-.37l-.23-5.83Zm2.5-1.19c0-.14.13-.2.31-.13a.49.49,0,0,1,.33.37c.06,1.33.17,5.66.17,5.67s-.14.19-.32.13a.48.48,0,0,1-.33-.37s-.11-4.3-.17-5.66Zm1.9-.46c0-.14.14-.2.32-.13a.49.49,0,0,1,.33.37c0,1.08,0,5.13,0,5.14s-.15.19-.33.12a.47.47,0,0,1-.32-.37s0-4,0-5.12Zm2.53-.88c0-.13.16-.18.34-.11a.47.47,0,0,1,.31.37c-.06,1-.5,4.88-.5,4.89s-.16.18-.34.11a.47.47,0,0,1-.31-.37s.44-3.87.5-4.89Zm1.72-.52c0-.13.16-.18.34-.1a.46.46,0,0,1,.31.37l-.26,4c0,.13-.16.18-.34.1a.46.46,0,0,1-.31-.38l.26-4Zm1.77-.83c0-.14.12-.21.29-.15a.5.5,0,0,1,.35.36c.05.51.27,4.14.27,4.18s-.13.2-.31.14a.49.49,0,0,1-.34-.36s-.21-3.66-.27-4.16Zm2-.85c0-.13.18-.16.35-.08s.31.25.29.38c-.1.68,0,3.25,0,3.26s-.11.21-.29.16a.51.51,0,0,1-.35-.35s-.11-2.66,0-3.36Zm1.63-.61c0-.12.19-.15.37-.06s.3.26.27.39a29.49,29.49,0,0,0,0,3.17c0,.14-.12.2-.3.14a.5.5,0,0,1-.34-.36,30.05,30.05,0,0,1,0-3.28Zm2.1-.86c0-.14.14-.19.32-.13a.48.48,0,0,1,.32.37c0,.92.22,2.85.22,2.85s-.12.2-.3.15A.5.5,0,0,1,103,114s-.2-1.93-.22-2.88Zm2.44-.92c0-.14.13-.2.3-.14a.5.5,0,0,1,.34.36l.19,2.65c0,.14-.13.2-.3.14a.5.5,0,0,1-.34-.36l-.19-2.65Zm2-.71c0-.14.12-.2.3-.15a.5.5,0,0,1,.34.36l.22,2.48c0,.14-.12.21-.3.15a.5.5,0,0,1-.34-.36l-.22-2.48Zm1.69-.92c0-.12.21-.14.38,0s.28.27.25.39a5.69,5.69,0,0,0,0,2.46c0,.14-.1.22-.27.17a.52.52,0,0,1-.36-.35,6,6,0,0,1,0-2.63Zm1.58-.1c0-.14.12-.21.3-.15a.5.5,0,0,1,.35.36l.2,1.93c0,.14-.12.21-.3.15a.5.5,0,0,1-.35-.36l-.2-1.93Zm1.71-.69c0-.14.12-.21.3-.15a.51.51,0,0,1,.35.36L113,109c0,.14-.12.21-.3.15a.5.5,0,0,1-.35-.36l-.11-1.09Zm1.78-.79c0-.14.13-.2.31-.13a.49.49,0,0,1,.33.37l.06,1.35c0,.14-.13.2-.31.13a.49.49,0,0,1-.33-.37l-.06-1.35Zm-12.83,37.22c-1.49,3-5.44,9.3-6.19,10.5s-5.18,8.54-6.49,9.7c.82-1.93,5.38-9.2,6.11-10.37s4.58-7.44,6.57-9.83Zm-7.71,14.16c.05-.1.23-.09.38,0s.24.27.18.36l0,.07c-.05.1-.23.09-.39,0s-.24-.27-.18-.36l0-.07Zm3-4.32c.27.49-2,4.44-2.53,4.13S96.08,154,96.49,154ZM62.3,150.54c.29.25-.67,1.21-1.3,1.08s.82-1.06,1.3-1.08Zm57-40.7c.23.41-.25,1.48-.72,1.22s.37-1.23.72-1.22Zm-66,15.64c.32.58-.53,2.52-1.19,2.16s.7-2.17,1.19-2.16Zm.69,1.47c.23.41-.25,1.48-.72,1.22s.37-1.23.72-1.22Zm11.68,10.52c.32.58-.53,2.52-1.19,2.16s.71-2.17,1.19-2.16Zm25.16,14.07c.2-.36-.51-2.56-1-2.57s.61,2.33,1,2.57Zm.71-.68c.2-.36-.51-2.56-1-2.57s.62,2.33,1,2.57Zm.71-.89c.2-.36-.51-2.56-1-2.57s.61,2.33,1,2.57Zm.75-.65c.2-.36-.51-2.56-1-2.57s.62,2.34,1,2.57Zm.57-1.1c.15-.27-.38-1.93-.72-1.93s.46,1.76.72,1.93Zm.56-.9c.14-.25-.36-1.79-.67-1.79s.43,1.63.67,1.79Zm.54-1c.09-.15-.21-1.08-.41-1.08s.26,1,.41,1.08Zm.37-.72c.09-.15-.21-1.08-.41-1.08s.26,1,.41,1.08Zm.53-.29c.09-.15-.21-1.08-.41-1.08s.26,1,.41,1.08Zm-34-28.13c.37-.18,1-2.4.66-2.66s-.82,2.27-.66,2.66Zm1-.15c.37-.18,1-2.4.66-2.66s-.82,2.27-.66,2.66Zm1.09-.33c.37-.18,1-2.4.66-2.66s-.82,2.27-.66,2.66Zm1-.11c.37-.18,1-2.4.66-2.66s-.82,2.27-.66,2.66Zm1.09-.59c.28-.14.78-1.81.5-2s-.62,1.71-.5,2Zm1-.42c.26-.13.72-1.67.46-1.86s-.57,1.58-.46,1.86Zm1-.49c.16-.08.44-1,.28-1.12s-.34,1-.28,1.12Zm.72-.38c.16-.08.44-1,.28-1.12s-.34,1-.28,1.12Zm.6.06c.16-.08.43-1,.28-1.12s-.34,1-.28,1.12Z"/><path class="cls-1" d="M65.27,161.23a.39.39,0,0,0-.27-.74l-.15.05-.15.05-.15.05-.15.05-.15.05-.15.05-.15.05-.15.05-.15.05-.14,0a.4.4,0,0,0,.25.75l.14,0,.16-.05.15-.05.15-.05.15-.05.15-.05.15-.05.15-.05.15-.05.15-.05ZM0,225a.39.39,0,0,0,.69.38L1,225a.39.39,0,0,0-.69-.38L0,225Zm1.36-2.47a.39.39,0,0,0,.69.38l.28-.51.32-.58.16-.29a.39.39,0,0,0-.69-.39l-.17.29-.32.58-.28.51Zm2-3.45a.39.39,0,0,0,.68.39l.26-.46.32-.55.21-.36a.4.4,0,0,0-.68-.4l-.21.36-.32.55-.26.46Zm2-3.42a.39.39,0,0,0,.68.41l.15-.26.31-.52.31-.51,0-.07a.39.39,0,0,0-.67-.41l0,.07-.31.51-.31.52-.15.26Zm2.06-3.39a.4.4,0,0,0,.67.42l.24-.39.3-.48.29-.47a.39.39,0,0,0-.67-.42l-.3.47-.3.48-.24.39Zm2.12-3.35c-.27.45.4.86.66.43l.21-.33.29-.45.29-.44.07-.1a.4.4,0,0,0-.66-.44l-.07.11-.29.44-.29.45-.21.33Zm2.19-3.31a.39.39,0,0,0,.65.44l.05-.08.28-.42.28-.41.28-.4a.39.39,0,0,0-.65-.45l-.28.4-.29.41-.28.42-.05.08ZM14,202.36c-.31.4.32.88.64.46l0,0,.27-.38.27-.38.27-.37.08-.11a.39.39,0,0,0-.63-.47l-.08.11-.27.37-.28.38-.27.38,0,0Zm2.37-3.19a.39.39,0,0,0,.62.48l.1-.13.26-.34.26-.34.26-.33.08-.1a.4.4,0,0,0-.62-.49l-.08.11-.26.33-.26.34-.26.34-.1.13Zm2.48-3.11c-.32.42.3.9.61.51l.22-.27.25-.3.25-.29.25-.29,0-.05c.33-.42-.29-.91-.6-.52l0,.06-.25.29-.25.3-.25.3-.22.27Zm2.61-3c-.35.35.21.91.58.53l.09-.1.24-.26.24-.26.24-.25.23-.25,0,0c.36-.36-.2-.92-.57-.55l0,0-.24.25-.24.25-.24.26-.24.26-.09.1Zm2.77-2.86,0,0-.06-.14-.05-.14-.05-.14,0-.14,0-.14h0a.39.39,0,0,0-.75.23h0l.05.15.05.15.05.15.06.15.06.15.06.15.06.14.07.15.07.14.07.14,0,0a.39.39,0,0,0,.71-.35l0,0v0a.36.36,0,0,0,.29-.11l.14-.14.22-.21.22-.21.22-.21.22-.2.12-.11c.37-.37-.18-.94-.53-.58l-.12.11-.22.21-.22.21-.23.21-.23.22-.14.14Zm3-2.66a.39.39,0,0,0,.5.61l0,0,.21-.17.21-.17.2-.16.21-.16.2-.16.18-.13a.4.4,0,0,0-.47-.63l-.18.14-.21.16-.21.16-.21.17-.21.17-.21.17,0,0Zm3.24-2.36a.39.39,0,0,0,.42.67l0,0,.19-.12.19-.11.19-.11.18-.11.18-.11.18-.1.18-.1h0a.4.4,0,0,0-.37-.7h0l-.19.1-.19.11-.19.11-.19.11-.19.11-.19.12-.19.12,0,0ZM34,183.34a.4.4,0,0,0,.28.74l.12,0,.16-.06.16-.06.16-.05.16-.05.16,0,.16,0,.16,0,.15,0,.08,0a.4.4,0,0,0-.19-.77l-.09,0-.16,0-.16,0L35,183l-.17.05-.17.06-.17.06-.17.06-.17.06-.12,0Zm4-.86a.39.39,0,0,0,0,.79h1.23l.12,0,.12,0h0a.39.39,0,0,0,.14-.78h0l-.13,0-.13,0-.13,0H38Zm4,.93a.4.4,0,0,0-.39.69l.09,0,.09.05.09.06.09.06.09.06.09.06.09.06.09.06.09.06.09.07.08.07.08.07.08.07.08.07c.35.35.9-.21.53-.59l-.09-.08-.09-.08-.09-.08-.09-.07-.09-.07-.1-.07-.1-.07-.1-.07-.1-.07-.1-.07-.1-.06-.1-.06-.11-.06-.09,0ZM45,186.29a.4.4,0,0,0-.67.41l0,0,.06.09.06.1.05.1.05.1.05.1.05.1,0,.1,0,.1,0,.1,0,.1,0,.1,0,.1,0,.1v0a.4.4,0,0,0,.73-.29l0,0,0-.11,0-.11,0-.11-.05-.11-.05-.11-.05-.11-.06-.11-.06-.11-.06-.11-.06-.1-.06-.11-.06-.1-.06-.1,0,0Zm1.43,3.82a.4.4,0,0,0-.78.15l0,.09,0,.19,0,.19,0,.19,0,.19,0,.18,0,.18,0,.18v.14a.4.4,0,0,0,.79-.06v-.15l0-.19,0-.19,0-.19,0-.19,0-.2,0-.2,0-.2,0-.09Zm.15,4.08a.4.4,0,0,0-.78-.14l0,.1,0,.14,0,.14,0,.13,0,.13,0,.13,0,.13,0,.12,0,.12,0,.12,0,.12,0,.06c-.18.5.56.77.73.3l0-.08.05-.13,0-.14,0-.14,0-.14,0-.14,0-.14,0-.15,0-.15,0-.15,0-.15,0-.1Zm-1.85,3.7c.37-.37-.19-.93-.54-.57l-.05,0-.08.08-.09.07-.09.07-.09.07-.09.07-.09.07-.09.07-.09.06-.1.06-.1.06-.1.06-.1.06,0,0a.4.4,0,0,0,.37.7l0,0,.11-.06.11-.07.11-.07.11-.07.11-.07.11-.08.1-.08.1-.08.1-.08.1-.08.1-.09.1-.09.05-.05ZM41,199.73a.39.39,0,0,0-.15-.77h0l-.13,0-.13,0-.13,0-.13,0-.13,0-.13,0-.13,0h-.58a.39.39,0,0,0,0,.79H40l.14,0,.14,0,.14,0,.14,0,.14,0,.14,0,.14,0Zm-4.07.1a.39.39,0,0,0,.1-.78H37l-.15,0-.15,0-.15,0-.15,0-.15,0-.15,0-.15,0-.15,0-.15,0-.13,0a.39.39,0,0,0-.17.77l.13,0,.16,0,.16,0,.16,0,.16,0,.16,0,.15,0,.15,0,.16,0,.16,0Zm-3.92-1a.4.4,0,0,0,.27-.74h0l-.15-.05-.15-.06-.15-.06-.15-.06-.15-.06-.15-.06-.15-.06-.15-.06-.15-.07-.07,0a.39.39,0,0,0-.33.71l.08,0,.15.07.15.07.15.07.15.06.15.06.15.06.15.06.15.06.15.06Zm-3.63-1.77a.4.4,0,0,0,.42-.67l-.14-.09-.13-.09-.13-.09-.13-.09-.13-.09L29,195.9l-.13-.09-.13-.09-.13-.1-.09-.07a.4.4,0,0,0-.48.63l.09.07.13.1.14.1.14.1.14.09.14.1.14.09.14.09.14.09.14.09Zm-3.17-2.51a.4.4,0,0,0,.57-.55l-.06-.07-.11-.11-.11-.11-.1-.11-.1-.11-.1-.12-.1-.12-.1-.12-.1-.12-.1-.12,0,0a.39.39,0,0,0-.62.48l0,.06.1.13.1.12.1.12.11.12.11.12.11.12.11.12.11.12.11.12.06.07Zm-3.5-7.23a.4.4,0,0,0,.79,0V185.8a.4.4,0,0,0-.79-.09v.06l0,.17v1.42Zm.53-4a.39.39,0,0,0,.75.23l0-.06.06-.17.06-.17.06-.17.06-.17.06-.17.06-.17.06-.17.07-.17v0a.39.39,0,0,0-.73-.31v0l-.07.18-.07.18-.07.18-.06.18-.06.18-.06.18-.06.18-.06.18,0,.06Zm1.63-3.71a.39.39,0,0,0,.67.41l.09-.14.09-.15.09-.15.1-.15.1-.15.1-.15.1-.15.1-.15.08-.11c.31-.4-.32-.88-.64-.46l-.08.11-.11.15-.11.15-.1.15-.1.16-.1.16-.1.16-.1.16-.09.14Zm2.43-3.22c-.36.36.2.91.58.54l0-.05.13-.13.13-.13.13-.13.13-.13.13-.13.13-.13.13-.13.14-.13h0c.37-.37-.18-.93-.53-.58h0l-.14.13-.14.13-.14.13-.14.14-.13.13-.13.14-.13.14-.13.14,0,.05Zm3-2.69a.4.4,0,0,0,.48.63l.08-.06.15-.12.15-.11.16-.11.16-.11.16-.11.16-.11.16-.11.09-.06a.4.4,0,0,0-.45-.65l-.09.06-.16.11-.16.12-.16.12-.16.12-.16.12-.16.12-.16.12-.08.06Zm3.33-2.23a.39.39,0,0,0,.4.68l.09-.06.17-.1.17-.1.17-.1.18-.1.18-.1.18-.1.18-.1,0,0a.39.39,0,0,0-.37-.7l0,0-.18.1-.18.1-.18.1-.18.1-.18.1-.18.1-.18.1-.09.06Zm3.53-1.87a.4.4,0,0,0,.34.71l.06,0,.19-.09.19-.09.19-.09.19-.09.19-.09.19-.09.19-.08,0,0c.48-.24.13-.95-.32-.72l0,0-.19.09-.19.09-.19.09-.19.09-.19.09-.19.09-.19.09-.06,0ZM40.8,168a.4.4,0,0,0,.29.74l.12,0,.2-.08.2-.08.2-.08.2-.08.2-.08.2-.08.15-.06a.39.39,0,0,0-.28-.74l-.16.06-.2.08-.2.08-.2.08-.2.08-.2.08-.2.08-.12,0Zm3.73-1.38a.4.4,0,0,0,.26.75l0,0,.2-.07.2-.07.2-.07.2-.07.2-.07.2-.07.2-.07h0a.4.4,0,0,0-.24-.75h0l-.21.07-.2.07-.21.07-.2.07-.21.07-.2.07-.21.07Zm3.78-1.23a.39.39,0,0,0,.23.75l.17-.05.2-.06.2-.06.2-.06.2-.06.2-.06.2-.06.12,0a.39.39,0,0,0-.22-.76l-.12,0-.2.06-.2.06-.2.06-.21.06-.2.06-.21.06-.17.05Zm3.81-1.13a.4.4,0,0,0,.22.76h0l.2-.06.2-.06.2-.06.2-.06.2-.06.2-.06.2-.06.09,0a.4.4,0,0,0-.21-.76l-.09,0-.2.06-.2.06L53,164l-.2.06-.2.06-.2.06-.2.06Zm3.82-1.07a.39.39,0,0,0,.21.76l.17,0,.19-.05.19-.05.19-.05.19-.05.19-.05.19-.05.19-.05h0a.4.4,0,0,0-.21-.76h0l-.19.05-.19.05-.19.05-.19.05-.19.05-.19.05-.19.05-.17,0Zm3.81-1.07a.39.39,0,0,0,.22.76l.07,0,.18-.05.18-.05.18-.05.18-.05.17-.05.17-.05.17-.05.17-.05h0a.4.4,0,0,0-.23-.76h0l-.17.05-.17.05-.17.05-.17.05-.17.05-.18.05-.18.05-.18.05-.07,0Z"/><path class="cls-1" d="M91.66,44.91A14.13,14.13,0,0,0,96.78,40a13.77,13.77,0,0,0,2-7.21,12.74,12.74,0,0,0-3.71-9,13.73,13.73,0,0,0-9.75-4A14.05,14.05,0,0,0,71.54,31.16,16.24,16.24,0,0,1,74,38.08a18.43,18.43,0,0,1,5.47-.83,14.9,14.9,0,0,1,7.13,1.67,11,11,0,0,1,5.06,6ZM70.65,30A14.39,14.39,0,0,1,84.78,18.28,14.61,14.61,0,0,1,95.13,22.6a15.61,15.61,0,0,1,4.61,11.05,14.45,14.45,0,0,1-7.61,12.79,16.75,16.75,0,0,1,.45,2.91,6.76,6.76,0,0,1,3.83,1.27A7.8,7.8,0,0,1,98.6,53a9,9,0,0,1,1.23,3.85A9.42,9.42,0,0,1,98,63.17a3.81,3.81,0,0,1-1.14,1.1,2.57,2.57,0,0,1-1.33.38H17.77a3.73,3.73,0,0,1-3.52-2.86,7.44,7.44,0,0,1-.38-2.72,7.21,7.21,0,0,1,.48-2.31A5.53,5.53,0,0,1,19,53.12a6.64,6.64,0,0,1,.36-4.59,5.87,5.87,0,0,1,1.36-1.9,4.18,4.18,0,0,1,1.94-1,4.37,4.37,0,0,1,3.74,1.14,15.35,15.35,0,0,1,3.18-10.06,13.85,13.85,0,0,1,3.77-3.36,11.06,11.06,0,0,1,4.52-1.55A9.75,9.75,0,0,1,45,33.91a10.59,10.59,0,0,1,1.94,2,13.78,13.78,0,0,1,1.2,1.93A16.45,16.45,0,0,1,56.77,27.6,13.34,13.34,0,0,1,63,26.32a10.7,10.7,0,0,1,5.8,2A10.88,10.88,0,0,1,70.65,30Zm2.71,8.88c-.34-4.19-2-7.1-4.41-8.81a10.27,10.27,0,0,0-5.58-1.91,13.09,13.09,0,0,0-6.13,1.26,16,16,0,0,0-8.55,10.45c-.09.32-.32.27-.53-.12l-.06-.12a11.67,11.67,0,0,0-1.29-2.2,9.58,9.58,0,0,0-8.57-3.82,10.81,10.81,0,0,0-4.42,1.52,13.47,13.47,0,0,0-3.67,3.27,13.71,13.71,0,0,0-2.93,9.79c.05.49-.08.8-.29.68l-.08-.06h0a4.18,4.18,0,0,0-3.8-1.38,3.89,3.89,0,0,0-1.81,1A5.31,5.31,0,0,0,20,50.11a3.46,3.46,0,0,0-.12,3.19,2.23,2.23,0,0,1,.3,1.3c0,.22-.11.33-.21.33h0A5.14,5.14,0,0,0,15,58.3,5.47,5.47,0,0,0,14.66,60a3.08,3.08,0,0,0,.13,1.11A2.52,2.52,0,0,0,17.4,62.8H95.17a2.31,2.31,0,0,0,1.19-.34,3.41,3.41,0,0,0,1-1A7.79,7.79,0,0,0,99,56.35a4.77,4.77,0,0,0-.68-2,6.44,6.44,0,0,0-1.82-1.94,6.26,6.26,0,0,0-4.12-1.16c-.19,0-.44-.38-.54-.89a2.21,2.21,0,0,1-.05-.45h0c0-3.82-1.5-7.22-5-9.16a14.54,14.54,0,0,0-6.95-1.62,18,18,0,0,0-5.86,1c-.18.06-.43-.3-.56-.8a2.41,2.41,0,0,1-.06-.38ZM97.27,19.14c-.13.15-.41,0-.63-.4s-.3-.79-.17-.94l8.91-10.47c.13-.15.41,0,.63.4s.3.79.17.94L97.27,19.14Zm7.3,8.38c-.17.07-.46-.19-.65-.58s-.21-.77,0-.84L114.14,22c.17-.07.46.19.65.58s.21.77,0,.84l-10.25,4.1Zm1,9.06a1.27,1.27,0,0,1-.63-.81c-.13-.4-.06-.67.16-.62l11.46,2.76a1.28,1.28,0,0,1,.63.81c.13.4.06.67-.16.62l-11.46-2.76ZM90.26,14.43c0,.29-.24.31-.5,0a1.6,1.6,0,0,1-.42-1l.64-9c0-.29.24-.31.5,0a1.6,1.6,0,0,1,.42,1l-.64,9Zm-8.35-.06c0,.35-.14.47-.39.27a1.64,1.64,0,0,1-.52-1C80.58,9.73,79.17.43,79.17.41c-.05-.36.1-.51.35-.34a1.62,1.62,0,0,1,.55,1s1.42,9.35,1.84,13.34Zm16,39.33.78,5.21q-.1.32-.24.64l-.94-6.32q.22.23.41.47ZM72.2,34.15q-.22-.49-.48-.95c1.4,9.18,3.12,20.61,4.47,29.59h.34c-1.3-8.67-2.95-19.62-4.33-28.65ZM68.7,29.89l-.37-.24c1.43,9.26,3.44,22.63,5,33.14h.34c-1.56-10.41-3.55-23.61-5-32.9Zm-3.07-1.39-.35-.09c1.37,8.83,3.52,23,5.22,34.38h.34c-1.7-11.3-3.82-25.4-5.21-34.29Zm-2.91-.36h-.33c1.3,8.27,3.49,22.76,5.27,34.64H68c-1.78-11.86-4-26.31-5.28-34.65Zm-2.8.34-.32.08C60.81,36.3,63,50.68,64.81,62.8h.34c-1.82-12.12-4-26.51-5.23-34.31Zm-2.71.95-.31.15C58.05,36.91,60.15,50.77,62,62.8h.34c-1.81-12.07-3.92-26-5.1-33.36ZM54.59,31l-.3.23c1.12,7.07,3.08,20,4.82,31.57h.34C57.7,51.15,55.72,38.11,54.59,31ZM52.1,33.34l-.28.34c1.09,6.93,2.84,18.47,4.44,29.12h.34C55,52,53.2,40.29,52.1,33.34Zm-2.3,3.53-.25.54c1,6.66,2.49,16.25,3.87,25.38h.34c-1.41-9.36-2.91-19.21-4-25.93Zm-2.71.94-.28-.39-.14-.19c1,6.34,2.48,16.1,3.9,25.56h.34c-1.38-9.16-2.82-18.6-3.82-25Zm-3.35-3.07-.36-.19c.85,5.22,2.62,16.81,4.34,28.24h.34c-1.69-11.23-3.43-22.62-4.31-28Zm-3.05-1.08-.34,0c.49,2.64,2.51,15.83,4.53,29.17h.34c-2-13-3.95-25.95-4.52-29.12ZM30,38.63l-.25.34,0,.09c.28,1.21,1.91,11.77,3.72,23.74h.34c-1.83-12-3.47-22.67-3.76-23.94a1.51,1.51,0,0,0-.07-.23Zm-2.14,4.07q-.12.35-.22.71c.64,3.92,1.76,11.25,3,19.39H31c-1.31-8.6-2.49-16.3-3.12-20.1Zm-2,5.32-.37-.21c.6,3.82,1.42,9.15,2.31,15h.34c-.87-5.72-1.67-11-2.28-14.79Zm-2.94-.54-.32.1c.57,3.57,1.41,9.05,2.35,15.22h.34c-.94-6.2-1.8-11.71-2.37-15.32Zm-2.54,2q-.14.23-.26.46c.51,3.25,1.21,7.77,2,12.85h.34c-.81-5.3-1.54-10-2.06-13.32Zm-2,5.67-.32.1c.35,2.24.74,4.8,1.16,7.54h.33c-.43-2.78-.82-5.37-1.18-7.65Zm-2.58,1.78q-.15.19-.27.39c.25,1.64.53,3.43.82,5.32l.35.09c-.32-2.08-.62-4-.9-5.8ZM36.33,62.8h.34c-1.91-12.61-3.68-24.08-4-25.39-.07-.3-.19-.49-.27-.43s-.09.34,0,.64c.29,1.26,2,12.64,3.94,25.19Zm2.85,0h.34c-2-13.17-3.89-25.48-4.2-26.85-.07-.3-.19-.49-.27-.43s-.09.34,0,.64c.3,1.31,2.18,13.53,4.16,26.64Zm2.85,0h.34c-2.07-13.71-4.1-26.88-4.42-28.3-.07-.3-.19-.49-.27-.43s-.09.34,0,.64C38,36.06,40,49.15,42,62.8Zm37,0h.34c-1-6.85-2.31-15.36-3.51-23.27l-.32.07C76.75,47.49,78,56,79,62.8Zm2.85,0h.34c-1-6.77-2.32-15.48-3.56-23.66l-.33,0C79.57,47.33,80.88,56,81.89,62.8Zm2.85,0h.34c-1-6.56-2.29-15.28-3.55-23.62l-.34,0c1.26,8.34,2.57,17.09,3.56,23.65Zm2.85,0h.34c-.92-6.18-2.2-14.71-3.46-23l-.35-.1C85.37,48,86.65,56.6,87.58,62.8Zm2.85,0h.34c-.84-5.6-2-13.56-3.25-21.64l-.37-.23c1.23,8.15,2.44,16.23,3.28,21.87Zm2.85,0h.34C93,58.4,92,52.12,91,45.38a9.45,9.45,0,0,0-.49-1c1.07,7.13,2.07,13.83,2.76,18.43Zm2.82-.2.27-.14,0,0L94.76,51.49l-.35-.1L96.09,62.6Z"/></g></g></svg>