<svg xmlns="http://www.w3.org/2000/svg" viewBox="0 0 295.91 167.55"><defs><style>.cls-1{fill:#95165b;}</style></defs><title>pro</title><g id="Layer_2" data-name="Layer 2"><g id="plans"><path class="cls-1" d="M201.21,63.9c-.93,0-1.87.14-2.79.1-2.55-.11-5.1-.35-7.65-.4s-5.27.06-7.91.1a45.34,45.34,0,0,1-4.78,0c-3.75-.34-7.49-.49-11.25-.47-1.94,0-3.87-.14-5.82-.15-3.52,0-7-.2-10.57-.25-2.07,0-4.15.2-6.2,0A96.45,96.45,0,0,0,134,62.18a26.24,26.24,0,0,1-3.33-.32c1.14-.63,2.31-.25,3.46-.26,1.79,0,3.58.16,5.37.27,2.43.15,4.82.71,7.28.55a24.83,24.83,0,0,1,3.39-.08c1.71.13,3.44.26,5.14.23,3.54-.06,7.07.18,10.6.22,1.39,0,2.78-.09,4.17,0,3.2.15,6.4.51,9.6.48,2.85,0,5.71.11,8.56-.16a12.56,12.56,0,0,1,1.26,0c3.87,0,7.73.64,11.6.24.25,0,.42,0,.44.3S201.39,63.89,201.21,63.9Z"/><path class="cls-1" d="M24.26,101.11a3.39,3.39,0,0,1,.72,0,24.59,24.59,0,0,0,5.24.45c2.38.05,4.73.35,7.07.63,4.79.57,9.61.52,14.39,1.07,1.78.21,3.61.13,5.36.47a52.42,52.42,0,0,0,7.65,1.16c4.18.18,8.36.16,12.54.28a10.46,10.46,0,0,1,3.51.4,1.52,1.52,0,0,1-1.17.26,56.5,56.5,0,0,0-8.27-.35c-2.27,0-4.55,0-6.81-.17-4.1-.23-8.1-1.27-12.2-1.59q-4.73-.37-9.46-.64c-2.09-.12-4.18-.38-6.27-.47-1.78-.08-3.53-.63-5.29-.59-2.35.05-4.67-.38-7-.32-.2,0-.43.07-.46-.25S24,101.1,24.26,101.11Z"/><path class="cls-1" d="M97.74,100.13c2.27.1,4.54.18,6.81.34,2,.14,4,.37,6,.56l.84,0a1.26,1.26,0,0,0,.37.13,81,81,0,0,0,10.51-.16c-.06.71-.62.52-1,.55a79.24,79.24,0,0,1-10.48-.14h-.22c-1.09-.08-2.19-.12-3.28-.23-2.05-.2-4.11-.31-6.17-.37-2.6-.08-5.2-.44-7.81-.4-.36,0-.72.14-1.06-.07a163.43,163.43,0,0,0-17-.08c-.36,0-.74.17-1.08-.11a23.08,23.08,0,0,1-2.82.06c-4.09-.4-8.19,0-12.28-.38-2.17-.17-4.35-.09-6.53-.11-.25,0-.5,0-.48-.34s.25-.29.45-.28c.89,0,1.78.08,2.68.1,2.92.06,5.83.28,8.75.35,1.7,0,3.42,0,5.11,0,3.77.12,7.54.21,11.31,0,.24,0,.49,0,.73,0l10,.31Q94.44,100,97.74,100.13Z"/><path class="cls-1" d="M55.44,82.85a67.29,67.29,0,0,0,7.83,1c4.06.07,8.13,0,12.19.05,1.29,0,2.58,0,3.86.09,3.14.22,6.27.5,9.4.75a8.08,8.08,0,0,0,1.13-.08c.86-.18,1.75.45,2.58-.13.58,0,1.17-.25,1.74.06l13.1-.59c.46,0,.93-.2,1.37.07l1.26,0,4.22.2,4.84.18c1,.08,2,.21,3,.22,1.94,0,3.88,0,5.83,0,.26,0,.5,0,.48.33s-.26.25-.45.28a10.67,10.67,0,0,1-1.94-.08,62.54,62.54,0,0,1-7.27-.33l-4.43-.2-5-.18a7.11,7.11,0,0,0-2.23,0c-4.78.36-9.58.12-14.35.55a.83.83,0,0,1-1,0L88.13,85c-1.88-.17-3.75-.38-5.63-.48a61.63,61.63,0,0,0-8.41-.09c-2.38.2-4.79,0-7.19-.09A47.91,47.91,0,0,1,60.19,84a93,93,0,0,0-10.84-1.17c-3.07-.12-6.15,0-9.23,0-.25,0-.62.15-.65-.29s.37-.29.6-.33a3.59,3.59,0,0,1,.63,0c2.58,0,5.16.13,7.75.14A52.31,52.31,0,0,1,55.44,82.85Z"/><path class="cls-1" d="M61.62,117.16c0,.38.46.31.77.32,2.82.08,5.61.57,8.42.78,1.75.13,3.52,0,5.28.09,4.41.23,8.83.3,13.25.33,2.71,0,5.41.11,8.12.22,1.83.07,3.66.27,5.49.33,1.16,0,2.32-.07,3.48-.11.35.27.73.09,1.1.09l2.24-.09a4.53,4.53,0,0,0,2.3.24c2.21,0,4.42.09,6.63.15,3.24.09,6.47.23,9.71.32,1.09,0,2.19,0,3.28,0,1.84.07,3.68-.19,5.53,0s3.46.12,5.18.16h.84c.56,0,.78.14.7.81a4,4,0,0,0,4.26,4,24.83,24.83,0,0,0,7.67-2.12c2.8-1.12,5.54-2.38,8.3-3.58a1,1,0,0,0,.23-.2l6.15-3.18a31,31,0,0,0,4.08-1.82c4-1.74,7.93-3.42,11.78-5.37a21.18,21.18,0,0,0,4.45-2.5c.73-.4,1.48-.76,2.19-1.2a.75.75,0,0,1,.76-.07,23.69,23.69,0,0,0,6.49.82,31.93,31.93,0,0,0,4.22.23,4.37,4.37,0,0,0,3.51-2.36,2.84,2.84,0,0,0-.4-2.83,45.48,45.48,0,0,1,5.45.3c1.11.05,2.23-.1,3.35-.11a86.58,86.58,0,0,1,8.66,0c4,.37,8,0,11.9.44a53.52,53.52,0,0,0,8.37.23,51.65,51.65,0,0,0,6.68-.55,18.73,18.73,0,0,0,4-.7c1.29-.55,2.86-.71,3.54-2.24,1.12-1.67.88-3.22-.19-4.88a48.24,48.24,0,0,0-6.28-7.3,18.84,18.84,0,0,0-5-3.72,16.37,16.37,0,0,0-5.33-1.54c-3.28-.45-6.59-.45-9.89-.58-2.8-.11-5.58.27-8.36.2-4.64-.11-9.25.41-13.88.53-1.11,0-2.18-.2-3.27-.24-.51,0-.39-.35-.36-.56.52-3.4.49-6.85,1-10.25a32.16,32.16,0,0,0,.14-6.6,4.47,4.47,0,0,0-.86-2.71,1.59,1.59,0,0,0-1.5-.65c-.67,0-.76.55-.93,1.06a5.22,5.22,0,0,0-.28,1.91c.06,1.81-1.15,3-2,4.41-2.49,3.92-5.55,7.41-8.28,11.16a6.13,6.13,0,0,0-.44.7c-.76,1.42-1.95,1.54-3.44,1.45a72.48,72.48,0,0,0-7.66-.22c-3,.14-6.07-.35-9.11-.32-2,0-4.1.12-6.15.34a31.05,31.05,0,0,1-5.46.15c-1.75-.12-3.47.07-5.2.1a73.08,73.08,0,0,1-8.71,0A16.13,16.13,0,0,1,140.42,78c-1.81-1.24-2.8-3.24-4.12-4.93-.18-.24.18-.28.38-.31a9.19,9.19,0,0,0,3,.21,107.25,107.25,0,0,1,10.91.72c2.69.31,5.41.48,8.14.53,1.79,0,3.61.41,5.37.07a26,26,0,0,1,5.26-.19c4.35,0,8.71-.16,13.07.3,2.55.27,5.07,1,7.68.75a1.77,1.77,0,0,0,1.13-.29,10.73,10.73,0,0,0-2.77-.18c-1.49-.05-2.93-.37-4.41-.5-1.94-.16-3.87-.41-5.81-.52-3.75-.22-7.51.32-11.26.08-2.16-.14-4.25.44-6.42.2-3.3-.36-6.64-.32-10-.76-2.92-.38-5.89-.47-8.83-.65-1.62-.1-3.24-.14-4.87-.21-1.89-.29-2.56-2-3.76-3.13s-1.56-3-3.17-3.93c1.47-.54,2.87,0,4.24-.17a8.6,8.6,0,0,0,2.56.32l7.56.11c.4.26.83.06,1.25.09,2.24-.33,4.52.49,6.76.08,0-.11,0-.23,0-.34-1.32-.1-2.64-.25-4-.28-2.56-.06-5.12,0-7.68-.07-2.1,0-4.19-.18-6.29-.27a5.22,5.22,0,0,0-2.51-.27,27.88,27.88,0,0,1-5-.44,2,2,0,0,0-.52.05c-3.56.07-7.08-.51-10.64-.52-1.74,0-3.48.07-5.21,0-3.57-.16-7.11.26-10.66.33s-7.1.14-10.65.1c-4.54,0-9.08-.21-13.62-.32a8.76,8.76,0,0,0-1.56.09.44.44,0,0,0-.35.64c.13.29.31,0,.49,0a3.9,3.9,0,0,1,1-.12c4.12,0,8.23.07,12.35.2a134.55,134.55,0,0,0,14-.25c4.55-.33,9.1-.22,13.66-.2,3,0,6.05.36,9.08.56,1.1-.07,1.41.52,1.53,1.53a20.16,20.16,0,0,0,1.7,5.42l-2.63.13a1,1,0,0,0-.51-.08c-1.27-.15-2.55.05-3.82-.06-1.5-.13-3,0-4.53,0l-2.4.05a6.63,6.63,0,0,0-2.43,0c-3.64,0-7.29,0-10.93-.13q-8.47-.26-16.95-.2c-4.1,0-8.18-.4-12.28-.21A15.54,15.54,0,0,0,66.65,71c-1.51.25-3-.18-4.52.08-.24,0-.67-.14-.69.24s.36.42.69.39c3-.21,5.94-.31,8.92-.28,4.58.12,9.15.27,13.73.23s9,.1,13.57.16c3.15,0,6.3.12,9.45.16,1,0,2,0,3,0l1,0,3.34-.13c.48.33,1,.09,1.5.1,2.38.07,4.75.13,7.13.19H124c1.16.2,2.34-.21,3.51.08a.74.74,0,0,1,.57.43c1.58,2.71,2.84,5.59,4.49,8.25,1,1.59,0,4.49-1.54,5.52-2.2,1.43-4.78,1.94-7.11,3a34.66,34.66,0,0,1-4.37,1.68c-.84.26-1.16.73-1,1.5A1.64,1.64,0,0,0,120.11,94a7.67,7.67,0,0,0,3-.3,3.3,3.3,0,0,1,1.29-.31c2.33.06,4.5-.8,6.74-1.24a32.68,32.68,0,0,0,6.56-2.21c1.67-.72,2.71.36,3.91.89a23.63,23.63,0,0,0,6.8,1.75c2.15.25,4.27.6,6.41.87,3.22.41,6.45.84,9.66,1.31,3.62.53,7.23,1.13,10.86,1.68.52.08.78.2.92.79s.58,1.06.77,1.71c-4.69-.46-9.34.25-14,.53a1.53,1.53,0,0,0-.41-.1c-1.05-.18-2.11.13-3.17,0-.35-.24-.72-.08-1.08-.08a74.62,74.62,0,0,1-7.8-.44c-2.86-.23-5.71-.45-8.57-.63-.51,0-1-.32-1.52-.11-3.7-.44-7.43-.53-11.15-.65q-3.68-.12-7.35-.36c-3.33-.22-6.66-.51-10-.83-2.12-.21-4.23-.5-6.35-.67s-4.54-.41-6.79-.73c-2.08-.3-4.18-.26-6.26-.49l-2.34-.24a18.2,18.2,0,0,1-3.6-.2c-.32-.05-.5,0-.53.27s.26.29.45.26a23.59,23.59,0,0,1,2.67,0c4,.38,8.08.62,12.12,1,3.44.36,6.88.8,10.34,1.08,3.84.32,7.68.59,11.52.9,3.58.29,7.15.41,10.73.47,2,0,4.06.38,6.1.32a.54.54,0,0,0,.3.07,34,34,0,0,0,4.74.51q3.79.33,7.58.6c1.78.12,3.56.19,5.34.28.33.26.7.08,1,.11l3.35-.16c1.37.38,2.73,0,4.1-.06,3.36-.05,6.72-.48,10.19-.22l-3,3.05c-1,.79-2,1.54-3,2.38a1.36,1.36,0,0,1-1.13.35,43.85,43.85,0,0,0-6.37.13c-3.68.11-7.36-.07-11,0-4.13.08-8.26.45-12.39.76-3.55.27-7.1.08-10.65.31-.18-.27-.45-.14-.67-.13-2.49,0-5,.14-7.46.1-3,0-6.08-.29-9.13-.31-1.73,0-3.45-.11-5.17-.16-2.22-.07-4.46.16-6.68,0-3.17-.18-6.33-.2-9.5-.3-2-.06-4,0-6,.08-.35,0-.6.21-.78.64,1.43-.07,2.86-.2,4.29-.2,4.3,0,8.6.17,12.89.16,4.74,0,9.47.24,14.21.21,3.27,0,6.55.18,9.82.14,1.25,0,2.5.08,3.74,0,.39.35.87.15,1.29.14,4-.13,8,.06,11.93-.42,2.21-.27,4.43-.38,6.64-.45,4-.13,8-.23,12-.16,2.38,0,4.75-.25,7.12-.2a3.55,3.55,0,0,1,1.75.32c-2.22,1.47-4.58,2.74-6.68,4.4-1.25,1-2.64,1.79-3.94,2.71-.32.23-.66.13-1,.25-2,.19-4-.61-6-.64-1.37,0-2.74-.3-4.11-.32-2.37,0-4.74-.27-7.11-.25-2.73,0-5.45.22-8.18.13-1,0-1.91-.15-2.87-.21a1.57,1.57,0,0,0-1.38.33c1,.12,2,.31,3,.35,1.49.05,3,0,4.47,0,3.12,0,6.24-.13,9.36,0a57.15,57.15,0,0,1,10.86,1.07c.58.14,1.27-.24,1.77.35-1.79,1.3-3.54,2.67-5.4,3.87-1.5,1-3,2-4.94,2a15.13,15.13,0,0,1-2.41-.29l-1.46.05-1.05,0a8.67,8.67,0,0,0-3.34-.19,45.12,45.12,0,0,0-6.75.09l-1-.17-1.15,0c-2.7.12-5.39-.15-8.09-.17-1.69,0-3.38-.13-5.07-.18-2.2-.05-4.39-.07-6.59-.11a35.21,35.21,0,0,0-5.09-.19,81.09,81.09,0,0,1-8.58-.29A33.7,33.7,0,0,0,93,118.3c-3,.08-6-.08-9-.15-1.11,0-2.22,0-3.33-.09-4.41-.17-8.84-.1-13.24-.62-1.7-.2-3.4-.41-5.1-.57C62.11,116.84,61.6,116.68,61.62,117.16ZM206.18,70.85h0c.22,2.39-.33,4.74-.38,7.12,0,.69,0,1.38-.06,2.08a.44.44,0,0,1-.36.44c-.27,0-.24-.17-.22-.34.36-2.27,0-4.6.54-6.86.13-.5.25-1-.25-1.44-.09.12-.24.24-.24.34,0,1.18-.41,2.29-.34,3.49.08,1.43-.11,2.88-.17,4.33,0,.41-.25.54-.62.52-.65,0-1.31-.07-2-.07-2.54,0-5.07.45-7.62.15-.23,0-.54.15-.66-.11s.12-.52.27-.73c.33-.45.72-.85,1-1.31a87.89,87.89,0,0,1,6.9-8.85,13.54,13.54,0,0,0,3.62-7.93c0-.42-.24-1,.4-1.13s.58.62.75,1a2.26,2.26,0,0,1,.16.59C207.39,65.13,206.62,68,206.18,70.85Zm50.33,21.68a8.54,8.54,0,0,1-3.28,1.09c-1.6.11-3.21.15-4.8.34a101.08,101.08,0,0,1-13.32.66c-3.85,0-7.71-.09-11.56-.07-2.19,0-4.37.21-6.55.21s-4.62-.11-6.93-.2c-3.15-.12-6.3-.21-9.45-.42-4.34-.29-8.65-1.06-13-1.17s-8.46-.72-12.71-.92A103.19,103.19,0,0,1,161,90.23c-3.73-.7-7.5-1-11.25-1.53a22.63,22.63,0,0,1-5.94-1.25,4.23,4.23,0,0,0-4.91.6c-2.26,2-5.21,2.7-8.12,3.32-2.07.44-4.24.31-6.26,1a8.51,8.51,0,0,1-5,.27,2.56,2.56,0,0,1,.72-.85c.71-.68,1.69-.71,2.54-1.06,3-1.26,6.23-2.14,9-4a4.36,4.36,0,0,0,2.15-3.59,8.13,8.13,0,0,0-1.33-4.19,31.9,31.9,0,0,1-3.54-6.7,2.38,2.38,0,0,0-.48-.8c-1.33-1.45-1.53-3.35-2.08-5.11-.16-.5,0-.77.59-.79,1.24,0,2.42,0,3.12,1.31a6.88,6.88,0,0,0,.57.73c2.28,3,5,5.68,6.82,9.07a7.75,7.75,0,0,0,4.33,3.55,24.22,24.22,0,0,0,7.78,1.19c2.13,0,4.25.18,6.37.14,2,0,3.92-.14,5.88-.2,3.51-.11,7,.24,10.55.16s6.9-.16,10.34,0c1.36.06,2.71,0,4.07,0,2,0,4.05.43,6.1.53,2.86.13,5.69-.16,8.54-.14,5.43,0,10.83-.68,16.28-.57,2.51,0,5-.19,7.53-.34a57.77,57.77,0,0,1,11,.09c2.48.33,5,.23,7.45.47a11.15,11.15,0,0,1,6.9,3.21c2.18,2.16,3.7,4.89,5.77,7.16C256.6,92,257,92.27,256.51,92.52ZM255,94.15a19.38,19.38,0,0,1-6.19,1.45c-3.42.16-6.84.54-10.26.66-2.63.09-5.26-.06-7.89-.12L223.88,96c-3.74-.08-7.48-.21-11.22-.2-1.77,0-3.51-.42-5.28-.27a1,1,0,0,0-.27-.1c-2.52-.11-5-.21-7.56-.34s-4.89-.42-7.34-.41a81.37,81.37,0,0,1-8.15-.6c-2-.19-4-.49-6.07-.6a67.23,67.23,0,0,1-7-.85c1.52-.22,3,.33,4.52.15a.84.84,0,0,1,.65.13,18.37,18.37,0,0,1,3.62.15c2.2.17,4.39.44,6.59.59s4.56.06,6.8.38c2.45.34,4.9.59,7.36.79,3,.24,6,.35,9,.4,4.47.08,8.94.23,13.4,0,1-.06,2-.12,3-.11,4.33,0,8.67.16,13,.13a67,67,0,0,0,8.47-.48c2.44-.33,4.92-.1,7.33-.71Zm-58.51,9.69a3.53,3.53,0,0,0,.81-.55c.91-.6,1.85-1.15,2.77-1.74.31-.2.6-.31.69.17.25,1.34,1.35,1.91,2.32,2.61a1.91,1.91,0,0,0,2.23.07,1.76,1.76,0,0,1,1.4-.46c-1.26,1-2.38,1.52-3.84,1a12.46,12.46,0,0,0-2.42-.4ZM144.86,120.6a.73.73,0,0,1,1,0c.27.26.58.19.89.2,2.18.06,3.9-1.07,5.56-2.24,3.86-2.73,7.7-5.49,11.48-8.33,1.82-1.37,3.79-2.5,5.64-3.83a27.56,27.56,0,0,0,4.26-3.33,23.18,23.18,0,0,0,4-3.23,7.69,7.69,0,0,0,2.41-3.52,1.16,1.16,0,0,0,0-1.15c-.09-.12-.24-.1-.38,0-.57.21-.11.68-.27,1a2.07,2.07,0,0,1-.14.19A17,17,0,0,0,173,94.77c-4-.31-8-.89-12-1.48s-7.78-1.16-11.71-1.39a20.73,20.73,0,0,1-9.62-3.13.89.89,0,0,1,1.36-.4,11.12,11.12,0,0,0,2.41,1.07,108.6,108.6,0,0,0,13.07,1.84c4.07.36,8,1.22,12.09,1.72,2.35.29,4.69.76,7,.92,2.72.18,5.4.56,8.11.82,2.51.24,5,.54,7.54.54,2.7,0,5.38.22,8.07.37s5.26.38,7.89.27c2.09.19,4.17.38,6.27.44,3.13.08,6.26-.05,9.4.2,1.83.15,3.71,0,5.56,0,3.09.1,6.19.13,9.28.18,1.45,0,2.88-.15,4.32-.24,2.6-.17,5.2-.21,7.79-.43a14.48,14.48,0,0,0,5.42-1.5,8.4,8.4,0,0,0,2-1.12c.18-.11.32-.38.58-.06.87,1.09,1.9,2.12,1.32,3.72-1.54,1.92-3.82,2.24-6,2.57a69.9,69.9,0,0,1-10.21.75c-3.81,0-7.62,0-11.43-.19-3.21-.16-6.43-.16-9.65-.39a115.52,115.52,0,0,0-15.59-.31c-.54-.92-1-1.91-2.3-1.93a4.89,4.89,0,0,0-2.33.66c-.11.06-.38.4-.46.07S201,98,201,97.92h-.07c-.18,0-.37.28-.45.4a1.62,1.62,0,0,1-.89.59l-13.93,7.28s-.06.12-.11.22a2.49,2.49,0,0,0,1.88-.39c3.9-2.06,7.83-4.06,11.75-6.08a7,7,0,0,0,.66-.44c.54-.07.57.15.26.49a4.19,4.19,0,0,1-1.38.86c-2.93,1.39-5.6,3.24-8.47,4.75-3.68,1.75-7.37,3.5-11.09,5.17-3.12,1.4-6.14,3-9.21,4.53a10.81,10.81,0,0,0-1.76.94,13.35,13.35,0,0,0-3.36,1.79l-2.86,1.16c-4,1.65-7.86,3.66-12.13,4.61a4.33,4.33,0,0,1-4.87-2.14A1,1,0,0,1,144.86,120.6Zm32.31-23.94,1.42.39c-.22.46-.44,1.07-.91.92A1.1,1.1,0,0,1,177.17,96.66Z"/><path class="cls-1" d="M90.41,77.78c-2.91-.29-5.83-.54-8.75-.54-4.2,0-8.39.12-12.59.18-.36,0-.74.17-1.08-.1A25.58,25.58,0,0,1,64,77.26c-.23,0-.66.25-.66-.2s.41-.33.73-.29c3.43.41,6.88,0,10.33.1,3.79.14,7.61-.09,11.41.16a41.83,41.83,0,0,0,7.33.26c.49,0,1-.17,1.47,0,5,.09,10,.22,15,0l2.82-.12h.22l1.25-.06c5-.37,9.94-.34,15.12-.43a1,1,0,0,1-1.12.54c-2.95.09-5.89-.25-8.85,0-2.33.2-4.67.21-7,.31l-6.88.39c-.43,0-.88.19-1.3-.08-3.85.16-7.69-.31-11.54-.11A13.51,13.51,0,0,1,90.41,77.78Z"/><path class="cls-1" d="M56.8,107.4a80.36,80.36,0,0,0,9.33.69c1.44,0,2.87.21,4.31.34,2.06.18,4.12.4,6.18.56a49.63,49.63,0,0,1,6.86.93,8.37,8.37,0,0,1,1.56,0,45.76,45.76,0,0,0,7.26.66c.36,0,.73-.15,1.08.07l.44.09a19.59,19.59,0,0,1,4,0c1.25,0,2.5.26,3.75.38.25,0,.58.1.55.33s-.36.29-.67.28C99,111.61,96.55,111,94,111c-2.06-.1-4.12-.16-6.18-.32-1.49-.12-3-.36-4.44-.56l-.14,0c-1.77-.19-3.55-.42-5.32-.56-3-.24-6-.44-8.94-.65l-12.26-.85c-.26,0-.74.21-.68-.34S56.36,107.33,56.8,107.4Z"/><path class="cls-1" d="M168.59,65.91c2.55-.24,5.08.26,7.64.19,3.37-.09,6.76.34,10.14.41,3.58.08,7.14.46,10.89.62-.3.43-.49.55-.93.48-.84-.14-1.71-.13-2.56-.19-2.14-.16-4.28-.24-6.41-.4-3.38-.24-6.76-.41-10.13-.38-2.91,0-5.79-.38-8.69-.29-.19,0-.48.07-.41-.27S168.37,65.93,168.59,65.91Z"/><path class="cls-1" d="M105.27,111.31c1.74.12,3.48,0,5.23,0,3.77,0,7.53.21,11.3.33a9.56,9.56,0,0,1,3.2-.05c.24.05.53.05.49.35s-.35.32-.59.28A8.54,8.54,0,0,0,123,112c-3,.28-6-.19-9.07,0a17.33,17.33,0,0,1-2.9-.12c-1.9-.21-3.8.23-5.7,0-.2,0-.54.18-.59-.08S104.91,111.29,105.27,111.31Z"/><path class="cls-1" d="M54,92.06l8-.47a1.2,1.2,0,0,1,1.24,0c2.48,0,5-.42,7.58-.06-.51.6-1.06.42-1.53.37A8.44,8.44,0,0,0,68,91.77c-4,.18-8,.39-12,.5-.66,0-1.35.34-2,0h-.84l-1.67.08c-.94,0-1.88,0-2.81,0-2.93-.23-5.87-.2-8.8-.18-2.42,0-4.83.22-7.29.34.15-.85.76-.71,1.17-.65a21.24,21.24,0,0,0,4.06,0c5.24-.27,10.47.29,15.7.08A1.33,1.33,0,0,1,54,92.06Z"/><path class="cls-1" d="M118.48,94.76c2.07.06,4.14.21,6.22.27s4,.29,6,.5a56.47,56.47,0,0,0,6.45.62c2.24.08,4.48.31,6.71.21q6.64-.29,13.29-.39a2,2,0,0,1,.31,0c3.14.48,6.33.07,9.46.58,1.18.19,2.4-.1,3.57.33a.72.72,0,0,1-.86.34c-1.53-.2-3.07-.31-4.61-.44a123.3,123.3,0,0,0-12.55-.33c-5.38.11-10.75.57-16.13.09-1.33-.11-2.66-.17-4-.33A81.85,81.85,0,0,0,121,95.42c-.42,0-.85.16-1.27,0s-.9,0-1.35,0c-.27,0-.82.32-.77-.32S118.22,94.75,118.48,94.76Z"/><path class="cls-1" d="M72.41,91.73c-.08-.48.38-.36.66-.42s.74-.17,1.07.11c2.32.36,4.67.24,7,.49,2.94.31,5.88.61,8.82.91a1.12,1.12,0,0,1,.31,0c3,.47,6,.43,9,.83l.63,0a8.38,8.38,0,0,0,2.75.27,43.9,43.9,0,0,1,6.94.75c-2.34.43-4.61-.49-6.93-.39-1.08.25-2.1-.28-3.16-.26-.36,0-.76.23-1.09-.12-1.64-.08-3.29-.1-4.92-.25a28.33,28.33,0,0,1-3.93-.45,3.42,3.42,0,0,1-.42-.1c-2-.12-4-.13-6-.4a73.75,73.75,0,0,0-10.06-.7C72.86,91.94,72.47,92.08,72.41,91.73Z"/><path class="cls-1" d="M60.73,77c-2.84-.09-5.68-.08-8.53,0A11.85,11.85,0,0,1,48,76.61a1.08,1.08,0,0,1,.92-.27c2.24.1,4.49.17,6.73.09,1.63-.06,3.27.13,4.9,0,.31,0,.6.06.62.39S60.91,77,60.73,77Z"/><path class="cls-1" d="M131.34,82c0,.24-.22.27-.53.24a76.14,76.14,0,0,0-9-.52h-.22c-2.51.15-5,.79-7.54.38-.75.22-1.48-.24-2.24-.08-.22,0-.67.22-.67-.19s.48-.49.8-.4a5.5,5.5,0,0,0,1.68.34l1-.08c.49,0,1-.2,1.48.08l.85,0a.86.86,0,0,1,1-.06l.84,0a2.39,2.39,0,0,1,1.46-.23l.64,0,2.29-.07c.64,0,1.28,0,1.92,0l5.76.32C131.13,81.7,131.37,81.8,131.34,82Z"/><path class="cls-1" d="M160,65.54a8.48,8.48,0,0,0,2.24.1l1.9-.09c.26,0,.53.08.54.36s-.28.23-.48.26a26.67,26.67,0,0,1-4.24,0c-.21,0-.46-.08-.45-.32S159.77,65.51,160,65.54Z"/><path class="cls-1" d="M125.94,101.6c1.65,0,3.3,0,5-.16C130.14,102.24,127.26,102.37,125.94,101.6Z"/><path class="cls-1" d="M112.22,94.61a15,15,0,0,1,2.9,0c.28,0,.51.09.51.31s-.28.33-.53.35c-.72.06-1.42-.3-2.07-.1a2.07,2.07,0,0,0-.7,0c-.33.16-.57.08-.64-.23S111.94,94.62,112.22,94.61Z"/><path class="cls-1" d="M157.09,65.54c-.57.57-1.83.66-3.64.21C154.6,65,155.87,65.79,157.09,65.54Z"/><path class="cls-1" d="M109.76,81.58c-.06.12-.16.29-.26.29a7.27,7.27,0,0,1-3.28-.09c1.22-.6,2.3-.32,3.33-.4C109.62,81.37,109.77,81.55,109.76,81.58Z"/><path class="cls-1" d="M104.23,81.76a2.22,2.22,0,0,1-2,.09s-.07-.08-.21-.26a3.25,3.25,0,0,1,2.2,0C104.27,81.59,104.35,81.68,104.23,81.76Z"/><path class="cls-1" d="M251.52,88.33c.2-.67-.42-1.06-.82-1.47-.63-.65-1.35-1.21-2-1.84a1.39,1.39,0,0,0-1.81-.14,1.07,1.07,0,0,0-.31,1.51,1.81,1.81,0,0,1,.06.72c.09,2.21.31,2.14,2.68,2.32l.62-.09C250.61,89.21,251.31,89,251.52,88.33Zm-2.26.26c-1.77.14-2.19-.28-1.8-1.73C247.91,87.55,248.71,87.85,249.26,88.59Z"/><path class="cls-1" d="M134.28,79.87c-.48.29-.59-.14-.74-.42-.5-.93-1-1.87-1.46-2.8-1.08-2-2.18-4-3.28-5.94-.15-.27-.28-.54-.46-.89,0-.12.12-.23.26-.34s.34,0,.44.12a4.32,4.32,0,0,1,.36.62c1.59,3,3.19,5.94,4.77,8.93C134.27,79.35,134.8,79.55,134.28,79.87Z"/><path class="cls-1" d="M243.86,86a1,1,0,0,0-1.16-.82c-.86.09-.72.94-.94,1.53a1.25,1.25,0,0,0,1.13.89C243.27,87.72,244,86.61,243.86,86Zm-.91,1c-.08.11-.25,0-.35-.1-.38-.41,0-.66.27-1C243,86.31,243.2,86.66,242.95,87Z"/><path class="cls-1" d="M162.25,86.33A1.45,1.45,0,0,0,160.88,85c-.56,0-.86.36-.87,1a1.31,1.31,0,0,0,1.3,1.15C161.83,87.24,162.36,86.83,162.25,86.33Zm-.53.07c0,.22-.11.29-.44.27a.82.82,0,0,1-.6-.59c-.07-.22.13-.26.32-.26A.67.67,0,0,1,161.72,86.41Z"/><path class="cls-1" d="M179.29,86.53c0-.59-.67-.78-1.2-.88a.85.85,0,0,0-.9.91c0,.66.54.92,1.1.94A.94.94,0,0,0,179.29,86.53Zm-.78.29c-.35.15-.54,0-.78-.24A.5.5,0,0,1,178.51,86.82Z"/><path class="cls-1" d="M234.63,86.26c0-.74-.64-.82-1.08-.83a.94.94,0,0,0-.88,1.05c0,.54.36,1.19,1,1.12A1.24,1.24,0,0,0,234.63,86.26Zm-.88.82a.4.4,0,0,1-.49-.31c-.14-.39.26-.42.47-.53s.29.09.3.27S234.06,87,233.75,87.08Z"/><path class="cls-1" d="M158.29,85.93c0-.57-.45-.78-1.16-.72-.39.08-1.06.19-1.06.84s.6.82,1.15.81A1,1,0,0,0,158.29,85.93Zm-.78.15c0,.23-.23.17-.38.18a.24.24,0,0,1-.27-.23c.06-.21.24-.17.39-.18A.22.22,0,0,1,157.52,86.08Z"/><path class="cls-1" d="M205.66,86.86a1,1,0,0,0-1.11-1,.81.81,0,0,0-.8,1c.06.76.39,1.07,1,1.05S205.69,87.45,205.66,86.86Zm-.43.15c0,.25-.23.38-.4.39s-.45-.25-.61-.46c.08-.24.28-.39.47-.31S205.21,86.71,205.23,87Z"/><path class="cls-1" d="M230.39,86.52a.88.88,0,0,0-1.06-.93.92.92,0,0,0-1,1c0,.61.38.93,1,.9A1,1,0,0,0,230.39,86.52Zm-.79.47c-.43.2-.59-.18-.81-.47.34,0,.66-.59,1-.07A.36.36,0,0,1,229.61,87Z"/><path class="cls-1" d="M154.62,85.84a1,1,0,0,0-.94-1.06c-.71,0-.92.63-1,1.12s.52.79,1.26.84A.82.82,0,0,0,154.62,85.84Zm-.53.09c0,.18-.18.28-.39.3a.41.41,0,0,1-.4-.38c0-.26.19-.24.35-.25S154.08,85.69,154.09,85.93Z"/><path class="cls-1" d="M165.89,85.87c-.05-.69-.6-.81-1.11-.81s-.76.4-.77.95c.16.48.29,1,1,.92A.89.89,0,0,0,165.89,85.87Zm-.88.51c-.23,0-.35-.15-.39-.43s.07-.32.27-.27a.64.64,0,0,1,.36.32A.27.27,0,0,1,165,86.38Z"/><path class="cls-1" d="M174.75,86.26c-.09-.71-.61-.89-1.19-.87a.69.69,0,0,0-.71.92c.18.58.44,1.1,1.18,1A.83.83,0,0,0,174.75,86.26Zm-.8.62c-.3,0-.33-.3-.45-.47s0-.34.24-.35.43.07.43.32S174.25,86.86,173.95,86.88Z"/><path class="cls-1" d="M189.26,86.81a1.14,1.14,0,0,0-1.21-1,.78.78,0,0,0-.9.88c0,.74.56.93,1.07,1S189.32,87.42,189.26,86.81Zm-1,.37a.87.87,0,0,1-.7-.76c0-.06.22-.11.35-.13.36-.06.56.22.67.5A.28.28,0,0,1,188.31,87.18Z"/><path class="cls-1" d="M210.2,87a1.23,1.23,0,0,0-1.15-1.14c-.63,0-.87.55-.86,1.16a.93.93,0,0,0,1.06,1A.92.92,0,0,0,210.2,87Zm-.52.15c0,.37-.28.41-.46.43s-.45-.24-.59-.49c.07-.24.2-.51.44-.5A.61.61,0,0,1,209.68,87.12Z"/><path class="cls-1" d="M193.25,86.94c-.09-.52-.29-1-1-1s-.76.37-.91.82c.3.46.4,1.12,1.13,1.05A.75.75,0,0,0,193.25,86.94Zm-.62,0c0,.16-.06.28-.22.24a.47.47,0,0,1-.39-.38c0-.21.15-.25.28-.21A.41.41,0,0,1,192.63,87Z"/><path class="cls-1" d="M201.48,87.14a1.28,1.28,0,0,0-1.19-1.22.58.58,0,0,0-.69.44c0,.91.73,1.8,1.24,1.7A.78.78,0,0,0,201.48,87.14Zm-.67.33c-.43,0-.44-.35-.59-.57s.08-.32.23-.27a1,1,0,0,1,.56.58C201.09,87.38,201,87.46,200.81,87.48Z"/><path class="cls-1" d="M150.67,85.67a1,1,0,0,0-1.16-.94c-.48,0-.84.32-.81.76a1,1,0,0,0,1.11.94C150.33,86.44,150.75,86.18,150.67,85.67Zm-.73,0c0,.15-.06.27-.23.17s-.39,0-.4-.27.21-.22.37-.22S150,85.5,149.93,85.71Z"/><path class="cls-1" d="M218.83,87a1.06,1.06,0,0,0-1.17-1.05.78.78,0,0,0-.83.83,1,1,0,0,0,1.05,1.09C218.36,87.82,218.84,87.44,218.83,87Zm-.56,0a.38.38,0,0,1-.36.42c-.31,0-.46-.24-.64-.51.14-.14.28-.39.43-.39A.56.56,0,0,1,218.27,87Z"/><path class="cls-1" d="M170.15,86.34A1,1,0,0,0,169,85.4a.79.79,0,0,0-.74.94.84.84,0,0,0,1.1.79C169.92,87.17,170.22,86.91,170.15,86.34Zm-.82.33c-.19-.05-.41-.09-.47-.36a.22.22,0,0,1,.24-.23.35.35,0,0,1,.41.34C169.53,86.55,169.54,86.72,169.34,86.67Z"/><path class="cls-1" d="M222.67,86.75a1.06,1.06,0,0,0-1-1,1.14,1.14,0,0,0-.85,1.24.86.86,0,0,0,1,.86C222.54,87.78,222.71,87.28,222.67,86.75Zm-.8.68c-.19-.19-.6-.14-.64-.56a.41.41,0,0,1,.37-.42.66.66,0,0,1,.65.52C222.32,87.2,222.1,87.32,221.86,87.43Z"/><path class="cls-1" d="M197.69,86.88a.89.89,0,0,0-1-.93c-.58,0-.73.4-.8.87.15.46.15,1.07.88,1A.84.84,0,0,0,197.69,86.88Zm-.43.12c0,.25-.2.37-.39.37s-.42-.18-.45-.45.1-.41.35-.37A.52.52,0,0,1,197.26,87Z"/><path class="cls-1" d="M214.22,86.81c0-.56-.59-.78-1-.77a.81.81,0,0,0-.76.9c.06.45.26.94.9,1A1.06,1.06,0,0,0,214.22,86.81Zm-.83.52c-.23,0-.36-.14-.41-.36s.09-.36.29-.32a.63.63,0,0,1,.37.31A.26.26,0,0,1,213.39,87.33Z"/><path class="cls-1" d="M239.16,85.65c0-.24-1.47.27-1.63.63s-.28.94.31,1.22a.74.74,0,0,0,1.07,0C239.8,87,239.26,86.27,239.16,85.65Zm-.5,1.58c-.25.08-.42-.08-.62-.18a.54.54,0,0,1,.08-.73c.22-.2.36,0,.52.13C239,86.71,238.82,87,238.66,87.23Z"/><path class="cls-1" d="M147.14,85.72c-.09-.45-.26-1.1-1-1-.53.07-.69.49-.68,1s.29.74,1,.67C146.72,86.33,147.24,86.23,147.14,85.72Zm-.59-.08c0,.11-.16.28-.24.28a.28.28,0,0,1-.28-.34.25.25,0,0,1,.29-.22A.24.24,0,0,1,146.55,85.63Z"/><path class="cls-1" d="M128.19,68.54a.2.2,0,0,1-.33-.09c-.18-.44-.35-.89-.52-1.33,0-.2-.07-.46.19-.55s.39.15.46.4a8.44,8.44,0,0,0,.4,1C128.5,68.28,128.34,68.41,128.19,68.54Z"/><path class="cls-1" d="M226,85.78c-.38-.34-.78-.53-1.24-.14a.87.87,0,0,0-.12,1.13,1.06,1.06,0,0,0,1.42.62C226.79,86.82,226.63,86.29,226,85.78Zm-.43.24c.15.27.61.37.43.81s-.38.1-.58.07C225.12,86.54,224.66,86.17,225.56,86Z"/><path class="cls-1" d="M184.07,87.25c.59-.6.34-1.07-.23-1.5s-.92,0-1.22.32a.71.71,0,0,0,.16,1.26C183.25,88,183.66,87.66,184.07,87.25Zm-.29-.48c-.16.14-.28.36-.56.29,0-.2-.48-.35-.18-.57S183.61,86.44,183.78,86.77Z"/><path class="cls-1" d="M171.83,112.65c3-1.41,6-2.82,9-4.2.24-.11.61-.6.85-.07s-.2.52-.56.67c-2.45,1.07-4.87,2.19-7.31,3.29-1,.44-1.93.87-2.89,1.32-.26.12-.46.14-.64-.17-.05-.12.1-.09.17-.13C170.93,113.11,171.37,112.86,171.83,112.65Z"/><path class="cls-1" d="M159.57,118.72l4.14-1.74c.18-.13.29,0,.35.17.15.36-.11.48-.39.58a22.58,22.58,0,0,0-3.68,1.66c-.23.13-.42.13-.54-.05S159.27,118.85,159.57,118.72Z"/><path class="cls-1" d="M168.65,114.38c.23-.16.55-.48.91-.28a.31.31,0,0,1,0,.46,12.68,12.68,0,0,1-1.41.76c-.06,0-.21-.14-.32-.21C167.94,114.65,168.38,114.57,168.65,114.38Z"/><path class="cls-1" d="M184.47,107c.06.11.2.25.18.33-.22.7-.83.43-1.47.58C183.32,107,184.08,107.29,184.47,107Z"/><path class="cls-1" d="M166.41,115.64c.26-.12.39,0,.37.28,0,.52-.53.42-.84.57a.27.27,0,0,1-.4-.23C165.7,115.91,166.07,115.79,166.41,115.64Z"/><path class="cls-1" d="M206.18,70.85v0h0c-.11.23-.3.47-.51.31s-.15-.69-.17-1c0-.14.16-.2.31-.18.44,0,.26.39.31.63,0,.09,0,.17.06.25h0v0Z"/><path class="cls-1" d="M205.61,68.44a.53.53,0,0,1,.35-.31c.21,0,.27.19.27.36s-.16.27-.32.32S205.54,68.64,205.61,68.44Z"/><path class="cls-1" d="M0,40.2c.41,2.56,2.24,4,4.06,5.46a7.65,7.65,0,0,0,2,1.4,8.78,8.78,0,0,0,3.36,1.69,42.63,42.63,0,0,0,7,1.16,12.2,12.2,0,0,0,3.07-.15,10.73,10.73,0,0,1,6.84,1.4c1.45.84,2.74,1.92,4.28,2.63a6.78,6.78,0,0,0,5.25.3A33,33,0,0,0,40,52.59a4.23,4.23,0,0,1,3.89.39c1.4.69,2.71,1.54,4.13,2.2,1.84.85,3.62.33,5.43.27s3.23-1.65,5-2.23a8.76,8.76,0,0,1,3.83-.6,26.26,26.26,0,0,0,3.59-.13c2.44-.07,4.89-.25,7.33-.15,2.13.09,4.27.23,6.39.4a21.91,21.91,0,0,0,9-.74,8.07,8.07,0,0,0,3.62-2.14c.35-.4.31-.54-.11-.8-.8-.5-1.75-.51-2.58-1a9,9,0,0,1-4.51-4.55,6.39,6.39,0,0,0-3.76-3.66,8.74,8.74,0,0,0-3.57-.35l-.89,0a5.21,5.21,0,0,0-2.52.55c-.53.28-.75,0-.89-.46-.26-.92-.52-1.84-.82-2.75A5.79,5.79,0,0,0,67.8,33a13.82,13.82,0,0,0-8.34.49c-.31.13-.41,0-.6-.21a8.91,8.91,0,0,0-10.1-3.38,13.89,13.89,0,0,0-3.82,1.43,1.81,1.81,0,0,0-.62.66c-.53-.64-.67-1.54-1.35-2.1-1.44-1.2-3-.9-4.66-.51a8,8,0,0,0-3.17,1.46,7.58,7.58,0,0,1-1.93,1c-.68.28-1-.42-1.43-.72a7.56,7.56,0,0,1-1.32-1.26,6.52,6.52,0,0,0-5.54-2.1,14,14,0,0,0-10.36,4.48,16.14,16.14,0,0,0-1.77,3.2,2.91,2.91,0,0,1-2.48,1.61c-2.39.12-4.78,0-7.17.17a7.57,7.57,0,0,0-1.57.27A2.18,2.18,0,0,0,0,40.2ZM1.69,38a6.19,6.19,0,0,1,2.11-.28c1.78.21,3.58,0,5.35.2a4.12,4.12,0,0,0,4.39-2.28,19.41,19.41,0,0,1,2.78-3.74,11,11,0,0,1,9.37-3.5,5.59,5.59,0,0,1,4.12,1.86,14.79,14.79,0,0,0,2.44,2.1.8.8,0,0,0,1,.1c.65-.34,1.31-.67,1.94-1a10,10,0,0,1,5.64-1.76,2,2,0,0,1,1.65.79,7.73,7.73,0,0,1,1.6,3.19c.08.35.22.56.55.46s.24-.3.18-.6a1.54,1.54,0,0,1,1.22-2.14,22.84,22.84,0,0,1,6-1.22,5.41,5.41,0,0,1,2.16.34,10.28,10.28,0,0,1,4.82,4c.75,1.08,1.39,2.23,2.06,3.36.1.17.18.3.36.25s.25-.3.2-.49a2.16,2.16,0,0,0-.27-.51c-.52-.83-1-1.67-1.59-2.49-.33-.49-.2-.68.34-.86a13.53,13.53,0,0,1,7.92,0A5.11,5.11,0,0,1,72,37.35a11.74,11.74,0,0,1,.45,2.49c.08,1,.57,1.26,1.44.94a6.13,6.13,0,0,1,3.36-.6,18.59,18.59,0,0,0,2.26.28c2.11.14,3.78.92,4.61,3a8.85,8.85,0,0,0,1.63,2.84,13.87,13.87,0,0,0,4,2.51c.57.3,1.19.51,1.88.8a11.36,11.36,0,0,1-5.8,2.19A80.38,80.38,0,0,1,77,51.73c-1.5-.09-3-.22-4.5-.23a11.79,11.79,0,0,0-2.26-.22,19.83,19.83,0,0,1-3.53.47c-1.45,0-2.92-.13-4.35,0a16.14,16.14,0,0,0-3,.23,55.31,55.31,0,0,0-5.44,2.18c-1.91.84-3.8,1.38-5.84.39-1.44-.7-2.81-1.52-4.22-2.27a4.2,4.2,0,0,0-3.69-.52c-1.52.67-3.06,1.24-4.63,1.77a5.8,5.8,0,0,1-5.66-1c-3.11-2.34-6.47-3.86-10.5-3.47A27.45,27.45,0,0,1,13.43,49c-1.35-.16-2.66-.49-4-.68a20.05,20.05,0,0,1-2.83-1.6,28.31,28.31,0,0,1-3.24-2.64,14.43,14.43,0,0,1-2.48-2.8C.12,40.05.21,38.35,1.69,38Z"/><path class="cls-1" d="M54.19,31.86a7.14,7.14,0,0,1,2.58,1.72,12.41,12.41,0,0,1,2.88,4c.12.26,0,.34-.19.43s-.27-.23-.37-.41c-1.19-2.27-2.6-4.33-5.17-5.24a.34.34,0,0,1-.24-.47C53.79,31.68,54,31.8,54.19,31.86Z"/><path class="cls-1" d="M22.87,29.24c.62-.07,1.25-.1,1.88-.13a5.57,5.57,0,0,1,5,2.56c.09.13.45.2.22.45s-.41-.07-.53-.2a8,8,0,0,0-1.74-1.58c-1.61-1-3.29-.87-5-.49-.15,0-.4.24-.38-.19S22.64,29.26,22.87,29.24Z"/><path class="cls-1" d="M70.59,38.38c.27-.1.3.23.36.37a7.75,7.75,0,0,1,.27,1.1c0,.19-.09.41-.15.63a.3.3,0,0,1-.38.25c-.07,0-.14-.28-.1-.37A1.38,1.38,0,0,0,70.41,39C70.24,38.71,70.33,38.48,70.59,38.38Z"/><path class="cls-1" d="M41.86,31c.13-.06.32-.08.39,0a14.16,14.16,0,0,1,.6,1.37c.07.18-.11.31-.26.39s-.19,0-.19-.07a3.4,3.4,0,0,0-.6-1.4C41.75,31.21,41.73,31.08,41.86,31Z"/><path class="cls-1" d="M21.07,29.84a.29.29,0,0,1,.44.22c-.05.4-.49.32-.72.48-.22-.06-.56.16-.55-.21S20.8,30,21.07,29.84Z"/><path class="cls-1" d="M69.94,36.19c.37.14.33.62.6.86a.32.32,0,0,1-.32.34c-.4-.11-.28-.58-.5-.84S69.85,36.16,69.94,36.19Z"/><path class="cls-1" d="M51.73,31.24c.15.26.65-.13.7.36,0,.2-.16.3-.34.27s-.58-.11-.67-.42C51.37,31.28,51.54,31.21,51.73,31.24Z"/><path class="cls-1" d="M19.21,30.61c.11,0,.31.15.3.21a.46.46,0,0,1-.39.37.26.26,0,0,1-.24-.3C19,30.76,19,30.58,19.21,30.61Z"/><path class="cls-1" d="M108.24,160.6a12.11,12.11,0,0,0,7.75,2,2.18,2.18,0,0,1,2.37,1.09,10.05,10.05,0,0,0,2.24,2.4c1.38,1.15,3,.91,4.57.47a6,6,0,0,0,1.93-.93c1.21-.88,1.8-.79,3.27.38a5.86,5.86,0,0,0,5,1.42c1.21-.27,2.36-.82,3.55-1.2.77-.25,1.49-.62,2.24-.91a9.73,9.73,0,0,1,6.37,0,6.66,6.66,0,0,0,4.15.1,2.23,2.23,0,0,0,.92-3.84,8.08,8.08,0,0,0-5.19-2.51c-1.64-.19-2-1.1-2.19-2.43a4.71,4.71,0,0,0-2.35-3,4.85,4.85,0,0,0-4.25-.65,1.51,1.51,0,0,1-.42,0,3.4,3.4,0,0,0-3.15-2.23,7.5,7.5,0,0,0-3.75.31,1.68,1.68,0,0,1-1.55-.33,6.45,6.45,0,0,0-5.69-.84,11.11,11.11,0,0,0-3.74,2.29.41.41,0,0,0-.2.34,17,17,0,0,0-6.62-.51,11.62,11.62,0,0,0-5.92,3.09c-.11.1-.14.3-.21.45C106,158.06,106.16,159.24,108.24,160.6Zm-.79-4.43a9.34,9.34,0,0,1,6.52-3.74,15.43,15.43,0,0,1,5.85.56,1.12,1.12,0,0,0,1.67-.25,8.81,8.81,0,0,1,2.48-2,5.76,5.76,0,0,1,7.62,3.69c.06.26-.07.71.32.66s.39-.49.3-.83a4.43,4.43,0,0,0-.89-1.8c-.29-.33-.36-.61.26-.75a15.7,15.7,0,0,1,2.88-.3A3.4,3.4,0,0,1,138,155.1c0,.33.11.42.33.47s.32-.18.31-.38a3.66,3.66,0,0,0-.23-1.59c1.54-.83,2.93-.22,4.31.46a5.62,5.62,0,0,1,2.31,4.17c0,1,.6,1,1.28,1.15,2,.38,4,.79,5.53,2.28a2.43,2.43,0,0,1,1,1.93,1.68,1.68,0,0,1-1.27,1.33,5,5,0,0,1-3.16,0,15.62,15.62,0,0,0-3.5-.8,13.42,13.42,0,0,0-4.59.61c-1.39.43-2.74,1-4.09,1.55a4.32,4.32,0,0,1-3.93.09c-1.05-.59-2-1.28-3.08-1.9-.65-.39-1.13-.54-1.73,0a5.26,5.26,0,0,1-.78.52c-1.09.63-2.13,1.34-3.53,1.14a6.36,6.36,0,0,1-4.73-3.58,1.3,1.3,0,0,0-1.55-.62,15.16,15.16,0,0,1-3.54,0c-1.67-.17-3-1.23-4.41-2C106.67,158.72,106.64,158.54,107.45,156.16Z"/><path class="cls-1" d="M124,151.71a4,4,0,0,1,4.43-.13,3.17,3.17,0,0,1,1.84,3.14c-.22-.43-.36-.66-.47-.9a3.78,3.78,0,0,0-5.64-1.66c-.15.11-.33.48-.53.18S123.74,151.88,124,151.71Z"/><path class="cls-1" d="M116.26,153.14a33,33,0,0,1,3.42.37.29.29,0,0,1,.27.36c0,.17-.22.13-.36.11l-2.88-.38a2.17,2.17,0,0,1-.38,0c-.21,0-.56.22-.58-.22S116.05,153.15,116.26,153.14Z"/><path class="cls-1" d="M143.28,155.44a5.54,5.54,0,0,1,1.26,2.63c-.1.24.2.66-.26.69s-.24-.37-.28-.6a5,5,0,0,0-1-2.4c-.12-.16-.21-.3-.11-.42S143.17,155.33,143.28,155.44Z"/><path class="cls-1" d="M136.57,152.61c.41,0,.24.37.37.55s-.09.27-.25.33-.36-.36-.43-.57S136.38,152.63,136.57,152.61Z"/><path class="cls-1" d="M137.33,154a1,1,0,0,1,0,1c-.1-.32-.56-.54-.26-.93A.39.39,0,0,1,137.33,154Z"/><path class="cls-1" d="M114.41,152.8c.24-.12.35.08.36.22s-.28.37-.43.35-.51,0-.52-.25S114.27,153,114.41,152.8Z"/><path class="cls-1" d="M246.23,136.28c.75.76,1.78.67,2.71.88,2.08.48,4.24.31,6.31.87a36.39,36.39,0,0,1,5.2,1.87,51.15,51.15,0,0,0,6.47,1.95,5.63,5.63,0,0,0,3.1-.24c2.59-.8,4.55-2.55,6.53-4.26a10,10,0,0,1,6.05-.72,16.07,16.07,0,0,0,2,0,16.67,16.67,0,0,0,5.63-.23,11.77,11.77,0,0,0,3.49-2.09c.22-.17.42-.37.64-.54,1.85-1.37,2-2.77.49-4.49a6.43,6.43,0,0,0-5.3-2.5c-1.24.08-2.48.2-3.72.27a1.41,1.41,0,0,1-1-.33,24.29,24.29,0,0,1-1.9-1.57c-1.75-1.73-3.95-2.1-6.28-2.33a7.26,7.26,0,0,0-4.9,1.47c-.64.56-.84-.24-1-.46a6.43,6.43,0,0,0-3.26-2.19,5.35,5.35,0,0,0-4.92,1,8.38,8.38,0,0,0-.64.64c-.42.71-.83,1-1.69.43a4.87,4.87,0,0,0-6.67,1.91,26.58,26.58,0,0,1-2.54,3.84c-.45.63-1.18.72-1.78,1.06a11.57,11.57,0,0,0-3.41,2.82A1.87,1.87,0,0,0,246.23,136.28Zm.77-3.14a8,8,0,0,1,2.89-2,6.3,6.3,0,0,0,3-2.81,21.09,21.09,0,0,1,2.57-3.58c1.37-1.76,4.36-1,5.41.44a8.43,8.43,0,0,0-3.07-.85c-.59-.1-.49.2-.58.56a4.9,4.9,0,0,1,2.45.24c.55.23,1,.42.58,1.18a9.77,9.77,0,0,1-.5,1.15c-.2.28-.17.46.14.6s.35-.09.41-.33a14.74,14.74,0,0,1,1.85-3.9,5.12,5.12,0,0,1,6.94-.75c.6.48,1.11,1,1.66,1.52.15.2.17.31,0,.55a2.12,2.12,0,0,0-.73,1.3c0,.15,0,.29.11.37s.25-.08.34-.18a10.81,10.81,0,0,1,1-1.24,8.44,8.44,0,0,1,9.15-1.07,18.28,18.28,0,0,1,3.88,3.06,2.52,2.52,0,0,0,2.4.65,13.11,13.11,0,0,1,2.55-.25c2.34-.08,4.26.66,5.4,2.86a2,2,0,0,1-.65,2.59c-.63.44-1.22.92-1.82,1.38a7.86,7.86,0,0,1-3.17,1.46,16.54,16.54,0,0,1-4.07.15c-1.39,0-2.77-.24-4.15-.26a7,7,0,0,0-4.46,1c-1.25,1-2.47,2-3.77,2.87a7.66,7.66,0,0,1-4.62,1.64,22.66,22.66,0,0,1-7.68-2A27.9,27.9,0,0,0,254,137.3c-1.95-.3-3.92-.4-5.87-.77a3.85,3.85,0,0,1-1.9-.8A2.92,2.92,0,0,1,247,133.14Z"/><path class="cls-1" d="M277.07,124.58a10.4,10.4,0,0,1,6,2.47c.12.1.21.21.15.36s-.28.15-.43.07a1.76,1.76,0,0,1-.42-.27,7.81,7.81,0,0,0-3.23-1.77c-.89-.28-1.84-.21-2.73-.53A.53.53,0,0,1,277.07,124.58Z"/><path class="cls-1" d="M269.62,124.61c.11.13.27.24.11.43a.3.3,0,0,1-.22.08,5.33,5.33,0,0,1-1.53-1.83A9.37,9.37,0,0,1,269.62,124.61Z"/><path class="cls-1" d="M275.18,124.66c.21.07.54-.19.61.13s-.2.4-.49.39-.61,0-.65-.29S274.92,124.58,275.18,124.66Z"/><path class="cls-1" d="M267.27,122.8c.05.08-.11.23-.28.25a1,1,0,0,1-.81-.43c.11-.08.24-.26.31-.23C266.77,122.48,267.11,122.53,267.27,122.8Z"/><path class="cls-1" d="M265.08,122.42c.23,0,.44.1.49.34s-.13.15-.24.16a.46.46,0,0,1-.53-.29C264.8,122.43,264.94,122.41,265.08,122.42Z"/><path class="cls-1" d="M112.34,14.83c.75.76,1.78.67,2.71.88,2.08.48,4.24.31,6.31.87a36.4,36.4,0,0,1,5.2,1.87A51.15,51.15,0,0,0,133,20.4a5.63,5.63,0,0,0,3.1-.24c2.59-.8,4.55-2.55,6.53-4.26a10,10,0,0,1,6.05-.72,16.06,16.06,0,0,0,2,0,16.67,16.67,0,0,0,5.63-.23,11.77,11.77,0,0,0,3.49-2.09c.22-.17.42-.37.64-.54,1.85-1.37,2-2.77.49-4.49a6.43,6.43,0,0,0-5.3-2.5c-1.24.08-2.48.2-3.72.27a1.41,1.41,0,0,1-1-.33A24.29,24.29,0,0,1,149,3.73C147.3,2,145.1,1.62,142.77,1.4a7.26,7.26,0,0,0-4.9,1.47c-.64.56-.84-.24-1-.46A6.43,6.43,0,0,0,133.6.22a5.35,5.35,0,0,0-4.92,1,8.37,8.37,0,0,0-.64.64c-.42.71-.83,1-1.69.43a4.87,4.87,0,0,0-6.67,1.91A26.58,26.58,0,0,1,117.14,8c-.45.63-1.18.72-1.78,1.06A11.57,11.57,0,0,0,112,11.89,1.87,1.87,0,0,0,112.34,14.83Zm.77-3.14a8,8,0,0,1,2.89-2,6.3,6.3,0,0,0,3-2.81,21.09,21.09,0,0,1,2.57-3.58c1.37-1.76,4.36-1,5.41.44a8.43,8.43,0,0,0-3.07-.85c-.59-.1-.49.2-.58.56a4.9,4.9,0,0,1,2.45.24c.55.23,1,.42.58,1.18a9.77,9.77,0,0,1-.5,1.15c-.2.28-.17.46.14.6s.35-.09.41-.33a14.74,14.74,0,0,1,1.85-3.9,5.12,5.12,0,0,1,6.94-.75c.6.48,1.11,1,1.66,1.52.15.2.17.31,0,.55a2.12,2.12,0,0,0-.73,1.3c0,.15,0,.29.11.37s.25-.08.34-.18a10.79,10.79,0,0,1,1-1.24,8.44,8.44,0,0,1,9.15-1.07,18.28,18.28,0,0,1,3.88,3.06,2.52,2.52,0,0,0,2.4.65,13.11,13.11,0,0,1,2.55-.25c2.34-.08,4.26.66,5.4,2.86a2,2,0,0,1-.65,2.59c-.63.44-1.22.92-1.82,1.38a7.86,7.86,0,0,1-3.17,1.46,16.55,16.55,0,0,1-4.07.15c-1.39,0-2.77-.24-4.15-.26a7,7,0,0,0-4.46,1c-1.25,1-2.47,2-3.77,2.87A7.66,7.66,0,0,1,134.22,20a22.66,22.66,0,0,1-7.68-2,27.9,27.9,0,0,0-6.45-2.12c-1.95-.3-3.92-.4-5.87-.77a3.85,3.85,0,0,1-1.9-.8A2.92,2.92,0,0,1,113.11,11.69Z"/><path class="cls-1" d="M143.18,3.13a10.4,10.4,0,0,1,6,2.47c.12.1.21.21.15.36s-.28.15-.43.07a1.76,1.76,0,0,1-.42-.27A7.81,7.81,0,0,0,145.29,4c-.89-.28-1.84-.21-2.73-.53A.53.53,0,0,1,143.18,3.13Z"/><path class="cls-1" d="M135.72,3.16c.11.13.27.24.11.43a.3.3,0,0,1-.22.08,5.33,5.33,0,0,1-1.53-1.83A9.37,9.37,0,0,1,135.72,3.16Z"/><path class="cls-1" d="M141.29,3.22c.21.07.54-.19.61.13s-.2.4-.49.39-.61,0-.65-.29S141,3.13,141.29,3.22Z"/><path class="cls-1" d="M133.38,1.35c.05.08-.11.23-.28.25a1,1,0,0,1-.81-.43c.11-.08.24-.26.31-.23C132.88,1,133.21,1.08,133.38,1.35Z"/><path class="cls-1" d="M131.19,1c.23,0,.44.1.49.34s-.13.15-.24.16a.46.46,0,0,1-.53-.29C130.91,1,131,1,131.19,1Z"/></g></g></svg>