<svg xmlns="http://www.w3.org/2000/svg" viewBox="0 0 91.75 69.16"><defs><style>.cls-1{fill:#333945;stroke:#333945;stroke-miterlimit:10;stroke-width:0.75px;}</style></defs><title>box</title><g id="Layer_2" data-name="Layer 2"><g id="try"><path class="cls-1" d="M9.26,7.3h.11l1.31.25,2.69-.49L24,5.12l21.58-4L46.37,1V.68c0-.16.25-.25.5-.28a.84.84,0,0,0-.39,0L9.17,7.25l-.08,0,.08,0Z"/><path class="cls-1" d="M82.78,7.32l0,0Z"/><circle class="cls-1" cx="82.72" cy="7.29" transform="translate(53.4 84.98) rotate(-74.37)"/><path class="cls-1" d="M46.37.68v13.2l1-.19V1L81.11,7.5l1.11-.2h.12l.2,0L47.29.44a.89.89,0,0,0-.42,0C46.61.43,46.37.53,46.37.68Z"/><path class="cls-1" d="M9.06,7.32l.21,0-.1,0-.08,0c-.26,0-.52,0-.48.15h0A.67.67,0,0,1,9.06,7.32Z"/><path class="cls-1" d="M45.74,68.74c.23.05.51.07.51-.09v-.07l-.13.07A1.3,1.3,0,0,1,45.74,68.74Z"/><path class="cls-1" d="M45.21,68c-5.14-2.83-10.32-5.56-15.59-8.15q-4.28-2.1-8.65-4c-1.28-.56-2.57-1.09-3.87-1.61-.71-.29-1.44-.56-2.16-.83s-.39-2.37-.39-2.84a205.91,205.91,0,0,0-2.81-32.34l-1-.25a213.23,213.23,0,0,1,2.86,35.22c0,.16.2.24.32.28,10.88,4,21.21,9.5,31.33,15.09C45.22,68.34,45.21,68.16,45.21,68Z"/><path class="cls-1" d="M82.22,7.29l-1.11.2L47.4,13.69l-1,.19L45,14.13h0L82.28,7.29h-.06Z"/><path class="cls-1" d="M79.52,19.43a214.07,214.07,0,0,0-2.61,31q0,1,0,1.91c0,1.18-1.08,1.25-1.89,1.56-1.28.49-2.55,1-3.82,1.56-2.91,1.23-5.78,2.58-8.62,4C57,62.1,51.62,65,46.25,67.93c-.08-15.16-.68-30.31-.83-45.47,0-2.21-.05-4.42,0-6.63l-.52-.75-.6.7c-.18,2.36.06,4.87.09,7.18.06,5.69.17,11.38.28,17.07.18,9.31.5,18.63.55,27.95,0,.18,0,.37,0,.55v0c0,.17.27.19.52.17a1.3,1.3,0,0,0,.38-.09l.13-.07C56.4,63,66.77,57.43,77.68,53.43c.09,0,.24-.08.24-.2a214.49,214.49,0,0,1,2.65-34.07Z"/><path class="cls-1" d="M11.75,18.18l24.66,6c.22.05.6.08.77-.11l7.12-8.27.6-.7-.42-.6c-.14-.21.35-.31.46-.33H45L10.68,7.56,9.37,7.31H9.26l-.21,0a.67.67,0,0,0-.45.1h0L.4,15.24c-.12.12.18.23.24.24l10.07,2.44ZM4.95,12,9.38,7.76l26.18,5L42,14l2,.39.36.06-7.95,9.23-24.89-6L1.25,15.15C2,15.33,4.12,12.78,4.95,12Z"/><path class="cls-1" d="M91.35,16.23,82.86,7.36l0,0,0,0-.06,0h0a.45.45,0,0,0-.17,0l-.2,0h-.06L45,14.13h-.07c-.11,0-.61.12-.46.33l.42.6.52.75L52.5,26c.11.16.5.09.65.06l26.37-6.64,1.06-.27L91,16.54C91.1,16.52,91.49,16.38,91.35,16.23ZM53.27,25.6a.62.62,0,0,0-.13-.3l-2.66-3.83-4.87-7L82,7.76l5.82,6.09L90.2,16.3l-.7.18-19,4.79Z"/><path class="cls-1" d="M36.69,43c1.07-1.83,1.92-3.78,3-5.61.06-.1-.41-.29-.5-.14-1.07,1.83-1.92,3.78-3,5.61C36.13,42.94,36.6,43.12,36.69,43Z"/><path class="cls-1" d="M34.13,50c-.09.13.41.22.49.1A88,88,0,0,0,41,38.84c.07-.15-.43-.23-.49-.1A88.28,88.28,0,0,1,34.13,50Z"/><path class="cls-1" d="M40.49,44a79.06,79.06,0,0,0-7.3,11.23c-.07.14.44.2.5.07A79.14,79.14,0,0,1,41,44.07C41.08,44,40.58,43.87,40.49,44Z"/><path class="cls-1" d="M40.68,47.14c-1.81,4.12-5.26,7.22-6.92,11.42-.05.13.44.28.5.14,1.66-4.19,5.12-7.3,6.92-11.41C41.23,47.16,40.75,47,40.68,47.14Z"/><path class="cls-1" d="M41.06,51.64c-1.53,2.78-3.53,5.26-5.05,8-.08.15.42.25.49.13C38,57,40,54.55,41.55,51.77,41.63,51.62,41.13,51.52,41.06,51.64Z"/><path class="cls-1" d="M40.86,55.45c-.43,1.37-1.26,2.56-1.68,3.93,0,.11.47.16.52,0,.43-1.37,1.26-2.56,1.68-3.93C41.41,55.34,40.91,55.28,40.86,55.45Z"/><path class="cls-1" d="M41.61,59.93a4.3,4.3,0,0,1-.56.94c-.07.09.4.13.5,0a4.25,4.25,0,0,0,.56-.94C42.18,59.81,41.68,59.79,41.61,59.93Z"/><path class="cls-1" d="M42,62.32v.56c0,.17.51.23.51.1v-.56C42.5,62.26,42,62.19,42,62.32Z"/><path class="cls-1" d="M73.37,39.57a4.6,4.6,0,0,1,.75-1.12c.09-.09-.39-.18-.5-.07a4.56,4.56,0,0,0-.75,1.12C72.8,39.65,73.3,39.7,73.37,39.57Z"/><path class="cls-1" d="M71.86,45A38,38,0,0,0,75,40.73c.09-.14-.41-.25-.49-.13a38,38,0,0,1-3.18,4.31C71.28,45,71.77,45.15,71.86,45Z"/><path class="cls-1" d="M72.41,47.05a12.1,12.1,0,0,0,2.83-4c.06-.14-.45-.14-.5,0A11.93,11.93,0,0,1,72,47C71.81,47.14,72.31,47.15,72.41,47.05Z"/><path class="cls-1" d="M75.25,45.89c0-.11-.47-.14-.52,0-.75,2.74-3.39,4.52-5.23,6.52-.08.08.4.15.5,0C71.85,50.46,74.49,48.65,75.25,45.89Z"/><path class="cls-1" d="M74.93,49.4C74,51,72.34,52,71.19,53.51c-.09.12.4.24.49.12,1.15-1.47,2.79-2.49,3.74-4.12C75.51,49.38,75,49.27,74.93,49.4Z"/><path class="cls-1" d="M75.29,51.55a.82.82,0,0,1-.18.53c-.07.09.41.12.5,0a.84.84,0,0,0,.19-.59C75.81,51.35,75.3,51.39,75.29,51.55Z"/></g></g></svg>