<svg xmlns="http://www.w3.org/2000/svg" viewBox="0 0 87.46 75.36"><defs><style>.cls-1{fill:none;stroke:#333945;stroke-miterlimit:10;stroke-width:1.41px;}</style></defs><title>card</title><g id="Layer_2" data-name="Layer 2"><g id="try"><path class="cls-1" d="M82.82,42.82c3.68-2.27,5-7.22,3-11.58-2-4.59-4.32-9.08-6.73-13.5S73.95,9.08,71.07,5c-2.74-3.91-7.64-5.37-11.48-3.4-8.15,4.18-47.16,26.16-55,31-3.68,2.27-5,7.22-3,11.58,2,4.59,4.32,9.08,6.73,13.5s5.19,8.65,8.07,12.75c2.74,3.91,7.64,5.37,11.48,3.4C36,69.61,75,47.63,82.82,42.82Z"/><path class="cls-1" d="M30.83,65.66a2.39,2.39,0,0,0,.79-3c-.53-1.2-1.13-2.37-1.76-3.53s-1.35-2.26-2.11-3.33a2.39,2.39,0,0,0-3-.89C22.63,56,19.57,57.71,17.54,59a2.39,2.39,0,0,0-.79,3c.53,1.2,1.13,2.37,1.76,3.53s1.35,2.26,2.11,3.33a2.39,2.39,0,0,0,3,.89C25.73,68.64,28.79,66.91,30.83,65.66Z"/><path class="cls-1" d="M2.42,46c12.83-7.14,57-32.19,69.79-39.33"/><path class="cls-1" d="M5.39,52.08c12.83-7.14,57.69-32.59,70.52-39.74"/><path class="cls-1" d="M35.25,54.07A1.49,1.49,0,0,1,35,51.8a4,4,0,0,1,2.39-1.06,5,5,0,0,0,2.47-.9,8.06,8.06,0,0,0,1.39-2.22,2.15,2.15,0,0,1,2.1-1.29c.66.15,1.09.77,1.7,1.05,1.38.64,2.87-.67,3.62-2s1.37-2.93,2.8-3.46c1.64-.61,3.58.56,5.18-.15,1-.43,1.52-1.43,2.18-2.25a16,16,0,0,1,4-3.22,8.92,8.92,0,0,1,3.1-1.45,8.14,8.14,0,0,0,2.26-.43c1.54-.77,1.77-3.15,3.37-3.79a10.69,10.69,0,0,1,2.4-.24c.8-.12,1.66-.84,1.38-1.61"/><path class="cls-1" d="M38.5,59.84a1.49,1.49,0,0,1-.28-2.27,4,4,0,0,1,2.39-1.06,5,5,0,0,0,2.47-.9,8.06,8.06,0,0,0,1.39-2.22,2.15,2.15,0,0,1,2.1-1.29c.66.15,1.09.77,1.7,1.05,1.38.64,2.87-.67,3.62-2s1.37-2.93,2.8-3.46c1.64-.61,3.58.56,5.18-.15,1-.43,1.52-1.43,2.18-2.25a16,16,0,0,1,4-3.22,8.92,8.92,0,0,1,3.1-1.45,8.14,8.14,0,0,0,2.26-.43c1.54-.77,1.77-3.15,3.37-3.79a10.69,10.69,0,0,1,2.4-.24c.8-.12,1.66-.84,1.38-1.61"/></g></g></svg>