<svg xmlns="http://www.w3.org/2000/svg" viewBox="0 0 85.46 82.75"><defs><style>.cls-1{fill:#333945;}</style></defs><title>clock</title><g id="Layer_2" data-name="Layer 2"><g id="try"><path class="cls-1" d="M42.77,41.23Q44.1,31.9,44.9,22.5c.17-2-2.91-2-3.08,0C41.47,26.76,41,31,40.46,35.23q-1.94-4.66-3.58-9.44c-1.22-3.56-3.34-6.81-4.42-10.36-.58-1.89-3.55-1.08-3,.82,1.26,4.13,3.58,7.9,5,12C36.06,32.88,38,37.37,40,41.79a1.31,1.31,0,0,0,2.11.43,1.16,1.16,0,0,0,.59-.73v0A1.33,1.33,0,0,0,42.77,41.23Z"/><path class="cls-1" d="M12.55,42.85c-.22.15-.11.09-.37.14a1.55,1.55,0,0,0-1.08,1.89A1.57,1.57,0,0,0,13,46a3,3,0,0,0,1.11-.45C15.75,44.42,14.21,41.75,12.55,42.85Z"/><path class="cls-1" d="M18.06,19.69c-.4-.23-.1,0-.19-.17-1.05-1.68-3.72-.13-2.66,1.55a3.7,3.7,0,0,0,1.3,1.27A1.54,1.54,0,0,0,18.06,19.69Z"/><path class="cls-1" d="M36.86,9.13a5.42,5.42,0,0,0-.13,2.81A1.55,1.55,0,0,0,38.62,13a1.57,1.57,0,0,0,1.08-1.89,2.21,2.21,0,0,1,.13-1.17C40.46,8.06,37.49,7.26,36.86,9.13Z"/><path class="cls-1" d="M60.51,16.65a1.55,1.55,0,0,0-2.11-.55,11,11,0,0,0-1.52,1.24,1.54,1.54,0,0,0,2.18,2.18,6.54,6.54,0,0,1,.89-.76A1.57,1.57,0,0,0,60.51,16.65Z"/><path class="cls-1" d="M70.68,37.63a5.73,5.73,0,0,0-1.67.11,1.55,1.55,0,0,0-1.08,1.89,1.57,1.57,0,0,0,1.89,1.08,2.94,2.94,0,0,1,.85,0,1.54,1.54,0,0,0,1.54-1.54A1.57,1.57,0,0,0,70.68,37.63Z"/><path class="cls-1" d="M64.95,61.17a2,2,0,0,1-.71-.6A1.57,1.57,0,0,0,62.13,60a1.55,1.55,0,0,0-.55,2.11,5.46,5.46,0,0,0,1.82,1.71A1.54,1.54,0,0,0,64.95,61.17Z"/><path class="cls-1" d="M48.64,68.24l0-.19c-.45-1.93-3.42-1.11-3,.82l.22.94a1.55,1.55,0,0,0,2.57.68l.19-.21A1.48,1.48,0,0,0,48.64,68.24Z"/><path class="cls-1" d="M30.9,66.38c.05-1.79-2.42-1.95-3-.51a1.74,1.74,0,0,0-.55.35A1.78,1.78,0,0,0,26.94,68a1.48,1.48,0,0,0,2.57.59,1.67,1.67,0,0,0,.68-.43A2.59,2.59,0,0,0,30.9,66.38Z"/><path class="cls-1" d="M80.09,36.35A48.46,48.46,0,0,0,65,11.87c-7.7-6.5-18.92-5.75-28.39-6.14a28.86,28.86,0,0,0-6.65.5A16.41,16.41,0,0,0,25.9,7.8c-.59.29-1.2.45-1.78.73-.73.36-1.44.74-2.16,1.11a27.12,27.12,0,0,0-8.6,7A31.13,31.13,0,0,0,8.26,26,38.91,38.91,0,0,0,6.19,36.71,42.07,42.07,0,0,0,7,47.59a39.45,39.45,0,0,0,1,3.84C13.62,69,32.18,78.8,49.92,75.76S84.46,55,80.09,36.35ZM77,53.28c-3.73,8.12-10.87,14.44-18.82,18.24-16.76,8-37.45,1-46.31-15.11a34.1,34.1,0,0,1-3.4-9.24A39.21,39.21,0,0,1,7.59,37,37.12,37.12,0,0,1,9.43,27,30.27,30.27,0,0,1,14,18.27a24.9,24.9,0,0,1,7.38-6.52c1.07-.61,2.2-1.12,3.32-1.64S26.84,9,27.93,8.55a19,19,0,0,1,7-1.29h.37c4.66-.08,9.4.48,14,.79,5.51.37,10.16,1.52,14.56,4.92,3.64,2.81,6.37,6.7,8.75,10.57C78.36,32.75,81.7,43,77,53.28Z"/><path class="cls-1" d="M83.13,26.93l0,0c-1.86-4.39-3.9-8.64-7.18-12.23-4.62-5.06-11.17-8-17.39-10.56C51.8,1.35,45.8-.75,38.44.26A75.84,75.84,0,0,0,20,5.22a.75.75,0,0,0-.6,0c-.54.27-1.07.58-1.59.89l-.59.25a.63.63,0,0,0-.35.36C8.54,12.4,3.31,23.37,1.23,32.72A57.72,57.72,0,0,0,.5,52.28C1,56.63,2,61.17,5.19,64.28A47.81,47.81,0,0,0,14.11,73c4.44,3.4,8.75,6.92,14.29,8.24,10.54,2.52,23.1,1.91,33.06-2.4,9-3.9,15.92-11.73,20-20.51a46.42,46.42,0,0,0,3.82-16.11C85.56,37.93,85.93,30.57,83.13,26.93Zm.57,15.32a44.52,44.52,0,0,1-4.18,16.56A39.25,39.25,0,0,1,61.72,77c-9.55,4.89-21.23,4.5-31.57,3-5.22-.77-9.13-3.78-13.26-6.81A54.32,54.32,0,0,1,7.5,64.72a.59.59,0,0,0-.24-.62,10.46,10.46,0,0,1-.82-.71c-.3-.38-.62-.74-.9-1.14A.77.77,0,0,0,5.22,62c-2.56-3.47-3.07-8.25-3.48-12.47A56.47,56.47,0,0,1,3,31.77C5,23,10.59,12.48,18.54,7.52A75.51,75.51,0,0,1,36.13,2.14a32.32,32.32,0,0,1,11.25-.33c3.25.56,6.39,2.06,9.44,3.25C63,7.5,69,10.32,73.94,14.86c3.71,3.4,5.83,7.93,7.73,12.51a.67.67,0,0,0,.14.34h0c.48,1.16.95,2.32,1.42,3.47a.81.81,0,0,0,.15.22C84.18,34.91,83.84,39.21,83.71,42.25Z"/></g></g></svg>