<svg xmlns="http://www.w3.org/2000/svg" viewBox="0 0 198.57 324.78"><defs><style>.cls-1{fill:#fff;}</style></defs><title>faq</title><g id="Layer_2" data-name="Layer 2"><g id="faq"><path class="cls-1" d="M94.49,18.12c2.49.26,5,.54,7.48.63,1.91.07,2.32-1.23,2.33-2.87a4.73,4.73,0,0,1,9-2.28.44.44,0,0,0,.82-.22A3.32,3.32,0,0,1,117,10.29c1.8-.36,3.71.4,5.36,1a.47.47,0,0,0,.59-.45c0-3.85,1.85-8.37,5.81-9.64,3.59-1.15,8.6,2,7.53,6.11a.5.5,0,0,0,.83.48c2.17-2,6.32.41,5.7,3.28-.08.37.33.78.69.53a4.26,4.26,0,0,1,5.79,1,.46.46,0,0,0,.61.16l2.83-1.74-.64-.26c1.11,2.93,5,.62,6.95.18a6.24,6.24,0,0,1,7.27,5.76.49.49,0,0,0,.73.42c2-1.42,5.16-3.14,7.23-.91.8.86,2.58,3.52,3.77,1.65.2-.32-.24-.62-.5-.39-.79.69-2.23-1.42-2.66-1.87a3.73,3.73,0,0,0-2.25-1.18c-2.08-.27-4.34.84-6.08,1.86l.73.42c.11-3.11-2.39-5.83-5.29-6.64a6.77,6.77,0,0,0-4.34.33c-1.14.43-4.06,1.87-4.71.14a.44.44,0,0,0-.64-.26L149.42,12l.61.16a5.18,5.18,0,0,0-7-1.36l.69.53c.85-3.83-4.42-6.87-7.31-4.23l.83.48c1.15-4.46-3.77-8.26-7.94-7.51-4.86.87-7.32,6.3-7.3,10.77l.59-.45c-2.1-.82-4.49-1.7-6.7-.77a4,4,0,0,0-2.64,3.74l.82-.22a5.56,5.56,0,0,0-9.22-1.26,5.86,5.86,0,0,0-1.22,2.35c-.25,1,.46,3.33-.89,3.71a5.77,5.77,0,0,1-1.7-.08l-2-.14c-1.49-.11-3-.14-4.48-.19-.38,0-.36.54,0,.58Z"/><path class="cls-1" d="M105.18,22.07c5.53.2,11.16.29,16.69,0a.26.26,0,0,0,0-.52c-5.53-.31-11.16-.22-16.69,0a.28.28,0,0,0,0,.55Z"/><path class="cls-1" d="M124,21.61a43.73,43.73,0,0,0,6.85,0,.28.28,0,0,0,0-.56,43.73,43.73,0,0,0-6.85,0,.25.25,0,0,0,0,.49Z"/><path class="cls-1" d="M136,21.67c2.14.08,4.28,0,6.42,0s4.28.08,6.42.1c4.28,0,8.56,0,12.84-.15a.24.24,0,0,0,0-.49c-4.28-.16-8.56-.19-12.84-.15-2.14,0-4.27.14-6.42.1s-4.28-.09-6.42,0a.3.3,0,0,0,0,.61Z"/><path class="cls-1" d="M165.44,21.67a9.73,9.73,0,0,0,4.43.34c.27,0,.21-.5-.06-.48a11.17,11.17,0,0,1-4.21-.42c-.36-.11-.51.45-.15.56Z"/><path class="cls-1" d="M174.08,22.09a23.45,23.45,0,0,0,2.57,0,.26.26,0,0,0,0-.53,23.47,23.47,0,0,0-2.57,0,.29.29,0,0,0,0,.59Z"/><path class="cls-1" d="M181.23,21.58A1.22,1.22,0,0,0,182.9,21c.1-.24-.27-.43-.43-.25a.87.87,0,0,1-1,.28c-.31-.13-.53.4-.23.54Z"/><path class="cls-1" d="M91.48,21.24c1.82,0,3.86.39,5.65,0a.31.31,0,0,0,0-.6c-1.79-.39-3.83,0-5.65,0a.3.3,0,0,0,0,.6Z"/><path class="cls-1" d="M95.2,19a34.18,34.18,0,0,0,6.26.9c1.29.06,3.3.37,4.22-.82a4.4,4.4,0,0,0,.63-2,4.56,4.56,0,0,1,1.21-2.54c1.77-1.79,4.23-1.43,6,.06a.2.2,0,0,0,.28-.28c-2.08-2.44-6.12-1.59-7.43,1.19a9.73,9.73,0,0,0-.55,2.25,2,2,0,0,1-1.38,1.72,6,6,0,0,1-1.59.11,36.6,36.6,0,0,1-7.6-.83c-.18,0-.26.23-.08.28Z"/><path class="cls-1" d="M111.84,14.65a1.26,1.26,0,0,0,1.5.84c.88-.17,1.34-1.09,1.67-1.82a3.06,3.06,0,0,1,1.6-1.91,6.31,6.31,0,0,1,2.31-.29,30.25,30.25,0,0,1,5.23.43.22.22,0,0,0,.26-.26,7.48,7.48,0,0,1,3.66-7.72,7.34,7.34,0,0,1,4.42-1.13,3.56,3.56,0,0,1,3.47,4,.15.15,0,0,0,.28.08,3.43,3.43,0,0,0-1.89-4,6.51,6.51,0,0,0-5.44.12c-3.33,1.45-5.71,5.09-4.91,8.75l.26-.26a21.45,21.45,0,0,0-7.07-.33,2.83,2.83,0,0,0-1.92,1.13,7.76,7.76,0,0,0-.66,1.33c-.31.7-1.84,2.79-2.49.94-.06-.18-.35-.1-.29.08Z"/><path class="cls-1" d="M107.05,21.8c2.85,1.15,5.3-1.14,7-3.17,2.21-2.68,4.54-5.05,8.23-5.17a7.45,7.45,0,0,0,3.68-.61c1.2-.72,1.62-2.14,2.21-3.33.85-1.7,2-3.45,3.87-4.13a3.25,3.25,0,0,1,4.44,2.18c.05.21.4.17.38-.05-.22-2.74-3.56-3.35-5.6-2.27a8,8,0,0,0-3.12,3.4c-.9,1.66-1.35,3.8-3.48,4.24-1.56.32-3.16,0-4.71.5a10.09,10.09,0,0,0-3.81,2.3c-2.49,2.3-4.82,7.31-9,5.87-.16-.06-.22.19-.07.25Z"/><path class="cls-1" d="M129.27,11.89a7.39,7.39,0,0,1,4.3-3.46c2.28-.57,3.8.58,5.63,1.74,2.71,1.72,5.83,3.16,9.11,2.67.25,0,.19-.48-.06-.45a11.44,11.44,0,0,1-6.33-1.23c-1.73-.83-3.22-2.14-5-2.9-3.21-1.4-6.28.82-7.93,3.47-.1.16.15.31.26.15Z"/><path class="cls-1" d="M134.9,10.67c1.91-.48,3.71.32,5.42,1.1a21.27,21.27,0,0,0,4.29,1.56c3.12.67,6.11.15,9.17-.56s6.17-1.31,9,.16a5.27,5.27,0,0,1,2.72,3c.59,1.83-.07,3.74-.71,5.45-.07.19.24.33.33.14,1.29-2.64,1.71-5.9-.71-8-2.06-1.81-5-2.12-7.59-1.76-4.06.56-7.78,2.07-12,1.24-3.32-.66-6.58-3.49-10.09-2.56a.14.14,0,0,0,.08.28Z"/><path class="cls-1" d="M166.59,19.71c.82-.77,1.25-2,2.47-2.19a9.09,9.09,0,0,1,3.92.24c2.44.73,4.22,3,6.42,4.22a.16.16,0,0,0,.19-.25A31.51,31.51,0,0,0,176,18.85a8.25,8.25,0,0,0-7.36-1.72c-1.1.41-1.45,1.59-2.22,2.38a.14.14,0,0,0,.2.2Z"/><path class="cls-1" d="M169.67,18.32a9.6,9.6,0,0,1,5.25,2.32c1.08,1,2,1.6,3.48,1.14a.16.16,0,0,0,0-.32,4.9,4.9,0,0,1-2-.33,6.64,6.64,0,0,1-1-.86,9.77,9.77,0,0,0-1.63-1.17,8.93,8.93,0,0,0-4-1.09c-.2,0-.19.29,0,.31Z"/><path class="cls-1" d="M45.48,199a19,19,0,0,0,.38-9c-.66-3.09-2.58-5.93-2.83-9.1-.29-3.66,3.62-6.3,6.36-8.12,2.91-1.93,6.34-3,9.67-1.44,5.58,2.65,8.55,9.58,9.66,15.28a28.38,28.38,0,0,1,0,10.53c-.57,3.12-1.38,6.11-.65,9.28.27,1.19,2,.68,1.82-.5-.82-4.34,1.07-8.64,1.25-13a29.81,29.81,0,0,0-1.44-10.42C67.9,177,64.14,170.4,58,168.93a11.21,11.21,0,0,0-8.35,1.56c-2.53,1.48-5.64,3.69-7.3,6.15-1.85,2.73-.93,5.92.18,8.74,1.73,4.38,2.79,8.56,1.88,13.29-.13.69.88,1,1.06.29Z"/><path class="cls-1" d="M47.49,202.71c1.71-.68,3,2.41,3.72,3.49A12.88,12.88,0,0,0,53.76,209a11.23,11.23,0,0,0,6.89,2.73.94.94,0,0,0,.25-1.84c-3.93-1-6.36-2.35-8.65-5.76-1.22-1.82-2.9-3.7-5.21-2.46-.56.3-.17,1.3.44,1.05Z"/><path class="cls-1" d="M51.92,206.83c-4,.74-8.5,2.81-11,6.17-.34.47.32,1.09.79.79,3.49-2.3,6.49-4.36,10.6-5.44,1-.26.56-1.69-.42-1.51Z"/><path class="cls-1" d="M42.86,219.79c-1.65,6.53,2.6,13.09,4.34,19.2a62.94,62.94,0,0,1,2.12,10.88c.35,3.48-.17,7.3.66,10.68a.62.62,0,0,0,1.19,0c1-3,.39-6.75,0-9.87a76,76,0,0,0-1.71-9.8A85,85,0,0,0,46.28,231c-1.33-3.5-2.49-7-1.89-10.75.15-1-1.26-1.42-1.52-.42Z"/><path class="cls-1" d="M43.91,229.32c-1.89-1.75-4.76-2.56-7.07-3.64-2.62-1.23-5.24-2.48-7.82-3.8s-5.14-2.69-7.66-4.11c-1.21-.68-2.42-1.33-3.66-1.95-1.89-.94-2.31-2.07-2-4.22.78-5.24,5.49-10,8.47-14.16,3.6-5,7.13-10,10.69-15l-.78.45c4.28.15,2.29,5.79,1.27,7.9a47.41,47.41,0,0,0-2.71,6.89c-1.54,5-2.65,10.38-6.21,14.47-.7.8.45,2,1.17,1.17,4.66-5.15,5.42-12.12,7.8-18.38,1.16-3,3.68-6.24,3.08-9.68-.32-1.82-2.15-4.67-4.42-4.17-1.27.28-2.05,2.26-2.75,3.25l-3.95,5.6q-3.82,5.43-7.58,10.9c-2.12,3.09-4.54,6.33-5.24,10.1a10.46,10.46,0,0,0,0,4.12c.34,1.54,2,2.21,3.27,3a121.78,121.78,0,0,0,13.14,7q3.17,1.54,6.4,2.95c2,.85,4,2,6.2,2.11a.5.5,0,0,0,.35-.84Z"/><path class="cls-1" d="M28.77,209.36c2.91.51,5.83.81,8.76,1.13s6,1.12,8.81.66c.77-.13.6-1.18,0-1.4-2.52-.92-5.72-.7-8.38-.91-3-.24-6-.5-9.05-.53-.59,0-.75.94-.14,1Z"/><path class="cls-1" d="M35.14,181.75c.51-3.09.8-6.19,1.14-9.29.15-1.37.19-2.61,2.06-2.35a9.06,9.06,0,0,1,1.76.67c1.14.43,3.56.87,4.21,2,1.45,2.54-2.85,3.15-4.15,4.44-1.73,1.72-1.4,5.76-4.12,6.34-.74.16-.54,1.26.17,1.28a3.53,3.53,0,0,0,3.41-2.24c1-2.11,1-4,3.32-5.13s5.07-3,2.72-5.67c-1.12-1.27-2.89-1.77-4.43-2.33s-3.8-2-5.31-.9c-1.24.91-1.12,3-1.25,4.33-.28,2.9-.58,5.79-.69,8.7,0,.64,1,.81,1.14.15Z"/><path class="cls-1" d="M92.36,226.95c1.68,3.11,2.34,7,2.94,10.46.32,1.85.61,3.7,1,5.54.13.72.41,1.49.48,2.22.14,1.44-.6,2.24-1.54,3.17-5.87,5.8-14.73,7.15-20.59,13l1.48.19a9.9,9.9,0,0,0-2.55-3.26v1.17a117,117,0,0,1,16.7-15.26c.88-.66,0-2.16-.87-1.49a114.34,114.34,0,0,0-17,15.59.84.84,0,0,0,0,1.17,8.7,8.7,0,0,1,2.09,3,1,1,0,0,0,1.48.19c3.42-3.36,7.79-5.33,12-7.47,3.61-1.83,8-4.09,10.21-7.64.88-1.4.29-2.65-.06-4.14-.46-1.94-.77-3.91-1.11-5.88-.65-3.79-.94-8.18-3.19-11.45a.83.83,0,0,0-1.43.84Z"/><path class="cls-1" d="M87.39,245.5c-.4-3.54-2.7-7.09-3.95-10.41-.65-1.74-1.25-3.5-1.73-5.29-.56-2-.73-4.17-1.3-6.19a.83.83,0,0,0-1.62.22c-.23,3.75,1.4,7.93,2.71,11.39s2.65,7.56,4.83,10.57c.29.4,1.13.34,1.06-.29Z"/><path class="cls-1" d="M72.84,258.52a12.85,12.85,0,0,0-10.66-.3c-1.86.79-3.28,3.22-.88,4.43,1.43.72,3.3.25,4.82.53,1.76.33,3.36,1.25,5.15,1.48,2.18.28,5.67-.94,5-3.7a.7.7,0,0,0-1.26-.16c-1.44,2.22-3.13,2.16-5.5,1.37a17.75,17.75,0,0,0-4.79-1.11c-.41,0-3.08.38-2.1-.86.36-.46,2-.65,2.47-.75a18.41,18.41,0,0,1,7.18.48c.81.16,1.38-1,.59-1.39Z"/><path class="cls-1" d="M49.64,260.49c-1.32.16-2.87.24-3.62,1.51a2.09,2.09,0,0,0,.38,2.75l.65-1.58a131.79,131.79,0,0,0-20.09.39c-5.29.51-10.86.88-13.69,6-.31.56.45,1.2.91.7,4.19-4.49,10-4.65,15.77-5.07A143.18,143.18,0,0,1,47,265a.93.93,0,0,0,.65-1.58c-.71-.58,2-1.78,2.22-1.92.42-.27.31-1.11-.28-1Z"/><path class="cls-1" d="M12.46,271.7a79,79,0,0,0,5,21.11c2.48,6.87,5,13.77,7.94,20.45.54,1.21,2.32.16,1.78-1-2.93-6.56-6.32-12.89-8.67-19.7a107.51,107.51,0,0,1-4.88-20.82c-.09-.71-1.21-.76-1.15,0Z"/><path class="cls-1" d="M62.88,263.28a67.76,67.76,0,0,1-22.24,3.79c-4.59,0-11.42.43-12.41,6.19-.52,3,1.43,6.54,2.39,9.31,1.24,3.6,2.39,7.24,3.54,10.87,2.39,7.53,4.63,15.15,7.21,22.63.31.91,1.73.53,1.45-.4-2.06-6.72-4.43-13.37-6.65-20-2.16-6.5-4.82-13.1-6.3-19.79C28,267.39,40.7,269,45.5,268.69a53.75,53.75,0,0,0,17.81-4.37c.59-.26.17-1.25-.44-1Z"/><path class="cls-1" d="M45.4,316.77c1.37-6.44,1.64-13.17,2.27-19.71a93,93,0,0,0,.58-9.58c0-2.79,0-6.14-1.22-8.69a1,1,0,0,0-1.8.49c.08,3,.92,6,.92,9s-.27,6.12-.53,9.17c-.55,6.34-1.5,12.78-1.34,19.15,0,.63,1,.81,1.13.15Z"/><path class="cls-1" d="M47,283.21c8.58,2.44,17.17-3.8,25.5-5,2.46-.36,4.94-.49,7.41-.78,1.69-.2,3.58-.31,5-1.35,2.4-1.76,2.71-5.63,1.47-8.14a.7.7,0,0,0-1.26.16c-.26,1.37,0,2.77-.28,4.14-.49,2.56-2.74,2.82-4.93,3.08-3.82.46-7.67.59-11.42,1.54-7.23,1.83-13.59,5.45-21.28,4.84-.89-.07-1,1.28-.21,1.52Z"/><path class="cls-1" d="M76.45,262.14A14.15,14.15,0,0,1,83.61,266c1.08,1.17,1.85,4.14,3.77,4a1,1,0,0,0,.92-.7c.45-2.43-.41-4.45-.87-6.81a9.72,9.72,0,0,1,.07-4.27c.31-1.22,1-2.3,1.24-3.53a.9.9,0,0,0-1.5-.87c-1.62,1.46-2,4.07-2,6.16,0,3,2,5.91,1.2,8.82l1.18-.67c-.6-.1-1.56-2.25-2-2.77A13.1,13.1,0,0,0,83.1,263a10.82,10.82,0,0,0-6.49-2.08.64.64,0,0,0-.17,1.24Z"/><path class="cls-1" d="M28.66,277A4.49,4.49,0,0,0,27,278.1c-.5.5-1.08,1.15-.93,1.89v-.43a.87.87,0,0,0,.33,1,.86.86,0,0,0,1-.21l-.35.21c.56-.16.84-.77,1.22-1.18a13.56,13.56,0,0,1,1.19-1,.8.8,0,0,0-.78-1.33Z"/><path class="cls-1" d="M23.88,277.74c3.81,4.38,2.84,11.53,3.25,16.92.21,2.86.55,5.72,1,8.56s.63,6.54,2,9.16a.63.63,0,0,0,1.17-.32c.12-3.13-1.14-6.6-1.62-9.71-.57-3.66-1-7.35-1.28-11-.35-4.94.08-10.59-3.65-14.42-.54-.56-1.34.27-.84.84Z"/><path class="cls-1" d="M26,314a12.57,12.57,0,0,0,3.13-.49c.9-.21,1.95-.27,2.42-1.15a.69.69,0,0,0-.24-.92c-.84-.54-1.82-.08-2.71.17a12.45,12.45,0,0,0-3,1.07A.72.72,0,0,0,26,314Z"/><path class="cls-1" d="M41,315.77c.12.2.13.46.25.67a2.49,2.49,0,0,0,.49.55,2.93,2.93,0,0,0,1.33.63c1,.21,2.26,0,2.57-1.12a.69.69,0,0,0-.47-.84,9.37,9.37,0,0,0-1.73,0,3.12,3.12,0,0,1-.69-.17,3,3,0,0,1-.73-.27c-.42-.6-1.4-.06-1,.59Z"/><path class="cls-1" d="M50.95,261.54c3.65.13,9.68,4.65,12.91,1.25.36-.37.13-1.17-.46-1.11-.9.09-1.78.39-2.69.41a11.78,11.78,0,0,1-3.69-.73,15.07,15.07,0,0,0-6.08-1,.59.59,0,0,0,0,1.17Z"/><path class="cls-1" d="M78.23,262.13c-.83,3,1.39,7.68,4.87,7.81.67,0,.75-.81.31-1.15a9.79,9.79,0,0,1-2.9-2.65,6.53,6.53,0,0,1-.78-3.81.77.77,0,0,0-1.5-.2Z"/><path class="cls-1" d="M26.4,314.48a1.9,1.9,0,0,0,1.33-.47l-1.52-1.17c-.2.74.14,1.22.06,1.94l.59-1a13,13,0,0,1-7.29,2.59c-2.61,0-5.15-.86-7.78-.61-1.24.12-2.77.52-2.56,2.09.23,1.75,2.4,1.8,3.76,1.92a37.94,37.94,0,0,0,7.94-.15c2.27-.28,4.87-1.4,7.15-1.2,1.4.12,2.9,1.2,3.77-.57.78-1.6.06-3.77-.75-5.19a1.33,1.33,0,0,0-2.27,0,6.11,6.11,0,0,0-.87,2.86h2.61a5.58,5.58,0,0,0-.39-2.18c-.48-1.24-2.53-1.2-2.48.34a8.82,8.82,0,0,0,.13,1.63,1.15,1.15,0,0,0,2.3,0,8.78,8.78,0,0,0,.1-1.63l-2.48.34a2.47,2.47,0,0,1,.21,1.51c-.08,1.7,2.48,1.66,2.61,0a2.55,2.55,0,0,1,.53-1.54H28.82a3.82,3.82,0,0,1,.6,1.47q-.34,1.42.49.69c-.39.11-1.77-.41-2.32-.4a36.3,36.3,0,0,0-5.42,1.1,34,34,0,0,1-6,.56,22.85,22.85,0,0,0-3.18-.14q-1.28-.48-1.64,1.09a9,9,0,0,1,2-.1c3.86.1,7,1.21,10.8-.25,1.29-.5,3.32-1.17,4.16-2.35.71-1,0-1.51-.05-2.5,0-.81-1.17-1.47-1.76-.73a2.32,2.32,0,0,0-.67,1.5.59.59,0,0,0,.59.59Z"/><path class="cls-1" d="M41.9,316.22c-2.51,0-4.7,1.28-7.14,1.77-2.75.55-5.55.22-8.29.66-3.84.62-3.2,5.23.28,5.93a7.26,7.26,0,0,0,5.52-1.46,13,13,0,0,1,7.28-2.81c1.76-.06,4.41,1.36,6,.17s1.06-3.1.14-4.48a1.34,1.34,0,0,0-2.28,0,4.83,4.83,0,0,0-.54,4.13,1.32,1.32,0,0,0,2.53,0,2.47,2.47,0,0,0-.85-2.91c-1.31-1-3-.48-4.38-.07a64.69,64.69,0,0,0-6.24,2.18c-2.16.87-4.47,2.31-6.88,1.89l.59,2.25,1.63-.64c1.69-.16,1.74-2.8,0-2.68a5.64,5.64,0,0,0-3.53,1.42,1.35,1.35,0,0,0,.59,2.25c2.6.44,4.73-.4,7.09-1.42,1.41-.61,2.84-1.18,4.29-1.7q1.17-.42,2.35-.79c.34-.11,2.88-.71,2.79-.49h2.53a2,2,0,0,1,.3-2.1H43.39c.64,1,.38.64-.32.67a18.68,18.68,0,0,1-2.1-.31,14.32,14.32,0,0,0-3.88.25,14,14,0,0,0-4,1.44c-1.13.61-2.05,1.56-3.19,2.13-.26.13-2.68,1-3,.41-.58-1,1.06-.75,1.38-.76,1.61-.05,3.23-.13,4.83-.33,3.21-.41,5.94-2,9-2.6,1.16-.21.86-2-.27-2Z"/><path class="cls-1" d="M50.18,207.34c-.14,4.33,1.7,9,3.47,12.84a43.48,43.48,0,0,0,3.4,6.09c.77,1.15,1.9,3.48,3.42,3.74.71.12,1.59-.46,1.29-1.29a1.81,1.81,0,0,0-.45-.61c-.44-.54-1.11-1.08-1.57-1.72a45.34,45.34,0,0,1-3.6-6c-2.17-4.29-2.93-8.8-4.48-13.28a.76.76,0,0,0-1.49.2Z"/><path class="cls-1" d="M60.72,229.7c4-2.75,7.21-7.54,9.44-11.79A41.19,41.19,0,0,0,73,211.18c.61-1.94,1.88-4.84,1-6.78a.68.68,0,0,0-1.07-.14c-1.29,1.36-1.27,3.91-1.79,5.67a41.14,41.14,0,0,1-2.74,6.92,42.5,42.5,0,0,1-3.47,5.69c-1.55,2.14-3.46,3.89-5.12,5.91-.53.64.16,1.81,1,1.25Z"/><path class="cls-1" d="M70.57,204.39c3.62.2,7.25.17,10.87.4,2.36.15,3.6.66,4.89,2.73a21.11,21.11,0,0,1,2.3,5c1.52,4.93.4,12.15,4.45,16a.71.71,0,0,0,1.11-.85A24.89,24.89,0,0,1,92,222.34c-.36-1.56-.57-3.15-.84-4.73a32.66,32.66,0,0,0-2.85-9.5c-1.21-2.38-2.67-4.52-5.5-4.92a51.3,51.3,0,0,0-12.23.09.56.56,0,0,0,0,1.11Z"/><path class="cls-1" d="M66,279.68c18.66,1.68,37.61,1.27,56.31.57l-.74-.74c-.2,6.19-.16,12.39-.16,18.58s-.38,12.44,0,18.58a.93.93,0,0,0,1.85,0c.53-6.11,0-12.45-.11-18.58S123,285.7,123,279.5a.75.75,0,0,0-.74-.74c-18.8,1.12-37.51.49-56.31-.06-.64,0-.62.92,0,1Z"/><path class="cls-1" d="M46.65,318.7c6.31,1,12.93,1,19.3,1.4s13,.79,19.58.75c6.25,0,12.51-.41,18.75-.69a83,83,0,0,0,18.3-2.49,1.05,1.05,0,0,0-.56-2,96.35,96.35,0,0,1-18.55,2.48c-6.12.31-12.25.73-18.38.79-6.39.06-12.77-.26-19.14-.63S53.09,317,46.8,317.56c-.6.06-.85,1-.15,1.14Z"/><path class="cls-1" d="M88.07,267.51c7.84.79,15.94.42,23.82.58s15.88.33,23.82.47a.83.83,0,0,0,0-1.67q-11.91-.21-23.82-.38c-7.88-.11-16-.77-23.82-.26a.63.63,0,0,0,0,1.25Z"/><path class="cls-1" d="M123,279.24a65,65,0,0,0,7.23-4.65,38,38,0,0,0,6.28-4.95.7.7,0,0,0-.84-1.09c-2.47,1.37-4.65,3.44-6.91,5.13s-4.31,3.1-6.37,4.77c-.46.37.13,1,.61.79Z"/><path class="cls-1" d="M136.29,268.07c-1,2.58-.52,6.15-.58,8.9l-.21,9.19c-.14,6.26-.44,12.55-.39,18.81a.89.89,0,0,0,1.77,0c.34-6.26.34-12.55.49-18.81l.22-9.19c.06-2.74.72-6.29-.17-8.9a.59.59,0,0,0-1.12,0Z"/><path class="cls-1" d="M123.23,318.09a71.15,71.15,0,0,0,6.18-5.14,58.42,58.42,0,0,0,6.23-6,.8.8,0,0,0-1.13-1.13c-2.12,1.73-4,3.76-6.05,5.59s-4.22,3.52-6.22,5.39c-.67.62.22,1.83,1,1.29Z"/><path class="cls-1" d="M48.56,287.32a28.27,28.27,0,0,0,2.92-4.42c.24-.5-.39-1.09-.81-.63a28.89,28.89,0,0,0-3.07,4.49c-.38.63.55,1.13,1,.57Z"/><path class="cls-1" d="M48.75,290.06c1.89-2.38,3.88-4.71,5.61-7.21.33-.48-.43-1.07-.81-.63-2,2.28-3.79,4.78-5.64,7.19-.37.48.47,1.13.85.65Z"/><path class="cls-1" d="M48.17,293.44c2.16-3.33,4.24-6.83,6.09-10.34a.31.31,0,0,0-.53-.31c-2.16,3.33-4.19,6.86-6,10.37a.28.28,0,0,0,.49.29Z"/><path class="cls-1" d="M47.94,297.71c3.67-5.71,7.79-11.3,11-17.29a.34.34,0,0,0-.59-.35c-4,5.46-7.31,11.58-10.88,17.35-.2.32.3.6.5.29Z"/><path class="cls-1" d="M47.62,301.63l-.09,0a.28.28,0,0,0-.36.1.39.39,0,0,0-.07.47.3.3,0,0,0,.36.21c1-.25,1.49-2.1,1.94-2.93q1.74-3.17,3.64-6.24,3.7-6,8-11.55c.27-.36-.33-.71-.6-.35-2.52,3.3-4.91,6.69-7.12,10.2-.54.87-6.06,10.56-5.89,10.62a.26.26,0,0,0,.2-.47Z"/><path class="cls-1" d="M55.46,291.95c3.6-4.69,7.71-9.06,11.14-13.85.22-.3-.25-.64-.5-.39-4.18,4.11-7.66,9.23-11.09,14-.2.28.25.53.45.26Z"/><path class="cls-1" d="M60.57,288.35c2.67-2.7,5.52-5.3,8-8.17a.31.31,0,0,0-.43-.43c-2.81,2.55-5.35,5.46-8,8.19-.26.27.15.68.41.41Z"/><path class="cls-1" d="M66.87,284.55c1.14-1.48,2.46-2.75,3.7-4.13a.32.32,0,0,0-.45-.45,21.51,21.51,0,0,0-3.77,4.28c-.22.31.28.59.51.3Z"/><path class="cls-1" d="M70.56,282a3,3,0,0,0,.63-.36c.21-.18,0-.49-.26-.44a3.14,3.14,0,0,0-.67.3c-.34.17,0,.68.3.51Z"/><path class="cls-1" d="M123.39,314.1c1.22-11.85,2.4-23.7,3.28-35.58,0-.3-.43-.29-.47,0-1.34,11.84-2.37,23.71-3.37,35.58,0,.36.52.35.55,0Z"/><path class="cls-1" d="M128.11,275.55a192.62,192.62,0,0,0-4.16,36.18.25.25,0,0,0,.5,0,327.59,327.59,0,0,1,4.22-36c.07-.36-.48-.52-.55-.15Z"/><path class="cls-1" d="M130.33,275.23C128,288.4,125.77,301.64,124,314.9c0,.35.47.51.54.15,2.44-13.16,4.46-26.43,6.37-39.67.05-.36-.49-.53-.56-.15Z"/><path class="cls-1" d="M133.21,272c-1.13,6.62-1.71,13.36-2.65,20s-2.1,13.31-3,20c-.06.42.57.62.66.18,1.35-6.73,2.27-13.57,3.22-20.36.91-6.53,2-13.14,2.4-19.72,0-.35-.57-.44-.63-.08Z"/><path class="cls-1" d="M135.46,273q-.9,8.48-2,16.94c-.74,5.61-1.81,11.22-2.34,16.86,0,.29.43.34.5.07a153,153,0,0,0,2.64-16.5c.75-5.77,1.32-11.56,1.79-17.36,0-.36-.52-.35-.56,0Z"/><path class="cls-1" d="M135.15,295a10,10,0,0,1-.58,3.16c-.11.31.36.42.49.13a8.64,8.64,0,0,0,.67-3.3.29.29,0,0,0-.58,0Z"/><path class="cls-1" d="M84.33,242.67a12.42,12.42,0,0,1,.44,4.36.31.31,0,0,0,.61.08,6.19,6.19,0,0,0-.47-4.68c-.14-.32-.69-.09-.57.24Z"/><path class="cls-1" d="M83.91,240a52.15,52.15,0,0,0,.05,7.35.28.28,0,0,0,.57,0,52.16,52.16,0,0,0,.05-7.35.33.33,0,0,0-.67,0Z"/><path class="cls-1" d="M82.15,239.1c.22,2.74.39,5.5.72,8.23,0,.32.53.34.51,0-.12-2.75-.39-5.49-.62-8.23,0-.39-.65-.4-.62,0Z"/><path class="cls-1" d="M80.64,232.72a117.12,117.12,0,0,1,1,15.5.26.26,0,0,0,.52,0,78,78,0,0,0-1-15.64c-.05-.34-.56-.19-.52.14Z"/><path class="cls-1" d="M79.83,229.69a133.73,133.73,0,0,0,.67,18.23c0,.34.57.37.55,0-.2-6.08-.63-12.14-.65-18.23a.29.29,0,0,0-.58,0Z"/><path class="cls-1" d="M84.86,255.57a26.13,26.13,0,0,0,.52,9.5c.08.33.63.27.6-.08-.3-3.15-.51-6.25-.52-9.42,0-.4-.56-.37-.6,0Z"/><path class="cls-1" d="M82.74,255.87a82.42,82.42,0,0,0,1.2,8.31c.06.3.56.23.53-.07a82.55,82.55,0,0,0-1.16-8.31c-.06-.32-.61-.25-.58.08Z"/><path class="cls-1" d="M81.28,257a48.23,48.23,0,0,0,1.2,6.84c.08.31.61.26.58-.08A48.24,48.24,0,0,0,81.87,257c-.08-.32-.63-.26-.59.08Z"/><path class="cls-1" d="M79.14,258.62a17.82,17.82,0,0,0,1.09,3.84.29.29,0,0,0,.54-.15,17.84,17.84,0,0,0-1.05-3.86.3.3,0,0,0-.58.16Z"/><path class="cls-1" d="M78.94,260.28a13.54,13.54,0,0,0,0,1.47.28.28,0,0,0,.55,0,13.54,13.54,0,0,0,0-1.47.31.31,0,0,0-.63,0Z"/><path class="cls-1" d="M27.31,212.51a10.48,10.48,0,0,1,2.06,2.89c.16.3.59.09.53-.22a5.32,5.32,0,0,0-2.2-3.17c-.29-.21-.64.25-.38.5Z"/><path class="cls-1" d="M28.71,210.72c.68,1.18,1.32,2.39,2.1,3.5a.28.28,0,0,0,.47-.28c-.59-1.23-1.32-2.39-2-3.56a.33.33,0,0,0-.56.33Z"/><path class="cls-1" d="M29.72,208.34a21.18,21.18,0,0,0,2.92,6.73.29.29,0,0,0,.5-.29c-1-2.2-1.95-4.36-2.82-6.6a.31.31,0,0,0-.6.17Z"/><path class="cls-1" d="M31.28,209.5a38.38,38.38,0,0,0,2.46,6.22.3.3,0,0,0,.54-.23,38.41,38.41,0,0,0-2.46-6.22c-.14-.31-.65-.09-.54.23Z"/><path class="cls-1" d="M33.07,209.78c.69,1.69,1.34,3.4,2.16,5a.27.27,0,0,0,.48-.2c-.59-1.73-1.35-3.4-2.07-5.08-.14-.32-.71-.09-.57.24Z"/><path class="cls-1" d="M35.17,210.06c.48,1.31,1,2.61,1.53,3.88.12.26.55.08.46-.2-.41-1.3-.9-2.57-1.4-3.84-.14-.36-.73-.21-.59.16Z"/><path class="cls-1" d="M37.19,211c.22.68.43,1.36.71,2a.26.26,0,0,0,.5-.14c-.17-.69-.39-1.37-.61-2-.12-.38-.72-.21-.59.16Z"/><path class="cls-1" d="M25.69,279.06a13.05,13.05,0,0,0,2.65-4.3c.11-.32-.36-.5-.54-.23-.87,1.38-1.69,2.79-2.66,4.11-.23.31.28.71.54.42Z"/><path class="cls-1" d="M25.09,277.77c1-1.36,2-2.71,2.93-4.13.17-.26-.24-.6-.44-.34-1.06,1.34-2,2.77-3,4.17-.22.32.29.61.51.3Z"/><path class="cls-1" d="M25.09,283.06c.4-.78.82-1.55,1.18-2.35.13-.28-.27-.53-.43-.25-.42.77-.79,1.56-1.18,2.35-.14.28.28.53.43.25Z"/><path class="cls-1" d="M22.87,279.79c3.46,5.81,3.73,12.57,3.94,19.14a94.78,94.78,0,0,0,.55,9.59c.28,2.1.74,4.24,2.23,5.83A.3.3,0,0,0,30,314c-3.49-5.42-2.29-12.73-2.55-18.88-.23-5.49-1.12-10.91-4.1-15.63a.31.31,0,0,0-.53.31Z"/><path class="cls-1" d="M43.67,281.24a115.86,115.86,0,0,1,1.84,18,136.61,136.61,0,0,1-1.13,17.28c-.05.51.79.62.89.12,2.26-11.54,1.62-24.12-.94-35.55-.1-.43-.73-.24-.65.18Z"/><path class="cls-1" d="M36.32,184.89c-2.72,8.34-4.2,17.34-10,24.19-.21.25.07.71.38.49,3-2.21,4.58-6.15,5.82-9.57a117,117,0,0,0,4.53-14.9.38.38,0,0,0-.74-.2Z"/><path class="cls-1" d="M35.54,324.18c6.55-3.35,13.88-3.17,21-2.69,7.33.5,14.63,1,22,1.34,15.43.63,30.87.41,46.28-.46.32,0,.32-.52,0-.5a453.34,453.34,0,0,1-48-.08c-7.51-.41-15-1.26-22.5-1.62-6.51-.32-13.25.33-19,3.54-.31.17,0,.64.28.47Z"/><path class="cls-1" d="M39.56,323.58c3.27.33,6.56.41,9.85.54a96.65,96.65,0,0,0,9.85.29c.4,0,.56-.69.1-.75a93.8,93.8,0,0,0-9.52-.44c-3.43-.12-6.85-.3-10.28-.21a.29.29,0,0,0,0,.58Z"/><path class="cls-1" d="M61.41,324.09c0,.11,0,.23,0,.34a.46.46,0,0,0,.32.32.39.39,0,0,0,.25,0,.46.46,0,0,0,.32-.32c0-.11,0-.23,0-.34a.49.49,0,1,0-1,0Z"/><path class="cls-1" d="M42.25,182.41a15,15,0,0,0,9.25-.29c2.27-.71,4.74-1.95,6.74,0,1.24,1.24,1.65,4.55,1.86,6.23.13,1-.27,5.32,2.1,4.61.81-.24,1-1.17,1.34-1.84s.88-2,1.66-2.46c4.38-2.33,3.72,4.68.78,4.31a.61.61,0,0,0-.61.61c0,1.21.68,2,1.36,2.94.82,1.19,1.61,2.41,2.53,3.53.4.49,1.17-.14.86-.67-.56-1-1.22-1.88-1.85-2.8s-1.69-1.92-1.69-3l-.61.61c3,.36,4.56-4.45,3-6.56a2.49,2.49,0,0,0-3.3-.68,6.5,6.5,0,0,0-2,1.95c-.57.77-.72,2-1.71,1.77s-.69-1.9-.83-2.91a20.42,20.42,0,0,0-.89-3.7c-.5-1.45-1.07-3.36-2.67-3.93-1.76-.63-3.91.3-5.56.85a18.86,18.86,0,0,1-9.54.75.32.32,0,0,0-.17.62Z"/><path class="cls-1" d="M89.62,213.85A455.47,455.47,0,0,1,141.89,215a.94.94,0,0,0,.93-.93c-1.23-15.27-2.27-31.72,3.85-46.14C152.14,155,163.32,146.05,172,135.4c9-11.11,13.95-24.59,11.27-39-2.35-12.59-10.44-23.28-20.55-30.82-11.77-8.78-26.11-12.92-40.54-14.54a204.34,204.34,0,0,0-49.22.85c-15.21,2-29.87,6.76-42.54,15.58C18.69,75.63,8.49,86.76,3.3,100.18c-4.87,12.59-4.93,29,3.74,40.12C9.12,143,11.81,143,15,143.12l13.12.46q13.12.46,26.24.89c4.37.14,8.75.21,13.12.35a.86.86,0,0,0,.86-.86c-1.41-11.08-2.72-25,5.79-33.75,7.7-7.9,21.23-8.33,30.26-2.54,2.5,1.6,4.88,3.86,5.75,6.78s-.08,6-1.71,8.54c-3.17,5-8.08,8.71-11.78,13.28A82.15,82.15,0,0,0,81.33,166.1,81.32,81.32,0,0,0,80,204.3c.28,1.34,2.32.77,2-.56-5.24-25.2,2.6-52.64,20.57-71.12,3.88-4,8.88-8.26,9.76-14.09.83-5.54-2.8-10.05-7.29-12.81-9-5.55-21.73-5.4-30.18,1.2-11.22,8.77-9.83,24.48-8.36,37l.86-.86q-24.93-1-49.86-2c-1.85-.07-3.75,0-5.59-.25-2.36-.3-3.47-2-4.62-3.89a35.46,35.46,0,0,1-4-9.58,42.62,42.62,0,0,1,.17-21.08C7.18,92.37,16.8,80.57,28,71.88c11.8-9.17,25.7-14.62,40.36-17.15a204.39,204.39,0,0,1,46.93-2.17c14.63.91,29.48,4,42,11.85C167.92,71,176.88,81,180.41,93.15a42.17,42.17,0,0,1,.3,22.18,49.18,49.18,0,0,1-9.63,18.24c-7.77,9.75-17.68,17.88-23.79,28.89-6.89,12.41-7.6,27-7,40.85.16,3.57.42,7.14.65,10.71l.93-.93a371.57,371.57,0,0,0-52.27-1.4c-1.38.06-1.39,2.2,0,2.15Z"/><path class="cls-1" d="M142.55,215.68c1.66-3.76,4.59-6.53,7.34-9.49a30.51,30.51,0,0,0,5.95-8.94c3.07-7.26,3.62-15.22,5.65-22.77a61.4,61.4,0,0,1,12-23.25c5-6.08,11.08-11.26,16-17.45a40,40,0,0,0,8.67-19.14A44.93,44.93,0,0,0,196.43,95c-4.25-13.75-13.78-25-26.14-32.16a85.53,85.53,0,0,0-24.62-9.32,126.64,126.64,0,0,0-13.17-2.16,66.12,66.12,0,0,0-13.76-.57c-.63.06-.91,1.09-.16,1.21,7.64,1.21,15.38,1.27,23,2.71a92.81,92.81,0,0,1,22.68,7.15c13.38,6.36,24.41,16.85,29.65,30.89a44.83,44.83,0,0,1,2.81,19.87,37.94,37.94,0,0,1-8.44,20c-4.76,6-10.58,11.06-15.53,16.9a63.7,63.7,0,0,0-11.46,19.92c-2.89,8.18-3.23,17-6.07,25.16a31.16,31.16,0,0,1-7.11,11.32c-2.68,2.84-5.36,5.6-6.86,9.26-.3.74,1,1.28,1.3.55Z"/><path class="cls-1" d="M68.84,144.13a59.26,59.26,0,0,1,13.11-9.48c3.66-1.93,7.86-3.31,8.55-7.94.35-2.34-.15-4.67-.1-7a15,15,0,0,1,1.84-6.86c2.41-4.38,8-8.15,12.6-4.47a.74.74,0,0,0,1.16-.9c-1.87-4-8.09-2.39-10.87-.49a15.77,15.77,0,0,0-6.4,11.21c-.32,2.79.49,5.64,0,8.4-.65,3.53-3.87,4.54-6.7,6a58.05,58.05,0,0,0-14.43,10.33c-.82.8.43,2,1.25,1.25Z"/><path class="cls-1" d="M142.94,211.54c5.14-7.66,10.26-15.38,15.05-23.26.34-.56-.5-1-.86-.5-5.25,7.59-10.21,15.41-15.11,23.23-.37.59.54,1.11.92.54Z"/><path class="cls-1" d="M144.29,199.64c3.72-5.09,7.49-10.15,11.08-15.33.39-.56-.5-1-.9-.52-3.82,5-7.47,10.17-11.16,15.29-.43.59.55,1.15,1,.57Z"/><path class="cls-1" d="M141.65,197.18a124.23,124.23,0,0,0,13.83-18.09c.35-.58-.52-1.06-.9-.52a196.12,196.12,0,0,1-13.74,17.8c-.49.55.32,1.37.81.81Z"/><path class="cls-1" d="M139.2,191.42c4.16-4.2,8.47-8.31,12.42-12.72a.54.54,0,0,0-.77-.77c-4.34,4-8.36,8.42-12.48,12.66-.53.55.3,1.38.84.84Z"/><path class="cls-1" d="M8.74,128.07c-1.92-13.45,2.09-27.21,9.64-38.34S37.3,70.26,49.6,64.89c7.22-3.15,14.68-5,22.29-6.86.63-.16.35-1-.26-1A87.08,87.08,0,0,0,32.42,73.22C21.47,81.41,12.89,92.73,9,105.93a49.73,49.73,0,0,0-1.4,22.45c.13.75,1.23.42,1.13-.31Z"/><path class="cls-1" d="M87,56.48a2.37,2.37,0,0,0,.14.93.54.54,0,0,0,.93,0,2.37,2.37,0,0,0,.14-.93.6.6,0,1,0-1.2,0Z"/><path class="cls-1" d="M165.58,77.11a35.5,35.5,0,0,1,9.6,20.73c.88,7.83-1,15-4.52,22a.64.64,0,0,0,1.1.64c4.82-6.44,6.12-15.42,5.11-23.24a34.46,34.46,0,0,0-10.52-20.89.55.55,0,0,0-.78.78Z"/><path class="cls-1" d="M169.1,104.78a13.77,13.77,0,0,1-3.16,8.83.61.61,0,0,0,.86.86,11.14,11.14,0,0,0,3.5-9.85c-.1-.69-1.18-.5-1.19.16Z"/><path class="cls-1" d="M50.56,134.27c2.56-4.66,5.32-9.27,7.61-14.07a.57.57,0,0,0-1-.57c-2.8,4.53-5.18,9.34-7.72,14-.39.71.69,1.34,1.08.63Z"/><path class="cls-1" d="M53.79,135.55A118.16,118.16,0,0,0,60.43,125a.59.59,0,0,0-1-.59,118.7,118.7,0,0,0-6.68,10.55c-.41.68.63,1.27,1.06.62Z"/><path class="cls-1" d="M57.8,137.57a48.81,48.81,0,0,0,3.2-4.7c.28-.51-.42-1.12-.84-.65A50.07,50.07,0,0,0,56.74,137c-.45.65.61,1.26,1.06.62Z"/></g></g></svg>