<svg xmlns="http://www.w3.org/2000/svg" viewBox="0 0 451.99 325.18"><defs><style>.cls-1{fill:#f7f7f7;}</style></defs><title>girl</title><g id="Layer_2" data-name="Layer 2"><g id="works"><path class="cls-1" d="M297.45,159.62c7-2.78,13.81-1.82,20.29,1.65,6.75,3.61,9.94,9.53,10.43,17.08.7-.37.46-1,.51-1.43s.22-1.05.86-1.13,1,.4,1.19,1a4.58,4.58,0,0,1,.15,2.16,17.48,17.48,0,0,1-1.81,5.46c-.27.53-.5,1.19-1.62,1,1.48-3.67-1-6.66-1.55-10a22.37,22.37,0,0,1-16.13,24.27c-.42.1-1,.07-1.06.71a6.1,6.1,0,0,1-1,3.1c-.6.9-1.31,1.74-2,2.66,2.57,2.92,1.81,5.78-.36,8.53,1.35,2.27,1.16,4.1-.81,6.38-.77.89-1.33,1.51-.68,2.9.75,1.59-.46,2.84-1.69,3.82.57,2.84.15,3.74-3.91,8.14l5.85-.46c13.86-1.1,27.46-.21,40.51,5.11A32.61,32.61,0,0,1,359,252.28c2.94,4.12,3.49,8.86,3,13.87-.82,8.27-4.25,14.83-11.56,19.1-1.66,1-3.36,1.89-5.09,2.72-4.42,2.11-8.92,4-13.43,5.93,3.86-.79,7.42-2.6,11.49-3.74a3.08,3.08,0,0,1-1.91,1.76c-7.12,3.76-14.85,5.72-22.65,7.32-8,1.63-15.67,4.2-23.6,5.93a237.43,237.43,0,0,1-31.43,4.9,128.53,128.53,0,0,1-17,.22,6.09,6.09,0,0,0-5.49,2.31,96.8,96.8,0,0,1-11.44,11.31c-.7.6-1.56,1.56-2.29-.09-.23.14-.45.27-.66.42-.92.63-1.92,1.36-3,.61s-.78-2.12-.45-3.18a47.47,47.47,0,0,1,4.33-9c.76-1.35,1.61-2.66,2.54-4.17a2.88,2.88,0,0,0-1.56.83,94,94,0,0,1-11.83,7.58,10.78,10.78,0,0,1-4.19,1.62,1.83,1.83,0,0,1-2.19-2.28,8,8,0,0,1,1.08-3.08c1.21-2,2.1-4.32,4.42-6.07-2.48-.19-4.57-.42-6.66-.51a246.08,246.08,0,0,1-45.16-5.74c-7.25-1.68-14.59-2.92-21.69-5.23a63.92,63.92,0,0,1-9.19-3.88,2.44,2.44,0,0,1-1.53-1.55c4.07,1,7.62,2.94,11.51,3.69-4.19-1.83-8.38-3.64-12.56-5.49a49.43,49.43,0,0,1-6.87-3.7,21.72,21.72,0,0,1-10.34-16.32c-.22-1.8-.5-3.59-.81-5.84-.18,4.39-.32,8.32,1.49,12,.22.44.45.92-.15,1.19s-.72-.24-.93-.6a14.48,14.48,0,0,1-1.91-5.89c-.85-7.92-.16-15.6,3.8-22.72a6.62,6.62,0,0,1,2.07-2.5c.59-.38,1.23-.86,2-.21-2.24,3.31-3.27,7.09-4.53,10.78a34.49,34.49,0,0,1,13.24-12.75A58.25,58.25,0,0,1,146,236.2a104.47,104.47,0,0,1,29.11-.36c.57.07,1.14.06,2.15.11a22.05,22.05,0,0,1-3.21-3.68c-.88-1.34-1.59-2.71-.71-4.37-1.62-1.35-2.74-2.83-1.41-5,.35-.57-.18-.85-.48-1.17a9.24,9.24,0,0,1-1.93-2.82,3.68,3.68,0,0,1,.59-4.19c-2.24-2.84-3-5.7-.41-8.63-3.55-4.38-3.9-6.61-1.16-8.21-1.28-3.8-2.58-7.63-3.87-11.47-.2-.59-.36-1.2-.56-1.79s-.28-1.21.35-1.51,1,.25,1.32.76l.44.78a4.14,4.14,0,0,0-1.36-3.33c1-1.59,2.46-1.72,4-1.72l28.93,0h1.7c-1.9-7.47.05-14.14,3.79-20.46.51-.87,1.14-2.5,2.24-1.91s-.14,1.83-.54,2.66a45.5,45.5,0,0,0-4.39,14.91,8.17,8.17,0,0,0,.75,4.78h8q31-.12,62.07-.2a2.34,2.34,0,0,0,2.59-1.75c1.06-2.8,2-5.58,1.29-8.65a1.92,1.92,0,0,1,.14-1.53c1-.23,1.13.6,1.38,1.15a8.55,8.55,0,0,1-.36,7.54c-.48,1-1.05,2-1.64,3.1a7.8,7.8,0,0,0,3.06-.15,13,13,0,0,1,4.19-.12c.6,0,1.17.1,1.43.74s-.23,1.16-.69,1.59a5.59,5.59,0,0,1-4.1,1.15q-19.47,0-38.94,0-24.39-.06-48.78-.18c-4.22,0-8.44,0-12.7,0,.1.78.66.82,1,1,18.49,10.41,37,20.76,55.46,31.25a5.33,5.33,0,0,0,6.16-.05c12.15-7,24.44-13.66,36.68-20.48,1.41-.78,2.76-1.66,4.14-2.5.36-.22.7-.46,1.07-.65.8-.39,1.83-.91,2.33.11s-.65,1.31-1.3,1.64c-5.62,2.84-11,6.09-16.55,9.11-8.91,4.87-17.83,9.71-26.7,14.64a4.55,4.55,0,0,1-5.18-.08c-14.71-8.44-29.54-16.66-44.32-25-5-2.8-10-5.65-14.93-8.49a2.57,2.57,0,0,0-1.29-.48h-5.44c.34.57,1,.73,1.5,1,20.07,11.49,40.31,22.68,60.22,34.44,2.33,1.38,4.68,2.73,7,4.11a1.4,1.4,0,0,0,1.69,0c12.6-7.85,25.55-15.11,38.28-22.74,2.37-1.42,4.71-2.88,7.06-4.31a2.64,2.64,0,0,1,2.75-.4c.16.94-.54,1.23-1.1,1.54-14.46,8.08-28.34,17.14-42.52,25.7C240.65,224,238,224.34,234,222c-19.52-11.19-38.94-22.56-58.4-33.86l-1.47-.84c-.36.68,0,1.13.19,1.59,2.21,6.72,4.76,13.35,6.59,20.18,2,7.59,5.38,14.72,7.28,22.34.21.82.71,1.62.34,2.6-1-.14-1.19-1-1.5-1.65-1.58-3.3-2.34-6.89-3.71-10.27-.35-.87-.66-1.75-1-2.74-1.52,1.86-3.3,1-5.19.81,1.15,1,2.36,1.92,3.44,3s2.71,1.84,1.91,3.84c0,.12.16.35.28.51,1.27,1.83,1.27,1.85-.68,2.83,1.67,6.57,3.2,13.19,6,19.6,5-.16,10.24.12,15.44.27,14.53.41,29.06.87,43.59,1.21,10,.23,19.9.28,29.86.43,2.76,0,5.52.18,8.28.23a5.36,5.36,0,0,0,5-3.43c1.6-3.61,2-7.53,2.85-11.31a43.78,43.78,0,0,0,1.33-6.75c-.76-.14-1.53.14-2.1-.46-.79.79-.49,2.06-1.53,2.57-.91-.26-.6-.94-.5-1.52.78-4.56,2.06-9,3.18-13.5,1.39-5.59,2.81-11.17,4.22-16.76,1.24-.17,1.53.22,1.22,1.39-1,3.82-1.88,7.67-2.8,11.52-.07.29-.09.6-.15,1.05a20,20,0,0,0,4.94-4.46,5.57,5.57,0,0,0,.64-4,12,12,0,0,1,.77-4.71c.24-.89,1.46-.36,2-1.17-5.57-.15-10.5-1.76-14.5-5.67a18.19,18.19,0,0,1-5.15-9.63c-1.58-7.8,1.66-18.08,12.31-23.32-.47-.92.11-1.63.58-2.37Zm-50.4,127c-5-2.65-9.74-5.41-14.7-7.82-14.24-6.91-28.68-13.42-42.75-20.7a86.28,86.28,0,0,0-37.48-9.7c-7.05-.21-14.19-.47-20.56,3.7-.55-1.06,0-1.72.69-2.31a14.19,14.19,0,0,1,6.63-3,72.34,72.34,0,0,1,24.87.17,89.9,89.9,0,0,1,20.06,5.51,4.12,4.12,0,0,1,1.53-1.71c-.94-4.37-2.83-8.35-3.87-12.56A108.17,108.17,0,0,0,170,237c-10-.63-20-.34-29.79,2.09-7.75,1.92-14.81,5.08-20.16,11.44a18.92,18.92,0,0,0-4.67,15.29c.9,7.3,3.73,13.29,10.32,17.07,1.31.75,2.61,1.53,4,2.16,17.31,8,35.18,14.06,54.14,16.67a154.19,154.19,0,0,0,27.56,1.79c6.4-.27,12.78-.9,19.19-1a6.77,6.77,0,0,0,6.2-3.17A147.5,147.5,0,0,1,247.05,286.62Zm8.58,16.45c1.1.12,2,.28,3,.3,8.9.24,17.79.41,26.67-.81,10.07-1.39,20.08-3,29.83-6a204.47,204.47,0,0,0,31.74-12.23c6.69-3.33,11.28-8.28,12.49-16.07.81-5.22,1-10.23-2.06-14.74a30.61,30.61,0,0,0-12.83-11.12,64.56,64.56,0,0,0-20.64-5.21,131.6,131.6,0,0,0-25.27.28c-3,.29-3,.3-3.84,3.26-.16.6-.35,1.2-.5,1.81q-1.16,4.73-2.31,9.49a1.5,1.5,0,0,0,.34,0l1.17-.41c13.33-4.75,27-7,41.14-5.17a16.09,16.09,0,0,1,8.32,3.27c.74.61,1.31,1.29.63,2.4a16.52,16.52,0,0,0-7.67-3.12,65.69,65.69,0,0,0-18.22-.33,85.64,85.64,0,0,0-30.21,8.46c-11.85,6-23.77,11.85-35.85,17.38-3.82,1.75-7.61,3.56-11.54,5.65,3.49,1.83,6.81,3.56,10.12,5.32,2.91,1.55,5.94,3,7.94,5.95-.78.16-.93.83-1.17,1.44a8,8,0,0,0-.27,2.94A32,32,0,0,1,255.63,303.07Zm-61.15-45.38c1.35.69,2.31,1.19,3.29,1.66l38.48,18.74a1.5,1.5,0,0,0,1.45.09c1.51-.69,3.1-1.21,4.6-1.93q17.61-8.44,35.18-16.95c.38-.18.92-.22,1.06-.79C276.78,258.31,196.43,257.48,194.48,257.69Zm128.33-78.87a15.68,15.68,0,0,0-2.24-8.27c-3.56-6.28-11.54-9.67-18.1-7.43-6.78,2.31-11.3,7-13,14A16,16,0,0,0,305.84,197,18.31,18.31,0,0,0,322.81,178.82ZM186,252.48c-.18.62.44.93.89,1.3,1.47,1.23,3.2,1.18,5,1.16,14.59-.12,29.18.42,43.76.65q22.66.37,45.32.92c2.33.05,4.1-1.09,6.08-2.13a1.76,1.76,0,0,0-1.33-.29c-15.68-.14-31.36-.69-47-.92C221.2,252.91,203.66,253,186,252.48Zm-4.71-35.82c-.87-3.53-2.32-6.53-3.25-9.73-1.83-6.29-4-12.48-5.78-18.78a4.94,4.94,0,0,0-3.67-3.81c.11.4.18.74.3,1.07,2.63,7.19,4.75,14.55,6.8,21.92.42,1.49,1.35,3.05.37,4.74Zm100.9,89c-2.13.11-4.25.21-6.38.35-3.84.25-7.68.55-11.52.77-4.36.25-8.73.43-13.1.63-.71,0-1.31-.12-1.37-1.07l5.66-.56c-2.29-.55-4.57-.57-6.8-1.05a.78.78,0,0,0-.85.21l-3.42,4.26A172,172,0,0,0,282.22,305.66ZM180.89,218.71c-3.09-4-8.21-6.26-10-11.51-1.62,2-1.75,3.51-.48,5.43a16.51,16.51,0,0,0,7.81,6.24C179,219.17,179.86,219.69,180.89,218.71Zm123.7-11.47c-1.54,3.6-4.11,6.06-7,8.29a18.75,18.75,0,0,0-2,1.93c-.41.43-.9.91-.5,1.71a1.94,1.94,0,0,0,.71.09,14.88,14.88,0,0,0,9.75-7.64C306.31,210.17,306,208.69,304.59,207.24Zm-79,115.15c1.14-.92,2.76-1.6,3-3a4.75,4.75,0,0,1,1.35-2.65c5-5.59,10.14-11,14.91-16.8.57-.69,1.13-1.39,1.69-2.08a80.44,80.44,0,0,0-9.42,9.36c-2.74,3.06-5.25,6.33-8.13,9.25A16.29,16.29,0,0,0,225.59,322.39Zm-54.51-107c-1.31,3.31,4.22,9,9.66,10.14C177.1,222.4,173.41,219.76,171.08,215.4Zm133.23.08c-2.23,4.26-5.95,6.89-9.24,9.95a17,17,0,0,0,8.88-6.26C304.66,218.17,305.35,217.08,304.31,215.48ZM173.19,223.4c-.48.93-.48,1.64.13,2.21A12.37,12.37,0,0,0,182,229C179.22,226.52,175.75,225.76,173.19,223.4Zm120.17,5.67a13.12,13.12,0,0,0,8.51-3.2,1.72,1.72,0,0,0,.35-2.44C299.71,225.74,296.26,226.52,293.37,229.07ZM243.89,298c2.82-2.52,5.93-4.74,8.06-8C248.4,291.76,246.3,295,243.89,298Zm-64.5-62.69c-2-2-2.65-4.92-5-6.57A10.59,10.59,0,0,0,179.4,235.27Zm116.79-.19c2.54-1.24,4.94-4.62,4.81-6.82C298.8,230.35,298.05,233.12,296.18,235.08ZM242.75,295c2.32-2.12,4.35-4.5,7-6.27a2.83,2.83,0,0,0-1.67-.74Zm55.7-75a11.89,11.89,0,0,1-4,.59,12.91,12.91,0,0,0-.67,3.64l4.19-3.6A5.23,5.23,0,0,0,298.45,219.93Zm-43.86,82.4c-2.83-.17-2.84-.18-2.23-3.4a24.34,24.34,0,0,0-2.72,3.93C251.46,302.45,253.15,303.59,254.59,302.33Zm-32.74,3.29c1.92.35,3.92,1.13,5.66-.93C225.5,305,223.62,304.92,221.84,305.62ZM169.1,199.71c-.77,1.88.21,3.16,1.43,4.36Zm59.4,107.42a12.66,12.66,0,0,0-5.85,3.82Z"/><path class="cls-1" d="M217.7,126.7A42.26,42.26,0,0,0,207.27,134c-11,10.23-19.6,22.09-24.69,36.33-.77,2.14-1.2,4.41-1.78,6.62q-.14.53-.29,1.05c-.13.46-.41.75-.91.6s-.44-.57-.37-.91c.2-1,.45-2,.7-3.08-.64.12-.44,1-1.11.94-.74-.33-.38-.9-.26-1.43a66.82,66.82,0,0,1,7-17.49c.32-.59.66-1.17,1-1.77-2.31-.88-2.66-2.16-2-7-2.06.23-4.11.45-6.07-.44-2.15-1-3-2.78-3.11-5.11a18.26,18.26,0,0,1-5.58-.06c-5-1.26-7.69-4.66-8.69-9.58-1.65-8.16,2.74-15.62,10.18-17.93,4.61-1.43,5-4,2.57-7.85a24.64,24.64,0,0,0-6.29-6.25c-1.36-1.05-2.73-2.1-4-3.26A10.7,10.7,0,0,1,160.33,86a25.56,25.56,0,0,1,8.83-13.32c1.24-1,2.52-2,3.8-3a29.16,29.16,0,0,0,11.27-18.33A95.69,95.69,0,0,1,189.9,32c2.61-6.16,6.22-11.56,11.94-15.29a11.66,11.66,0,0,1,7.47-2.32,2.47,2.47,0,0,1,1.76.64c-.08.68-.59.69-1,.77-6.78,1.62-11.13,6.28-14.63,11.9-3.06,4.92-4.6,10.47-6.16,16-.94,3.36-1.73,6.76-2.52,10.16A28.16,28.16,0,0,1,176.22,70c-2.1,1.63-4.28,3.15-6.33,4.84a21.32,21.32,0,0,0-7.54,12.61,8.35,8.35,0,0,0,2.07,7.38,40,40,0,0,0,5,4.51c2.69,2.26,5.2,4.66,6.75,7.9,2,4.19,1,7.18-3.27,9-3.65,1.52-6.64,3.62-8.35,7.31-2.42,5.2-1,12.13,3.11,15.24a9.51,9.51,0,0,0,6.7,2.08,1.47,1.47,0,0,0,1.56-1.17,6.92,6.92,0,0,1,2.48-3.7,1.91,1.91,0,0,1,2.32-.31c.84.6.29,1.42,0,2.12a4.49,4.49,0,0,1-1.49,2.16c-1.57,1-1.72,2.32-1.25,3.91a4.16,4.16,0,0,0,3.58,2.86,5.8,5.8,0,0,0,3.23-.23c1.26-.47,1.65-.07,1.54,1.32-.09,1.14-.11,2.28-.15,3.43a2.31,2.31,0,0,0,1.19,2.28,97.07,97.07,0,0,1,9.1-13c5.34-6.66,12-11.87,18.88-16.75a2.42,2.42,0,0,1,2.37-.52c-.86,1.36-2.52,1.79-3.66,3.47,1-.56,1.63-.88,2.22-1.24a10.87,10.87,0,0,1,6.47-2,1.75,1.75,0,0,0,1.24-.54c2.86-2.13,3.71-5.11,3.73-8.51,0-3.11-1.19-4.63-4.39-5.66-11.29-3.6-19.6-10.8-24.11-22a60,60,0,0,1-2.89-11.63c-1.41,1.08-2.89,6.26-2.61,9.36a17.8,17.8,0,0,0,3.49,9.52c-3.78-.83-5.66-7.42-4.74-14.74-3.67,3.23-3.94,10.08-.54,13.93a40.22,40.22,0,0,0,4.78,4.26c3.55,2.92,6.38,6.31,7.12,11,.38,2.45.46,4.9-1.22,7-.3.38-.49,1-1.19.78-.44-.46,0-.77.21-1.08a7.27,7.27,0,0,0,1.18-5.46,15,15,0,0,0-5.62-9.93c-1.58-1.28-3.2-2.5-4.78-3.79-5.29-4.33-6.44-10-3.23-16,1.83-3.45,4.56-6.2,7.2-9a77.54,77.54,0,0,0,6.18-6.84c4.48-6.11,5.29-12.91,3.36-20-1.48-5.47-2.33-10.88-.67-16.44.6-2,1-2.56,2.22-3,.31.26.15.52.05.83-3.08,10.06-1.31,19.06,6.19,26.61a52.06,52.06,0,0,0,15.19,10.29,3,3,0,0,0,1,.3c-4.38-5.49-6.59-11.88-8.32-18.52-.85-3.25-2.54-6.27-2.79-9.71a15.87,15.87,0,0,1,.17-5.43,1,1,0,0,1,.77-.8c.32,1.29.16,2.63.42,3.89a30.29,30.29,0,0,0,16.46,21.76c4.84,2.52,10.09,3.92,15.33,5.23,4.73,1.18,9.42,2.33,12.88,6.2-1-3.91-3.33-7.17-5.48-10.59a1.57,1.57,0,0,1,1.95.69c6.37,7.22,9.57,15.3,7.29,25.12a77.7,77.7,0,0,1-4.22,12.21c-1.46,3.52-2.74,7.12-1.93,11.06a16.89,16.89,0,0,0,2.92,6.51c2.22,3.08,4.56,6.07,6.92,9.2a10.07,10.07,0,0,0,2.3-8c-.31-2.89-1.85-5.22-4-7.52a3.55,3.55,0,0,1,2.43,1.4c4.2,4.19,4.07,10.71,1.73,14.77a10,10,0,0,1-6.2,4.43c-2,.62-4.13,1.09-6.15,1.76-2.92,1-5.32,2.59-5.73,5.93a8.49,8.49,0,0,0,3.81,8.39c3.86,2.69,8.13,2.83,12.54,1.49.92-.28.95-.87,1-1.66.24-3.13,1.17-5.94,4.1-7.63.46-.26.94-.72,1.54-.35.15.32,0,.51-.19.71a10.68,10.68,0,0,0,.06,15.29,5.23,5.23,0,0,0,3.89,2c.38,0,.86.08.88.48.11,2.56,2,4.12,3.32,6,1,1.42,1.22,3.08,2,4.56.36.74-.68,1.38-.45,2.39L297,158.6c.51.39.34.74.43,1l.05-.06c-5.44,3.73-10.6,7.73-13.21,14.11-.16.38-.31.77-.49,1.15a.76.76,0,0,1-.91.42.7.7,0,0,1-.58-.81,8.64,8.64,0,0,1,.42-2,16,16,0,0,1,4.17-6.33,1.6,1.6,0,0,0,.5-2,93.7,93.7,0,0,0-5-11.61c-.16-.32-.27-.62-.69-.76-4-1.3-6.21-4.33-7.56-8.12,0-.09-.13-.16-.26-.32a17.85,17.85,0,0,1-11.69.58,10.88,10.88,0,0,1-7.66-13,8.66,8.66,0,0,1,4.26-5.53c.53-.31,1.07-.61,1.65-.93a1.74,1.74,0,0,0-.22-.13c-4.68-1.62-5.4-1.39-8.61,2.32s-6.06,7.42-9.57,10.71c-2.37,2.21-4,3-7.73.32a22,22,0,0,1-5.21-6c-.93-1.38-1.8-2.81-2.79-4.14-1.84-2.48-3.62-3-6.54-1.94a4.72,4.72,0,0,0-2.15,1.17Zm-9.34-77.21c0,.85,0,1.27,0,1.69.1,5.22-.77,10.15-4,14.46a58.83,58.83,0,0,1-5.46,6.22,3,3,0,0,0-.92,2c-.18,2.32.79,4.38,1.29,6.55a34.47,34.47,0,0,0,11,18.66c7.33,6.4,16,10.1,25.56,10.24,8.58.12,16.18-3.76,23.27-8.44a1.67,1.67,0,0,0,.82-1.26,28.88,28.88,0,0,1,3.58-10.09,30.9,30.9,0,0,0,3.8-14.48c0-2.44-.2-4.89-2-6.88a21.21,21.21,0,0,0-10.51-6.69c-3.27-.85-6.57-1.58-9.86-2.36-5.38-1.29-10.73-2.63-15.24-6.11-1.75-1.35-3.29-2.92-4.91-4.43a77,77,0,0,0,5.51,10.65,18.54,18.54,0,0,0,9.29,7.8,4.45,4.45,0,0,1-3.8-.41c-2.3-1.25-4.83-1.88-7.19-2.92C221,60.36,213.77,56.55,208.36,49.48Zm17,74.62a15.36,15.36,0,0,1,3.62,4.19c1.16,1.73,2.27,3.49,3.53,5.15a13.06,13.06,0,0,0,4,3.69,2.72,2.72,0,0,0,3.66-.41c3.62-3.61,6.52-7.81,9.92-11.66-4-1.95-4.35-5.73-5.08-9.37-5.08,4.23-10.19,4.42-15.39.49C228.07,121.54,227.8,122,225.39,124.11Zm45.75-3.57a49.74,49.74,0,0,0-3.94-4.82,59.66,59.66,0,0,1-5.1-6.3,17.27,17.27,0,0,1-2.49-7.11c-3.61,2.74-7.69,4.11-11.45,6.08-.44.23-1,.33-1,1,.22,3.89.08,7.83,1.78,11.48a4.69,4.69,0,0,0,2.37,2.56c3.77-2.17,7.94-1.85,9.77.78C264.32,122.87,268,122.76,271.14,120.54Z"/><path class="cls-1" d="M374.76,63.6a32.46,32.46,0,0,0,9.17-10.5c2.29-4.08,3.07-8.6,3.87-13.17.95,1.62.74,3.31.52,4.93a29.51,29.51,0,0,1-7.4,15.91,47.84,47.84,0,0,1-36.3,16.77c-6.77.13-13.24-1.23-18.86-5.41a25.3,25.3,0,0,0-3.28-1.8,5.12,5.12,0,0,0-.73-.2,16.6,16.6,0,0,0,6.62,5.34,36.66,36.66,0,0,0,12.28,2.74c11.23.85,21.71-2.31,32-6.28.29-.11.56-.28.84-.41a.53.53,0,1,1,.52.93,12.13,12.13,0,0,1-1.5.82,87.73,87.73,0,0,1-22.1,6.37,42.4,42.4,0,0,1-20.64-1.7c-3.77-1.27-7-3.45-8.93-6.94a14.84,14.84,0,0,0-4.2-4.55c-9.39-7.54-15-17.15-15.18-29.37A33.19,33.19,0,0,1,315.09,8.92c20.15-15.41,49.1-10,62.57,9.57,9.41,13.66,8.84,32.14-2.44,44.51C375.06,63.19,374.92,63.4,374.76,63.6ZM341.57,2.37c-2.1.12-3.67.12-5.22.31a49.09,49.09,0,0,0-4.92.89c-18.32,4.17-29.76,22.3-25.3,40.09,6.23,24.87,37.14,37.52,59.23,24.23,16.64-10,21.45-30.3,10.77-46.5C367.88,8.87,355.81,3,341.57,2.37Z"/><path class="cls-1" d="M158.34,178.28c5.56,15.84.33,31.33-10.85,40.59a39.2,39.2,0,0,1-44,3.69c-14.38-8.13-20.59-22.5-17.85-41.3-1.47,2.28-3.34,11.53-3.3,16.35-.51.21-.6-.12-.71-.51-.7-2.36,0-4.67.38-6.94a100,100,0,0,1,7.88-25.05A17.75,17.75,0,0,1,95,158.29a3,3,0,0,1,3.08-.8c-4.8,4.18-6.87,9.77-9.18,15.24,7.26-11.75,17.74-18.33,31.49-19.07s24.94,4.63,33.44,15.72a2.22,2.22,0,0,0-.7-1.61,49.23,49.23,0,0,0-12-11.94,16.31,16.31,0,0,1-3-2.5c-.27-.31-.63-.68-.32-1.11s.84-.24,1.24,0a56.82,56.82,0,0,1,5.49,3.87A44.59,44.59,0,0,1,159,177.17C159.18,177.73,159.72,178.52,158.34,178.28Zm-34.56,46.77a34.62,34.62,0,0,0,8.81-1.06c20.66-5.39,32.69-27.57,22.76-47.83-8.66-17.69-29.78-25.3-47.28-17.62C93.43,165,85,180.35,87.83,195.34A36.6,36.6,0,0,0,123.78,225.05Z"/><path class="cls-1" d="M427.87,111.41c2.57,0,5.09-.36,5.81,3a12.53,12.53,0,0,1,10.44-.06c3.55,1.44,6.47,3.66,7.59,7.54.93,3.22-.54,5.73-3.79,6.53a63.35,63.35,0,0,1-12.23,1.46c-11.86.57-23.75.34-35.61,1-6.35.36-12.69.77-19,.56a38.9,38.9,0,0,1-8.52-.91c-2.07-.54-3.89-1.5-4.25-3.83s.92-4,2.69-5.29a12.09,12.09,0,0,1,5.65-2c-2.4-5.34-2.26-8.22.81-11,4.36-3.95,8.77-2.13,13.31.25,0-1.17-.09-2.23,0-3.28.85-8.66,6.49-13.82,15.21-13.66,6.48.12,12.42,2,17.26,6.56C426.94,101.8,429.14,105.91,427.87,111.41Zm-37.51,17.08c10.21-.11,20.4-1.06,30.6-1.11,8.81,0,17.59-.43,26.36-1.25,2.5-.23,3.24-1.45,2.49-3.84a6.12,6.12,0,0,0-1.34-2.27c-3.75-4.18-10.73-5.57-15-3.09-.58.33-1.23.76-1.86.17s-.25-1.14-.11-1.76c.35-1.48-.28-2.21-1.8-2a7.29,7.29,0,0,0-4,1.65c-.32.3-.67.55-1.11.25s-.35-.83-.14-1.26a9,9,0,0,0,1-2.11,11.39,11.39,0,0,0-2.6-10.34c-4.69-5.39-10.8-7.46-17.72-7.29a11,11,0,0,0-10.49,7.07,15.15,15.15,0,0,0-1.21,8.24c.12.79.44,1.74-.42,2.31s-1.66-.08-2.36-.63a13.23,13.23,0,0,0-5.32-2.53A5.8,5.8,0,0,0,379,111.1c-1.89,2.69-.93,5.12.65,7.51,1.36,2.06.86,3-1.61,3.17a8.65,8.65,0,0,0-5.76,2.46c-1.26,1.27-1.06,2.16.58,2.8a12.16,12.16,0,0,0,2.41.64A87.27,87.27,0,0,0,390.35,128.49Z"/><path class="cls-1" d="M299.33,146.63a12.45,12.45,0,0,1,0,6.22,7.09,7.09,0,0,1-3.79,4.54,3.54,3.54,0,0,1-4.34-1c-.22-.36-.49-.74-.13-1.13s.72-.08,1.06.16a2.71,2.71,0,0,0,3.45-.15,6.47,6.47,0,0,0,2-7.07,12.23,12.23,0,0,0-1.41-3.12,1,1,0,0,1,0-1.42c.53-.5,1-.24,1.52.13,2.68,2,8,1.11,10-1.68,4.9-6.89,2.74-16.33-3.6-20-5.17-3-5.95-7.25-2.65-12.27a27.57,27.57,0,0,1,5.85-6.47c4.59-3.65,5.66-8.59,5.61-14.07-.06-6.13-2.92-10.46-8.11-13.47A60,60,0,0,1,292,65.2c-2.43-2.52-3.78-5.71-5.21-8.83-1-2.13-1.85-4.29-2.79-6.43-.2-.45-.43-.86.21-1.27,1.15.37,1.07,1.77,2.12,2.61-1.67-6.74-2.43-13.49-5.15-19.71-2.18-5-6.23-8.43-10.59-11.46-7.71-5.36-16.45-8.16-25.55-10a41.33,41.33,0,0,0-24.78,2.42c-1.92.8-3.9,1.44-5.87,2.12-.46.16-.92.53-1.52.17-.16-1.06.78-1.22,1.39-1.55,10.43-5.63,21.36-7.61,33-4.75a82.75,82.75,0,0,1,19.61,7.1c10.29,5.51,17.43,13.31,19.07,25.39.59,4.31,1.81,8.55,2.8,12.8a30.09,30.09,0,0,0,2,5.56,16.7,16.7,0,0,0,7.15,8,70.73,70.73,0,0,1,11.46,7.56c4.25,3.63,7.32,7.94,7.93,13.7a15,15,0,0,1-1,7.18,34.15,34.15,0,0,1-4.71,8.24,76.8,76.8,0,0,0-5.54,8.13,8.42,8.42,0,0,0-.77,7.07,5.23,5.23,0,0,0,1.74,2.53c5.55,4.48,7.41,14.23,2.29,21.38-2,2.81-4.93,3.66-8.25,3.48-.42,0-.83-.08-1.24-.11A2.39,2.39,0,0,0,299.33,146.63Zm4.3-27.63c-1.69-5.82,2.3-9.48,4.67-13.73a23.85,23.85,0,0,0-6.26,7.52C300.81,115.32,301.29,117.33,303.63,119Zm9.21-37.71a20,20,0,0,1,1.76,7.49,33.78,33.78,0,0,1-.63,8C316.87,92.11,316.28,85.17,312.84,81.3Z"/><path class="cls-1" d="M10.85,149.05c.85-11.57,7.12-15.21,20.07-11.74.43-.24.35-.72.46-1.1a25.43,25.43,0,0,1,4.16-8.52c4.82-6.42,11.21-8.49,18.92-6.74,9.52,2.16,15.81,8.44,20.64,16.48a22.47,22.47,0,0,1,3.49,12.11c2.14-.24,3.85.37,4.86,2.32a6.66,6.66,0,0,1-.19,6.3,12.54,12.54,0,0,1-5.63,5.45,24.25,24.25,0,0,1-10.49,2.79c-10.24.53-20.47,1.63-30.75,1-7.32-.44-14.69-.52-21.92-1.91a33.58,33.58,0,0,1-9.95-3.14c-2.4-1.31-4.25-3.12-4.5-6a7.59,7.59,0,0,1,8.58-7.83C9.32,148.67,10,148.87,10.85,149.05ZM40.5,164.54c9.08.72,18.12-.08,27.18-.35a19,19,0,0,0,10.5-3.61,8.88,8.88,0,0,0,3.67-4.72,3.18,3.18,0,0,0-.77-3.6c-1.14-1-2.25-.33-3.32.25-.14.07-.26.18-.39.26a1.05,1.05,0,0,1-1.43-.08,1,1,0,0,1-.15-1.3c.95-1.62.65-3.34.37-5A25.45,25.45,0,0,0,71.54,136c-4.66-6.67-10.51-11.7-18.81-13.15-6.27-1.1-11.41.81-15.22,6a23.5,23.5,0,0,0-3.73,8.53,2.3,2.3,0,0,0,.74,2.6,9,9,0,0,1,3,5.16,2.3,2.3,0,0,1-1,2.6,2.36,2.36,0,0,1-2.77-.34,6.18,6.18,0,0,1-2.7-4.75c0-2.6-1.46-3.39-3.58-3.76-.67-.12-1.32-.29-2-.41C17.69,137.11,12,143.28,14,150.94c.15.57.28,1.16-.28,1.57a1.22,1.22,0,0,1-1.58-.19,9.06,9.06,0,0,0-2.83-1.63,5.6,5.6,0,0,0-6.59,3.16c-1,2-.32,4.19,2,5.77a19.61,19.61,0,0,0,5.14,2.22c5.75,1.92,11.79,2,17.72,2.61C31.82,164.9,36.18,164.54,40.5,164.54Z"/><path class="cls-1" d="M324,214.33a42.3,42.3,0,0,1,2.5-12.94c3.31-8.37,9.1-14.07,17.75-16.74A2.21,2.21,0,0,0,346,182.8c1.29-5.45,4.39-9.85,8.29-13.73a71.51,71.51,0,0,1,14.91-11,92,92,0,0,0,10-6.39,33.07,33.07,0,0,0,11.49-15.58,2.67,2.67,0,0,1,.1,2.35c-1.77,5.82-5.39,10.4-9.87,14.33-3.86,3.38-8.34,5.88-12.64,8.62a62.13,62.13,0,0,0-14.43,12.12,24.61,24.61,0,0,0-5.24,9.87l5-.43a29.93,29.93,0,0,1,13.63,2c5.6,2.21,8.59,6.59,8.12,11.66s-5.12,10.11-10.4,11.2a14.09,14.09,0,0,1-13.34-4,20.69,20.69,0,0,1-6.33-14.68c0-.88,0-1.76,0-2.82a23.94,23.94,0,0,0-10.45,5.56c-4.92,4.56-7.5,10.42-8.88,16.86-.4,1.87-.51,3.81-.76,5.72-.14,1.09-.52,1.74-1.84,1.31a4.34,4.34,0,0,0-4,.93,23.71,23.71,0,0,0-6,6.49,3.41,3.41,0,0,0-.62,2.21c0,.38,0,.76-.51.81s-.62-.28-.78-.63a2.16,2.16,0,0,1-.18-1.22c.49-3.93,6-9.58,9.86-10.15C322.1,214,323,214.45,324,214.33Zm32.12-29.71a41.64,41.64,0,0,0-6.68.59,1.53,1.53,0,0,0-1.54,1.73,22.47,22.47,0,0,0,.3,5.6,18.17,18.17,0,0,0,6.88,11.37,11.52,11.52,0,0,0,16.53-2.72c3.42-5,2.21-10.62-3-13.64C364.73,185.32,360.48,184.68,356.11,184.62Z"/><path class="cls-1" d="M95.76,19.9c4.67-.75,9.19-.19,13.7,0q7.56.3,15.12.81c7,.46,14,1,21,1.55,2,.17,2.55,1.52,1.22,3a31.44,31.44,0,0,1-9.71,7.44c-.07,4.36-1.8,8.55-2.66,12.92-.25,1.27-.27,2.59-.51,3.86-.31,1.7-1.1,2.16-2.77,1.71-4.07-1.1-8-2.69-11.95-4.09a4,4,0,0,0-3.13.12c-3.57,1.57-7.18,3.06-10.79,4.53-2,.82-2.41.63-2.77-1.43a77.06,77.06,0,0,0-3-11.13A67.45,67.45,0,0,1,96.74,23C96.65,21.9,95.69,21.14,95.76,19.9Zm3.54,1.75c0,.53.38.7.63.92q6.9,6.1,13.54,12.5A32.21,32.21,0,0,0,123.23,42a18.62,18.62,0,0,1,5.26,3.48l3.79,3.35c.31-5.71,3-10.59,3.76-15.91-6.3-1.8-12.35-3.83-18.38-5.92A140.94,140.94,0,0,0,99.3,21.65Zm.09,2.87c.46,8.92,3.73,17.21,4.86,26.09,5.9-2.75,11.64-5.48,18.11-7.36C113.33,38.26,106.85,30.81,99.38,24.52Zm46.38-1-42.37-2.16a14.89,14.89,0,0,0,1.45.56c9.29,2.29,18.37,5.29,27.46,8.23,2.65.86,4.9,1.41,6.8-1.2a4.61,4.61,0,0,1,1-.76A51.55,51.55,0,0,0,145.76,23.51ZM129.52,48.92c-1.71-1.53-3.17-2.82-4.62-4.15a1.23,1.23,0,0,0-1.29-.29c-1.28.41-2.54.85-4.11,1.38Z"/><path class="cls-1" d="M103.3,129.31a31.84,31.84,0,0,1,11.29-9c6.44-2.93,12.56-1.46,16.37,3.93,3.11,4.39,1.59,9.32-3.56,11-5.75,1.83-11.52,1.12-17.21-.5a35.75,35.75,0,0,1-6-2.56,20,20,0,0,0-3.8,10.11A15.16,15.16,0,0,0,103,152.65c-1,.68-1.5.06-2-.45a12,12,0,0,1-2.8-7.15,20.2,20.2,0,0,1,3.16-13c.24-.39.46-.79.73-1.25-.6-.51-1.16-1-1.68-1.46-5.54-5.22-7.51-11.75-6.73-19.15C94.92,98.5,101.95,90.77,111.57,85a56.72,56.72,0,0,1,24.65-7.72,110.42,110.42,0,0,1,13.42.11c.57,0,1.1.09,1.13.77s-.55.84-1.08.84c-1.51,0-3,0-4.53-.13a55.4,55.4,0,0,0-32.56,7.85C106.39,90.44,101,95.14,98,101.95c-2.84,6.44-3.52,13-.75,19.72A18.19,18.19,0,0,0,103.3,129.31Zm2,1.33c.61.34,1.05.6,1.5.85a29.73,29.73,0,0,0,14,3.34,16.63,16.63,0,0,0,7-1.22c3.49-1.54,4.41-5,2.2-8.11a10.52,10.52,0,0,0-12.55-4A28.13,28.13,0,0,0,105.27,130.64Z"/><path class="cls-1" d="M232.37,17.19a17.46,17.46,0,0,1,7.14-1.84c15.28-1,25.52,6.46,32.6,19.3a43.06,43.06,0,0,1,4.75,16.87c.83,8.44,1.51,16.91,3.69,25.16,3,11.37,9.56,20.21,19.16,26.88.47.32,1.16.61.77,1.29s-1.08.32-1.63,0a33.8,33.8,0,0,1-8.41-6.42c-7.77-7.63-12-16.94-13.69-27.63-1.16-7.3-1.84-14.67-3.11-21.95-1.69-9.74-5.78-18.23-13.5-24.69-4.68-3.91-10.25-5.64-16.22-6.28a45,45,0,0,0-9.51-.08C233.78,17.92,233,18.14,232.37,17.19Z"/><path class="cls-1" d="M286.06,248.18l2.73-11.92c.2-.86.4-1.7,1.8-1l-1.54,6.07c-.61,2.42-1.26,4.82-1.83,7.25-.19.81-.43,1-1.36.91-2.33-.19-4.68,0-7-.09-14.74-.32-29.48-.62-44.22-1-13.91-.36-27.81-.86-41.72-.88-.74,0-1.35-.07-1.61-.88L187.4,234.4c1.2-.2,1.59.39,1.87,1.29.94,3,2,5.92,2.88,8.9a1.93,1.93,0,0,0,2.08,1.62c10.68.18,21.36.43,32,.64q26.33.51,52.67,1C281.27,247.89,283.6,248.06,286.06,248.18Z"/><path class="cls-1" d="M166.62,105.27a.78.78,0,0,1-1.12,0c-4.38-3.45-8.49-7.11-9.85-12.87S155.07,81.55,159,77a90.25,90.25,0,0,1,9.6-9.38c1.53-1.33,3-2.73,4.52-4.09a22.08,22.08,0,0,0,7.48-14.65c0-.08.11-.14.23-.29.66.44.62,1.13.64,1.77a17.68,17.68,0,0,1-4.78,12.51,85.87,85.87,0,0,1-9.31,8.56A75,75,0,0,0,161.71,77c-6.65,7.08-4.56,16-.62,21.68a28.25,28.25,0,0,0,4.83,5.3C166.29,104.34,166.85,104.59,166.62,105.27Z"/><path class="cls-1" d="M117.22,230.52a38.32,38.32,0,0,0,9.76-.84c10.83-2.27,20.32-7.31,29-13.95a6.41,6.41,0,0,0,1.66-1.85c.19-.33.52-.56.92-.33a.74.74,0,0,1,.25,1,5,5,0,0,1-1.51,2.15c-9.06,7.46-18.61,14-30.69,15.37a21.9,21.9,0,0,1-7.62-.23A2.09,2.09,0,0,1,117.22,230.52Z"/><path class="cls-1" d="M251.18,136.12c-3.19,2.65-6,5.73-9.32,8.24-.87.66-1.71,1.36-2.62,2-2.63,1.72-4.36,1.62-6.5-.67-3.05-3.26-6-6.64-8.91-10a62.65,62.65,0,0,1-5.22-7,4.15,4.15,0,0,1-.91-1.95l-.05.05c.74-.05,1.1.5,1.5,1,4.48,5.13,9.16,10.1,13.46,15.4.26.32.52.65.79,1,2,2.31,3,2.42,5.36.5,4-3.23,8.28-6.14,12.08-9.63a1.37,1.37,0,0,1,.89-.51c.62.64-.24.92-.25,1.37Z"/><path class="cls-1" d="M400.63,88.54c-1,0-1.12-.52-1.26-1-2.1-7.59-7.51-12.53-13.59-16.93-1.22-.89-2.51-1.68-3.76-2.53-.55-.38-1.15-.72-1.3-1.43.33-.71.83-.34,1.21-.19A32.55,32.55,0,0,1,398.83,81,14.53,14.53,0,0,1,400.63,88.54Z"/><path class="cls-1" d="M316.72,154.36a29.3,29.3,0,0,1,1.47-5.78c1-3.1,2.15-6.17,3.27-9.24.26-.72.61-1.62,1.62-1.28s.43,1.17.31,1.76c-.79,3.86-1.17,7.81-2.46,11.56a11.76,11.76,0,0,1-2,3.87c-.41.49-.89,1-1.6.67S316.77,154.91,316.72,154.36Z"/><path class="cls-1" d="M329.15,162.33a.94.94,0,0,1-.85-.4c-.32-.45,0-.8.23-1.12a15.77,15.77,0,0,1,3.29-3.08c3.39-2.5,6.88-4.85,10.05-7.63.35-.31.74-.68,1.21-.2s.12.87-.17,1.23a12.47,12.47,0,0,1-1,1.15,85,85,0,0,1-10.5,9A5.29,5.29,0,0,1,329.15,162.33Z"/><path class="cls-1" d="M322.77,156.39a3.93,3.93,0,0,1,.79-1.67c2.77-4,6.45-7.16,10.18-10.23.4-.33,1-.87,1.49-.25s-.14.93-.49,1.28a60.34,60.34,0,0,0-7.25,8.73,11.8,11.8,0,0,1-2.78,3.13,1.4,1.4,0,0,1-1.47.22C322.73,157.36,322.73,156.87,322.77,156.39Z"/><path class="cls-1" d="M268,158a16.29,16.29,0,0,1,6,10.22,26.45,26.45,0,0,1,.41,5.43,3.81,3.81,0,0,1-.37,1.66.85.85,0,0,1-1,.54c-.42-.11-.53-.45-.53-.84A26.7,26.7,0,0,0,268,160.18C267.58,159.59,266.94,158.88,268,158Z"/><path class="cls-1" d="M308.75,114.53a18.16,18.16,0,0,1,1.55-6.94,3.64,3.64,0,0,1,2-2.06,1,1,0,0,1,1.16.19c.37.42,0,.72-.17,1.09A19,19,0,0,0,311,117.6a3.49,3.49,0,0,0,.84,2.14c.38.43.85.94.2,1.46s-1.07,0-1.48-.43c-1.41-1.37-1.64-3.18-1.81-5C308.73,115.51,308.75,115.25,308.75,114.53Z"/><path class="cls-1" d="M131.28,55.5a3.88,3.88,0,0,1,1.67,1.25,63.73,63.73,0,0,0,9.5,8.09c.64.45,1.32.84,2,1.27.4.27,1.14.39.84,1.08s-.91.3-1.33.09c-4.91-2.52-9.36-5.63-12.65-10.18-.27-.37-.66-.73-.4-1.25C130.95,55.69,131.16,55.6,131.28,55.5Z"/><path class="cls-1" d="M151.46,57.27c0,.44-.24.69-.67.59a3.34,3.34,0,0,1-1-.48q-5.11-3.29-10.21-6.6a6.63,6.63,0,0,1-2.12-2,1,1,0,0,1,.08-1.42.9.9,0,0,1,1.27.15c3.77,3.37,8,6.1,12.08,9.08C151.17,56.74,151.46,56.89,151.46,57.27Z"/><path class="cls-1" d="M135.61,51.3a2.32,2.32,0,0,1,1.44.86c2.92,2.74,5.65,5.68,8.76,8.22.64.53,1.31,1,2,1.52.31.23.63.46.41.88s-.71.21-1.07.06a4.44,4.44,0,0,1-.8-.49,72.9,72.9,0,0,1-10.77-9.46c-.31-.33-.71-.66-.57-1.2C135.08,51.41,135.34,51.32,135.61,51.3Z"/><path class="cls-1" d="M362.46,271c.38-1.67,1.1-3,1-4.55a39.93,39.93,0,0,0-5.89-19.11,3.34,3.34,0,0,1-.81-1.67c.73.13,1,.68,1.28,1.11a34.67,34.67,0,0,1,6.08,16.62,13.42,13.42,0,0,1-.39,6A2,2,0,0,1,362.46,271Z"/><path class="cls-1" d="M191.56,107.75a3.08,3.08,0,0,1,1.28,3.08c-.21,4.15-2.33,7.47-4.75,10.65-.24.31-.56.76-1,.38s-.06-.74.14-1.08a35.69,35.69,0,0,0,4-10.09C191.47,109.77,191.36,108.85,191.56,107.75Z"/><path class="cls-1" d="M154.94,165.28c1.39-.26,2,.81,2.58,1.61a19.42,19.42,0,0,1,3.25,8.48c.14.73.81,2-.2,2.2s-.76-1.21-1-1.86a41.59,41.59,0,0,0-4.1-8.86C155.23,166.44,154.73,166.1,154.94,165.28Z"/><path class="cls-1" d="M284.27,146.45c1.16,3.76,3.76,5.56,7.35,6.15-.84,1.36-2.6,1.2-5-.36C283.92,150.48,283,148.31,284.27,146.45Z"/><path class="cls-1" d="M292.67,93.33c2.82,1.93,5.94,2.71,9,3.66.42.13,1.12,0,1,.65s-.78.44-1.25.39a21.63,21.63,0,0,1-7.8-2.52C292.9,95.08,292.06,94.58,292.67,93.33Z"/><path class="cls-1" d="M193.72,119.53a9.11,9.11,0,0,1-3.12,5.3.72.72,0,0,1-1,.11.73.73,0,0,1-.09-1.1,50.83,50.83,0,0,0,2.69-4.9c.22-.4.45-.91,1-.72S193.69,118.85,193.72,119.53Z"/><path class="cls-1" d="M402.33,53.94a2.12,2.12,0,0,1-2,2.15,1.4,1.4,0,0,1-1.55-1.55,2.11,2.11,0,0,1,2-2.16A1.44,1.44,0,0,1,402.33,53.94Z"/><path class="cls-1" d="M126.75,104c-.9,0-1.68-.44-1.59-1.55s.51-2.05,1.88-2a1.66,1.66,0,0,1,1.72,1.8C128.76,103.37,128,104,126.75,104Z"/><path class="cls-1" d="M137.92,99.56c0-1.1.53-1.74,1.56-1.77a1.53,1.53,0,0,1,1.69,1.62c0,1.18-.72,1.65-1.76,1.7S138,100.43,137.92,99.56Z"/><path class="cls-1" d="M66.77,218.73c-.25,1-.53,2-1.86,1.86a1.36,1.36,0,0,1-1.23-1.66c.11-1.16.92-1.5,2-1.46A1,1,0,0,1,66.77,218.73Z"/><path class="cls-1" d="M57.25,216c-.35.83-.66,1.72-1.74,1.72a1.37,1.37,0,0,1-1.45-1.62,1.52,1.52,0,0,1,1.79-1.51C56.71,214.66,57.09,215.24,57.25,216Z"/><path class="cls-1" d="M171.05,111.19c-.13.67-.09,1.4-.92,1.48s-.86-.59-1.05-1.11a.78.78,0,0,1-.05-.14c-.12-.74-.48-1.51.12-2.21a.75.75,0,0,1,1-.14C171,109.56,170.84,110.49,171.05,111.19Z"/><path class="cls-1" d="M272.81,224.65c-.13.84-.06,1.85-1.21,1.9-.89,0-1.07-.72-1-1.44,0-.94.35-1.88,1.4-2S272.72,224.06,272.81,224.65Z"/><path class="cls-1" d="M273.64,224.84c.07-.86.19-1.73,1.27-1.85.62-.07,1.09.37.9.95-.27.83-.3,2-1.35,2.24S273.72,225.43,273.64,224.84Z"/><path class="cls-1" d="M251.18,136.12l.31-.31c1.2-.18,1.44.41,1.12,1.42-.17.52-.39,1-.59,1.53l0,0c-.44,0-.7.73-1.22.3s-.25-.93-.1-1.42Z"/><path class="cls-1" d="M405,45.56A1.42,1.42,0,0,1,406.29,47a.85.85,0,0,1-.92,1A1.16,1.16,0,0,1,404,46.88,1.1,1.1,0,0,1,405,45.56Z"/><path class="cls-1" d="M252,138.75c.42-.25.82-.73,1.35-.24s.16.87,0,1.29c-.21.65-.32,1.4-1.16,1.69-.9-.95.21-1.92-.17-2.79Z"/><path class="cls-1" d="M327.34,250.89c-1.91,0-3.7,0-5.49,0-1.45,0-3.24-.29-4.29.42-2.59,1.75-5.59,1.92-8.37,2.84-15.15,5-29.61,11.63-44,18.44-4.7,2.22-9.53,4.18-14.09,6.69-.36.2-.8.47-1.09,0s.15-.85.55-1.11a99.5,99.5,0,0,1,9.36-5c8.76-4.35,17.68-8.36,26.71-12.12a4.32,4.32,0,0,0,1.19-.7,145.86,145.86,0,0,0-22.59,9.38c-.24-1.28.62-1.36,1.13-1.63A198.52,198.52,0,0,1,289,258.18a143.14,143.14,0,0,1,23.34-7.09,43.34,43.34,0,0,1,14.41-.78C327,250.34,327.16,250.4,327.34,250.89Z"/><path class="cls-1" d="M297.85,240.15a24.4,24.4,0,0,1-2.55,7.24c-.18.35-.41.64-.83.49a.7.7,0,0,1-.4-.9,45.49,45.49,0,0,1,2.33-7.7c.18-.4.45-.77.93-.64C298,238.83,297.78,239.46,297.85,240.15Z"/><path class="cls-1" d="M308.41,188h2.68c.69,0,1.27.21,1.33,1a1.1,1.1,0,0,1-1,1.22,31.92,31.92,0,0,1-9.43,1c-.9-.08-1.67-.49-1.66-1.52s.75-1.29,1.6-1.35l4-.27c-.09-5,.43-9.89.63-15-1,.41-1.3,1.28-1.72,2-.87,1.42-1.63,2.9-2.5,4.32-.35.58-.88,1.16-1.66.73s-.49-1.08-.25-1.67a23.53,23.53,0,0,1,6.53-9,1.29,1.29,0,0,1,1.44-.31,1.52,1.52,0,0,1,.83,1.56c-.1,2.49-.24,5-.37,7.48C308.74,181.39,308.58,184.64,308.41,188Z"/><path class="cls-1" d="M247.87,92.58c-.56-1.65-1.47-3.24-.3-4.89.5.05.7.23.78.49a13.86,13.86,0,0,0,4.53,6c.46.4,1.11.87.64,1.55s-1.23.34-1.82,0c-.86-.49-1.68-1-2.61-1.61-.92.73-1.84,1.55-2.85,2.27-5.8,4.11-12,5-18.59,2.14a10.27,10.27,0,0,1-3.34-2.27,1.73,1.73,0,0,1-.41-2.26C232.21,99.81,240.23,99.31,247.87,92.58Z"/><path class="cls-1" d="M249.87,72.87c0-2.28,1.39-4,3.22-4,3,0,5.61,2.41,5.56,5.15a4,4,0,0,1-4,4.22A5.05,5.05,0,0,1,249.87,72.87Z"/><path class="cls-1" d="M216.43,73.18c0-2.79,1.49-4.6,3.79-4.57A4.41,4.41,0,0,1,224.88,73c0,2.73-1.44,4.61-3.59,4.6A4.65,4.65,0,0,1,216.43,73.18Z"/><path class="cls-1" d="M236.91,91.79c-1.89-.1-3.2-.38-3.84-1.83a1.06,1.06,0,0,1,.13-1.31c.48-.41.8,0,1.18.3a3.24,3.24,0,0,0,4,.26c.55-.32,1.22-1,1.75-.13s-.25,1.33-.82,1.76A3.89,3.89,0,0,1,236.91,91.79Z"/><path class="cls-1" d="M347.44,47.68c1.54,2,.36,3.78-.14,5.63-.17.61-.41,1.13,0,1.74a1.64,1.64,0,0,1,.1,1.37c-.8,3.19-6.76,5.84-9.67,4.25-1-.56-1.31-1.85-2.23-2.63s-.62-2.1,0-3.17c.15-.28.34-.54.07-.84-1.19-1.36-.76-2.68.16-4a4.2,4.2,0,0,1-1.27-2.45c-.06-.77-.78-.75-1.26-1-7.08-3.42-10.81-9.74-10.07-17.44.46-4.78,3-8.5,6.7-11.39,7.07-5.45,18.54-5,25.2.94,8.72,7.77,6.74,21.59-3.92,27.32C349.93,46.62,348.73,47.09,347.44,47.68ZM335.09,44a4.45,4.45,0,0,0,2.46-3,29.94,29.94,0,0,0,1.12-5.81c.09-.63-.25-.93-.69-1.26a5.76,5.76,0,0,1-2.4-5.3c.06-1.1.2-2.2,1.47-2.44s1.78.84,2.2,1.8a17.53,17.53,0,0,1,1,4.24c.08.48.1.9.74,1a2.21,2.21,0,0,0,2.47-2.23,12.83,12.83,0,0,1,.39-5.41c.32-.87.83-1.59,1.91-1.55s1.54.75,1.81,1.66c.52,1.76-.18,3.28-1,4.74-.46.81-.72,1.43.16,2.14a1.91,1.91,0,0,0,2.55.2,6.37,6.37,0,0,0,1.06-1.13c.36-.43.76-.74,1.34-.5a1.08,1.08,0,0,1,.58,1.32,17.56,17.56,0,0,1-.54,2.11,57.75,57.75,0,0,0-2.1,9.76,14.14,14.14,0,0,0,8.74-14A16.65,16.65,0,0,0,341.9,15.7a15.39,15.39,0,0,0-15.17,11.6C325.19,33.83,328.64,40.75,335.09,44Zm12.2,1.22a19.73,19.73,0,0,1,.18-5,38.39,38.39,0,0,1,1.24-5.17,4.38,4.38,0,0,1-4.34-1.61,6.57,6.57,0,0,1-4,1.74c-.07,3.55-.48,7-2.72,9.86A14.3,14.3,0,0,0,347.29,45.27Zm-1.15,7.52c-.51-1-.51-1,0-2.06a1.67,1.67,0,0,0-1.32-2.45,37.14,37.14,0,0,1-8.54-.46c.49.54.64.83.89,1,1.28.7,1.63,1.36.16,2.3a1.17,1.17,0,0,0-.17,2c.83.77.82,1.39.08,2.24s-.49,1.71.73,2a15.82,15.82,0,0,0,4,.62,3.85,3.85,0,0,0,3.23-1.21c.51-.59.75-1-.15-1.59s-.94-1.21.15-1.68A1.62,1.62,0,0,0,346.14,52.79Z"/><path class="cls-1" d="M363.65,29.18c1.41,6.12-6.89,18.14-12.07,17.52C357.62,42.14,362.9,37.21,363.65,29.18Z"/><path class="cls-1" d="M330,13.22c-.12.79-.55,1.24-1.46.69a6.41,6.41,0,0,1-2.84-4.31A1,1,0,0,1,327,8.44C327.68,8.75,330,12.34,330,13.22Z"/><path class="cls-1" d="M320.33,38.82c2.52,2.79,5.72,4.72,8.83,6.94C327.16,46.83,320.75,41.84,320.33,38.82Z"/><path class="cls-1" d="M345,8.6c-.16,1.06.16,2.69-1.32,2.72s-1.29-1.6-1.33-2.66a11.55,11.55,0,0,1,.33-2.44c.1-.55.37-1,1-1s.8.44.91.92A7.52,7.52,0,0,1,345,8.6Z"/><path class="cls-1" d="M359.65,12.9c0,1.73-1.25,3.2-2.28,3.15-.85,0-1.2-.54-1.16-1.34a3.52,3.52,0,0,1,2.54-2.46C359.42,12.26,359.64,12.66,359.65,12.9Z"/><path class="cls-1" d="M127.79,187.42a37.65,37.65,0,0,1-4.37,6.39c-1.69,1.86-3.66,3.13-6.33,2.48a6.16,6.16,0,0,1-4.76-6.06,13.32,13.32,0,0,1,6.42-12c2.86-1.84,6.93-.58,9.39,2.15a8.69,8.69,0,0,1,2.07,5.39,13.28,13.28,0,0,0,1.09,4.38c.64,1.36,1.45,2.72,3.1,2.74s2.61-1.39,3.2-2.82a12.64,12.64,0,0,0,.37-8.71,16.07,16.07,0,0,0-15.84-11.79,9.29,9.29,0,0,0-5,1.56c-5.31,3.5-8.79,8.19-9.39,14.73-.77,8.36,6.29,16.62,14.61,17,3,.13,5.67-1.12,8.25-2.54a8.55,8.55,0,0,1,2.39-1.14c.45-.09.85-.11,1.08.34s-.06.7-.31,1a2.35,2.35,0,0,1-.47.41c-13.61,8.74-25.8.8-27.88-11.14-1.57-9,4.87-19.14,13.66-21.7a17,17,0,0,1,18.41,7.29,16.12,16.12,0,0,1,2.36,14.55,8.06,8.06,0,0,1-.75,1.71c-1.14,1.92-2.59,3.51-5,3.42s-4.08-1.71-5.06-3.86A33.51,33.51,0,0,1,127.79,187.42Zm.05-3.62c0-.51.17-1-.11-1.52-1.14-2.15-5.42-3.46-7.62-2.29-3.25,1.73-5.91,7.15-5.27,10.81a4.63,4.63,0,0,0,2.92,3.77c1.67.66,3-.07,4.28-1.11a17.26,17.26,0,0,0,3.16-3.64C126.45,188,127.94,186.23,127.84,183.8Z"/></g></g></svg>