<svg xmlns="http://www.w3.org/2000/svg" viewBox="0 0 33.19 23.99"><defs><style>.cls-1{fill:#fff;}</style></defs><title>ico_mail</title><g id="Layer_2" data-name="Layer 2"><g id="footer"><path class="cls-1" d="M32.47.51A2.3,2.3,0,0,0,31,0,4.23,4.23,0,0,0,29,.52C27.25,1.46,26.61,3.41,26,5.3c-.22.67-.45,1.36-.73,2l-1.32-2-.18-.26a.91.91,0,0,0-1.2-.27L8.13,13.53a.89.89,0,0,0-.3,1.22l.63,1.06L9,16.7c-.62,0-1.39,0-2.15,0l-1.23,0a6.08,6.08,0,0,0-4.31,1.26A3.17,3.17,0,0,0,.12,21.16a2.17,2.17,0,0,0,2,1.36,1.91,1.91,0,0,0,.74-.14A2.26,2.26,0,0,0,4,21.14a2.29,2.29,0,0,0,.14-.48A2,2,0,0,0,5.71,21,1.82,1.82,0,0,0,7.08,19.6a2.16,2.16,0,0,0,.92.2,2.06,2.06,0,0,0,1.23-.4A2,2,0,0,0,10,18.29c1.1,1.81,2.25,3.62,3.51,5.33a.9.9,0,0,0,.72.36.89.89,0,0,0,.38-.09,85.12,85.12,0,0,0,14.73-9,.89.89,0,0,0,.2-1.2c-1-1.44-2.1-3.15-3.29-4.94a2.21,2.21,0,0,0,.37,0,2,2,0,0,0,1.11-.32,2.13,2.13,0,0,0,.92-2,1.83,1.83,0,0,0,1.74-.82,2,2,0,0,0,.25-1.54,2.28,2.28,0,0,0,.41,0,2.26,2.26,0,0,0,1.65-.69A2.07,2.07,0,0,0,33.18,2,2.07,2.07,0,0,0,32.47.51Zm-7.7,7.24.15.23h0L25,8c1.34,2,2.66,4,3.76,5.63-2.37-1.09-4.81-2.07-7.27-2.94L23.62,6Zm-1.88-2.4a.25.25,0,0,1,.13,0,.24.24,0,0,1,.17.08l-3.89,8.52a2.28,2.28,0,0,1-2.38,1.3L8.58,14Zm-14,13.53A1.52,1.52,0,0,1,7,18.8l-.58-.53,0,.79a1.2,1.2,0,0,1-.92,1.27,1.4,1.4,0,0,1-1.5-.72l0-.06-.59.27,0,0a1.37,1.37,0,0,1,0,1,1.6,1.6,0,0,1-.83.88,1.27,1.27,0,0,1-.49.09,1.5,1.5,0,0,1-1.4-.93,2.56,2.56,0,0,1,1-2.53,5.53,5.53,0,0,1,3.87-1.09l1.21,0c.78,0,1.6,0,2.24,0l0,0a2.91,2.91,0,0,1-.37.1,4.4,4.4,0,0,1-.49.1c-.74.13-1.77.15-2.8.25-.26,0-.51.06-.76.13a6.7,6.7,0,0,0-.73.19,5.62,5.62,0,0,0-.65.27,3.38,3.38,0,0,0-.54.32l-.23.16-.18.18a1.58,1.58,0,0,0-.27.3l-.2.29.22-.28a1.56,1.56,0,0,1,.28-.28l.19-.16.23-.15a3.29,3.29,0,0,1,.54-.28A5.49,5.49,0,0,1,4,18.3a6.54,6.54,0,0,1,.71-.14c.24,0,.5-.06.75-.08,1,0,2,0,2.83-.09a4.8,4.8,0,0,0,.54-.07,3.34,3.34,0,0,0,.41-.09l.15,0v0A1.46,1.46,0,0,1,8.84,18.89ZM9,15.48l-.49-.82,5.09.73a27.05,27.05,0,0,0,.08,7.43C12,20.47,10.48,17.94,9,15.48Zm5.38,7.79a28.22,28.22,0,0,1-.14-7.78l2.57.37a2.84,2.84,0,0,0,.41,0,2.92,2.92,0,0,0,2.65-1.7l1.31-2.86c2.59.91,5.15,1.95,7.63,3.1A84.48,84.48,0,0,1,14.4,23.27ZM32.2,3.07A1.63,1.63,0,0,1,31,3.54a1.33,1.33,0,0,1-.91-.32l0,0-.45.46,0,0a1.39,1.39,0,0,1,.17,1.66,1.22,1.22,0,0,1-1.51.43l-.73-.31.3.73a1.48,1.48,0,0,1-.54,1.73,1.38,1.38,0,0,1-.76.21,1.52,1.52,0,0,1-.75-.2,1.6,1.6,0,0,0,.3-.27,4.67,4.67,0,0,0,.38-.44c.11-.17.25-.35.36-.55A6.81,6.81,0,0,0,27.2,6c.19-.45.39-.93.61-1.4.11-.23.21-.48.32-.7l.39-.65L29,2.74a4,4,0,0,1,.43-.46,4.66,4.66,0,0,1,.39-.36l.33-.25.28-.22-.3.2-.34.23a4.69,4.69,0,0,0-.41.34,4.1,4.1,0,0,0-.46.44l-.47.54L28,3.83c-.14.23-.25.46-.37.69-.25.47-.48.93-.69,1.37a6.4,6.4,0,0,1-.34.6c-.11.19-.25.34-.36.49a1.82,1.82,0,0,1-.2.22c.22-.55.41-1.13.6-1.69.61-1.85,1.19-3.6,2.74-4.41A2.55,2.55,0,0,1,32.06,1a1.42,1.42,0,0,1,.48,1A1.42,1.42,0,0,1,32.2,3.07Z"/></g></g></svg>