<svg xmlns="http://www.w3.org/2000/svg" viewBox="0 0 35.7 24.38"><defs><style>.cls-1{fill:#fff;}</style></defs><title>ico_call</title><g id="Layer_2" data-name="Layer 2"><g id="footer"><path class="cls-1" d="M4.54,10.74c-1,.31-2,.68-2.95,1.08a.29.29,0,0,0-.15.4,3.83,3.83,0,0,0,.67,1,.29.29,0,0,0,.41,0l2.3-2a.29.29,0,0,0-.28-.5ZM2.35,12.59a3.24,3.24,0,0,1-.24-.35l1.17-.45Z"/><path class="cls-1" d="M8.36,13.28a.3.3,0,0,0-.37.05c-.71.77-1.39,1.58-2,2.4a.29.29,0,0,0,.06.42,3.84,3.84,0,0,0,1.07.53H7.2a.29.29,0,0,0,.28-.2l1-2.87A.29.29,0,0,0,8.36,13.28ZM7,16a3.24,3.24,0,0,1-.38-.19q.38-.49.79-1Z"/><path class="cls-1" d="M12,15.37a.29.29,0,0,0-.58,0c-.16,1-.28,2.08-.35,3.12a.29.29,0,0,0,.29.31h.09a3.83,3.83,0,0,0,1.09-.16.29.29,0,0,0,.2-.35Zm-.31,2.86c0-.42.07-.83.12-1.25l.3,1.19Z"/><path class="cls-1" d="M35.11,23.1a.67.67,0,0,1-.39.54,1.35,1.35,0,0,1-1.24,0,4,4,0,0,1-1.29-1.72L32,21.63c-.6-1.15-1.28-1.77-2.09-1.89A3.55,3.55,0,0,0,28,20.2a2.47,2.47,0,0,1-1.75.34c-.79-.28-1-1.36-1-2.27,0-.17,0-.34,0-.51A4.21,4.21,0,0,0,25,15.14c-.72-1.17-2.2-1.34-3.51-1.28a6.09,6.09,0,0,0,.31-1.79A7.79,7.79,0,0,0,20,7.27a15.47,15.47,0,0,0-4.17-3.53A34.88,34.88,0,0,0,10.17.9a9.82,9.82,0,0,0-4-.89,6.73,6.73,0,0,0-4.23,1.9,8,8,0,0,0-1.83,3A1.37,1.37,0,0,0,.68,6.6L2.44,7.67,4.27,8.77A1.51,1.51,0,0,0,5,9a1.49,1.49,0,0,0,1.11-.49,4.15,4.15,0,0,0,1.09-3,16.24,16.24,0,0,1,8.65,5,4.08,4.08,0,0,0-1.65,1.82,1.67,1.67,0,0,0,.71,2.16l1.59.9,1.66.94a1.73,1.73,0,0,0,.84.22,1.76,1.76,0,0,0,1.32-.6,5.67,5.67,0,0,0,.9-1.45c1.2-.09,2.62,0,3.23,1a3.73,3.73,0,0,1,.26,2.27c0,.17,0,.35,0,.52-.06,1.12.26,2.47,1.36,2.86a2.92,2.92,0,0,0,2.19-.35,3.07,3.07,0,0,1,1.62-.41c.61.09,1.15.61,1.66,1.58l.14.27a4.4,4.4,0,0,0,1.51,2,1.83,1.83,0,0,0,.93.25,1.9,1.9,0,0,0,.88-.21,1.25,1.25,0,0,0,.7-1ZM5,8.4a.92.92,0,0,1-.47-.13L2.75,7.17,1,6.09a.79.79,0,0,1-.33-1l.2-.47c.9.51,1.75,1,2.57,1.54S5.1,7.21,6,7.72a3.85,3.85,0,0,1-.29.38A.9.9,0,0,1,5,8.4Zm11.45,2.45a.29.29,0,0,0,.1-.46A16.82,16.82,0,0,0,6.95,4.88H6.9a.29.29,0,0,0-.29.35,3.3,3.3,0,0,1-.31,2c-.89-.51-1.74-1-2.56-1.54S2,4.62,1.1,4.1A5.81,5.81,0,0,1,2.34,2.34,6.14,6.14,0,0,1,6.19.59,9.39,9.39,0,0,1,10,1.44a34.28,34.28,0,0,1,5.59,2.8,14.93,14.93,0,0,1,4,3.39,7.2,7.2,0,0,1,1.64,4.43,5.57,5.57,0,0,1-.35,1.84l-.17,0,0,.31c-.07.16-.15.31-.23.46-1.8-1-3.57-1.78-5.43-2.6h0A3.42,3.42,0,0,1,16.48,10.85Zm2,4.94-1.65-.93L15.23,14a1.08,1.08,0,0,1-.48-1.34l.06,0c1.84.81,3.59,1.57,5.35,2.56-.08.11-.17.23-.26.33A1.18,1.18,0,0,1,18.47,15.79Z"/></g></g></svg>