<svg xmlns="http://www.w3.org/2000/svg" viewBox="0 0 18.47 24.34"><defs><style>.cls-1{fill:#fff;}</style></defs><title>ico_location</title><g id="Layer_2" data-name="Layer 2"><g id="footer"><path class="cls-1" d="M17.84,4.91A6.79,6.79,0,0,0,11.63.09h-.15a5.06,5.06,0,0,0-.54,0A6,6,0,0,0,9.75,0H9.64A7,7,0,0,0,3.41,4.88a14.69,14.69,0,0,0,.27,9.29c.76,2.29,2.8,5.44,4.44,8,.45.69.86,1.33,1.19,1.87l0,0,.12.15a.37.37,0,0,0,.29.14h0a.36.36,0,0,0,.21-.09h1.61a.28.28,0,0,0,.24-.13c.35-.56.78-1.23,1.25-2,1.67-2.57,3.75-5.77,4.49-8A14.6,14.6,0,0,0,17.84,4.91ZM15.4,17.39a9.42,9.42,0,0,0-1.11,0l.35-.64,1.12,0Zm-.67,1.14H13.66l.4-.68c.45,0,.76-.06,1.12-.06Zm-2.65,4.16-.58,0-.51,0,.34-.52.09-.14L12.48,22h0ZM15.19,2h-.85a7.08,7.08,0,0,0-.53-.48h.09l.62,0A6.17,6.17,0,0,1,15.19,2Zm.91.91-.49,0-.48,0q-.21-.31-.45-.59h.09l.84,0A6.66,6.66,0,0,1,16.09,2.89Zm.63.91-.48,0-.59,0q-.13-.26-.28-.5l.27,0a6.71,6.71,0,0,1,.72-.05h0C16.5,3.44,16.62,3.62,16.73,3.8Zm1,2.82-1.17,0c0-.2-.07-.4-.11-.59l1.17,0C17.63,6.22,17.67,6.42,17.7,6.62Zm.16,3.28-1.19,0c0-.24,0-.47,0-.71l1.19,0C17.9,9.43,17.88,9.66,17.86,9.9Zm0-1.1-1.19,0c0-.28,0-.55,0-.83l1.18,0C17.89,8.25,17.9,8.53,17.9,8.8Zm-1.4,2.62,1.19,0c0,.23-.09.47-.14.71l-1.18,0C16.41,11.89,16.46,11.66,16.5,11.42ZM17.74,11l-1.19,0c0-.24.07-.47.09-.71l1.19,0C17.81,10.53,17.77,10.76,17.74,11Zm.1-3.39-1.18,0c0-.2,0-.41-.06-.61l1.17,0C17.8,7.21,17.82,7.41,17.84,7.61ZM16.32,5.67c-.06-.21-.12-.42-.18-.63H17.3l0,0c.06.18.11.37.16.55Zm.83-1H17c-.32,0-.63,0-1,0-.05-.14-.11-.28-.17-.42l.43,0,.67,0C17,4.34,17.08,4.49,17.15,4.65Zm-3.83-3.5a6.68,6.68,0,0,0-.61-.38,5.5,5.5,0,0,1,1.12.37Zm-.55,20.46-.31,0-.79,0,.43-.66,1.08,0Zm.66-1-1.09,0,.42-.66h1.07Zm.65-1H13l.41-.66h1.06ZM16,16.36l-1.12,0,.33-.66,1.13,0Zm.53-1.05-1.14,0c.1-.23.2-.45.28-.66l.68,0,.48,0C16.71,14.84,16.61,15.07,16.5,15.3ZM17,14l-.09.26-.66,0-.51,0,0-.11c.06-.18.11-.36.16-.54l1.17,0C17.11,13.72,17.08,13.84,17,14Zm.22-.76-1.17,0c.07-.24.12-.47.18-.71l1.18,0C17.4,12.73,17.33,13,17.27,13.2ZM8.74,21.75c-1.62-2.5-3.63-5.61-4.36-7.81a14,14,0,0,1-.27-8.82A6.27,6.27,0,0,1,9.64.74h.15a6.15,6.15,0,0,1,5.6,4.38,14,14,0,0,1-.27,8.82c-.72,2.18-2.86,5.47-4.42,7.87l-1,1.49Zm2.69,1.95H10.36l.36-.56.78,0h.31Z"/><path class="cls-1" d="M13.93,7.85A4.18,4.18,0,1,0,9.75,12,4.18,4.18,0,0,0,13.93,7.85Zm-7,1.94,1.39,0a5.11,5.11,0,0,0,.41.64l-1.23,0A3.46,3.46,0,0,1,6.92,9.79ZM6.43,8.71l1.46,0a5.25,5.25,0,0,0,.24.69l-1.44,0A3.41,3.41,0,0,1,6.43,8.71Zm2.29-4H8.38a3.4,3.4,0,0,1,.49-.17Zm-1,.38.71,0A4.29,4.29,0,0,0,8,5.8L7,5.83A3.46,3.46,0,0,1,7.74,5.06Zm-1,1.16,1.17,0A4.11,4.11,0,0,0,7.73,7L6.42,7A3.41,3.41,0,0,1,6.72,6.22ZM6.31,7.85a3.44,3.44,0,0,1,0-.43l1.36,0a4.21,4.21,0,0,0,0,.64c0,.09,0,.18.05.27l-1.45,0A3.43,3.43,0,0,1,6.31,7.85ZM9,10.77a5.5,5.5,0,0,0,.51.5A3.41,3.41,0,0,1,8,10.8Zm4.16-2.93a3.44,3.44,0,0,1-2.81,3.37A4.65,4.65,0,0,1,8.3,7.93,3.72,3.72,0,0,1,9.82,4.42,3.44,3.44,0,0,1,13.18,7.85Z"/><path class="cls-1" d="M4.39,18.78l-.2-.37L4,18,3.55,17c-.17-.33-.27-.71-.43-1.07a11.29,11.29,0,0,1-.41-1.16l-.37-1.22-.27-1.24a9.48,9.48,0,0,1-.19-1.22l-.07-.58A3.35,3.35,0,0,1,1.75,10l0-1,0-.46,0-.42,0-.68c0-.38,0-.6,0-.6s-.05.21-.13.58l-.14.67-.08.41c0,.15,0,.31,0,.47L1.34,10a9.42,9.42,0,0,0,.05,1.19,8,8,0,0,0,.15,1.26l.26,1.29L2.2,15a8.88,8.88,0,0,0,.47,1.18,10.73,10.73,0,0,0,.51,1.07l.54.91c.09.14.16.28.24.4l.26.34.41.55.37.47s-.1-.2-.28-.53Z"/><path class="cls-1" d="M1.56,16.77l-.24-.65c-.09-.23-.15-.49-.24-.74s-.17-.52-.23-.8l-.2-.83L.5,12.9c-.06-.28-.08-.55-.12-.82S.3,11.56.3,11.31l0-.69c0-.43,0-.8,0-1.05v-.4l-.06.4L.08,10a3.77,3.77,0,0,0-.06.59l0,.71a7.91,7.91,0,0,0,0,.79A7,7,0,0,0,.12,13l.14.87.22.85a6.87,6.87,0,0,0,.26.81,7.82,7.82,0,0,0,.29.74l.31.64a3.78,3.78,0,0,0,.29.52l.24.39.22.34L2,17.74C1.86,17.5,1.69,17.18,1.56,16.77Z"/><path class="cls-1" d="M14.29,10.93A4.66,4.66,0,0,1,9,13.38c-.24-.05-.41.25-.12.31A5.15,5.15,0,0,0,14.72,11C14.83,10.81,14.39,10.75,14.29,10.93Z"/><path class="cls-1" d="M13.89,13.08a3.22,3.22,0,0,1-2.14,1.25c-.29,0-.13.35.12.31a3.65,3.65,0,0,0,2.4-1.4C14.43,13,14,12.92,13.89,13.08Z"/></g></g></svg>