<svg xmlns="http://www.w3.org/2000/svg" viewBox="0 0 341.39 186.12"><defs><style>.cls-1{fill:none;stroke:#333945;stroke-miterlimit:10;}.cls-2,.cls-3{fill:#333945;}.cls-3{font-size:38.87px;font-family:FuturaFuturisC-Bold, FuturaFuturisC;font-weight:700;}</style></defs><title>Asset 2</title><g id="Layer_2" data-name="Layer 2"><g id="header"><circle class="cls-1" cx="277.17" cy="7.22" r="6.72" transform="matrix(0.99, -0.16, 0.16, 0.99, 2.25, 43.21)"/><circle class="cls-1" cx="277.17" cy="7.22" r="4.75" transform="translate(2.25 43.21) rotate(-8.95)"/><path class="cls-2" d="M278.37,4.64a2.31,2.31,0,0,0-2.44.29A1.14,1.14,0,0,0,276,6.71a1.84,1.84,0,0,0,1,.39c.32,0,.64,0,1,0s1,0,1,.57c.06.84-1.31,1.07-1.89,1a4.36,4.36,0,0,1-1.82-.78.41.41,0,0,0-.56.56c.92,1.53,4.15,1.61,4.83-.2a1.45,1.45,0,0,0-.63-1.84,3.13,3.13,0,0,0-1.6-.24q-.62.18-.63-.42-.34-.45.2-.61a2.72,2.72,0,0,1,1.46-.4c.08,0,.08-.1,0-.13Z"/><path class="cls-2" d="M276.8,3.82a29.68,29.68,0,0,0,.49,6.9c0,.18.29.12.3,0a29.72,29.72,0,0,0-.5-6.9c0-.17-.28-.12-.29,0Z"/><path class="cls-2" d="M336.85,73.93,324,79a.66.66,0,0,0-.38.86l3.63,9.29a.66.66,0,0,0,.86.38l12.86-5a.66.66,0,0,0,.38-.86l-3.63-9.29A.66.66,0,0,0,336.85,73.93Zm-1.2,1.9-3.28,6.07-6.27-2.34Zm4.22,7.63L328.25,88l-2.85-7.28,7,2.63a.66.66,0,0,0,.82-.31L337,76.13l2.87,7.33Z"/><path class="cls-2" d="M323.14,85.2l-1.07.42a.66.66,0,0,0,.48,1.24l1.07-.42a.66.66,0,0,0-.48-1.24Z"/><path class="cls-2" d="M324.13,87.72l-2.89,1.13a.66.66,0,1,0,.48,1.24L324.61,89a.66.66,0,1,0-.48-1.24Z"/><path class="cls-2" d="M322.16,82.69l-2.89,1.13a.66.66,0,0,0,.48,1.24l2.89-1.13a.66.66,0,1,0-.48-1.24Z"/><text class="cls-3" transform="translate(0 175.94)">SAGEMAILER</text><path class="cls-2" d="M320.63,117.31l-.8-.14h0a.55.55,0,0,1-.34-.89l.73-.92h0a13.63,13.63,0,0,0,2.77-8.5,18.71,18.71,0,0,0-3-9.4c-.4-.64-.8-1.38-1.23-2.18s-.83-1.53-1.24-2.23h0q-.5-1-.3-1.44t1.2-.61l.27-.05a.55.55,0,0,0,.45-.54v-.28a6.48,6.48,0,0,0-.41-2.32,5.4,5.4,0,0,0-1.23-1.89l-.29-.29-.41,0a9.64,9.64,0,0,0-2.45.51,4.9,4.9,0,0,0-2.66,2.1,5.66,5.66,0,0,0-.64,3.45,13.43,13.43,0,0,0,.82,3.38l0,0,0,.07c1.36,2.55,3.16,6.21,3.4,9.22.21,2.67-1,4.85-5.25,5.08H310l-1.15.15c-4.23.53-9.16,1.16-10.63,3.18a2.55,2.55,0,0,0-.45,1l-.35,0a11.18,11.18,0,0,0-5.52,2.08,8.42,8.42,0,0,0-1.79,1.85,8.72,8.72,0,0,0-1.43,6.1q0,.39.12.78a.55.55,0,0,1-.29.6,76.45,76.45,0,0,1-11.68,4.17c-9.66,2.88-18.75,5.59-19.58,15.08a.52.52,0,0,1-.08.24,15.25,15.25,0,0,0-2.31,5.82,21,21,0,0,0,0,7,.55.55,0,0,0,.64.45l.65-.12a.55.55,0,0,0,.44-.63,19.24,19.24,0,0,1,0-6.39,14,14,0,0,1,.74-2.63c0,.11,0,.21,0,.32a19.67,19.67,0,0,0,2.87,7.22,32.24,32.24,0,0,1,1.53,2.94.55.55,0,0,1,0,.51c-3,4.81-5.32,9.42-5.81,11.14-.61,1.52.38,2.44,2.08,3a17.4,17.4,0,0,0,3.51.62.56.56,0,0,1,.45.33,4.21,4.21,0,0,0,2.92,2.51l.35.07a20.49,20.49,0,0,0,3.28.28,28.45,28.45,0,0,0,3.63-.21c2.18-.26,2.89-1,2.81-2.14a5.51,5.51,0,0,0-1.57-2.67,5.32,5.32,0,0,1-1.35-3.25,7.16,7.16,0,0,1,1.07-3.78l0-.05A29,29,0,0,0,275.6,161a.54.54,0,0,1,.25-.25,27.35,27.35,0,0,1,4.42-1.68,21,21,0,0,1,3.59-.68l0,.48a73.43,73.43,0,0,0-.27,11.55h0a11,11,0,0,0,.78,4.59c.68,1.32,1.88,2.1,4.07,2.19l1.06.08c2.47.2,6.8.56,7.6-1.4a2.36,2.36,0,0,0,0-1.81,5.93,5.93,0,0,0-1.13-1.71h0a4.46,4.46,0,0,1-.79-1.34,4.6,4.6,0,0,1-.27-1.55v0a76.29,76.29,0,0,1,.35-10.94l.12.16c2.25,3,4.05,5.83,4.42,7.26v0a5.43,5.43,0,0,1,.22,1.1,5.73,5.73,0,0,1,0,1.16,6.54,6.54,0,0,1-.24,1.13,3,3,0,0,0,.7,3.41,6.14,6.14,0,0,0,3,1.92,15.15,15.15,0,0,0,4.47.64h0a4.53,4.53,0,0,0,2.7-.64,2.49,2.49,0,0,0,1-2.29v-.12a23.78,23.78,0,0,1-.36-3,15.32,15.32,0,0,1,.08-2.59h0a11.13,11.13,0,0,0-.33-4.87,15.14,15.14,0,0,0-2.45-4.76h0c-.79-1.12-1.53-2.08-2.18-2.94-2.84-3.73-4-5.27-1.86-10.53a71.1,71.1,0,0,0,2.77-7.88l.67-.55c3.69-3,7-5.79,8.44-11.09l0-.08v-.1a4.55,4.55,0,0,1,.95-2.46,11.66,11.66,0,0,1,2.85-2.64l.67-.46A.55.55,0,0,0,320.63,117.31Zm-58.22,46.27a7.13,7.13,0,0,1-.4,1.27l0,.05,0,.08c-.14.56-.28,1.23-.41,1.94a19.33,19.33,0,0,0-.28,4.67.54.54,0,0,1-.61.58,12.58,12.58,0,0,1-2.16-.44c-.65-.21-1.07-.44-1-.68l0,0,0-.06a46,46,0,0,1,3.82-7.74A.55.55,0,0,1,262.41,163.57ZM304,140.08c-.35.94-.72,1.88-1.1,2.8-2.54,6.2-1.19,8,2.09,12.26.64.84,1.36,1.77,2.14,2.88v0a13.43,13.43,0,0,1,2.19,4.22,9.41,9.41,0,0,1,.28,4.14v0a17.09,17.09,0,0,0-.09,2.89,25.36,25.36,0,0,0,.37,3.19.82.82,0,0,1-.31.72,2.94,2.94,0,0,1-1.67.32h0a13.41,13.41,0,0,1-3.94-.56,4.45,4.45,0,0,1-2.14-1.35,1.65,1.65,0,0,1-.37-1.84,8.07,8.07,0,0,0,.29-1.41,7.53,7.53,0,0,0,0-1.5,7.25,7.25,0,0,0-.29-1.46h0c-.45-1.68-2.36-4.66-4.7-7.83l-1.05-1.4a.56.56,0,0,1-.11-.42c1.34-8.12,4.26-12.84,7.5-16.27A.55.55,0,0,1,304,140.08Zm2.08-6.78q-.15.68-.33,1.38c-4.48,3.74-9.22,8.28-11.42,18.33-.07.31-.63,3.55-.65,3.7a75.21,75.21,0,0,0-.55,12.77,6.34,6.34,0,0,0,.38,2.12,6.2,6.2,0,0,0,1.1,1.87l0,0a4.26,4.26,0,0,1,.81,1.2.71.71,0,0,1,.06.5c-.31.77-3.84.48-5.84.31-.43,0-.79-.07-1.13-.08-1.44-.06-2.2-.5-2.58-1.25a9.78,9.78,0,0,1-.59-3.86v0a71.73,71.73,0,0,1,.26-11.28c.09-.89.2-1.78.33-2.68-.21.06-1.89.24-2.11.26,0,0-2.67.41-4,.77q-1.08.3-2.18.71a.54.54,0,0,1-.71-.64,12.5,12.5,0,0,0,.37-2.7,10.45,10.45,0,0,0-.14-2,2.57,2.57,0,0,1-1.67.76,8.64,8.64,0,0,1,.06,1.17q-.09,4.15-3.9,9.46l0,0,0,0a8.91,8.91,0,0,0-1.34,4.78,7,7,0,0,0,1.77,4.31,5.22,5.22,0,0,1,1.15,1.67c0,.07-.32.15-1.26.26a26.71,26.71,0,0,1-3.41.21,18.76,18.76,0,0,1-3-.25l-.23,0c-1.25-.31-1.87-1.43-2.13-2.82a15.55,15.55,0,0,1,.15-5.13c.11-.64.23-1.22.35-1.71l0-.07a8.35,8.35,0,0,0,.19-6.06c.31.63-1.42-3.08-2.12-4.4-1.1-2.06-2.35-4.16-2.65-6.58-1.44-11.36,8.06-14.19,18.24-17.23a80.37,80.37,0,0,0,11.57-4.1.55.55,0,0,1,.74.28,12.62,12.62,0,0,0,1.48,2.48,11.61,11.61,0,0,0,2.53,2.45l0,0a14.9,14.9,0,0,0,4,1.78,21.09,21.09,0,0,0,4.32.71.55.55,0,0,0,.58-.53l0-.66a.55.55,0,0,0-.52-.57,19.35,19.35,0,0,1-3.94-.65,13.21,13.21,0,0,1-3.53-1.54h0a9.83,9.83,0,0,1-2.15-2.08,10.44,10.44,0,0,1-2.09-5,7,7,0,0,1,1.12-4.9,6.67,6.67,0,0,1,1.42-1.47,9.47,9.47,0,0,1,4.67-1.73l.43,0a10.6,10.6,0,0,0,3.4,3.48,13.69,13.69,0,0,1,3,2.87,11.48,11.48,0,0,1,1.77,3.43A15.9,15.9,0,0,1,306,133.31Zm11-16.9a14.81,14.81,0,0,1-1.58,1.48l-1.8,1.43a.55.55,0,0,0,.54.93l2.13-.86.61-.22a10.09,10.09,0,0,0-1,1.19,6.33,6.33,0,0,0-1.27,3.25.52.52,0,0,1,0,.1,16.37,16.37,0,0,1-5.55,8.14.55.55,0,0,1-.91-.48,15,15,0,0,0-.3-6.54,13.24,13.24,0,0,0-2-4,15.42,15.42,0,0,0-3.34-3.24c-.36-.26-.68-.5-1-.74a2,2,0,0,1-.54-.48l0,0a2.57,2.57,0,0,1,.22-3.32.5.5,0,0,1,.33-.32,43.78,43.78,0,0,1,7.56-1.37l1.09-.14h0c5.65-.31,7.17-3.3,6.88-7-.26-3.29-2.12-7.11-3.55-9.8l0-.08a11.61,11.61,0,0,1-.69-2.85,4,4,0,0,1,.41-2.41,3.21,3.21,0,0,1,1.75-1.34,6.89,6.89,0,0,1,1.23-.32.55.55,0,0,1,.55.25,3.65,3.65,0,0,1,.35.69,4,4,0,0,1,.17.55.55.55,0,0,1-.3.62,2.54,2.54,0,0,0-1.34,1.27,3.44,3.44,0,0,0,.36,3l0,0c.49.84.87,1.53,1.22,2.18.44.82.86,1.57,1.28,2.26a17,17,0,0,1,2.75,8.51,11.91,11.91,0,0,1-2.42,7.42Q317.89,115.5,317,116.41Z"/></g></g></svg>