<svg xmlns="http://www.w3.org/2000/svg" viewBox="0 0 144.98 151.13"><defs><style>.cls-1{fill:#333945;}</style></defs><title>man</title><g id="Layer_2" data-name="Layer 2"><g id="feedback"><path class="cls-1" d="M42.9,65.21c1,0,1.93.1,2.31,1.18s.59,2.11.91,3.15c2.47,7.95,8.3,13.78,17.58,14.57a19.7,19.7,0,0,0,7.37-.85c9.6-2.85,15.51-9.48,18.8-18.74.37-1,.57-2.12.91-3.16A5.7,5.7,0,0,1,94,57.54c2.77-1.15,3.78-3.63,4.46-6.24a8.66,8.66,0,0,0-1.48-7.84,1.57,1.57,0,0,0-2,1c-.75,1.37-1.39,2.8-2.11,4.19-1.34,2.6-4.23,2.85-6,.55a7.1,7.1,0,0,1-1.67-4.3c-.06-2.66-.08-5.32-.08-8,0-2,.15-4.08.07-6.11-.15-4.07-2.22-6.84-6.12-7.9a27.07,27.07,0,0,0-6-.69c-4.36-.18-8.72-.17-13.08-.37A10.76,10.76,0,0,1,52.19,18a33.31,33.31,0,0,0-5.92-4.5c-1.48-1-2.36-2.15-1.86-2.77s2.07-.94,3.48-.13c1.6.92,3.47,1.83,4.48,3.26,3.11,4.41,7.41,5.34,12.32,5.17,4-.14,8.1-.18,12.16-.19,6.6,0,11.32,4.09,11.83,10.73a104.84,104.84,0,0,1-.18,11.72c-.08,2.1-.16,2.1.86,4.75,1.67-2.36,3.41-4.71,5-7.15a4.25,4.25,0,0,0,.45-2.26c0-3.76.08-7.54-.29-11.27A25,25,0,0,0,88,10.64C84.49,6.88,79.88,5.33,75,4.78s-9.94-.73-14.92-1c-2.8-.13-5.62.1-8.42-.08a21.41,21.41,0,0,1-5-1.12c-.37-.12-.65-1-.69-1.51,0-.28.51-.72.89-.89A3.47,3.47,0,0,1,48.27.05c7,0,14-.13,21,0A40.55,40.55,0,0,1,83,2.64,20.63,20.63,0,0,1,93.41,11c3.34,5.27,5.42,10.89,5.22,17.26-.11,3.44,0,6.89,0,10.66a14.89,14.89,0,0,1,3.48,13.28c-.77,4-2.92,6.59-7.56,9.36a31.12,31.12,0,0,1-6.19,14.24c-1.36,1.7-2.94,3.23-4.4,4.86a1.57,1.57,0,0,0,.48,2.67c1.43.61,2.93,1.06,4.33,1.74a13.67,13.67,0,0,1,8,10.35c.33,1.84.59,3.7.92,5.79,1.53.81,3.19,1.64,4.81,2.53,6.69,3.68,13.43,7.28,20,11.13,3.36,2,6.49,4.33,9.65,6.62,5.92,4.28,10,9.82,11.39,17.16.47,2.46,1,4.91,1.42,7.38a5.49,5.49,0,0,1-.24,2.3,1.73,1.73,0,0,1-2.71.73,7.89,7.89,0,0,1-1.74-2.68,68.81,68.81,0,0,1-1.85-6.78,19.41,19.41,0,0,0-6.68-11A117.25,117.25,0,0,0,120,120c-7-4.4-14.2-8.46-21.33-12.65a6.35,6.35,0,0,0-1.21-.43c-1,.41-.89,1.29-1,2-.92,4.92-1.82,9.85-2.72,14.77a18.09,18.09,0,0,1-.31,1.84,1.8,1.8,0,0,1-2.95,1,38.33,38.33,0,0,1-3.67-4.2c-1-1.23-1.63-2.68-2.61-3.89-2.66-3.29-3.93-3.59-8.14-2.19-.44.15-.88.52-1.29.49s-1.34-.27-1.51-.65a1.94,1.94,0,0,1,.31-1.69c2.34-2.72,7.73-3.51,10.57-.74a62.55,62.55,0,0,1,4.31,4.92c.67.81,1.21,1.72,2,2.79a6.57,6.57,0,0,0,.79-1.47c1-5.39,2-10.78,2.75-16.2a27.94,27.94,0,0,0-.07-6.07,11.53,11.53,0,0,0-6.41-9.74c-1.07-.58-2.2-1-3.34-1.57-1,3.65-.88,5.35.46,9.26a9,9,0,0,1,1.86-1.26,2,2,0,0,1,1.69.13A1.76,1.76,0,0,1,88.6,96a21.83,21.83,0,0,1-2.33,4,38.67,38.67,0,0,1-10,9.11l-4.92,3.16c-.15,1.49-.31,3-.45,4.57-.15,1.72-.21,3.44-.44,5.15-.31,2.23-1,2.87-3.26,3.27-.73.13-1.47.2-2.12.29a92.71,92.71,0,0,0,.07,17.56c.18,1.23.6,2.5-.31,3.59a1.78,1.78,0,0,1-1.17.43.86.86,0,0,1-.66-.53c-.33-2.47-.76-4.95-.86-7.43-.17-4.22-.1-8.46-.17-12.69,0-3,.25-3.38,3.18-4.19.57-.16,1.15-.28,1.86-.45.15-2.62.35-5.1.43-7.59a7,7,0,0,1,3.89-6.47,37.4,37.4,0,0,0,4.78-2.94c1.85-1.38,3.56-3,5.36-4.51C79.68,95.19,80,90,79.78,84.59c-2.46-.08-4.11,1.65-6.15,2.07a60.27,60.27,0,0,1-5.93,1.25,65.13,65.13,0,0,1-6.55,0c-.68,2.51,0,4.83,0,7.14,0,1.87.13,3.75.07,5.62a5.9,5.9,0,0,1-3.06,5.45l-1.36.76c1.44,2.58,2.65,4.75,3.87,6.91.46.82,1,1.58,1.42,2.42.51,1,0,1.89-1.39,2.4a8.53,8.53,0,0,1-1.36.27l.09.11c-3.4-4-5.24-8.86-7.5-13.48-1.6-3.27,0-7.15,3.68-9.63a14,14,0,0,0,1.62-.86c.27-.25.45-1.07.29-1.22a2.39,2.39,0,0,0-1.49-.6c-.41,0-.82.4-1.23.63-8,4.53-9.14,6.63-9,15.27,0,3.13.11,6.27.15,9.4,0,1.1,0,2.2,0,3.29-.08,1.67-.6,2.35-1.68,2.31s-1.5-.61-1.67-2.4c-.13-1.4-.11-2.82-.16-4.22-.06-1.71-.13-3.42-.22-5.49a24.85,24.85,0,0,0-2.81,1c-5.71,2.86-11.43,5.72-17.09,8.67-2.21,1.15-4.3,2.52-6.42,3.83-5.18,3.2-8.24,8-10.06,13.68C4.94,142,4.34,145,3.58,147.83c-.44,1.68-.45,1.68-2.23,3.3-1.51-.61-1.4-2-1.29-3.17a42.94,42.94,0,0,1,3.55-14c.78-1.71,1.65-3.37,2.56-5a17.38,17.38,0,0,1,5.9-6.55c3.56-2.23,7.13-4.48,10.84-6.44,6.33-3.34,12.78-6.47,19.32-9.76.18-.91.43-1.81.53-2.72.48-4.57,3-7.8,6.65-10.29,2-1.41,4.27-2.57,6.36-3.93a10.92,10.92,0,0,0,1.67-1.84c-1.4-.79-2.45-1.36-3.49-2A23.18,23.18,0,0,1,42.67,70.5,6.87,6.87,0,0,1,43,65.05ZM57.61,99.35c-2.16,2.37-2.16,2.37-1.71,3.84C57.38,101.82,57.38,101.82,57.61,99.35Z"/><path class="cls-1" d="M43,65.05c-4.24-.52-7.73-2.1-9.62-6.32-2-4.39-2.46-8.69.25-13a7.36,7.36,0,0,0,.42-1c-3.44-1.54-5-4.53-5.6-8a28.46,28.46,0,0,1,.44-12.56,16.49,16.49,0,0,1,.56-1.79c.7-1.74,1.79-2.57,2.6-2,1.22.88.4,1.92.2,2.95a30.14,30.14,0,0,0,0,13c.61,2.51,2.16,4.79,3.3,7.2,4.22.46,6.36,3.1,7.4,6.82a4.71,4.71,0,0,1-.1,2.28c-.08.32-.65.6-1,.74a.91.91,0,0,1-.81-.31,25.14,25.14,0,0,1-1.25-2.47c-.58-1.28-1-2.64-2.8-3.24-2.6,3-1.76,6.1-.72,9.46,1.18,3.78,4.6,4.21,7.59,5.52L42.9,65.2Z"/><path class="cls-1" d="M29.19,12.24c.45,2,2,2.91,3.1,4.19a2,2,0,0,1,.4,1.66c-.29.87-1.2.92-2,.71A6.38,6.38,0,0,1,26.5,11a13.82,13.82,0,0,1,2.93-5.22A17.22,17.22,0,0,1,39.61.67a5.74,5.74,0,0,1,2.3.12A2,2,0,0,1,43.2,1.86c.24,1-.56,1.44-1.36,1.44a14.25,14.25,0,0,0-7.45,2.3A10.61,10.61,0,0,0,29.19,12.24Z"/><path class="cls-1" d="M73.78,70.66c.35.6.82,1,.76,1.36a5.75,5.75,0,0,1-.85,2.14C70.9,78.26,64,79.38,60.08,76.3a7.75,7.75,0,0,1-1.9-2.54,1.87,1.87,0,0,1,.23-1.67A2.14,2.14,0,0,1,60,71.54a3.61,3.61,0,0,1,1.64.75c2.43,1.71,4.92,1.44,7.46.33C70.67,71.95,72.21,71.32,73.78,70.66Z"/><path class="cls-1" d="M68.53,64c-2,1.27-3.27,1.33-4.31,0a8,8,0,0,1-1.43-2.89c-.92-3.83-.74-7.74-.57-11.64a2.51,2.51,0,0,1,.26-.89c.34-.75.88-1.43,1.74-1.2a2.09,2.09,0,0,1,1.17,1.28,8.9,8.9,0,0,1,.11,2.31c0,2,.1,4.05.1,6.08,0,2.45.53,4.63,2.68,6.13C68.48,63.26,68.45,63.68,68.53,64Z"/><path class="cls-1" d="M59.39,118.94a4.59,4.59,0,0,1-2.84,2.83c-.29.08-.55.29-.84.39-3.48,1.24-6.37,3.14-7.85,6.74a1.28,1.28,0,0,1-1.92.65,1.64,1.64,0,0,1-.86-2,10.11,10.11,0,0,1,3.15-5.07,19.56,19.56,0,0,1,7.72-4.1,3.78,3.78,0,0,1,3.53.62Z"/><path class="cls-1" d="M68,127.92c.48.09,1.07,0,1.29.29a2.9,2.9,0,0,1,.7,1.64q.19,7.91.23,15.82a3.39,3.39,0,0,1-.56,1.71,1.59,1.59,0,0,1-1.1.49c-.21,0-.51-.31-.67-.55a1.68,1.68,0,0,1-.27-.86c-.06-5.74-.11-11.48-.12-17.22A4.33,4.33,0,0,1,68,127.92Z"/><path class="cls-1" d="M37.53,12.78A20.53,20.53,0,0,1,48.4,18.26a1.26,1.26,0,0,1,.36.84,2.64,2.64,0,0,1-.37,1.24.84.84,0,0,1-.81.18A59.51,59.51,0,0,0,36,15.7a.64.64,0,0,1-.36-.28c-.2-.4-.52-.85-.47-1.24a1.71,1.71,0,0,1,.79-1A5.81,5.81,0,0,1,37.53,12.78Z"/><path class="cls-1" d="M37.68,36.13a14.39,14.39,0,0,1,2.41-7.35,3.34,3.34,0,0,1,1.43-1.12,1.76,1.76,0,0,1,1.25.14.94.94,0,0,1,.37.79,6.54,6.54,0,0,1-.43,1.76c-1.2,2.93-1.9,5.92-1.08,9.09,0,.15.15.34.1.45-.25.51-.43,1.21-.85,1.46a1.43,1.43,0,0,1-2-.7,11.56,11.56,0,0,1-1-2.57A11.62,11.62,0,0,1,37.68,36.13Z"/><path class="cls-1" d="M82.29,36.69c-1,.83-1.45,1.39-2,1.54q-3.78,1.09-7.63,2A1.43,1.43,0,0,1,71,39a4.1,4.1,0,0,1,.38-1.71.66.66,0,0,1,.3-.34C74.88,35.18,78.16,34.44,82.29,36.69Z"/><path class="cls-1" d="M57.56,40.8a11.73,11.73,0,0,1-2.42,1c-2.58.26-4.9-.69-7.14-1.8a1.77,1.77,0,0,1-.7-1.57,4.36,4.36,0,0,1,1.41-1.63c.18-.16.61-.11.91-.06A14.55,14.55,0,0,1,57.56,40.8Z"/><path class="cls-1" d="M39.39,20.73c1.81.62,3.72,1.19,5.55,1.94a1.74,1.74,0,0,1,.75,1.49,1.63,1.63,0,0,1-1.27,1c-2.45-.2-4.9-.5-7.32-.92-.43-.07-.88-.79-1-1.31a1.35,1.35,0,0,1,.61-1.12A22.67,22.67,0,0,1,39.39,20.73Z"/><path class="cls-1" d="M77,49.32a9.61,9.61,0,0,1-1.17,2.22,1.92,1.92,0,0,1-2.51.35c-.9-.48-1.55-1.9-1-2.73A7,7,0,0,1,74.54,47C75.68,46.31,77,47.33,77,49.32Z"/><path class="cls-1" d="M53.85,48.2c.23.19.86.47,1.11,1a3.22,3.22,0,0,1-.17,3.5,2.37,2.37,0,0,1-1.52.84c-1.3.12-2.28-1.35-2.11-3A2.4,2.4,0,0,1,53.85,48.2Z"/></g></g></svg>