<svg xmlns="http://www.w3.org/2000/svg" viewBox="0 0 98.01 124.43"><defs><style>.cls-1{fill:#f7f7f7;}</style></defs><title>plane</title><g id="Layer_2" data-name="Layer 2"><g id="works"><path class="cls-1" d="M97,3.52a67.45,67.45,0,0,1-2.76,16.11,77.06,77.06,0,0,0-3,11.13c-.36,2.07-.76,2.25-2.77,1.43-3.61-1.47-7.22-3-10.79-4.53a4,4,0,0,0-3.13-.12c-4,1.4-7.87,3-11.95,4.09-1.67.45-2.45,0-2.77-1.71-.24-1.27-.26-2.59-.51-3.86-.86-4.37-2.59-8.56-2.66-12.92A31.44,31.44,0,0,1,47,5.71c-1.34-1.46-.79-2.81,1.22-3,7-.6,14-1.09,21-1.55Q76.74.68,84.31.37c4.51-.18,9-.74,13.7,0C98.07,1.62,97.11,2.38,97,3.52ZM76.11,7.44c-6,2.09-12.08,4.12-18.38,5.92.79,5.32,3.44,10.2,3.76,15.91l3.79-3.35a18.62,18.62,0,0,1,5.26-3.48,32.21,32.21,0,0,0,9.77-6.89Q87,9.17,93.84,3c.26-.23.63-.39.63-.92A140.94,140.94,0,0,0,76.11,7.44ZM71.42,23.73c6.47,1.88,12.21,4.62,18.11,7.36,1.13-8.89,4.4-17.17,4.86-26.09C86.92,11.29,80.43,18.74,71.42,23.73ZM53.67,8.67a4.61,4.61,0,0,1,1,.76c1.9,2.61,4.16,2.05,6.8,1.2,9.09-2.94,18.17-5.94,27.46-8.23a14.89,14.89,0,0,0,1.45-.56L48,4A51.55,51.55,0,0,0,53.67,8.67ZM74.26,26.35c-1.56-.53-2.83-1-4.11-1.38a1.23,1.23,0,0,0-1.29.29c-1.44,1.32-2.91,2.62-4.62,4.15Z"/><path class="cls-1" d="M9.77,100.79a31.84,31.84,0,0,1,11.29-9c6.44-2.93,12.56-1.46,16.37,3.93,3.11,4.39,1.59,9.32-3.56,11-5.75,1.83-11.52,1.12-17.21-.5a35.75,35.75,0,0,1-6-2.56,20,20,0,0,0-3.8,10.11,15.16,15.16,0,0,0,2.58,10.38c-1,.68-1.5.06-2-.45a12,12,0,0,1-2.8-7.15,20.2,20.2,0,0,1,3.16-13c.24-.39.46-.79.73-1.25-.6-.51-1.16-1-1.68-1.46C1.36,95.64-.61,89.11.16,81.71,1.39,70,8.42,62.26,18,56.44A56.72,56.72,0,0,1,42.7,48.73a110.43,110.43,0,0,1,13.42.11c.57,0,1.1.09,1.13.77s-.55.84-1.08.84c-1.51,0-3,0-4.53-.13a55.4,55.4,0,0,0-32.56,7.85c-6.2,3.76-11.54,8.46-14.54,15.27-2.84,6.44-3.52,13-.75,19.72A18.19,18.19,0,0,0,9.77,100.79Zm2,1.33c.61.34,1.05.6,1.5.85a29.73,29.73,0,0,0,14,3.34,16.63,16.63,0,0,0,7-1.22c3.49-1.54,4.41-5,2.2-8.11a10.52,10.52,0,0,0-12.55-4A28.13,28.13,0,0,0,11.74,102.12Z"/></g></g></svg>