<svg xmlns="http://www.w3.org/2000/svg" viewBox="0 0 280 395.18"><defs><style>.cls-1{fill:#95165b;}.cls-2,.cls-4,.cls-6{fill:#fff;}.cls-3{fill:#444;}.cls-4,.cls-5,.cls-6{stroke:#95165b;}.cls-4,.cls-5{stroke-linecap:round;stroke-linejoin:round;stroke-width:2.31px;}.cls-5{fill:none;}.cls-6{stroke-miterlimit:10;stroke-width:0.27px;}</style></defs><title>spaceman</title><g id="Layer_2" data-name="Layer 2"><g id="_14" data-name="14"><path class="cls-1" d="M162.39,44.63c-2.78-11.22-11-21-22.92-22.81-11.36-1.72-23.15,5.09-28.75,14.86-6.33,11-3.18,24.22,4.94,33.43,8.41,9.54,20.42,11.68,31.59,5.8,5.56-2.93,10.62-7.21,13.56-12.85,2.58-4.93,4.62-13.43,1.31-18.4-.05-.08-.21-.08-.23,0-.54,2.88.27,5.82,0,8.77a23.19,23.19,0,0,1-3.51,10.31,32,32,0,0,1-13.69,11.43c-15.28,7.14-30-3.9-34.61-18.73-4.62-15,6.55-30.41,21.4-33.35,14.62-2.9,26.71,8.24,30.16,21.7A.39.39,0,0,0,162.39,44.63Z"/><path class="cls-1" d="M118,29.74c-4.23,3.8-5.76,10-6,15.43,0,.23.33.22.35,0,.5-6,2.64-10.36,5.72-15.41,0,0,0,0,0,0Z"/><path class="cls-1" d="M120.19,28.26c-3.8,2-3.85,9-4.11,12.66,0,.18.29.22.32,0,.78-4.46,1.23-8.82,3.84-12.66,0,0,0-.06,0,0Z"/><path class="cls-1" d="M123.54,25.48c-1.37.41-1.92,2.29-2.34,3.51a37.26,37.26,0,0,0-1.36,6,.23.23,0,0,0,.45.12c.5-1.57.83-3.18,1.29-4.75a23.13,23.13,0,0,1,2.16-4.62.17.17,0,0,0-.19-.25Z"/><path class="cls-1" d="M127.65,23.69c-2,.8-2.81,3.85-3.3,5.74a67.39,67.39,0,0,0-1.33,8.7c0,.15.23.18.26,0,.59-2.34,1-4.73,1.53-7.07.65-2.7,1.87-4.69,3.07-7.11.07-.14-.05-.37-.23-.3Z"/><path class="cls-1" d="M130.58,22.81c-1.55.34-2.17,3.33-2.51,4.58a51.5,51.5,0,0,0-1.26,6.93c0,.18.25.19.3,0,.65-1.85,1-3.81,1.45-5.71a24,24,0,0,1,2.25-5.53.21.21,0,0,0-.23-.3Z"/><path class="cls-1" d="M133.58,22.24a13.15,13.15,0,0,0-1.83,6.34c0,.26.35.27.43.06.72-2,.8-4.23,2-6.06.24-.37-.34-.69-.58-.34Z"/><path class="cls-1" d="M136.11,22.34a67.78,67.78,0,0,1,1.17,9.33c0,.27.46.38.51.07a17.75,17.75,0,0,0-1.2-9.6c-.12-.28-.54-.07-.47.2Z"/><path class="cls-1" d="M138.64,22.29c1.64,4.06,2.93,7.71,3,12.17a.2.2,0,0,0,.4.05c.95-4.17-.59-9-3.23-12.3,0-.06-.16,0-.13.08Z"/><path class="cls-1" d="M141.32,22.61a77.78,77.78,0,0,1,4.11,16.15c0,.24.37.15.39-.05.53-5.29-.91-12-4.14-16.25-.12-.16-.44-.08-.36.15Z"/><path class="cls-1" d="M145,24.09c4.42,3.83,3.5,10.46,4.4,15.71,0,.26.4.17.43-.06.46-4.43.59-14.08-4.55-16.14-.27-.11-.49.3-.28.48Z"/><path class="cls-1" d="M149.36,26.13c1.11,2.57,2.83,4.77,3.8,7.47A44.89,44.89,0,0,1,154.94,41a.39.39,0,0,0,.74,0c.51-2.81-.64-5.95-1.7-8.49-.91-2.16-2.23-5.46-4.5-6.51a.09.09,0,0,0-.12.12Z"/><path class="cls-1" d="M153.2,29.69a26,26,0,0,1,4.31,14.75.3.3,0,0,0,.58.08c1-4.89-1-11.53-4.64-15-.13-.12-.35,0-.25.2Z"/><path class="cls-1" d="M159.27,37.48c.29,1.65.8,3.23,1,4.91.16,1.51,0,3,.12,4.55a.23.23,0,0,0,.46.06c1.12-3,.31-7-1.28-9.63a.15.15,0,0,0-.27.11Z"/><path class="cls-1" d="M111.22,39.13c-1,1.1-1,2.84-1.05,4.23-.08,2.13.15,4.25.26,6.38a.09.09,0,0,0,.18,0c.05-1.72-.08-3.43-.09-5.14a22.1,22.1,0,0,1,.77-5.42s0-.07-.07,0Z"/><path class="cls-1" d="M116.73,30.73c-2.29,3.14-2.4,8.79-2.39,12.54a.14.14,0,0,0,.28,0c.47-2.06.64-4.2,1-6.29s1-4.11,1.37-6.2a.11.11,0,0,0-.21-.09Z"/><path class="cls-1" d="M120.5,27.61c-1.53,2.85-1.75,6.6-2,9.78a.1.1,0,0,0,.19,0c.64-3.22,1.71-6.48,2.14-9.72,0-.18-.25-.23-.33-.09Z"/><path class="cls-1" d="M124.88,25.24c-1.29.27-1.78,2.52-2.07,3.56a30.23,30.23,0,0,0-1,5.52c0,.17.27.26.34.09a27.49,27.49,0,0,0,1.19-4.52,18.52,18.52,0,0,1,.76-2.53,17.93,17.93,0,0,0,.94-2,.12.12,0,0,0-.15-.15Z"/><path class="cls-1" d="M128.81,23.49c-1.64,1.2-1.88,4.12-2.29,5.94a.15.15,0,0,0,.3.08c.38-1,.69-2,1-3.07s.82-1.86,1.15-2.82a.12.12,0,0,0-.18-.13Z"/><path class="cls-1" d="M132.46,22.41c-1.14.5-1.52,2.11-1.81,3.2-.42,1.58-.62,3.22-.92,4.83,0,.2.25.35.35.15a16.82,16.82,0,0,0,1-3.78,16.14,16.14,0,0,1,1.6-4.15.18.18,0,0,0-.24-.24Z"/><path class="cls-1" d="M135.06,22.27c-.08,2.8-.27,5.58-.43,8.37,0,.15.21.16.25,0,.89-2.7.55-5.61.45-8.41a.13.13,0,0,0-.27,0Z"/><path class="cls-1" d="M137.2,22.27a26.5,26.5,0,0,0,1,4.24,45.87,45.87,0,0,1,.81,5.6c0,.28.46.4.54.07.71-3.1-.12-7.53-2.29-9.94a0,0,0,0,0-.07,0Z"/><path class="cls-1" d="M139.86,22.52c.58,1.32,1.3,2.57,1.86,3.91.46,1.1.8,2.25,1.31,3.32a.28.28,0,0,0,.51-.14,13.6,13.6,0,0,0-3.36-7.34c-.16-.19-.4.05-.32.25Z"/><path class="cls-1" d="M143.16,23.21a50.94,50.94,0,0,1,2.28,5.2c.54,1.62.78,3.39,1.42,5,.15.37.75.36.74-.1a19.13,19.13,0,0,0-1.45-6A8.16,8.16,0,0,0,143.33,23c-.11-.07-.21.06-.16.16Z"/><path class="cls-1" d="M147.88,25.43c3.11,2.87,3.76,7.8,4.67,11.74a.27.27,0,0,0,.52-.07,19.24,19.24,0,0,0-1.58-7c-.69-1.73-1.66-4-3.47-4.82-.12-.05-.25.09-.14.19Z"/><path class="cls-1" d="M152.74,28.75c.47,1.56,1.28,3,1.82,4.59s.81,3.23,1.23,4.86a.26.26,0,0,0,.5,0c.83-2.9-1.35-7.52-3.43-9.52a.07.07,0,0,0-.12.07Z"/><path class="cls-1" d="M157.55,34.29c-.15.43.15.87.29,1.27.27.77.49,1.56.69,2.35.32,1.26.36,2.84,1,4a.22.22,0,0,0,.4-.05c.4-1.31-.34-3.11-.7-4.33-.21-.7-.68-3.09-1.59-3.27a.07.07,0,0,0-.08,0Z"/><path class="cls-1" d="M117.73,70.74c-3.07-5.05-5.22-9.4-5.72-15.41,0-.22-.36-.23-.35,0,.28,5.47,1.81,11.63,6,15.44,0,0,0,0,0,0Z"/><path class="cls-1" d="M119.94,72.2c-2.61-3.83-3.06-8.2-3.84-12.66,0-.18-.33-.14-.32,0,.26,3.71.32,10.63,4.11,12.66,0,0,.07,0,0,0Z"/><path class="cls-1" d="M123.44,74.78a23.13,23.13,0,0,1-2.16-4.62c-.46-1.58-.8-3.19-1.29-4.75a.23.23,0,0,0-.45.12,37.16,37.16,0,0,0,1.36,6c.42,1.21,1,3.1,2.34,3.51a.17.17,0,0,0,.19-.25Z"/><path class="cls-1" d="M127.58,76.52c-1.2-2.42-2.42-4.4-3.07-7.11-.56-2.34-.94-4.73-1.53-7.07,0-.14-.28-.12-.26,0a67.57,67.57,0,0,0,1.33,8.7c.5,1.9,1.28,4.94,3.3,5.74.18.07.3-.16.23-.3Z"/><path class="cls-1" d="M130.51,77.4a24,24,0,0,1-2.25-5.53c-.46-1.9-.8-3.87-1.45-5.71-.05-.15-.33-.14-.3,0a51.31,51.31,0,0,0,1.26,6.93c.34,1.24,1,4.24,2.51,4.58a.21.21,0,0,0,.23-.3Z"/><path class="cls-1" d="M133.86,77.92c-1.19-1.82-1.27-4.05-2-6.06-.08-.21-.45-.2-.43.06a13.14,13.14,0,0,0,1.83,6.34c.24.35.82,0,.58-.34Z"/><path class="cls-1" d="M136.29,78.37a17.75,17.75,0,0,0,1.2-9.6c-.05-.31-.48-.2-.51.07a67.64,67.64,0,0,1-1.17,9.33c-.06.27.35.48.47.2Z"/><path class="cls-1" d="M138.47,78.29c2.64-3.29,4.17-8.13,3.22-12.3a.2.2,0,0,0-.4.05c0,4.46-1.31,8.1-3,12.17,0,.07.08.13.13.08Z"/><path class="cls-1" d="M141.38,78c3.22-4.3,4.67-11,4.14-16.26,0-.2-.35-.29-.39-.05A77.84,77.84,0,0,1,141,77.89c-.08.23.24.32.36.15Z"/><path class="cls-1" d="M145,76.9c5.14-2.05,5-11.72,4.55-16.14,0-.22-.38-.32-.43-.06-.9,5.25,0,11.88-4.4,15.71-.21.18,0,.59.28.48Z"/><path class="cls-1" d="M149.18,74.49c2.26-1,3.6-4.38,4.5-6.51,1.07-2.56,2.22-5.68,1.7-8.49a.39.39,0,0,0-.74,0,44.68,44.68,0,0,1-1.77,7.42c-1,2.71-2.69,4.9-3.81,7.47a.09.09,0,0,0,.12.12Z"/><path class="cls-1" d="M153.95,71.16c3.59-3.54,4.9-10.4,3.84-15.17a.3.3,0,0,0-.58.08A26,26,0,0,1,153.7,71a.16.16,0,0,0,.25.2Z"/><path class="cls-1" d="M159.4,64.07a14,14,0,0,0,1.12-10.56.23.23,0,0,0-.46.06c-.08,1.66.07,3.31,0,5a52.77,52.77,0,0,1-.89,5.42c0,.16.18.27.27.11Z"/><path class="cls-1" d="M111,61.34a22,22,0,0,1-.77-5.42c0-1.71.14-3.43.09-5.14a.09.09,0,0,0-.18,0c-.11,2.13-.34,4.24-.26,6.38.05,1.39.1,3.13,1.05,4.23,0,0,.08,0,.07,0Z"/><path class="cls-1" d="M116.64,69.69c-.37-2.09-1.06-4.09-1.37-6.2s-.48-4.23-1-6.29a.14.14,0,0,0-.28,0c0,3.75.1,9.4,2.39,12.54a.11.11,0,0,0,.21-.09Z"/><path class="cls-1" d="M120.53,72.8c-.43-3.24-1.5-6.5-2.14-9.72a.1.1,0,0,0-.19,0c.26,3.18.47,6.93,2,9.78.08.14.35.09.33-.09Z"/><path class="cls-1" d="M124.73,75.12a13.61,13.61,0,0,0-.87-1.78,17.28,17.28,0,0,1-.84-2.72,27.51,27.51,0,0,0-1.19-4.52c-.07-.17-.36-.08-.34.09a30.15,30.15,0,0,0,1,5.52c.29,1,.79,3.29,2.07,3.56a.12.12,0,0,0,.15-.15Z"/><path class="cls-1" d="M128.69,76.88c-.34-1-.85-1.84-1.16-2.82s-.64-2.06-1-3.07a.15.15,0,0,0-.3.08c.41,1.82.65,4.74,2.29,5.94a.12.12,0,0,0,.18-.13Z"/><path class="cls-1" d="M132.4,77.85a16.08,16.08,0,0,1-1.6-4.15,16.78,16.78,0,0,0-1-3.78c-.1-.2-.38-.05-.35.15.31,1.61.5,3.24.92,4.82.29,1.09.68,2.7,1.81,3.2a.18.18,0,0,0,.24-.24Z"/><path class="cls-1" d="M135,78.24c.1-2.8.44-5.7-.45-8.4,0-.13-.26-.12-.25,0,.17,2.79.36,5.57.44,8.37a.13.13,0,0,0,.27,0Z"/><path class="cls-1" d="M137,78.27c2.17-2.41,3-6.84,2.29-9.94-.07-.32-.51-.21-.54.07a45.58,45.58,0,0,1-.81,5.6,26.57,26.57,0,0,0-1,4.24,0,0,0,0,0,.07,0Z"/><path class="cls-1" d="M139.88,78.24a13.59,13.59,0,0,0,3.36-7.34.28.28,0,0,0-.51-.14c-.51,1.08-.85,2.23-1.31,3.32-.56,1.33-1.29,2.58-1.86,3.91-.08.19.15.44.32.25Z"/><path class="cls-1" d="M143,77.46a8.19,8.19,0,0,0,2.83-4.25,19.09,19.09,0,0,0,1.45-6c0-.46-.59-.47-.74-.1-.64,1.58-.87,3.34-1.42,5a51.19,51.19,0,0,1-2.28,5.21c0,.1.05.23.16.16Z"/><path class="cls-1" d="M147.73,75.26c1.82-.84,2.78-3.08,3.47-4.81a19.24,19.24,0,0,0,1.58-7,.27.27,0,0,0-.52-.07c-.91,3.93-1.57,8.87-4.67,11.73-.11.1,0,.24.14.19Z"/><path class="cls-1" d="M152.56,71.82c2.08-2,4.26-6.62,3.43-9.52a.26.26,0,0,0-.5,0c-.42,1.63-.67,3.26-1.23,4.86s-1.35,3-1.82,4.59a.07.07,0,0,0,.12.07Z"/><path class="cls-1" d="M157.85,65.84c.91-.47,1.13-2.26,1.33-3.13.27-1.17.85-2.88.44-4.07a.22.22,0,0,0-.4-.05c-.58,1-.52,2.47-.73,3.58a30.64,30.64,0,0,1-.94,3.44.2.2,0,0,0,.29.22Z"/><path class="cls-2" d="M152,28.31c-3.15.06-1,6.33-3.12,8.4-2.7,3.3-6.46.11-9.83-.67-14.46-3.34-3.35,16.75-12.47,16.91-4.17.11-7.53-4.1-11.47-.21-2.48,2.31-4.15,7.61-2.77,10.7a25.63,25.63,0,0,0,5.63,7.88c-.83-1.58-1.25-5.32.23-6.71,2.7-3.3,9.8.49,13.07.71,7,.57,9.93-3.35,9.45-9.75-.54-5.63-.26-8.53,5.83-7.43,4.3.63,8.34,2.06,10.12-3.38,1-3.21-1.29-9.24-.42-12.05C156.23,32.71,152.81,28.29,152,28.31Z"/><path class="cls-1" d="M152,28.08c-2.24.3-2.15,2.25-2.38,4.18-1.07,9.14-8.79,2.45-13.94,2.83s-5.43,5.41-5.56,9.55c-.12,3.61.12,8-4.78,7.41-4-.52-7.19-3.16-10.72.17-6.43,6.07-2.62,14.55,2.86,19.59.47.44,1.48,0,1.19-.69-1.51-3.7.5-7.72,5.1-6.92,1.9.33,3.7,1.08,5.58,1.48,2.74.6,5.89.67,8.37-.84a8,8,0,0,0,3.62-5.65c.38-2,0-4,0-6,0-4,2.72-4.61,6.22-4.12,6.06.84,10.53-.62,10-7.78-.31-4.63.26-11.5-5.45-13.39-.47-.16-.8.6-.34.81A9.31,9.31,0,0,1,154.88,32c.66,1.29.47,1.78.52,3.34.18,5.62,2.51,13.54-6.37,12.45-4.91-.6-9.19-1.39-9.26,4.86-.06,4.75,1,10.26-5,11.8-4.08,1-7.92-1.43-11.89-1.81-5.56-.53-7.61,4-5.61,8.87l1.19-.69c-3.69-3.4-6.95-8.38-5.31-13.5,1.28-4,4.52-6,8.65-4.8,1.7.48,3.28,1.29,5.1,1.08,3.63-.41,4.27-3.65,4.46-6.78.14-2.36-.2-5,.5-7.25,1.4-4.57,6.08-3.39,9.6-2.11,2.64,1,5.62,2.16,7.73-.43,1.53-1.87.57-7.78,2.85-8.51C152.25,28.45,152.23,28,152,28.08Z"/><path class="cls-2" d="M126,76.82c-.19-3.95,3.38-6,7.14-5.26,2.63.38,3.95,1.88,6.58.75s4.14-4.14,5.08-6.58c2.07-4.7,1.73-8,7.19-7.75,7.31.35,4.86-10.52,9.93-13l.58,2.5c-3.66,4.12,2.57,13.43-9.19,14.21-5.05.33-3.05,5.57-5.12,9-1.88,3-6.58,5.08-10,5.27-2.07,0-5.63-1.21-5.63,2.36Z"/><path class="cls-1" d="M126.32,76.82c1.06-8.61,7.68-3.24,12-3.6,2.15-.18,3.79-1.68,5-3.33a27.75,27.75,0,0,0,3-6.43c1-2.48,1.66-4.25,4.55-4.8a25.65,25.65,0,0,0,3.22-.31c3.24-1,3.9-4.65,4.86-7.47a25.83,25.83,0,0,1,1.24-3.27c.53-1.07,1.51-3.12,1.54-.81,0,1.16-.9,2.58-1.1,3.86-.24,1.58,0,3.2-.26,4.77-.65,4.43-3.42,4.76-7.22,5.63-5.23,1.19-3.23,5.41-5.52,9.23s-7.21,4.79-11.15,4.79c-1.14,0-2.92-.29-3.76.82-1.29,1.7.7,1.47-1.92,1.28a38.53,38.53,0,0,1-4.63-.93c-.75-.15-1.07,1-.32,1.15,2.19.5,4.38,1,6.57,1.48a.67.67,0,0,0,.82-.46c.39-2.76,6.23-1.87,8.21-2.47a13.68,13.68,0,0,0,6.49-3.89c1.36-1.61,1.68-3.34,2.06-5.36.69-3.76,4.34-4,7.38-5.19s4-3.74,4.29-6.85c.29-3.58,1.63-6.47.85-9.86a.62.62,0,0,0-.9-.37c-3.2,2-3.43,5.61-4.69,8.84-.61,1.57-1.48,3.24-3.17,3.93-1.35.55-3,0-4.37.42a5,5,0,0,0-2.75,2.11c-1.18,1.68-1.59,4-2.37,5.86-2,4.69-4,6.32-9.54,5.81-1-.09-1.82-.47-2.82-.49-3.67-.07-6.23,2.28-6.2,5.91C125.72,77.22,126.27,77.19,126.32,76.82Z"/><path class="cls-2" d="M141.94,23c1.5,5.08-4.46,4.89-7.47,5.27-5.45.56-5.45,3.57-7.71,7.52-3.76,6.77-15.42-.19-17.86,8.65L110,41.09c1.5-9,11.66-2.07,14.1-8.46,1.51-4.14,2.63-7.71,8.09-7.52,2.82,0,7.62,2.3,7.24-2.59Z"/><path class="cls-1" d="M141.66,23.12c1,6.09-7.6,3.88-10.8,5.79s-3.17,6.49-6.26,8.59c-5.46,3.71-13.38-1.09-16.18,6.84l1,.27c.5-1.46.86-3.14,1.45-4.55,1.64-3.88,4.6-3.33,8-3.73,2.76-.32,4.55-1,5.81-3.54,2-4,2.71-7.31,8.29-7,1.47.08,3.14.76,4.62.42,1.26-.28,1.43-.62,2.19-1.52-.89,1.05,1.24-2.35-.11-1.49.13-.08,2,.27,2.26.27.4,0,.63-.63.22-.81a12.2,12.2,0,0,0-2.54-.74.63.63,0,0,0-.79.6c-.06,3.92-4.59,2-6.62,2a7.91,7.91,0,0,0-4.76,1.22c-3.79,2.69-2.69,8.19-7.83,9.34-2.7.6-5.69-.16-8,1.75-2.1,1.73-2.42,5.06-3.22,7.53-.2.63.77.89,1,.27,2.11-6.05,8.16-4.06,13-5.25,3.41-.84,4.51-2.84,6-5.82s3.34-4.45,6.85-4.91c1.53-.2,3.3-.16,4.72-.83,2.24-1.06,2.77-2.42,2.22-4.84C142.14,22.58,141.6,22.75,141.66,23.12Z"/><path class="cls-1" d="M114.09,66.05c.2-4.1,2.5-8.41,7.5-7.77,1.74.22,3.35,1,5.13,1.18a7.23,7.23,0,0,0,4.94-1.08c1.79-1.27,2.56-3.38,3-5.43.9-4-.65-11.77,5.94-10.28,3.35.76,7.49,3.28,10.69.69,3.63-2.94,1.45-8.7,3.76-12.27.33-.51-.47-1.15-.86-.66-3.47,4.33,0,14.07-8.58,12.34-3.09-.62-8.14-3.6-10.64-.2-1.66,2.26-1,6.05-1.36,8.62-1.26,10.24-8.32,5.78-14.28,5.46-5.66-.3-6.2,4.91-5.86,9.39a.3.3,0,0,0,.6,0Z"/><path class="cls-1" d="M53.44,206.08c-2-7.57-8.67-13.78-16.94-12-8.11,1.74-14.21,9.95-12,18.2S34.71,227,43.2,223.86c6.44-2.36,14.05-10.46,10-17.75,0-.06-.16-.06-.17,0-.43,3.07.1,6.06-1.41,9a15.65,15.65,0,0,1-6.73,6.49c-8.1,4.22-16.39-.68-19-9-2.44-7.83,2.95-16,10.79-17.69s14.15,4.17,16.14,11.33A.29.29,0,0,0,53.44,206.08Z"/><path class="cls-1" d="M53.19,207.48c-.59,1.21-1,2.52-1.51,3.75s-1.25,2.49-1.86,3.74c-.05.11.09.24.18.14a13.9,13.9,0,0,0,3.44-7.56.14.14,0,0,0-.25-.07Z"/><path class="cls-1" d="M52.49,207.88c-.58,1.05-1,2.16-1.63,3.22s-1.24,2.12-1.74,3.23c0,.1.09.24.17.13A18.17,18.17,0,0,0,52.86,208a.2.2,0,0,0-.37-.16Z"/><path class="cls-1" d="M51.17,208.86a8.57,8.57,0,0,0-1.3,2.24c-.44.86-.91,1.71-1.38,2.55-.09.16.13.33.25.2a10.58,10.58,0,0,0,1.54-2.32,11.5,11.5,0,0,0,1.18-2.5.18.18,0,0,0-.3-.17Z"/><path class="cls-1" d="M50,209.76c-1.33,2-2.34,4.24-3.53,6.3-.06.11.09.23.17.13a15.55,15.55,0,0,0,3.7-6.29.19.19,0,0,0-.34-.14Z"/><path class="cls-1" d="M48.9,210.59a37.64,37.64,0,0,0-4.16,7.06c0,.09.08.21.16.12a22.69,22.69,0,0,0,4.21-7.09c0-.13-.13-.18-.2-.08Z"/><path class="cls-1" d="M47.63,211.29a14,14,0,0,0-1.19,2c-.44.78-.9,1.54-1.3,2.34-.07.14.11.3.22.17a11.91,11.91,0,0,0,1.46-2.11,7.21,7.21,0,0,0,1-2.35c0-.08-.09-.18-.17-.1Z"/><path class="cls-1" d="M46.39,212.14a29.64,29.64,0,0,0-2.45,3.77,23.67,23.67,0,0,0-2.11,4s.05.07.08,0c.87-1.34,1.76-2.66,2.65-4a12.57,12.57,0,0,0,2-3.71c0-.1-.11-.2-.19-.11Z"/><path class="cls-1" d="M44.79,213.07a9.2,9.2,0,0,0-1.69,2.59c-.76,1.28-1.5,2.57-2.26,3.85-.07.11.09.24.18.14a25.4,25.4,0,0,0,2.54-3.46,17.8,17.8,0,0,0,1.65-2.88c.1-.26-.25-.38-.42-.25Z"/><path class="cls-1" d="M44.12,213.31a10.24,10.24,0,0,0-2.29,2.84,21.08,21.08,0,0,0-1.9,3.59c-.05.13.15.25.24.14a33.56,33.56,0,0,0,2-3c.7-1.1,1.61-2.11,2.23-3.24.11-.19-.12-.48-.33-.33Z"/><path class="cls-1" d="M42.52,214.24a12,12,0,0,0-2.32,3.39c-.18.3.26.54.46.27.39-.54.75-1.1,1.1-1.67a17.16,17.16,0,0,0,1.08-1.75.2.2,0,0,0-.32-.25Z"/><path class="cls-1" d="M41.14,215.2c-.79.19-1.36,1.23-1.76,1.87-.61,1-1.22,2-1.76,3a.17.17,0,0,0,.27.21,10.1,10.1,0,0,0,1.78-2.49,11.15,11.15,0,0,0,1.53-2.51,0,0,0,0,0-.06-.06Z"/><path class="cls-1" d="M39.61,215.8c-.48.14-.72.64-1,1s-.63,1.11-1,1.64c-.19.28.26.63.47.36a14.29,14.29,0,0,0,1-1.48,2.56,2.56,0,0,0,.58-1.46.1.1,0,0,0-.13-.1Z"/><path class="cls-1" d="M37.86,216.75a4.94,4.94,0,0,0-1.26,1.8c-.45.81-.9,1.63-1.34,2.44a.16.16,0,0,0,.25.2,8.89,8.89,0,0,0,1.56-2.2,6.49,6.49,0,0,0,.94-2.16.1.1,0,0,0-.15-.09Z"/><path class="cls-1" d="M36.32,217.49c-.55.25-.8.88-1.06,1.38s-.63,1.23-.94,1.84c-.07.15.13.34.25.19.41-.53.77-1.08,1.14-1.64a3.77,3.77,0,0,0,.85-1.63c0-.13-.14-.18-.24-.14Z"/><path class="cls-1" d="M35.13,217.91a2.94,2.94,0,0,0-1,1.35,8.43,8.43,0,0,0-.7,1.72.12.12,0,0,0,.2.12,5.48,5.48,0,0,0,1-1.46A6.75,6.75,0,0,0,35.3,218a.12.12,0,0,0-.18-.14Z"/><path class="cls-1" d="M33.82,218.45a3.46,3.46,0,0,0-.74,1.09,4.88,4.88,0,0,0-.53,1.22.12.12,0,0,0,.17.13,2.29,2.29,0,0,0,.67-1,7.18,7.18,0,0,1,.67-1.25c.11-.14-.12-.29-.24-.18Z"/><path class="cls-1" d="M32.58,219a5.91,5.91,0,0,0-.88,1.69c0,.1.1.15.17.1a4,4,0,0,0,.9-1.67.12.12,0,0,0-.19-.11Z"/><path class="cls-1" d="M53.3,209.2c-.38,2.95-2.66,4.67-3.84,7.2a.13.13,0,0,0,.2.16c2-1.73,3.76-4.67,3.66-7.36a0,0,0,0,0,0,0Z"/><path class="cls-1" d="M53,212.12c-.58.8-1,1.69-1.56,2.5s-1.24,1.51-1.76,2.34c-.1.16.09.3.24.24a6.57,6.57,0,0,0,3.23-5c0-.08-.1-.1-.15,0Z"/><path class="cls-1" d="M51.66,216.14c-1.15.67-2.22,1.53-3.31,2.3-.12.09-.05.31.11.26,1.23-.4,3-1,3.4-2.4a.14.14,0,0,0-.2-.15Z"/><path class="cls-1" d="M45.52,220.37c.71.3,1.6-.27,2.23-.58a9,9,0,0,0,2.46-1.52.09.09,0,0,0-.09-.15A9.14,9.14,0,0,0,48,219.25a7.06,7.06,0,0,1-1.33.57,3.27,3.27,0,0,0-1.13.39.09.09,0,0,0,0,.16Z"/><path class="cls-1" d="M44.1,221.55a7.47,7.47,0,0,0,2.61-.67,7.87,7.87,0,0,0,2.61-1.56.15.15,0,0,0-.15-.25,8,8,0,0,0-2.25,1.11,18.26,18.26,0,0,1-2.83,1.29s0,.08,0,.08Z"/><path class="cls-1" d="M42,222.36a3.2,3.2,0,0,0,2.11,0,4,4,0,0,0,2.24-.83s0-.15,0-.16a5.84,5.84,0,0,0-2,.41,9.82,9.82,0,0,0-2.27.41.07.07,0,0,0,0,.13Z"/><path class="cls-1" d="M40.68,223c.27.38.89.39,1.31.4s1.16.05,1.43-.36a.13.13,0,0,0-.07-.18c-.41-.16-1,.08-1.44.07a3,3,0,0,0-1.21,0,0,0,0,0,0,0,.06Z"/><path class="cls-1" d="M39.46,223.4c.31.52.93.45,1.44.35.18,0,.14-.32,0-.32-.46,0-.91-.11-1.37-.09a0,0,0,0,0,0,.05Z"/><path class="cls-1" d="M29.5,198.22c-2.33,1.86-3.1,5.34-3.23,8.17,0,.17.25.16.26,0a16.43,16.43,0,0,1,.91-4.29,32.52,32.52,0,0,1,2.08-3.86,0,0,0,0,0,0,0Z"/><path class="cls-1" d="M30.67,197.43c-2.09.87-2.12,4.84-2.21,6.71a.12.12,0,0,0,.24,0,22.18,22.18,0,0,1,2-6.7s0,0,0,0Z"/><path class="cls-1" d="M32.46,195.93c-.76.09-1.07,1.14-1.3,1.76a16.33,16.33,0,0,0-.73,3.3.17.17,0,0,0,.33.09c.3-.86.49-1.76.75-2.63a7.16,7.16,0,0,1,.58-1.52,4.71,4.71,0,0,0,.49-.84.13.13,0,0,0-.12-.16Z"/><path class="cls-1" d="M34.6,195c-1.12.24-1.58,2.11-1.83,3.06a30.66,30.66,0,0,0-.64,4.63c0,.11.17.13.19,0,.36-1.29.58-2.62.92-3.92a11.56,11.56,0,0,1,.75-2.23,10.08,10.08,0,0,0,.79-1.38.15.15,0,0,0-.19-.19Z"/><path class="cls-1" d="M36.19,194.51c-.84,0-1.23,1.71-1.4,2.31a20.48,20.48,0,0,0-.66,3.82c0,.14.18.14.23,0a24.94,24.94,0,0,0,.85-3.15,12.75,12.75,0,0,1,.51-1.68c.16-.39.5-.75.61-1.15a.15.15,0,0,0-.15-.19Z"/><path class="cls-1" d="M37.69,194.22a6.38,6.38,0,0,0-1,3.39c0,.2.25.2.32,0,.44-1,.45-2.22,1.07-3.18.18-.27-.25-.51-.43-.25Z"/><path class="cls-1" d="M39,194.32c.34,1.66.36,3.31.62,5,0,.19.33.18.37,0a8.45,8.45,0,0,0-.64-5.12c-.1-.21-.39-.05-.35.15Z"/><path class="cls-1" d="M40.41,194.29a23.25,23.25,0,0,1,1.53,6.44.15.15,0,0,0,.3,0,7.48,7.48,0,0,0-1.74-6.53.06.06,0,0,0-.1.06Z"/><path class="cls-1" d="M41.8,194.47c.41,1.43,1.06,2.76,1.41,4.21s.5,2.89.77,4.33c0,.14.26.14.28,0A12,12,0,0,0,42,194.32c-.1-.11-.28,0-.24.14Z"/><path class="cls-1" d="M43.73,195.28c2.24,2.23,1.67,5.44,2.33,8.28,0,.15.29.16.31,0,.36-2.25.38-7.74-2.43-8.64a.22.22,0,0,0-.21.36Z"/><path class="cls-1" d="M46.08,196.31a6,6,0,0,0,.75,1.39,17.29,17.29,0,0,1,1.09,2.4,40.11,40.11,0,0,1,1,4.12.29.29,0,0,0,.55,0c.38-1.44-.27-3.13-.82-4.45-.46-1.09-1.27-3.18-2.55-3.54a.06.06,0,0,0-.08.08Z"/><path class="cls-1" d="M48.52,198.14a14.36,14.36,0,0,1,1.69,7.25.22.22,0,0,0,.43.06A8,8,0,0,0,48.71,198a.12.12,0,0,0-.19.15Z"/><path class="cls-1" d="M25.91,203.19a3.28,3.28,0,0,0-.59,2.24,31.26,31.26,0,0,0,.16,3.37.07.07,0,0,0,.14,0c0-.91,0-1.81,0-2.72a19.57,19.57,0,0,1,.38-2.87,0,0,0,0,0-.05,0Z"/><path class="cls-1" d="M28.83,198.72a6,6,0,0,0-1,3,17.48,17.48,0,0,0-.26,3.64.1.1,0,0,0,.2,0,30.86,30.86,0,0,0,.58-3.52c.16-1,.56-2.07.65-3.11a.08.08,0,0,0-.14-.06Z"/><path class="cls-1" d="M30.8,197.08c-.9,1.42-1,3.55-1,5.19a.07.07,0,0,0,.14,0c.2-.91.41-1.82.62-2.74a14.87,14.87,0,0,0,.53-2.41.13.13,0,0,0-.24-.07Z"/><path class="cls-1" d="M33.16,195.82c-.69-.05-1,1.29-1.16,1.77a12,12,0,0,0-.53,3.06.14.14,0,0,0,.25.07,11.39,11.39,0,0,0,.7-2.51,8.94,8.94,0,0,1,.41-1.32c.13-.3.42-.64.41-1a.09.09,0,0,0-.09-.09Z"/><path class="cls-1" d="M35.21,194.89a2.05,2.05,0,0,0-.77,1.21A13.06,13.06,0,0,0,34,198a.11.11,0,0,0,.22.06c.21-.53.39-1.07.57-1.61s.47-1,.58-1.5a.09.09,0,0,0-.13-.1Z"/><path class="cls-1" d="M37.17,194.3c-.64.17-.86,1.06-1,1.62a19.43,19.43,0,0,0-.49,2.67c0,.15.17.26.26.11a7.77,7.77,0,0,0,.6-2.11,6.49,6.49,0,0,1,.39-1.33,8.37,8.37,0,0,0,.41-.79.13.13,0,0,0-.16-.16Z"/><path class="cls-1" d="M38.5,194.27c-.06,1.47-.22,3-.23,4.43a.09.09,0,0,0,.18,0,10.79,10.79,0,0,0,.24-4.46.1.1,0,0,0-.2,0Z"/><path class="cls-1" d="M39.66,194.27a9,9,0,0,0,.48,2.45c.2.93.28,1.88.44,2.82,0,.21.34.18.39,0,.47-1.54,0-4.2-1.26-5.28a0,0,0,0,0-.05,0Z"/><path class="cls-1" d="M41,194.39c.24.65.59,1.26.86,1.9a17.5,17.5,0,0,0,.82,2,.2.2,0,0,0,.38-.1,6.3,6.3,0,0,0-1.8-3.92c-.1-.1-.31,0-.25.15Z"/><path class="cls-1" d="M42.79,194.76c.31,1,.81,1.84,1.13,2.79a20.8,20.8,0,0,0,.81,2.69c.13.27.51.12.52-.14a8.57,8.57,0,0,0-.74-3.2,3.81,3.81,0,0,0-1.59-2.24c-.06,0-.16,0-.13.1Z"/><path class="cls-1" d="M45.16,195.67c1.63,1.7,2,4.31,2.57,6.5a.2.2,0,0,0,.39-.05,9.68,9.68,0,0,0-.94-4c-.38-.92-.93-2.16-1.93-2.55-.09,0-.14.09-.09.15Z"/><path class="cls-1" d="M47.58,197.16a21,21,0,0,0,1,2.72c.34.93.51,1.9.84,2.83a.19.19,0,0,0,.37,0,4.18,4.18,0,0,0-.48-2.92,7.09,7.09,0,0,0-1.67-2.69.05.05,0,0,0-.09.05Z"/><path class="cls-1" d="M50.1,199.67a8,8,0,0,0,.58,2.13,10.4,10.4,0,0,0,.76,2.89.16.16,0,0,0,.3,0,4.83,4.83,0,0,0-.39-2.57,5.83,5.83,0,0,0-1-2.42.19.19,0,0,0-.22,0h0a0,0,0,0,0,0,0Z"/><path class="cls-2" d="M65.16,195.2c-1.16-2.17-9.94,1.33-15.67,3.62l.82,1.09c1.91-.66,8.21-2.38,8.75-1.58s-7.33,8.41-17.12,13.9c-8.12,4.55-20.81,7.83-21.4,7.07s2.86-3.72,5.15-5.45l-.48-1.47c-4.86,3.37-12.41,9.25-11.34,11.8s16.9-3.39,28.79-9.8C60.14,205,66.31,197.36,65.16,195.2Z"/><path class="cls-1" d="M65.63,194.73c-3.12-3.4-13.2,2.2-16.32,3.45-.35.14-.69.6-.4,1l.82,1.09a.69.69,0,0,0,.75.31,42.69,42.69,0,0,1,5.44-1.45c3.42-.63,1.71.45.16,2a67.75,67.75,0,0,1-14.48,10.58,69.29,69.29,0,0,1-15.13,6c-.94.26-4.06,1.54-5,1.09-.57-.27.77-1.12,1.5-1.76,1-.91,2.09-1.78,3.18-2.63a.65.65,0,0,0,.17-.65l-.48-1.47a.67.67,0,0,0-1-.4c-2.25,1.58-14.46,9.16-11.39,13,.93,1.15,3.06.63,4.28.42,4.65-.8,9.21-2.78,13.53-4.62,9.72-4.14,19.43-9.2,27.65-15.91,2-1.63,8.19-6.22,6.87-9.64-.31-.79-1.6-.45-1.29.35,1.33,3.44-8,9.58-10,11a127.08,127.08,0,0,1-25.75,13.85,67.62,67.62,0,0,1-10,3.41c-1.39.33-3.06,1.1-3.79-.21-.84-1.51,2.13-3.76,3.22-4.76,1.64-1.49,3.67-2.64,5.22-4.19,1.06-1.06,2-1.79.7-.24s-4.41,2.81-4.31,5.11a.67.67,0,0,0,.33.58c1.14.56,2.91-.06,4.06-.31a73.09,73.09,0,0,0,11.51-3.7,65.89,65.89,0,0,0,21.62-14.2c1.88-1.89,3.85-4.33-.17-4.13a22.23,22.23,0,0,0-4.44.94c-.52.14-1.51.58-2,.68-1,.2,0-.13.1-.17,2.11-1.09,11.84-5.5,13.84-3.32C65.27,196.31,66.21,195.36,65.63,194.73Z"/><path class="cls-1" d="M21.14,216.22a12.51,12.51,0,0,0-3.6,3.49c-.67.88-1.75,2.36-1.19,3.52,0,.1.19,0,.19-.05.1-3.12,3-4.61,4.66-6.89,0,0,0-.08-.06-.06Z"/><path class="cls-1" d="M18.44,221.07c-.31,3.18,16.53-3.55,18.45-4.72.08-.05.06-.22-.06-.2-2.92.36-16.59,8.32-18.36,4.91,0,0,0,0,0,0Z"/><path class="cls-1" d="M54.94,197.47c1.62.34,3.37-.83,5-.74,2.57.14,1.19,2.11.16,3.23-1.7,1.85-4.06,3.1-5.66,5a.16.16,0,0,0,.19.25,23.15,23.15,0,0,0,3.43-2.65,13,13,0,0,0,3.57-3.92c1.64-3.56-5.43-1.72-6.73-1.19,0,0,0,0,0,0Z"/><path class="cls-1" d="M62,196a2.26,2.26,0,0,1,.88,1,0,0,0,0,0,.09,0,1.61,1.61,0,0,0-.87-1.12c-.11-.05-.2.11-.09.16Z"/><path class="cls-1" d="M48,209.29c3.21-2,6-4.51,9-6.79.08-.06,0-.19-.08-.14-3.23,2-6,4.6-9,6.86,0,0,0,.1,0,.07Z"/><path class="cls-1" d="M51.19,208.32c3.16-2.29,6.69-4.39,9.33-7.31.07-.07,0-.22-.11-.15-3.12,2.4-6.26,4.84-9.25,7.41,0,0,0,.06,0,0Z"/><path class="cls-2" d="M20.7,130.23c14.18-1.57,42.4-1.64,56.63-2.2"/><path class="cls-1" d="M20.7,130.33c18.86-1,37.78-.93,56.63-2,.41,0,.41-.65,0-.64q-14.53.29-29.07.75c-9.14.27-18.54.22-27.58,1.67-.11,0-.09.21,0,.2Z"/><path class="cls-2" d="M20.7,130.23c-6.5-2.95-1.3-12.06,3.18-7.56"/><path class="cls-1" d="M20.82,130.11c-.94-1-2.08-1.41-2.57-2.78A4.5,4.5,0,0,1,18.4,124a3.69,3.69,0,0,1,2.17-2.11c1.21-.37,2.24.29,3.19,1,.24.17.44-.18.29-.38-1.88-2.38-5-1.4-6.25,1.09s-.17,6.45,2.9,6.8c.15,0,.2-.18.11-.28Z"/><path class="cls-2" d="M22,121.87c-6-9.42,7.33-18.35,14.46-9.15"/><path class="cls-1" d="M22.13,121.83c-1.67-4.14-1.89-8.47,2.35-11.19s8.35-.85,11.82,2.22a.2.2,0,0,0,.31-.24c-5.89-9.94-22.12.33-14.73,9.36.09.11.3,0,.25-.14Z"/><path class="cls-2" d="M29.89,117c2.09-3.44,8.7-6.74,12-3"/><path class="cls-1" d="M30,117.09a11.56,11.56,0,0,1,5.52-3.91c2.42-.78,4.14-.2,6.24,1a.26.26,0,0,0,.35-.35c-2.85-4.75-10.44-.26-12.35,3.09-.09.16.13.28.24.14Z"/><path class="cls-2" d="M37.9,112.73c-4.4-8.57,11.94-15.47,15.5-6.74"/><path class="cls-1" d="M38,112.69c-1.15-4.21.56-7.56,4.56-9.35s8.19-1.06,10.56,2.79a.27.27,0,0,0,.5-.21c-3.09-9.8-21.57-1.42-15.89,6.89a.15.15,0,0,0,.27-.11Z"/><path class="cls-2" d="M53.12,106c7.3-6.47,16.63-1.61,15.05,8.25"/><path class="cls-1" d="M53.19,106.15c3.51-1.86,6.9-3.91,10.83-1.57s3.39,6,4,9.76a.2.2,0,0,0,.37,0c1.59-3.67-.55-8.63-3.88-10.59A9.31,9.31,0,0,0,53,105.95a.13.13,0,0,0,.16.2Z"/><path class="cls-2" d="M62.81,115c3.42-1.82,9.54-.82,9.34,4.14"/><path class="cls-1" d="M62.85,115.18a8.41,8.41,0,0,1,5.52-.37c2.33.68,3.07,2.22,3.57,4.43a.21.21,0,0,0,.41,0C73.57,114,66,113,62.74,114.91c-.14.08,0,.34.11.27Z"/><path class="cls-2" d="M66.22,121.48c4.33-4.6,15.67.17,11.11,6.55"/><path class="cls-1" d="M66.29,121.59a8.25,8.25,0,0,1,8.4-.66,5.8,5.8,0,0,1,2.87,2.63c.72,1.62-.13,2.84-.48,4.39,0,.2.18.42.37.29,3.08-2.21.81-6.37-1.74-7.81-2.86-1.61-7.47-2-9.61,1-.08.11.08.26.18.18Z"/><path class="cls-2" d="M206.4,196.79c8-.88,23.92-.92,31.94-1.24"/><path class="cls-1" d="M206.4,196.89c10.59-.07,21.36-.46,31.94-1,.41,0,.41-.65,0-.64-10.41.21-21.73-.58-32,1.46-.11,0-.09.2,0,.2Z"/><path class="cls-2" d="M206.4,196.79c-3.67-1.66-.74-6.8,1.79-4.26"/><path class="cls-1" d="M206.54,196.71c-.32-.6-1-.8-1.33-1.49a2.39,2.39,0,0,1,0-1.78,2,2,0,0,1,1.1-1.17c.66-.23,1.21.16,1.77.46a.24.24,0,0,0,.33-.33c-1-1.6-3.07-.89-3.77.56a3,3,0,0,0-.13,2.38c.28.69,1.11,1.75,1.94,1.6a.16.16,0,0,0,.1-.24Z"/><path class="cls-2" d="M207.13,192.08c-3.39-5.31,4.13-10.35,8.15-5.16"/><path class="cls-1" d="M207.27,192c-.33-1.22-.87-2.25-.55-3.56a4.39,4.39,0,0,1,2-2.68,4.73,4.73,0,0,1,3.23-.6c1.34.25,2.13,1.16,3.19,1.89.18.12.34-.11.27-.27-1.2-2.74-5.13-3-7.35-1.49s-3.12,4.89-1.08,6.86a.15.15,0,0,0,.25-.14Z"/><path class="cls-2" d="M211.59,189.34c1.18-1.94,4.9-3.8,6.78-1.71"/><path class="cls-1" d="M211.69,189.44a7,7,0,0,1,3.13-2.11,3.88,3.88,0,0,1,1.81-.17,10.44,10.44,0,0,1,1.67.72.26.26,0,0,0,.31-.31c-.46-1.32-2.35-1.39-3.5-1.09a5.67,5.67,0,0,0-3.64,2.8c-.07.13.11.29.22.17Z"/><path class="cls-2" d="M216.1,186.92c-2.48-4.83,6.73-8.73,8.74-3.8"/><path class="cls-1" d="M216.25,186.88a4.42,4.42,0,0,1,.26-3.16,5.16,5.16,0,0,1,2.54-2,4.39,4.39,0,0,1,5.56,1.57.27.27,0,0,0,.5-.21c-.62-2.9-4.33-3-6.52-2s-4.57,3.8-2.59,6c.11.12.26,0,.25-.14Z"/><path class="cls-2" d="M224.69,183.15c4.12-3.65,9.38-.91,8.49,4.66"/><path class="cls-1" d="M224.72,183.27c.95-.31,1.7-1,2.69-1.23a4.4,4.4,0,0,1,3.17.36,4.23,4.23,0,0,1,2,2.47c.31,1,0,2,.42,3a.21.21,0,0,0,.37,0c1.44-1.93-.48-5.29-2.32-6.27s-5.34-.61-6.46,1.45a.13.13,0,0,0,.15.19Z"/><path class="cls-2" d="M230.16,188.22c1.93-1,5.38-.46,5.27,2.34"/><path class="cls-1" d="M230.2,188.37a4.91,4.91,0,0,1,3.16-.08c1.27.41,1.42,1.29,1.89,2.38a.21.21,0,0,0,.37,0c.54-1.26-.53-2.49-1.66-3a4.3,4.3,0,0,0-3.86.38c-.13.09-.05.33.11.27Z"/><path class="cls-2" d="M232.08,191.86c2.44-2.59,8.84.1,6.26,3.7"/><path class="cls-1" d="M232.15,192a5,5,0,0,1,4.72-.2,2.89,2.89,0,0,1,1.49,1.54c.27.84-.34,1.44-.27,2.23a.26.26,0,0,0,.32.24c.93-.29,1.15-1.58,1-2.43a3.52,3.52,0,0,0-1.74-2.2c-1.6-.95-4.63-1.31-5.68.63a.13.13,0,0,0,.18.18Z"/><path class="cls-3" d="M74.48,101l-.13.11L75,101a.86.86,0,0,0-.38-.12c-.54,0,.4.77.36.36a.9.9,0,0,0-.38-.63.5.5,0,0,0-.78,0,1,1,0,0,0,0,1.39.9.9,0,0,0,1.31,0,.68.68,0,0,0,.17-.65v0l-.14.53.12-.12c.5-.5-.24-1.21-.76-.76Z"/><path class="cls-3" d="M41.64,54.09l-.24,0,.46.46a1.06,1.06,0,0,0-.25-.44q-.54-.51-.07.8l0,0a1.23,1.23,0,0,0,.54-.51.59.59,0,0,0-.09-.7,1.14,1.14,0,0,0-1.8.51.93.93,0,0,0,1.53,1l-.47.19a3.35,3.35,0,0,0,.42,0,.62.62,0,0,0,0-1.24Z"/><path class="cls-3" d="M100.08,21.49c0-.1,0-.19,0-.29s0,.19,0,0a.92.92,0,0,0-.24-.9l0,0,.2.75a2.34,2.34,0,0,0,.17-.77.41.41,0,0,0-.4-.4,1.46,1.46,0,0,0-.91.3l.59-.08h0a1,1,0,0,0-1.13.64,2.39,2.39,0,0,0-.1.82.94.94,0,0,0,1.87,0Z"/><path class="cls-3" d="M151.81,67.76l-.53.61,1.14.47.16-.6a.42.42,0,0,0-.62-.47c-.5.33-.86.46-.88,1.07,0,.8,1.05.84,1.31.18l.29-.75c.19-.49-.54-.9-.88-.51Z"/><path class="cls-3" d="M178.73,24.84l-.53.4c-1,.72.53,1.83,1,.73l.21-.55a.38.38,0,0,0-.46-.46l-.55.21c-1.09.42,0,1.91.73,1l.4-.53c.33-.43-.32-1.08-.76-.76Z"/><path class="cls-3" d="M253.77,35.57a.67.67,0,0,0,0-1.33.67.67,0,0,0,0,1.33Z"/><path class="cls-3" d="M253.77,120.5a.61.61,0,0,0,0-1.23.61.61,0,0,0,0,1.23Z"/><path class="cls-3" d="M229.56,132.67v-.18a.71.71,0,0,0-1.42,0v.74a.7.7,0,0,0,1.39,0v-.74a.71.71,0,0,0-1.42,0v.18a.71.71,0,0,0,1.42,0Z"/><path class="cls-3" d="M135.7,212.09l-.26-.49a.6.6,0,0,0-1,0l-.26.49a.89.89,0,1,0,1.54,0Z"/><path class="cls-3" d="M131.72,188.25q-.11.09,0,0h.5q.55.69.36.28a1.17,1.17,0,0,0-.09-.2.91.91,0,0,0-.41-.35.93.93,0,0,0-.55,0,.82.82,0,0,0-.59.59,1.26,1.26,0,0,0,.5,1.41,1.32,1.32,0,0,0,1.59-.41c.86-.84-.42-2.08-1.3-1.3Z"/><path class="cls-3" d="M84.87,153.85l-.23,0q-.24-.06.12.12l.2.35v.39c0,.09-.09.11,0,0a1.31,1.31,0,0,0,.17-.25.93.93,0,0,0,.1-.7.55.55,0,0,0-.4-.4,1.27,1.27,0,0,0-1.42,1.11c0,.85.86.86,1.46.77a.72.72,0,0,0,0-1.39Z"/><path class="cls-3" d="M55,194a2,2,0,0,0-.29.28c-.09.14.24-.07.07,0a1,1,0,0,0-.67.67h0l.86-.65c.2,0-.22-.1-.26-.12a.69.69,0,0,0-.85.85,1.74,1.74,0,0,0,.48.79l-.26-.63h0a1,1,0,0,0,1.21.92,2.12,2.12,0,0,0,1.06-.73A1,1,0,0,0,55,194Z"/><path class="cls-3" d="M22.47,147.53a3.41,3.41,0,0,0,2.29-1.23.43.43,0,0,0-.07-.52,1.11,1.11,0,0,0-1.11-.23,7.76,7.76,0,0,1-1.11.36c-1,0-1,1.71,0,1.62Z"/><path class="cls-3" d="M49.31,142.28a0,0,0,0,0,0-.06,0,0,0,0,0,0,.06Z"/><path class="cls-3" d="M.75,129a.77.77,0,0,0,0-1.54.77.77,0,0,0,0,1.54Z"/><path class="cls-3" d="M20.62,217.21c.08-.22.17-.43.26-.64a.39.39,0,0,0-.52-.52l-.64.26a.73.73,0,1,0,.9.9Z"/><path class="cls-3" d="M170.09,253.89a1.3,1.3,0,0,0-.32-.8.5.5,0,0,0-.68,0,1.3,1.3,0,0,0-.32.8c-.24,1.1,1.56,1.1,1.31,0Z"/><path class="cls-3" d="M192.43,227.22a.63.63,0,0,0,0-1.26.63.63,0,0,0,0,1.26Z"/><path class="cls-3" d="M234.5,229.15c0,.67.36,1.67,1.24,1.38a1,1,0,0,0,.45-1.61.45.45,0,0,0-.55-.07,1.38,1.38,0,0,0-.45.45s0,0,0,0q-.37.33.83.37c0-.15,0-.36,0-.52,0-1-1.53-1-1.48,0Z"/><path class="cls-3" d="M212.71,174c.57-.56,1.41-.79,1.78-1.55.13-.27-.1-.71-.44-.57a7.34,7.34,0,0,0-2.28,1.18c-.64.57.32,1.54.94.94Z"/><path class="cls-3" d="M266.4,167.27l-.62.09a.48.48,0,0,0,0,.91l.62.09a.56.56,0,1,0,0-1.08Z"/><path class="cls-3" d="M280,128.23a0,0,0,0,0,0-.06,0,0,0,0,0,0,.06Z"/><path class="cls-3" d="M268.93,90.49l-.51.08c-.09,0-.2,0,0,0a.57.57,0,0,0,0,1.14c-.1,0-.21,0,0,0l.51.08a.67.67,0,1,0,0-1.3Z"/><path class="cls-3" d="M213.5,27a1.65,1.65,0,0,0,.44-1,.43.43,0,0,0-.42-.42,1.65,1.65,0,0,0-1,.44c-1,.65.32,2,1,1Z"/><path class="cls-3" d="M130.45,60.85a3.34,3.34,0,0,0-1.46.28.71.71,0,0,0,0,1.22,3.34,3.34,0,0,0,1.46.28.89.89,0,0,0,0-1.78Z"/><path class="cls-3" d="M140,29.19a0,0,0,0,0,0-.06,0,0,0,0,0,0,.06Z"/><path class="cls-3" d="M100.85,41.79l-.5.1c-.11,0-.2,0,.08,0a.68.68,0,0,0,0,1.36c-.1,0-.26,0-.08,0l.5.1a.8.8,0,1,0,0-1.56Z"/><path class="cls-3" d="M83.81,10a0,0,0,0,0,0-.06,0,0,0,0,0,0,.06Z"/><path class="cls-3" d="M159.21,1.57c.38,0,.8,0,1-.37a.93.93,0,0,0-.1-1.09.41.41,0,0,0-.57,0c-.08.09-.33.43-.23.57s.14-.24.21-.18a1.22,1.22,0,0,0-.33,0,.53.53,0,0,0,0,1.06Z"/><path class="cls-3" d="M156,43a2.94,2.94,0,0,0-.61.05c.06-.12.54.3.45.08a.44.44,0,0,0-.14-.14.57.57,0,0,0-.85.22.91.91,0,0,0,0,.94,1.34,1.34,0,0,0,1.16.5c1.06.1,1.06-1.74,0-1.65Z"/><path class="cls-3" d="M140,24.08a0,0,0,0,0,0-.06,0,0,0,0,0,0,.06Z"/><path class="cls-3" d="M102.34,58.53h-.57a.65.65,0,0,0,0,1.3h.57a.66.66,0,0,0,0-1.32Z"/><path class="cls-3" d="M85.09,92.42a.64.64,0,0,0,0-1.29.64.64,0,0,0,0,1.29Z"/><path class="cls-3" d="M87.48,62.22l.18-.18c.57-.64-.33-1.57-1-1-.29.29-.83.67-.92,1.08a.65.65,0,0,0,.79.79c.41-.09.79-.64,1.08-.92l-1-1-.18.18a.67.67,0,0,0,1,1Z"/><path class="cls-3" d="M88.92,122.54a.73.73,0,0,0,0-1.47.73.73,0,0,0,0,1.47Z"/><path class="cls-3" d="M67.35,141.19a3.89,3.89,0,0,0,.22-.86.38.38,0,0,0-.37-.37,3.89,3.89,0,0,0-.86.22.82.82,0,1,0,1,1Z"/><path class="cls-3" d="M100.42,164.59l-.48,0a.62.62,0,1,0,.32,1.17l.37-.19a.41.41,0,0,0,0-.71l-.37-.19a.62.62,0,1,0-.32,1.17l.48,0c.85.05.85-1.37,0-1.32Z"/><path class="cls-3" d="M73.15,176.12v-.57a.84.84,0,0,0-1.68,0v.57a.84.84,0,0,0,1.68,0Z"/><path class="cls-3" d="M119.59,183.76c-.4,0-.78-.1-1.09.24a.88.88,0,0,0,0,1.21,1.75,1.75,0,0,0,2,.34.57.57,0,0,0,0-1c-.28-.2-.78-.35-.91-.51l.2.34,0,.13-.11.39c-.37.48-.08.1.07,0l-.48.2.29,0a.67.67,0,0,0,0-1.33Z"/><path class="cls-3" d="M146.41,196.11c0,.17.06.34.09.51s0,.2,0,0a.57.57,0,0,0,1.14,0c0,.1,0,.21,0,0s.06-.34.09-.51a.67.67,0,1,0-1.31,0Z"/><path class="cls-3" d="M145.79,219a1.23,1.23,0,0,0-.86.29.38.38,0,0,0,0,.52,1.24,1.24,0,0,0,.86.29c.7.06.7-1.15,0-1.09Z"/><path class="cls-3" d="M116.4,228.67a.8.8,0,0,0,0-1.6.8.8,0,0,0,0,1.6Z"/><path class="cls-3" d="M200.1,179.48a.81.81,0,0,0,0-1.62.81.81,0,0,0,0,1.62Z"/><path class="cls-3" d="M191.15,212.12a.86.86,0,0,0,0-1.72.86.86,0,0,0,0,1.72Z"/><path class="cls-3" d="M183.71,209.12a1.68,1.68,0,0,0,1.44.56,1.78,1.78,0,0,0,1.15-.82c.17-.27-.16-.54-.41-.41a1.12,1.12,0,0,1-.74.23,1.36,1.36,0,0,1-.62-.39c-.54-.53-1.39.33-.83.83Z"/><path class="cls-3" d="M206.49,201.07a0,0,0,0,0,0-.06,0,0,0,0,0,0,.06Z"/><path class="cls-3" d="M225.66,165.29a0,0,0,0,0,0-.06,0,0,0,0,0,0,.06Z"/><path class="cls-3" d="M218.24,161.71a1.4,1.4,0,0,0,1-1.74c-.14-.51-1-.71-1.23-.16-.09.2,0,0,.08,0h.12a1,1,0,1,0,0,1.85Z"/><path class="cls-3" d="M238.44,132.7a0,0,0,0,0,0-.06,0,0,0,0,0,0,.06Z"/><path class="cls-3" d="M226.94,113.53a0,0,0,0,0,0-.06,0,0,0,0,0,0,.06Z"/><path class="cls-3" d="M237.16,100.11a0,0,0,0,0,0-.06,0,0,0,0,0,0,.06Z"/><path class="cls-3" d="M213.2,96.25v-.56a1,1,0,0,0-1.9,0v.56a1,1,0,0,0,1.92,0Z"/><path class="cls-3" d="M222.65,107c-.44.31-.84.67-1.25,1l1.25-.16-.1-.06.44,1.69.13-.27.13-.24.12-.28q-.07.14,0,0a3.62,3.62,0,0,0,.51-1.57.78.78,0,0,0-1-.74,3.55,3.55,0,0,0-1.27,1q-.08.07,0,0t-.2.16l-.15.17-.22.25a1.23,1.23,0,1,0,2.11.87v-.11l-.3.73a13.3,13.3,0,0,0,1-1.24.9.9,0,0,0-1.23-1.23Z"/><path class="cls-3" d="M233,90.5c0-.24-.07,0,0-.11-.09.13.05,0,.08-.06a.67.67,0,0,0-.13-1,1.29,1.29,0,0,0-1.8.95c-.39,1.41,2,1.56,1.85.25Z"/><path class="cls-4" d="M115.68,255s-19.5,5.41-16.14,28,2,33.87,26.81,33.76c14.84-.07,25-31.72,17.18-49.47C138.3,255.4,115.68,255,115.68,255Z"/><path class="cls-5" d="M182.91,271.35c-12.47-11.42-13.88-21.46-21.29-19.58-9.35,2.36-10.27,12.2-5.23,18.11s15.32,15,16.84,15.84c7.39,4.29,19.34,10.17,23,8.68L202.56,282C199.6,279.36,184.79,273.07,182.91,271.35Z"/><polygon class="cls-5" points="196.25 294.39 201.86 296.29 208.19 283.96 202.56 282.04 196.25 294.39"/><path class="cls-4" d="M202.25,295.12s1.77.9,6.52,3.61,9.12,2.89,12.77-1.34,3.1-7.1-1.89-8.56a17.45,17.45,0,0,0-4.84-.32s4.3-.49,4-2.82c-.37-3.2-8.46.22-11.88.27Z"/><path class="cls-5" d="M213.25,292s7,1.16,10.62.36"/><path class="cls-5" d="M222.78,295.74s-3.45,1.42-10.47-1.17"/><path class="cls-5" d="M220.1,298.79a16,16,0,0,1-9.16-2.16"/><path class="cls-5" d="M174.84,296.34c0-18-.72-45.63-12.39-49.1-6.67-2-38,2-38,2a75.22,75.22,0,0,1-6.2,5.06c-11.87,8.94.88,45.9,6.47,66.25,5.81,23.1,6.14,52,6.14,52l11.08,1.81s2.65-4.54,4.9-15.2c2.42-11.45,7.85-40.11,7.85-40.11s11.61,3.18,13.49,4.82,5.57,19.56,8.82,35.2l13.09-1.63s-1.19-37.72-3-42.45S174.84,301.05,174.84,296.34Z"/><path class="cls-4" d="M190.6,357.4l-.8-18.82s-1.3,2.07-8,2.9a34.71,34.71,0,0,1-9.59-.69s2.8,14.71,2.9,16.55c.43,7.51,0,6.71,1,14.69l31.07-3.88C209.29,360.09,203.08,352.86,190.6,357.4Z"/><path class="cls-4" d="M207.48,370.22c-.71.09-.63.73-1.34.82s-.79-.55-1.49-.46-.63.73-1.34.82-.79-.55-1.49-.46-.63.73-1.33.81-.79-.55-1.49-.46-.63.73-1.33.82-.79-.55-1.5-.46-.63.73-1.33.81-.79-.55-1.49-.46-.63.73-1.33.82-.79-.55-1.49-.46-.63.73-1.33.81-.79-.55-1.49-.46-.63.73-1.33.81-.79-.55-1.49-.46-.63.73-1.33.82-.79-.55-1.49-.46-.63.73-1.33.82-.79-.55-1.49-.46-.63.73-1.33.82-.79-.55-1.49-.46l-.26-2.07,31.11-3.88Z"/><path class="cls-4" d="M144.28,377.85l2.55-18.67s-1.64,1.8-8.39,1.44a34.59,34.59,0,0,1-9.31-2.38s.15,15-.08,16.8c-.9,7.46-1.19,6.6-1.62,14.63l31.27,1.69C162.2,383.8,157.37,375.58,144.28,377.85Z"/><path class="cls-4" d="M158.62,393.45c-.71,0-.75.6-1.46.56s-.68-.68-1.39-.72-.75.6-1.46.56-.68-.68-1.39-.72-.74.61-1.46.57-.67-.68-1.39-.72-.75.6-1.46.56-.68-.68-1.39-.72-.75.6-1.46.56-.67-.68-1.39-.72-.75.6-1.46.57-.68-.68-1.39-.72-.75.6-1.46.57-.68-.68-1.39-.72-.75.6-1.46.57-.68-.68-1.39-.72-.75.6-1.46.57-.68-.68-1.39-.72-.75.6-1.46.57-.68-.68-1.39-.72-.75.6-1.46.56-.68-.68-1.39-.72l.11-2.09,31.31,1.69Z"/><path class="cls-5" d="M121.17,289c1.59-16.84,2.79-28.79,2.79-28.79-7.53-6-15.93-.84-17.6,6.74s-2.7,21.24-2.48,23c1,8.48,3.54,21.56,6.95,23.59l13.66-2.41C124.84,307.14,120.93,291.53,121.17,289Z"/><polygon class="cls-5" points="110.83 313.53 112.69 319.15 126.35 316.77 124.48 311.11 110.83 313.53"/><path class="cls-4" d="M113.86,318.75s.35,2,1,7.38,3.19,9,8.77,9.37,7.53-1.81,5.69-6.66a17.42,17.42,0,0,0-2.66-4.05s3,3.13,4.68,1.51c2.33-2.23-5.27-6.62-7.38-9.32Z"/><path class="cls-5" d="M123,325.63s3.28,6.27,6.11,8.69"/><path class="cls-5" d="M125.74,335.51s-3.21-1.89-5.38-9.06"/><path class="cls-5" d="M121.69,335.21a16.05,16.05,0,0,1-3.8-8.61"/><path class="cls-4" d="M109.47,237.56s2.68,9.93,6.7,13.67-4.51,4.26-4,6.82c.74,3.79,15.82,10.7,27.51,9.69,23.46-2,29.31-15.23,29.31-15.23-.14-3.11-4.27-4.22-4.27-4.22s.92-4-.76-6.13Z"/><circle class="cls-5" cx="137.85" cy="221.79" r="32.46" transform="matrix(0.99, -0.16, 0.16, 0.99, -33.43, 24.67)"/><path class="cls-5" d="M164.33,240.56c-23.44,20-45.91-5.19-45.91-5.19S116.08,200,147,190.64"/><path class="cls-6" d="M129.51,215.93c-3,5.14-3,14.19-.39,15.16s1.94-9.19,5.3-13.12C138,213.84,132.55,210.74,129.51,215.93Z"/><path class="cls-6" d="M133.78,206.73a2.57,2.57,0,0,0-.75,3.53l.15.23a2.55,2.55,0,1,0,4.28-2.79l-.15-.23A2.57,2.57,0,0,0,133.78,206.73Z"/><path class="cls-6" d="M163.51,230a1.24,1.24,0,0,0-1.93-.19c-1.58,1.64-8.13,5.64-5.83,8.56,1.76,2.23,4.24.63,6-1.64C163.79,234.9,165.16,232.27,163.51,230Z"/><path class="cls-4" d="M112.92,235.17c-3.76-1.15-8.52-5.57-10.36-11.54-1.33-4.31.5-8.69,3.44-8.12,0,0-2,11.73,9.32,15.3Z"/><circle class="cls-4" cx="118.42" cy="235.37" r="5.51" transform="translate(-62.18 43.52) rotate(-16.56)"/><circle class="cls-4" cx="118.42" cy="235.37" r="2.34" transform="matrix(0.96, -0.29, 0.29, 0.96, -62.17, 43.52)"/><path class="cls-5" d="M116.82,252s11.46,11.54,28,9"/><path class="cls-5" d="M164.71,248.3s-5,7-10.41,9.5"/><path class="cls-4" d="M167.7,267.55s-2.11-2-5.95-.9L138,273.42a3,3,0,0,0-2.6,3.34l3.37,27a3,3,0,0,0,3.34,2.6l26.48-7.54c.81-.1,3-3.38,3-3.38Z"/><path class="cls-4" d="M172.1,293.57a2.66,2.66,0,0,1-2.31,3l-23.53,6.7a2.66,2.66,0,0,1-3-2.31l-3-24a2.65,2.65,0,0,1,2.31-3l23.53-6.7a2.66,2.66,0,0,1,3,2.31Z"/><line class="cls-4" x1="140.55" y1="305.42" x2="144.18" y2="302.59"/><line class="cls-4" x1="135.97" y1="274.61" x2="140.46" y2="275.64"/></g></g></svg>