<svg xmlns="http://www.w3.org/2000/svg" viewBox="0 0 220.01 220.01"><defs><style>.cls-1,.cls-2{fill:#b9c95e;}.cls-1{fill-rule:evenodd;}</style></defs><title>Asset 26</title><g id="Layer_2" data-name="Layer 2"><g id="_14" data-name="14"><path class="cls-1" d="M110,10.3c1.39,0,2.78,0,4.15.09l-.13-.08h0c1.27-.12,2.13-.14,2.57.21q2.08.14,4.14.36a81.8,81.8,0,0,1,7.4-9.39A110.56,110.56,0,0,0,110,0q-2.46,0-4.88.11L105,.32c-.68,0-.81.14-.72-.17l-1.06.06a15.68,15.68,0,0,1-3.65.28L97.94.65a.31.31,0,0,1-.13.08L97.72.68l-1,.12q.68.71,1.35,1.45c-.69.37-.63.49.6.68q.44.5.85,1a2.57,2.57,0,0,1-2.67-.46,2,2,0,0,1-1.06,1.35h0a1.53,1.53,0,0,0-.48,0c-.3-.73-.8-2.53.46-2.56A11.71,11.71,0,0,1,95,1,109.36,109.36,0,0,0,77.88,4.77a5.63,5.63,0,0,1-.39.92h0a1.75,1.75,0,0,1-.7.34A5.4,5.4,0,0,1,77.21,5a109.36,109.36,0,0,0-22.27,9.79c1,0,1.82.27,2.05,1.42-.79.05-1.71-.77-2.79-1q-2.07,1.22-4.08,2.53a4.12,4.12,0,0,1-.83,1.57c.09.14,0,.38,0,.74-.69,0-.94-.08-1-.32a1.21,1.21,0,0,1-.63-.33A110.61,110.61,0,0,0,28,36.72a4.67,4.67,0,0,1,.75-.1c1.82-.77,1.21-3,4.36-2.24h0c2.37.49,2.72,2.94,5,3.9.13.47,1.09.7,1.72.89q1.33-1.32,2.72-2.59a.53.53,0,0,1,0-.27h0a2.28,2.28,0,0,1,.74-.43l-.08-.17h0l.37,0,1-.86a3.5,3.5,0,0,1-1-.59,20.34,20.34,0,0,1-3.83,2.36,1.06,1.06,0,0,1-.28-.93c4.37-2.44.88-2.18,3.3-2.3a2.11,2.11,0,0,1-.47-1.4h0a8.44,8.44,0,0,1,4.38-.23,7.71,7.71,0,0,1,0,1.34q1.31-1.09,2.67-2.13a2.81,2.81,0,0,1-.58-.47h0c2.11-1.59,2.3-1.34,2.15-.71q1.23-.91,2.48-1.78c-.49,0-.67,0-.57-.32h0a3.77,3.77,0,0,1,1,0q3.27-2.24,6.72-4.23c-.12,0-.07-.15.47-.45h.35q2.2-1.24,4.47-2.37l0-.1.39-.12,0,0c-1.87-.36-4.36.83-4.53.09h0a9.31,9.31,0,0,1,1.51-.68c-.79-.52-1.5-1.44-1.17-1.67,2.75.23,2-2.37-1.28-.56-2,1.44-4.61-.81-1.31-1,1.82-.77,1.21-3,4.36-2.24h0c2.37.49,2.73,2.94,5,3.91.08.27.42.46.82.61q1.11-.49,2.23-1a3.83,3.83,0,0,1-3.64-.58,1,1,0,0,0-.11-.86l4.13,1.27h0l-.25.12a99.11,99.11,0,0,1,11.72-4,7,7,0,0,1-1.09-.16,23.58,23.58,0,0,1-8.83.84,20.91,20.91,0,0,1-3.41,2,1.06,1.06,0,0,1-.28-.93c4.27-2.38,1-2.19,3.14-2.29l3.1-2.6L77.9,11c3.39,4.67,2.7.12,2.91.08,8.36-2.71,9.17-1.87,10-1.67,1.07-1,1.88-1.95,4.12-1.12,3.7-.25.43,2.8-.5.33-.89.06-5.23,5-4.79,1.84-1.45.79-3.12,1.18-4.58,2h0a2.64,2.64,0,0,1-1.08.72c.34.15.52.31.52.42l1.72-.44a.52.52,0,0,1,0-.24h0a8.19,8.19,0,0,1,2.43-1.17A9.69,9.69,0,0,1,87.09,13,99.54,99.54,0,0,1,104,10.48l-.09-.08h0a5.78,5.78,0,0,1,2.81,0q1.62-.05,3.26-.05Zm15.81,1.25c0-2.16-1.11-5.09,0-6.52a7.88,7.88,0,0,0,3-3.44q3.68.63,7.28,1.51l0,.23h0l.4-.14a109.31,109.31,0,0,1,28.94,11.74,1.23,1.23,0,0,0-.56,1.39h0l2.84.13.07-.11q3.59,2.22,7,4.7a2.4,2.4,0,0,0,2.73,2.06q3.06,2.38,5.94,5a1.32,1.32,0,0,0,1.1,1,110.61,110.61,0,0,1,8.62,8.87c-1.39-.45-2.48-.44-3.88-.89-.83.15-1.18.2-.48.87a12,12,0,0,1,4.47,2h0l.23.14a.93.93,0,0,0,.45-1.22,109.92,109.92,0,0,1,19,32.1,1.11,1.11,0,0,0,.16.42q1.13,3,2.1,6.13a1.58,1.58,0,0,0-.69-.58h-.38c.78,1.21,1.18,1.44,1.28,1.28q1.56,5.18,2.62,10.56h-.07a4.36,4.36,0,0,0,.49,2.25q.83,4.75,1.24,9.64a33.91,33.91,0,0,1-1.47-3.07h-.44c.36.93.57,2.14,1,3.26l1,1.3Q220,106,220,110c0,.91,0,1.81,0,2.71l-.12-.11h0c-.63.17-.66.08-.27,1.11l.36-.07q-.11,3.46-.44,6.86c-.64-.18-1.62.48-2.07.85a1.51,1.51,0,0,1,.12.47h0a2.18,2.18,0,0,0,1.75.61q-.09.8-.19,1.59a1.31,1.31,0,0,0-.39-.67h0c0,.09-.1.08-.16.09.18.82.39,1,.49,1q-.59,4.51-1.54,8.91a.46.46,0,0,0-.1.48,109.32,109.32,0,0,1-3.89,13.44.38.38,0,0,0-.07.19q-1.15,3.18-2.49,6.26A7.31,7.31,0,0,1,209.7,152c.19-3.24-1.42-1.23-3.47-2.94-1.38,1.82,1.81.59,3.59,4.24a8.9,8.9,0,0,0,.5,2,109.6,109.6,0,0,1-5.55,10.68,4.09,4.09,0,0,0-.06-.42h0c-.93-.76-1.59-1.33-1.08,0,.48.33.8.64,1,.71q-1.48,2.48-3.08,4.88c-.09-.15-.18-.27-.25-.27h0a1,1,0,0,0,0,.7l-1,1.39c-.41-2.27-2.71-2.58-3.85-3.67h0a19.68,19.68,0,0,1,3.07,4.77l-1.11,1.52a3,3,0,0,1-1.25-.72h0c-1.34,1-.9,2-.12,2.54l-1.11,1.41,0-.17h0a1,1,0,0,0-.37.66,110.44,110.44,0,0,1-36.67,29.4c2.36-5,11-9.24,16.51-14.11l-.17-.1,1.19-.85a15.89,15.89,0,0,0,2.66-3.27c2-1.18,2.34-1.39,3-.79l2.66-1.9c.75-1.71,1.63-3.88,2.55-5.64a8.41,8.41,0,0,0,2.05-2.22v-9.33a99.94,99.94,0,0,0,7.73-11.78c.7,1.66.76,1,2.31.29-.51-1.32-1.08-1-1.78-1.24q.79-1.44,1.53-2.91l.4.45c2.62,5,1,.39,1.93-.24.23-2.49,2.46-3.56,2.23-6h0c-.08-1.34-.46-1.91-1-2.23q1-2.58,1.91-5.23l.33.16c.51,0,.86-.72.61-1.38H205q.65-2,1.21-4.11a.48.48,0,0,0,.06-.23A99.75,99.75,0,0,0,209.71,110c0-.31,0-.63,0-.94.19,0,.18-.42,0-1.06a100.27,100.27,0,0,0-1.06-12.68c.18,0,.26-.16-.1-.93h0l0,.06a99.26,99.26,0,0,0-21-47.16,5.4,5.4,0,0,1,2.62.25,8.13,8.13,0,0,0-4.11-2q-.93-1.09-1.88-2.15c.77-.5,0-1-1.19-1.3q-.74-.8-1.51-1.58c2.67,1.69-.27-2.54-.16-2.71h0c1.32-.64-3.76-1.72-3.75-2.62A37.87,37.87,0,0,0,172.09,32a99.64,99.64,0,0,0-24.7-14.44,5.36,5.36,0,0,0,1.33-1.23c-6-5.74-7.78-3.68-7.26-1q-2.3-.76-4.64-1.42c-3.2-2.79-8.92-5.7-8.95-3.81a15.9,15.9,0,0,1,4,2.57q-3-.67-6-1.15Zm50.07,23.62.72.64c0-.21-.34-.42-.72-.64Zm1.88,1.69q.85.79,1.68,1.59c.56-.41.68-1-.86-1.93a6.2,6.2,0,0,1-.82.33Zm-9.82-16.36h0c.59-.29,1.19-.84-.21-1.17-.84.41-.25.76.21,1.17Zm5.28,3.4h0c2.62-1.29-.69-2-.7-.94a6.07,6.07,0,0,1,.7.94ZM175,25.33h0c4.37.79,2.76-2-.22-.52a1.35,1.35,0,0,0,.22.52Zm-13.14-7.54c3.35-1.64-1.36-3.4.14-.83-.6.3-.72.48-.14.83Zm-9.75-4.51h0c2.95.72,1-3.16-.44-1.82a12.71,12.71,0,0,0,.45,1.81Zm26.39,15.94h0c2.26-1.11,1-1.23-.79-2.54-1.07.53,0,1.92.79,2.54Zm-9.74-5h0c2.25-.34,1,.63,1.76,1.3,1.78-.88.6-1.45-.21-2.45-.8-1.26-5.33.45-1.55,1.15ZM153,16.65h0c9.21,1.46.14-1.59.86-2.59-1.05-.63-1.09,2.07-.86,2.59ZM133.51,5.47h0c1.07-.27,2.24.43,3-.69-1.3-.77-4,.06-3,.69Zm36.67,24h0c1.07-.53,1.9-.55,1.32-1.54-2.22-1.32-1.43.83-1.32,1.54Zm9.74,6.17h0c1.78-.88,8.17-1,4.68-4.84-1.55.76.27,5.08-5.15,3.79-.6.29,0,.64.46,1Zm7.27,3.69h0c-1.77-.66-1.41-.59-3-.21-.86,1.18,5.41,1.67,3,.21Zm-56.56-31h0c.59.35,2.14-1.31-.46-.92,0,.39,0,.38.46.92Zm6.44,4.48c2.48.57,5.11-1.11,2.16-2.33-1.89.42-3.56,1.24-2.16,2.33Zm55.13,32.12h0c-.47,0-2.25.34-1.56.76,1.54.39,2-.09,1.55-.76Zm8.41,106.81q-.56,1.21-1.14,2.39c1.32,1,1.54-1.18,1.14-2.39ZM190.33,181.1c-1.09,1.09.05,1.11,1.14,1.32a2.47,2.47,0,0,0-1.14-1.32Zm1.1-9.24c-.29.08-.29.08-.52.45,2,3.65,1.86.41,3.1,2.47,3.69.08-1.9-2-2.58-2.92Zm1.12-2.48h0c-.09.09-.18.18-.24.18.53,3.16,3.49,2.66.24-.18Zm9.19-7.22c-1.5.52,1.25,2.25.63.66a8.49,8.49,0,0,0-.63-.66Zm3.69-3.17c-.09.09-.18.19-.25.18-.22,1.57,1.29,2.53.25-.18Zm-3.36-1.18h0a23.13,23.13,0,0,0,.74,3.53c1.66-.61-.16-2-.74-3.53Zm6,1.51h0c-1.91-5,.45,0-3.74-4a1.06,1.06,0,0,0-.8.55c1.24,1.41,4,3.69,4.54,3.42Zm-3.37-8.22c-.68.35-.66,1.55-1.81,1.53,1.63,4.21,3-.68,1.81-1.53Zm6-5.71c-.16.09-.16.09-.31,1.48,1,1.41.56-.83.31-1.48Zm5-8.23h0a1.47,1.47,0,0,1-.6.08c0,.93,1.21,1.51.6-.08Zm-7.46-2.65c-.08.27-.08.27,0,.74,1.4,1.32.87.11,0-.74Zm6.53-8.21h0c-.59.27-.25,1.48.36.93l-.36-.93Zm-2.59-1.16a2.19,2.19,0,0,1-.75.17c.31,1.95,2,1,.75-.17ZM209.55,68c0,.78-.12,1.4-.86,1.38.83,2.14,1.54.44,1.48-1.58l-.63.2Zm3.69,76.88c-1.2-1.14-1.69-3.56-1.49.05a7.62,7.62,0,0,0,1.49-.05Zm-5-2.43-.33.26a5,5,0,0,0-1.43-2.41h0c-.74,1.84-.46,3,1.78,3.46l-.18-.54a.87.87,0,0,0,.16-.78Zm4.37-9.08h0c-.08.27-.16.55-.25.83,1.28,2.16,1.08-.81.25-.83Zm2-2.09a3.69,3.69,0,0,0,.09,2.69c1.49,1.42.52-1.94-.09-2.69Zm-5.33.07a.8.8,0,0,0-1.1-1c-.11.37-.07,1.11-.2,1.11a1.35,1.35,0,0,0,.12.47c-1.62,1.54,1.67,2.53,1.18-.54Zm4.53-.83h0c-.61-1.59-.74-.11-.08.28l.08-.28Zm1.14-2.75c-.18-.47-2,.78-.83,1.92.64,0,1.23-.9.83-1.92Zm-4.68-1a1.08,1.08,0,0,1-.54.07c2.27,5.05,0,3.8,2.22,3.29-.17-2.88,1.9-1.26-1.68-3.37Zm8-1.6h0c-.78.26-3.15,3.27-1.24,3.31-.47-1.21,3-1.6,1.24-3.31Zm-7.84-7.57h0c-3.41.48,2.75,3.2,3.08,4-1.58,1.23.28,2.81.68,2a.72.72,0,0,1-.79.63c.83,2.14,1.54.44,1.48-1.58l-.63.2c0,.07,0,.15,0,.22A4,4,0,0,0,214,122c.17-3.15-1.85-3-3.54-4.43Zm3.7-.2c-2.09.79,3.66,6.19,1.74,1.24-1.06,1-.66.08-1.74-1.24Zm2.35.7h0c1,.48,2.42,1.34,1.58-.8-1.59-1.52,1,2.15-2.07-.78-.63,0,.34,1.21.49,1.59Zm.07-3.89c-.57,0-.17.56.09,1.21.57,0,.62-.36-.09-1.21Zm-5.09-.76a4.51,4.51,0,0,1-.89.45c-.66,2.21,3.81,3.32.89-.45Zm5.27-4.8h0a2.22,2.22,0,0,0-.07,1.3c1.1,1.87.32-.64.07-1.3Zm-5.32-.39h0a.4.4,0,0,1-.28.09c-.36,1.19,1.47,1,.28-.09Zm4.13-4h0a12.84,12.84,0,0,1-1.91.42c.58,1.49,3.78,3.41,2.77.8a5.87,5.87,0,0,1-.85-1.22Zm-4.27.37c2.44.42,1.59-.62-.53-.57a1.75,1.75,0,0,0,.53.57Zm6.7-.6c-.56.17-.91.26-.51,1.28.65-.26,1,0,.51-1.28Zm.11-2.5c-.17.55.59,1.86.92,2.7,2,2.46-.41-2.68-.92-2.7Zm-2.8-2.84c-.87.54-.83,1.28.26.65l-.26-.65Zm.77-3.22h0a.45.45,0,0,1-.35.09c-2.69-2.56,2.81,5.15,1.51,1.79-.34-.56-.72-1.21-1.17-1.87Zm2.15-2.27c-.7,0-1.22,3.68-.11,1.67,0-1,.51-.64.11-1.67Zm-8.43-3h0c-.62,1,1.33,2.62.53.56a3.72,3.72,0,0,1-.54-.56Zm5.08.11c-1,.26.6,2.05-1,1.56-.64,4.05-2.33-.33-4.49,1.76-.1,1.85,8.42.73,5.53-3.31Zm-2-1.43h0c-.29.08-.29.08-.52.45.86,1.41,1.22.21.52-.45Zm.09-1.39a2.93,2.93,0,0,1-.92.07c.86,1.41,2,1,.92-.07Zm2.5-2.18h0c-.51,0,0,.37.17.94,1,.39,1.15.21-.17-.94Zm-4.49-3h0a1.46,1.46,0,0,1-.6.08c0,.93,1.22,1.51.6-.08Zm3.39-2.16c-.08.28,0,.47.17.93-.11,2.32,2.8,2.84-.17-.93Zm-4.31-8.7h0c-.59.27-.25,1.48.36.93l-.36-.93Zm-2.59-1.16a2.17,2.17,0,0,1-.75.17c.31,1.95,2,1,.75-.17ZM7.92,81.46,12,80.18c.69,1.48.66,3.45-.66,1.62.87-4.42-2.86,4.66,1,6.32,0,.09-3.6.94-2.37-3.2-.14-.19-1.25-2-2.08-3.46Zm5.13,74.1h0c1,1,.07,2.13-.2.64.05-.18.12-.37.2-.64Zm3.14-8.83h0c1.08,2.8-1.5,1.18-1.2.16a5.6,5.6,0,0,0,1.2-.16Zm-3.64-5.35h0c1,1.22-.2,1.94-.85.26l.85-.26Zm-1.77-3.09h0c-.43.18-.74.54-1.17.72.34,2.5,2.47.52,1.17-.72ZM9,134.55H9a.91.91,0,0,1,.5-.18c3.05,2.2-3.08,2-.5.18Zm1.34-1.27c1.67,2.35,1.85-1.07.84-1.1-.22.74-.23.55-.87.54,0,.19,0,.37,0,.56Zm-6.69-3.94h0c-3,2.16,3,4.78,1.43.77a3,3,0,0,1-1.43-.77Zm4.13-4h0c-.16.56-.15.92.55.94-.07-.18-.36-.93-.55-.94ZM3,123.77s5.22,5.85,3.15,9c-.16,2,2.09-.79.76-4.24.2-3.24-2.61-3.48-3.91-4.71Zm5.29-7h0a8.27,8.27,0,0,1,.63.66c.62,1.59-2.13-.14-.63-.66Zm.33-4.35h0a23,23,0,0,0,.74,3.53c1.66-.61-.16-2-.74-3.53Zm-5.08-.57h0c1,1,1.75-.06,2.4,1.63-1.87.88-1.57,1.63-2.84-1.64Zm6.7-8.29h0c.24,2.41-2,3.48-2.23,6-1,.63.69,5.2-1.93.24a8.14,8.14,0,0,0-1.63-1.6c-.13-.84-.33-.85.43-.83,3.39,5.17,2.77-3.92,1-1.27-2.48.6-.48-3.53.15-3,.6,2.69,2.85,1.17.16-1.39-2-1.52-.6-4.64.59-1.56,1.28,1.51,3.25.25,3.43,3.5Zm-9-6.21h0c2,1.34.7,2.61-.2.28a.82.82,0,0,1,.2-.28Zm2.3-1.25h0a1.11,1.11,0,0,0-.89,1.46c1-.16,1.57.31.89-1.46Zm2-3.94h0c-.28.09-.6.08-.42.55,2.51,1.44.81,3.72,1.28,4.94,2.29-1.25-.32-4.08-.86-5.49Zm3.8.54c-.87-.3-.71-.2-1.26-1.14-.09-1.21,2.59,1.17,1.26,1.14ZM7,84.95a3.39,3.39,0,0,0-1.55-.4c-.09,2.87,1.27,2,1.36,3.18.68.94,2.73,2.18,2.12.6S7.46,86.17,7,84.95Zm178.65,90a.63.63,0,0,0,.35.07c-.74,2.85-1.49,5.2-2,5.76h0a5,5,0,0,1-1.12.83c2.22,6.59-11.39,7.7-12,15.66-4.37,2.59-18.11,5.48-15.49,9.51-4,2.41,1.27,1.74-2.09,4.37A110.41,110.41,0,0,1,84,216.92a.72.72,0,0,0,.09-.52,2.4,2.4,0,0,0-1.34.21,110.14,110.14,0,0,1-81.1-87.38c.17-.1.11-.25-.08-.43A110.23,110.23,0,0,1,.2,116.59c1.18-.46,2.24-1.36,1.81-2.46H2a3.9,3.9,0,0,0-1.9.92Q0,112.54,0,110q0-4.29.32-8.51a2.27,2.27,0,0,0,.32.46c.51,0,1.28-.62,1.46-.62h0C2,99.39,1,99.25.47,99.83q.39-4.28,1.11-8.47a10.37,10.37,0,0,0,2.89.12c.19-.65,2.52.79,2.12-.24h0c0-.18,2.69-2.34,0-1.75-3-2.84,1.15,1.5-1.33,1.45-1.27-3.27-3.39-1.74-1-.67.29.75-.62.36-1,.44-.11.37-.43.18-.88.17l-.07-.19c-.26,0-.39-.24-.5-.48l0-.18c.8,0,.58-.38.11-.58q.25-1.35.54-2.69c.26.57.75.14.8,0h0c-.3-.77-.6-.48-.75-.2A109.3,109.3,0,0,1,13.63,56.95c.27,0,.55-.1.82-.17.31-.49.16-.8-.21-.94l.5-.87c.62-.12,1.11-.7,1.2-2Q18.75,48.32,22,44c.64,0,1.55-.33,1.37-.73a3.53,3.53,0,0,0-.2-.81q2-2.51,4-4.9a2.15,2.15,0,0,0,2.82.07c3.24-1.81,4,.79,1.28.56-.65.45,2.7,3.59,2.87,1-2-2.46,6.85-.34.91,1.36-.24.72-.18.54.66.66a8.14,8.14,0,0,1,2-1.08l1.32-.26a100.28,100.28,0,0,0-9.83,11.59,5.85,5.85,0,0,0-4.51-.14h0c0,.89,1.69,1.65,1.43,2.44a1.36,1.36,0,0,0-.79,2.06,8.3,8.3,0,0,0,.95-.11,99.12,99.12,0,0,0-14,34.05l-.19-.11c-.21,0-.1.33.08.65q-.45,2.25-.8,4.53a2.86,2.86,0,0,1-1.76-.5c-.44.18-.3.37,0,.83.6.26,1,.67,1.57,1a100.29,100.29,0,0,0-.9,10.66,1.09,1.09,0,0,1-.93.42,3.8,3.8,0,0,0,.89,1.51c0,.42,0,.85,0,1.27v.18a.75.75,0,0,0-.25.3l.25.27q0,4.5.46,8.9c-.66-.52-1-.71-.61.36.29.2.52.4.7.53a99,99,0,0,0,8.66,31.34,8.61,8.61,0,0,1-1,.72c-.11.37,1.17.49,1-.69a99.82,99.82,0,0,0,14.32,22.42c-4.19,3.26-7.65,7.65-2.52,8.36h0c2-1.63-2.73-1.8,1.22-3.37-.61-2.71.41-3.53,2-4.12a100.31,100.31,0,0,0,11.1,11c-1-.15-2.15.54-.36,1.42h0a5.56,5.56,0,0,1,1.08-.8,99.94,99.94,0,0,0,14,9.72c-1,.53-1.19,1.74.85,1.64h0c.29-.26.55-.5.81-.71q3.22,1.77,6.59,3.31c-.4.19-.68.44-.67.7a14.57,14.57,0,0,0,2.28,0A100.11,100.11,0,0,0,128,208.09a18.19,18.19,0,0,0,2.9-.38h0l.31-.26a99,99,0,0,0,17-5.3c-.14,1.05,1.39,2.4,3.84,2.64h0c.84-1,5.43-7.42-.48-3.91h-.4A100,100,0,0,0,185.64,175ZM36.71,181.84h0a1.9,1.9,0,0,0,.84-1.27c-2.86-.64-2.82,1.36-.84,1.27Zm.75,1.89h0a12.94,12.94,0,0,1,2-1.32c-2.85-.63-5.09,1.47-2,1.32Zm17.3,16.43h0c1.12-1.13-.46-2.21-1.42-.7l1.42.7Zm4.52,6.95h0c.53-2.49-3.33-4.23-.1-6.16-4.44-2.18-3.63,4.33.1,6.16ZM77,213.81a2.79,2.79,0,0,0,.26-1.86c-1.69,1-1.26.91-.26,1.86Zm57.36-2h0l2.82-1.68c-.08-5.38-6.22,1.84-2.82,1.68ZM26.93,176.33h0l.08.7c1.27-.16.93-.44-.08-.7ZM64.82,19.48a2.34,2.34,0,0,0,0-.28c-.84-1,.22-1.26,1.31-1l-.25.13a6.77,6.77,0,0,1,.84,0,2.19,2.19,0,0,1,1,.57l-1,1a3.49,3.49,0,0,0-1.91-.37ZM42,27.65V25.49c2,.19,1.18,2,0,2.16ZM123.72,4.08h0l-.11.06c-2,.13-1.65-.08-.89-.37l1,.31Zm-5.26,3.76h0c.28.33.56.67-.17,1.07-.55-.38-.68-.6.17-1.07Zm.71-3a1.68,1.68,0,0,0,1.28-.32c2.4-.16-1.46,1.16-1.75,2-1.31-.15.15-.72.46-1.68Zm.35-2.06h0a3.42,3.42,0,0,1-.14.87c-.72-.48-4.3-1.16-1.87-1.49l2,.62Zm-5.2,3.45h0l.24-.13c5.29-.36-.29,1.72-.24.13ZM111.69,2.7h0c.9-.65.49-1.74,1.92-1.37-.28.84-.56,2.28-1.92,1.37Zm-5,5.34c3.94-1,1.17-1.73,3.69-3.13,3-.55,4.46-2.83,4.9-.92C114.49,5.16,106.6,10,106.68,8Zm-1.47-6.38c.71-.7,3.18-1.33,2.35,0,6,.84-2,1.9-2.35,0Zm-1.82,4h0c.44-.15,1-.3,1.52-.46,5.6-.37,2.31,3-1.52.46Zm-.69-1.72h0c1.16-1.43,3.83-.37,2.83.57-1.3.09-2.71.24-2.84-.57Zm-2,5.14h0c1.09-.07,1.79.76,1.59,1.37-1.45.8-2.09-1.33-1.59-1.37Zm-1.53-3.9c2.17-1.21,1.49,2.26,2.79,2.17-.61,1.81-2.77-1.35-2.79-2.17ZM99,2.78h0c0-.12,2.28-1.57,2.84-1.19-.34,1-2.87,3.31-2.84,1.19Zm-8.47,4h0c1.58-.64,2.35,0,1.71-1.29,5.29-.36-1.57,3.52-1.71,1.29Zm1.37-2c-.4,0-1.86.59-1.66,0C93.94,2.64,89.66,4,91.58,3c2.3-.16,1.06.93.3,1.75ZM88.18,3.5h0c1-.42,1.36-.27,1.18.27-.7,0-1.36.27-1.18-.27ZM73.86,15.65h0c2.9-.19,1.53,1,.1.29,0-.06,0-.17-.1-.29ZM66.12,14h0c1.15-.84,5.43,1.88.92,2.18.36-1.08-.79-1.42-.92-2.18Zm5.21-5.35A12.55,12.55,0,0,0,75.4,9c2.69.7-4.94,1-5.71.74-4,.62-3.79,4-5.12,2.17,2.24-1.45.8-3.59,3.84-2.44,1.09-.07,2.1-1,2.92-.84ZM59.24,21.4c-.06.18.32,1.1.15,1.58-2.3,1-3.48-2.42-.15-1.58Zm-4.89,3.51h0c.5,0,1.16,0,.6.55-.7,0-.6-.25-.6-.55Zm.75-2.82h0c2.2-.15.84,1,.2.58a2.34,2.34,0,0,0-.2-.58ZM55.16,21h0c1.87-1.49,2.7.11.2.28a.83.83,0,0,1-.2-.28Zm-.51-2.57h0c1.9-.13,1.27.27,1.13,1.28a1.11,1.11,0,0,1-1.13-1.28Zm-4.6,2.08h0c.9-.06,1.36-.27,1.65.3-.38,1.14-1.27,0-1.65-.3ZM44.5,28.1c.57-1.69,2.33.61,0,.29a.32.32,0,0,0,0-.29ZM130.07,6,129.86,6a3,3,0,0,0-.08.81l.29-.75ZM18.26,60.57a2.43,2.43,0,0,0-1,0Zm39.25-37h0c1-.42,1.36-.27,1.18.27-.7,0-1.36.27-1.18-.27ZM57,19.94h0c1.32-.74,1,.29,1,.58-1.09.07-1,.07-1-.58Zm2.18-6.22h0c.36.69.22.22-.63,1a1,1,0,0,1,.63-1Zm-6.88,8h0c.7,0,3.33,0,1.22.45.55.15.42.57.56,1,.34.74-3.14,1.21-1.54-.08h0c1.41-.44.18-.54.14-1a4,4,0,0,1,.53,0,2.11,2.11,0,0,1-.91-.4Zm-2,5c1.43-.8,1,1,0,.29a.4.4,0,0,0,0-.29Zm-3.33,2h0c2.25-.85,5.09-.34,2.66.24-1.67,2.35-2.4,1-2.66-.24Zm.75-7.18a5.77,5.77,0,0,0,1.42-.45c2.8-.19,0,2.29-1.59,2.4a12.86,12.86,0,0,0,.17-2Zm-.92,4.19h0a1.73,1.73,0,0,1-.7.34,5.47,5.47,0,0,1,.38-1,1.22,1.22,0,0,1-1.22-.19.94.94,0,0,0,0-.53h0c1.69-1.55,2.18-.84,1.94-.09.17,0,.13.46-.37,1.44ZM35.45,34h0c1.15-.84,5.43,1.88.92,2.18.36-1.08-.79-1.42-.92-2.18Zm5.21-5.35a12.54,12.54,0,0,0,4.07.37c2.69.71-4.94,1-5.71.74-4,.62-3.79,4-5.12,2.17,2.24-1.45.8-3.59,3.84-2.44,1.09-.07,2.1-1,2.92-.84ZM27.57,45.29a2.32,2.32,0,0,1,.52.49c1.41-.44-.34-1-.52-.49Zm-3,2.26h0c.92,1.06,4.6,0,1.44-.8l-1.45.8Zm4-6.1h0c-3.33-.84-2.15,2.62.15,1.58.16-.48-.21-1.4-.15-1.58ZM23.68,45h0c0,.3-.1.59.6.55.56-.5-.1-.58-.6-.55Zm.75-2.82a2.32,2.32,0,0,1,.2.58c.63.43,2-.73-.2-.58Zm.06-1.06a.83.83,0,0,0,.2.28c2.5-.17,1.66-1.76-.2-.28Zm-2.42,6.64h0c-.1.3.08.35.58.32.77,1.48,2.22-.5-.58-.32ZM19.6,52.19h0a10.65,10.65,0,0,0,.88.88c1.6.18.27-2-.88-.88ZM18,50.53c.19.28,1.87,1.4,2.05.87-1-.23,2-3.91-2.05-.87Zm-2,9.78h0a.9.9,0,0,0,.42-.43,1.49,1.49,0,0,0-1.07,0l.64.38Z"/><path class="cls-1" d="M30.8,158.25c3.29,3.13-.73-.11-1.69-.13-1.39-2,1.18.12,1.69.13ZM104.2,16.83q0,.73,0,1.44c.8-.36,1-1.29,0-1.44Zm68.44,22h0a1,1,0,0,1-1.53-.9c.84-.41,1.53.64,1.53.9Zm-22.56-11.2h0c-3.11-5.22,7.6-1.43,2.7,1a6.73,6.73,0,0,0-2.7-1ZM138,21.72h0a3,3,0,0,1-.22-.91c3.93-1.93,4.36,1.55.22.91Zm-5.32-.58h0c-.58-.47-1.17-1-1.64-1.36,1-1.36,6.49,1,1.64,1.36Zm57.09,139.11h0c-.09,2-2.44-.61-.89-.85.36.29.68.29.89.85ZM197,141.51h0c.68,1.77.12,1.3-.89,1.46a1.11,1.11,0,0,1,.89-1.46Zm5.53-23.16h0c1,1.23-.08,1.11-.58,1.29-1.67-.4.13-1.3.58-1.29Zm3.34-7.34h0c.66,3.16-.64,3.88-.74-.11.11-.37.45-.64.74.11ZM201.8,85.46h0c-.74,1.84-.46,3,1.78,3.46-.48-1.4-.76-2.61-1.78-3.46Zm-1.08,0h.12c.26.66-.1,1.39-.61,1.38-.67-.28-1.11-.76-1.79-1.06-.31-.46-.44-.65,0-.83a3.44,3.44,0,0,0,2.28.51Zm.67-4h0c-.2-.19-.85-1.22-.47-1.21.72.39.8.94.47,1.21ZM195.21,151h0l-.94-.16c-.71-.54-1.49-1.62-1.36-1.61,1.15.86,1.53.22,2.41.51a1.93,1.93,0,0,1-.1,1.26ZM110,18.63A91.58,91.58,0,0,0,90.1,20.81c.49-.33-.33-.42-2.26.2a.8.8,0,0,1,.23.28q-3,.75-6,1.7c.51-.22.7-1,.88-1.6-1.43-.38-1,.72-1.92,1.37h0a1.22,1.22,0,0,0,.92.28q-2.11.68-4.17,1.46a2.1,2.1,0,0,0-.65-.52c-.8.4-1.85.73-1.89,1.22-.3,0-.63,0-1,0-.54.15-1.08.31-1.52.45h0a6.33,6.33,0,0,0,.9.5l-.67.3a1.56,1.56,0,0,0-1.54-1.16h0a3.49,3.49,0,0,0,.2,1.77l-.55.26c-1-.3-.54-3.28-2.57-2.15h0a4.82,4.82,0,0,0,1.73,2.55q-1.31.63-2.59,1.31c.57-.42-.46-1-1.27-.63.68-.47-.25-1.08-1.28-.51h0c-.18.17-.32.31-.44.44h-.43A4.53,4.53,0,0,0,62.73,28a1.17,1.17,0,0,0-1.4.25l.07.09c-.84.48-1.44,1.39-2.47,2h0a2.56,2.56,0,0,0,0,.7,5.25,5.25,0,0,0-3.46.21h0c0,.43.4.84.79,1.23a5.77,5.77,0,0,0-.69.45h0c-.2.6.39.34,1-.08a.9.9,0,0,1,.3.84,1.36,1.36,0,0,0-.79,2.06l.69-.07a91.88,91.88,0,0,0-14.2,12.62c.05-1.4-.47-3.09-1.82-3h0c-.28,1.65,1,2.7.69,4.27q-.68.78-1.35,1.57a1.65,1.65,0,0,0-.36-.18h0c-.6,0-.69.34-1.07.6-.07.47.18.66.51.68A91,91,0,0,0,18.63,110c0,1,0,1.92,0,2.87a12.5,12.5,0,0,1-.78-3.8h0c-.07-.84-1.28-1.51-1.67-2.54.15-2.53-.8-1.86-2.2-2.26q.18-3,.54-6l.26.05-.19-.58a95.5,95.5,0,0,1,3.73-16.93c.54.51,1.25-.25.36-1.1A95.85,95.85,0,0,1,31,55.23l-.07.21c1.43,1,1.66-.59,2.7-.77-.12-.22.22-.36-.38-.32h0a7.26,7.26,0,0,0-1.76.18,96.65,96.65,0,0,1,9.08-11c1-.12,1.09-.31.94-1a96.71,96.71,0,0,1,10.09-8.91c2.7.65,2.77-.2.85-.65a96.46,96.46,0,0,1,8.17-5.48c1.18.08,3.23-1.07,2.89-1.67q2.31-1.28,4.69-2.44l.18,0c.19.48.69.37,1.23,0l-.06.2c3.32-.22,2.77-.18,2.45-1.93q1.88-.81,3.79-1.54c.07,1.44,2.18-.26,1.11-.42l1.84-.65c-.12.18.05.27.74.22.35-.27.65-.46.84-.6.37.7,1,1.53,1.36,2.16h0c1-.47,1.08-1.68,2.17-2.46-.47-.22-.88-.4-1.25-.55a96.11,96.11,0,0,1,27.41-4q4.31,0,8.53.38-1.39,2.19-2.77,4.55h0v0q-2.86-.18-5.76-.18Zm10.11.56.26,0a3.83,3.83,0,0,0,1-.65c4-.36,2.75.15,1.09.91a90.78,90.78,0,0,1,16.45,3.82,7.35,7.35,0,0,1,3.38,1.2,91,91,0,0,1,10.93,5c.94.19,1.45.37,1.22.67q1.9,1.06,3.75,2.21c.66-.64,1.9-.91,4.29-.35a3.57,3.57,0,0,1,.94.3c2.7.84,1,1.14-.62.93h0a1.89,1.89,0,0,0-2.33.58,91.58,91.58,0,0,1,7.7,5.71,3.38,3.38,0,0,1,1.16.43l-.39.21a91.83,91.83,0,0,1,9.59,9.38c2-.52,4.46-1.06,5.24-1.22q-1.69-2-3.49-3.95a6.21,6.21,0,0,0-1.8.51h0a11.57,11.57,0,0,1-3.06-1.3c.77-1.64,1.68-1.75,2.49-1.65a96.63,96.63,0,0,0-18.48-14.41l-.56-.12h0a5.11,5.11,0,0,0-.45-.48,95.61,95.61,0,0,0-20.75-9A7.51,7.51,0,0,1,136,18h0l-.41-.65a95.57,95.57,0,0,0-13.21-2.66c-.77,1.18-2.59,4.09-2.3,4.53Zm63.49,36.67a91.26,91.26,0,0,1,10.88,19.27,3.41,3.41,0,0,1,1.26.39h0c.47,1.22,1.32,1.79,1.94,3.38.54,1.39-1,.6-1.83-.25.16.44.32.89.47,1.34.2.07.22.22.14.41.16.47.31.94.47,1.42.46-.31,2.32,1.47,1.16,1.44h0c-.53-.18-.68-.21-.83-.42A91,91,0,0,1,201,101.7c2.23,1.61.7-1.48,2.35,2.78h0c-.28.14-1.22-.46-2.22-1.26q.25,3.36.25,6.79c0,.2,0,.4,0,.59l.39.05h0c.36.9,0,.91-.39.58a92,92,0,0,1-.93,11.92c.24.52.17,1.38-.23,1.5q-.34,2.14-.79,4.25l.11-.05h0a1.2,1.2,0,0,1,.36,1.28,3.89,3.89,0,0,1,.57.24h0c.46,1.22,1.32,1.79,1.94,3.38s-1.45.34-2.12-.6c-.08-1-1.08-.53-1.32-2.17q-.48,2-1,4a4.83,4.83,0,0,1,.76,1.36c2.48.05-1.66-4.3,1.33-1.45,2.73-.59,0,1.57,0,1.75h0c.4,1-1.92-.41-2.12.24l-.59,0q-1,3.15-2.16,6.21c1.06,1,.44,1.74-.27.7l-.46,1.13c.5-.07,1,.39,1.12,1.8h0c-.19,0-1,.63-1.46.62a2.1,2.1,0,0,1-.41-.66q-1.6,3.64-3.5,7.12a4.72,4.72,0,0,1,.91.43h0c1,.95.42,2.23-.43,1a8.42,8.42,0,0,1-.69-1.06,91.77,91.77,0,0,1-20.37,25c.36.07.83.19,1.44.36a5.73,5.73,0,0,1,.6,1.51h0a23.78,23.78,0,0,1-2.56-1.43q-.92.78-1.86,1.54c1,.43,1.53.64,1.19,1.51h0a2.08,2.08,0,0,1-2.33-.61,91.36,91.36,0,0,1-10.69,7.18,4.29,4.29,0,0,1-.79.7h0a1.57,1.57,0,0,1-.38,0,91.65,91.65,0,0,1-67,8.53.85.85,0,0,1-.2.81h0c-2.94.7-2.91-.54-2.21-1.47a91.61,91.61,0,0,1-55.36-44.74,1.13,1.13,0,0,1-.37.28,4.3,4.3,0,0,1-.23-1.42,90.82,90.82,0,0,1-5.55-13.14,4.76,4.76,0,0,0,0,.74c-2.26.51.05,1.76-2.22-3.29a1.08,1.08,0,0,0,.54-.07h0l1,.6A91,91,0,0,1,18.9,117a.77.77,0,0,1-.09-1.21c0-.72-.08-1.45-.11-2.18-.37.67-2.41-5.08-2.36-5.82A5.36,5.36,0,0,0,14,105.33q-.11,2.32-.11,4.68,0,1,0,2c.13.35.34.94.72,1.92h0c-.12.06-.36,0-.67-.18a95.82,95.82,0,0,0,5.25,27.87,2,2,0,0,1,.23-.26,1.36,1.36,0,0,1-.12-.47c.13,0,.09-.74.2-1.11a.8.8,0,0,1,1.1,1h0c.24,1.51-.43,2-1,2a95.73,95.73,0,0,0,8.46,17.5c.38-.21.83-.44,1.35-.69a3.83,3.83,0,0,1,1.57,0c-.75.47-1.45.86-2.06,1.17a14.82,14.82,0,0,1,1.93,3h0l-.57-.06a96.58,96.58,0,0,0,6.52,8.58c2.22-1.34,4.12-2,4.44-1.25a7.31,7.31,0,0,1-3.06,2.84A96.13,96.13,0,0,0,182,173.74c-1.53-.67-1.47-.82.33-1.89a4,4,0,0,1,.85.53q2.46-2.88,4.69-5.95c.39-2.29.55-4,.28-4.1-5.31-.32-1.35-.61,1.22-1.14v.63l.23-.09h0c.2.26.53.61.84,1l.75-1.16,0-.06h0A96,96,0,0,0,199,146.35c-.84-1.32-.14-2.94.72-1.82q.38-1,.74-2a2,2,0,0,1-.61.5c-.47-1.22,1.23-3.5-1.28-4.94-.18-.47.14-.46.42-.55h0c.39,1,1.83,2.74,1.78,4.11q.67-1.93,1.27-3.89a4.47,4.47,0,0,1-.51-.81c0-.48.37-.39.78-.12q.58-2,1.08-4a3.43,3.43,0,0,1,.05-2.48c-.14-.19-1.25-2-2.08-3.46l3.46-1.08A96.7,96.7,0,0,0,206.15,110c0-3.15-.16-6.27-.45-9.34a10.43,10.43,0,0,1-.6-2.26c-1.79-3.65-5-2.42-3.59-4.24,2.05,1.71,3.67-.3,3.47,2.94a2.79,2.79,0,0,0,.4.7,95.62,95.62,0,0,0-4.43-19c-.71.16-3.25.29-2.19-3.27-.14-.19-1.25-2-2.08-3.46l1.47-.46a96.13,96.13,0,0,0-13.41-22c-1.49,2.93-.6,7.22,0,3.61,4.05-.54,1.88,2.45-.86,2.72ZM66.17,28.51l-.26.1-.09,0a.42.42,0,0,1,.08.12,1.23,1.23,0,0,1,.27-.25Zm-.29.59a1.19,1.19,0,0,1-2.18-.42,1.61,1.61,0,0,0-.63.33l-.12.09a26.41,26.41,0,0,1-3.09,2.32,1.58,1.58,0,0,1,.59.38c-1.51.66-1.39,1.65-1.6,2.48l1.3-.86.12-.57h0c.11-.1.4-.09.77,0q3.09-2,6.34-3.69A4.56,4.56,0,0,1,66,29.4h0a3.06,3.06,0,0,1-.16-.3ZM197.7,135.77c.06.21,0,.31-.1.35l.1-.35Zm-8.34,28.09.19.17-.19.27v-.44ZM204.07,130a9.71,9.71,0,0,1,.72-3.81q-.32,1.92-.72,3.81Zm-3.18-51.43c-1.33-.75-1.62-2.48-1.52-4.09q.8,2,1.52,4.09ZM20.8,77.45c0,.78-.12,1.4-.86,1.38.83,2.14,1.54.44,1.48-1.58l-.63.2Zm3.09,65.38h0c.83,0,1,3-.25.83.09-.28.17-.56.25-.83ZM19.75,129h0c.72.39-.27,7.13-1.63.34.12-.19.12-.19,1.63-.34Zm-1.54-4.47h0a8.2,8.2,0,0,1,1.84,2c-.12,0-3.11-2-1.84-2Zm-1.08-4.1h0c.66,3.16-.64,3.88-.74-.11.11-.37.45-.64.74.11ZM17.22,100c-.16.09-.16.09-.31,1.48,1,1.41.56-.83.31-1.48Zm4.09-19.09h0c-.59.27-.25,1.48.36.93l-.36-.93ZM42.59,176h0A9.78,9.78,0,0,0,41,176c-3.15-1.55,2.24-2.11,1.56,0Zm73.61,29.24h0l-1.43-.7c1.13-.67,2.7-.05,1.43.7ZM48.93,40.52a2.45,2.45,0,0,0-1,0Zm67.56-24.71c-1.45.8-3.9.55-.4,1.44a7.54,7.54,0,0,0,.4-1.44Zm-14.07-.3h0c3.08.44,1.15,3.28.17,1.28a1.35,1.35,0,0,1-.48,0c0-.12-.68-.31-1-.52a.8.8,0,0,1,1.32-.74ZM88,18.12c-.14.42.18,2.41,1.06.94,0-.53.42-1.56-1.06-.94ZM62.26,30.45h0c.34.75,2-.37.39-.26a1.7,1.7,0,0,1-.39.26ZM32.91,60.57A7.12,7.12,0,0,1,32.6,58c1-3.08-.63-1.31-1,.65a9.88,9.88,0,0,0-1.71,1.94ZM74.54,21.71h0c.35,1.86,8.32.8,2.35,0,.82-1.29-1.64-.66-2.35,0ZM72,23.94h0c.12.81,1.54.66,2.84.57,1-.95-1.67-2-2.83-.57ZM49.71,36.63c-.06.18-.52,1-.3.9.88-.29,1.7-1,.3-.9Zm-.56,1.68h0c-1,.66-1.75,1.12-.34,1,.92-.71,1.56-.87.34-1Zm-4,1.86c0,1.08,1.19.45,1.39,0l.19.11h0a.9.9,0,0,0,.42-.43,1.67,1.67,0,0,0-.8,0,1.23,1.23,0,0,0-.37,0,8.23,8.23,0,0,0-.82.41Z"/><path class="cls-1" d="M70,80.26l-3.25.17a3,3,0,0,1-1.95.69h0c-.11-.19-.24-.38-.34-.57l-6.62.34c-.59.06-2.89-.06-2.89,2,0,1.3,1.18,1.48,2.19,1.59,1.48.24,1.89.41,1.89,4.14V89h0v6c.73-.18,1.48.1.75,1.19l-.75,0v22.26c0,1.71-.12,1.95-2.42,2.6a1.55,1.55,0,0,0-1.54,1.65c0,1.83,2.3,1.77,2.83,1.77H72.62c.53,0,2.84.06,2.84-1.77a1.55,1.55,0,0,0-1.54-1.65c-2.3-.65-2.42-.89-2.42-2.6v-3.78c-2.8.7-2,6.35-1.52,3.45,2.42-.32,1.12,1.47-.51,1.63H69l-.26,0h0A23.42,23.42,0,0,0,65,116.51c-2.47.15,4.12-1.34,4.54-1.39,0-1.77,1-1.85,2-1.49v-3.33c-.65.11-2.15-.18-1.82-.64.92-.23.71-.27,1.76.12h0l.05,0v-6.4h-.38c-2.35,1.15-2.8-1.74-.12-1.38h.5v-1.13l-.2.14c-.77-.1-1.47-3.28.2-2.48v-1h0c-.84-.5-.63-.37-.19-.81l.2,0v-3l-.44-.26.44-.21V83.16l-.7,0h0a1,1,0,0,0-.2-.28,2,2,0,0,1,.91-.53V80.95a4.21,4.21,0,0,0-1.09-.14.86.86,0,0,1-.39-.54ZM65,86h0c-2-1.74,1.38-2,2.76-.52-.21.56-2,.44-2.76.52Zm-5.13-1.81h0c.92.23,1.19.78-.15.46a2.4,2.4,0,0,0,.15-.46ZM64.65,87h0c-.43.21-.77,0-1.26-.06-1.62-1.19,1.85-1.29,1.26.06Zm6,4.27h0c-1.89-1.35-1.94-2.85-4-4.1,0-1.53,5.81,3.23,4,4.1Zm-6.58.42c-2.19-.53-1.62-.73-.13-.93s1.54,1,.13.93Zm-4.22-1h0c-.49-.75,1.63-.5.49.06a2.38,2.38,0,0,0-.49-.06Zm2.31,5.93h0a1.88,1.88,0,0,0-.13-.62c1.33-.2.76,1,.13.62Zm4.26,2.77h0c-1.37,2-3.86-1.29-1.39-1.37.56.33,1.18,1.24,1.39,1.37ZM60,98.54c-.28-.24-.63-.45-.13-.7.84.19.48.52.13.7Zm3.15,2a3.59,3.59,0,0,0-.42-.56c0-.61,2-.21.42.56Zm1,.85h0a.81.81,0,0,1-.13-.31c1.78-.87,2.74.78.13.31Zm2.09,2.32h0c-.49-.37-1.11-1.2-.47-1.51,1,.78,1.82.85.47,1.51Zm-5.82-3h0c-2.26-.42.45-1.43.93-.68.48.6,1.19.94.12,1.46-.42-.4.29-1-1-.78Zm.87,3.14c-.07-.42-.54-1.71.79-.92.35.59-.15.61-.79.92Zm5.81,3.68c-.28-.24-.64-.45-.28-.63,3.24.77,2.15-1.81,3.07-2.26C72,107,68.16,107,67.1,107.57Zm.82,1.27h0c-.07.11,2.15,3.28-.65,1.08-4.24-.2,1.77-.18-1-1.81-2.49,1.22-4.29-1.16-1.34-.25.57-.28-.55-.64-.9-.92,0-.31-.42-.4-.91-.69l-.14.07a.81.81,0,0,0-.85,0c2.32,1.37-2.47.15-1.11-1.2,1.35-.21,3.79,1.63,4.63,2.13,0,.54,3,1.18,2.24,1.56Zm-5.16.63h0a.59.59,0,0,1-.92-.54c.5-.24.91.38.92.54Zm3.47,3.61h0a6.93,6.93,0,0,1-1.83-.78c.88-1.87,2.06-.4,2.57-1.1,1.06-.14,3.74.44,2.53,1s-2.34.39-3.27.84Zm-6.74-2.54h0c-.69-.57.3-1,1.28-.4a2.32,2.32,0,0,1-1.28.4Zm-.2,3.82h0l-.13-.08c-.63-.37,3.26-1,.13.08Zm1.2,4.57a2,2,0,0,1-.13-.54c2.35-1.15,2,1.17.13.54Z"/><path class="cls-1" d="M94.59,121.82c-3-1-3.37-3-3.43-5.67v-7l-.17,0h0a1.19,1.19,0,0,1,.17-.56V98.82L91,98.69a.48.48,0,0,1,.15-.14V94.19a9.46,9.46,0,0,0-2-1.25c0-.58.91-.4,2,.13V91.75a.39.39,0,0,1-.4.08h0c-.27-.32-.27-.32-.27-.55a1.81,1.81,0,0,1,.67,0V88.39c.06-2.72.47-4.67,3.43-5.67V79.3C86,80.36,77.93,87,77.93,102.27s8,21.91,16.66,23v-3.43Zm-9.31-1.6h-.19L84.7,120c.81-.15.84,0,.58.19ZM105,87.52h0a1.71,1.71,0,0,0-.27-.55c2.27-.51,3.71,2,.27.55Zm2.73,5.87c1.83.09,3.06-1.73,2.8-2.43-3,.12-3.42-3.11-6.62-1.54a2.68,2.68,0,0,0,2.45,1.38c.91.54.54,1.86,1.38,2.59Zm3.48,3.23h0l1.69.08c1.3-1.93-2.09-1.32-1.69-.08Zm1.87,2.5h0c.36-.17.71-.5-.13-.7-.5.25-.15.45.13.7Zm-3.65-1.63h0c-.34-.21-.27-.32.09-.5-.9-1.53,1.91-.48-.09.5Zm-5.82-2.69a7.64,7.64,0,0,1-.27-1.08c.86-.8,2,1.51.27,1.08Zm.54,2h0c5.5.87.08-1,.51-1.54-.63-.38-.65,1.23-.51,1.55Zm-.48,3.65h0c2,1.16.94-1.45-.29-.24a.76.76,0,0,1,.28.24Zm4,2.76h0c4.72,1.1-.46-2.51-.49-.45a2,2,0,0,1,.49.45Zm-5.23.13h0c-1.86-3.11,4.54-.86,1.61.58a4,4,0,0,0-1.61-.58Zm2,1.82h0c-.42-.32-1.12-.51-.55-.79,1.12.2,1.61.35.55.79Zm5.55,1.53h0c1,.12,2-.06.37-.56a2.14,2.14,0,0,0-.56-.18c-2.82-.67-3,.63-3,1.7,1.76.58,1.65-1.57,3.19-1Zm-1.21,5.3h0c.15-.14.3-1.13-.56-.71a1.09,1.09,0,0,0,.56.71Zm-.61,3.12h0l.57-.28c.92-.91-2.26-.72-.57.28Zm-5.62-2.56h0a1.68,1.68,0,0,0,.92-.38c-1-.51-1.34-.1-.92.38Zm.32,1.74h0c.86-.42.71-.35.3-.83-.57.28-.65.47-.3.83Zm-17-7.39h0c-3.77-2.94,3.33-1.18,4.74-.35-1.71.84-3.33.42-4.74.35Zm19.81,11.7h0c-.57.13-.71.43-.72.73.84,0,2.34-.46.72-.73ZM81.25,109h0c-.13-.93-.47-1.52,1.51-1.66,1.19.71-.16,1.22-1.51,1.65Zm-2.4-.12h0a.77.77,0,0,0-.14-.39c1.16-1.71,1.83.47.14.39Zm1,4.3h0c.08-.34.08-.64.16-.91,1.14-.87,2.52,1-.16.91Zm5.95,3.69h0a2.11,2.11,0,0,0-.42-.4c.86-.42,1.41,0,.42.4ZM81.9,98.1h0a56.45,56.45,0,0,1,8.06-11,5,5,0,0,1-2.06,2.83c-1.15,1.48,1.68,5.63-1.85,5.47-.22.33-2.82,4.27-.82,2.6,4.18-.38-1.21.82-.73,1.65,1.82,1.54-2.57,2.17.11,2,1.75.73-3.33,5-4.75,5.75-.62-.75.17-1.83.74-2.49,0-1.91,1.78-4.51,1.29-6.77ZM97.25,82.72c3,1,3.37,3,3.43,5.67v7.43c.28.23.58.5.9.81a3.42,3.42,0,0,1-.9.8v8c.24-1,3.49.29.66,1.67h0c-.34-.59.71-.73-.66-1.55v10.56c-.06,2.72-.47,4.67-3.43,5.67v3.43c6.72-.83,13.09-5.07,15.57-14.13h-.24c-.48-.39-.16-.71.41-.68a34.24,34.24,0,0,0,.91-8.18c0-.33,0-.66,0-1l-.38,0h0c-1.75-.32-.52-1,.35-.95a28.25,28.25,0,0,0-2.42-10.73,3.86,3.86,0,0,1-.72-.1h0c0-.38.16-.51.46-.45q-.41-.81-.87-1.55c-1.25.63-1.15.76-2.45,0,0-1.22,1.3-.42,2.18-.41a17.22,17.22,0,0,0-7.24-6.28c1.44,1.45,2.93,3.42,3.76,3.91,3.57,2.12.83,1.34-1.26-.14a14.65,14.65,0,0,1-3.17-1,6.78,6.78,0,0,0-1.66-3.32h.93a19.08,19.08,0,0,0-4.14-1Z"/><path class="cls-1" d="M133.62,121.82c-3-1-3.37-3-3.43-5.67V96.82c-.41-.26-.89-.43-.39-.68l.39.07v-.66l-.24.13a4,4,0,0,0-1.61-.58h0c-1.15-1.92.85-1.8,1.86-1.09V92.5a2.46,2.46,0,0,1-.61-.28h0a.76.76,0,0,0-.28-.25.86.86,0,0,1,.89-.29v-3.1l-.13,0h0c-.11-.25-.12-1.33.21-1.56,0-.19,0-.37.07-.56-.13.14-.38.2-.82.1h0a7.48,7.48,0,0,1-.27-1.08c.49-.45,1.07.09,1.17.57a4.07,4.07,0,0,1,2.32-3,1.23,1.23,0,0,0-.48-.53,2.68,2.68,0,0,1-2.45-1.38c1.86-.91,2.77-.2,3.8.53V79.3l-.68.1c.1.27-.19.45-1.09.2a17.37,17.37,0,0,0-9.51,5.53c.69.53,0,1.09-.94,1.17q-.34.46-.66,1c1.21,1.16,1.52,2.21-.79,2.1h0l-.21-.34q-.39.77-.74,1.61c.18.17.17.35-.19.48a29.79,29.79,0,0,0-1.81,9.44c.32-1,1.9-1.6,1.34-2.49,1.14-1.09,1.84,3.53-1.35,2.81q0,.69,0,1.41c0,15.24,8,21.91,16.66,23v-3.43ZM148.5,112H148l-.25,0h0a23.43,23.43,0,0,0-3.77-3.09c-2.47.15,4.12-1.34,4.54-1.39.06-3.45,3.76-.47,3.68-.44-4.79-1.53-3.77,6.72-3.23,3.34,2.42-.32,1.12,1.46-.51,1.63Zm-25.28,0h-1a1.32,1.32,0,0,0-.59-.82c-.42-3,2.13-.36,1.56.82Zm19.92-27.91h0c1.41.06,1.21-1.13-.13-.93s-2.06.4.13.93Zm-6.46-2.76h0c0-.69.5-.55,1.42,0a2.52,2.52,0,0,1-1.42,0Zm2.24,1.79h0a2.39,2.39,0,0,1,.49.06c1.14-.56-1-.81-.49-.06ZM141.22,89h0c.63.37,1.2-.82-.13-.62a1.84,1.84,0,0,1,.13.62Zm4.26,2.77h0c-1.37,2-3.86-1.29-1.39-1.37.56.33,1.18,1.24,1.39,1.37Zm-3.33,1.11h0c1.57-.77-.41-1.17-.42-.56a3.64,3.64,0,0,1,.42.56Zm1,.85h0c2.61.47,1.65-1.18-.13-.31a.82.82,0,0,0,.13.31Zm2.09,2.32h0c1.35-.67.58-.74-.47-1.51-.64.32,0,1.14.47,1.51Zm-4.95.15h0c.64-.32,1.14-.33.79-.92-1.33-.79-.85.5-.79.92Zm5.81,3.68h0c1.06-.52,4.88-.57,2.8-2.89-.93.45.16,3-3.07,2.26-.36.17,0,.38.28.62Zm4.34,2.2h0c1.46.87-2.27.58-1.76-.12.92-.23.71-.27,1.76.12Zm-26-12.15h0c-2-1.51-2.23-6.65,3.07-1.58a4.54,4.54,0,0,1-3.07,1.58ZM147,101.17h0c.79-.38-2.24-1-2.24-1.56-.84-.5-3.28-2.34-4.63-2.13-1.36,1.35,3.43,2.57,1.11,1.2a.81.81,0,0,1,.85,0l.14-.07c.49.29.92.39.91.69.35.28,1.48.64.9.92-3-.91-1.16,1.48,1.34.25,2.73,1.62-3.27,1.61,1,1.81,2.79,2.2.58-1,.65-1.08Zm-5.16.63h0a.59.59,0,0,1-.92-.54c.5-.24.91.38.92.54Zm3.47,3.61h0c.92-.45,2-.25,3.27-.84s-1.47-1.18-2.53-1c-.5.7-1.69-.77-2.57,1.1a6.93,6.93,0,0,0,1.83.78ZM121.12,91.59h0a1.78,1.78,0,0,1-.13-.54c2.35-1.15,2.6.92.13.54Zm.94,3c-.14-.23.08-.72.71-.35,1.49-.2-1.67-1.08-1.89-1.2,0-1.91,7,1.83,1.18,1.55Zm5.23,4.27h0c-.34-.59.72-.73-.68-1.56,0-1.15,3.6.13.68,1.56Zm-5.69-2.22c-.41-.33-.48-.52,0-.76.64.37,1.06.55,0,.76Zm3.61,4.3h0c-.14.07-.14.07-.56-.1-1.59-1.8,3.2-1.19.56.1Zm3.27,3.34c-.42-.48-.06-.88.92-.38a1.67,1.67,0,0,1-.92.38Zm-6.32-2.6h0a19.58,19.58,0,0,0-1.67-1.07c.64-.32,2.32.76,1.67,1.07ZM128.8,106c-.35-.36-.27-.55.3-.83.41.48.56.41-.3.83Zm-3.44-1.12h0c-1.13.1-1.48-.49-.84-.88,1.27.06,1.26.52.84.88Zm-6.18-2.28c-.28-.4.08-.72,1.14-.94,1.9.74-.22.64-1.14.94Zm.2,1.19h0a1.8,1.8,0,0,0-.21-.43c1.43-.7,1.41.37.21.43Zm17.09-21c2.78,1,3.18,2.95,3.24,5.6v3.73a.79.79,0,0,1,.68.27c.48.6,1.19.94.12,1.46-.39-.38.2-.9-.81-.81v9.37l.1.06-.1.05v8.06c1.94-.78,1.6,1.14,0,.73v4.84c-.06,2.72-.47,4.67-3.43,5.67v3.43c7.9-1,15.31-6.66,16.49-19.33l-.23-.05c-.22-.13,0-.26.26-.34.08-1,.13-2.12.13-3.25,0-.16,0-.33,0-.49a5.77,5.77,0,0,0-1.52-.52c-.42-.4-.21-.43.29-.52a8.52,8.52,0,0,0,1.21.27,35.61,35.61,0,0,0-.44-4.7,5.83,5.83,0,0,0-2.32-.59c-2.35,1.15-2.8-1.74-.12-1.38a3.31,3.31,0,0,0,2-.32c-.08-.33-.17-.66-.26-1a1.43,1.43,0,0,0-1.4.31c-.85-.11-1.62-4,.82-2.07q-.28-.75-.6-1.45h0c-.76-.46-.66-.39-.3-.71a17.56,17.56,0,0,0-13.95-9.84v3.41h.17Z"/><path class="cls-1" d="M170.75,121.61c2.64,0,4.88-1.24,4.88-4.3s-2.24-4.3-4.88-4.3v1.11a1.1,1.1,0,0,1,1,1.27v3.85a1.1,1.1,0,0,1-1,1.27v1.11Zm-1.9-19.74-9.58,19.74H161l9.58-19.74ZM170,113v1.11a1.1,1.1,0,0,0-1,1.27v3.85a1.1,1.1,0,0,0,1,1.27v1.11c-2.64,0-4.88-1.24-4.88-4.3s2.24-4.3,4.88-4.3Zm-9.89-2.93V109a1.1,1.1,0,0,0,.95-1.27v-3.85a1.1,1.1,0,0,0-.95-1.27v-1.11c2.64,0,4.88,1.24,4.88,4.3s-2.24,4.3-4.88,4.3Zm-.77-8.6v1.11a1.1,1.1,0,0,0-.95,1.27v3.85a1.1,1.1,0,0,0,.95,1.27v1.11c-2.64,0-4.88-1.24-4.88-4.3S156.69,101.48,159.33,101.48Z"/><path class="cls-1" d="M110,22,115.59,35l9.8.92.14.1h0l.12-.08,3.95.37-1.41,1.25c-.43-.28-.85-.07-2.27.62l.49.29h0a2.59,2.59,0,0,1,.63.11l-6,5.3a5.69,5.69,0,0,0-1.11-1.08c-1.76.05-1,1.75.07,2l-.93.82,0,.11-.19.09a.81.81,0,0,0,.13.31h0l.16,0,1.29,5.78c-.91-.56-3.23-2.28-4.54-2.08-1.36,1.35,3.43,2.57,1.11,1.2a.81.81,0,0,1,.85,0l.14-.07c.49.29.92.39.91.7.35.28,1.48.64.9.92-2.76-.85-1.37,1.18.87.45l.29,1.28c-.43.15-.7.21.06.27l.35,1.56c-.59,0-1.45-.55-2.13.9a6.89,6.89,0,0,0,1.83.78h0a2.89,2.89,0,0,1,.63-.22l.4,1.77L115,55.1a5.61,5.61,0,0,0,.61-.3,1.43,1.43,0,0,0-1.39-.17L110,52.14,97.9,59.3,101,45.57l-2.32-2c.1-.24-.09-.48-.56-.5l-1.54-1.36c3.71-.39-4.6-5.88-5.56-4.9l-.57-.5,14-1.32,2.69-6.21c2.09,1.46,4.76,2.21,1.21.1a5.08,5.08,0,0,1-.91-.8l2.6-6ZM94.58,39.94a9.93,9.93,0,0,0-2.82-2.48l2.82,2.48ZM119,36.39h0c1.41.06,1.22-1.13-.13-.93s-2.06.4.13.93Zm-6.78-4.81h0c.43-.21.08-.19-.05-.42-.86.27-2.47-.92-2.49.45,1.33.79,1.2.63,2.54,0Zm.32,2a2.52,2.52,0,0,0,1.42,0c-.91-.54-1.41-.68-1.42,0Zm2.24,1.79h0a2.41,2.41,0,0,1,.49.06c1.14-.56-1-.81-.49-.06Zm-8-3.83c3.43,1.43,2-1.05-.27-.55a1.72,1.72,0,0,1,.27.55ZM117,41.35h0c.63.37,1.2-.82-.13-.62a1.84,1.84,0,0,1,.13.62Zm-7.57-3.88c1.83.09,3.06-1.73,2.8-2.43-3,.12-3.42-3.11-6.62-1.54a2.68,2.68,0,0,0,2.45,1.38c.91.54.54,1.86,1.38,2.59Zm3.48,3.23h0l1.69.08c1.3-1.93-2.09-1.32-1.69-.08Zm1.87,2.5h0c.36-.18.71-.5-.13-.7-.5.24-.15.45.13.7Zm3.15,2h0c1.57-.77-.41-1.17-.42-.56a3.64,3.64,0,0,1,.42.56Zm-6.8-3.65c2-1-.81-2,.09-.5-.36.18-.43.29-.09.5Zm-5.82-2.69h0c1.76.43.6-1.89-.26-1.08a7.61,7.61,0,0,0,.27,1.08Zm9.93,6.52h0c1.34-.2.63.37,1.05.78,1.06-.53.36-.86-.12-1.46-.48-.75-3.18.27-.92.68Zm-9.4-4.51h0c5.5.87.08-1,.51-1.54-.63-.38-.65,1.23-.51,1.55Zm10.26,7.65h0c.64-.32,1.14-.33.79-.92-1.33-.79-.86.5-.79.92Zm-19.77-10c1.48.34,3.05-.66,1.29-1.39-1.13.25-2.13.74-1.29,1.39Zm9,6h0c2,1.16.94-1.45-.29-.24a.78.78,0,0,1,.28.25Zm4,2.75h0c4.72,1.1-.46-2.51-.49-.45a2,2,0,0,1,.49.45Zm-9.11-5h0a4.54,4.54,0,0,0,3.07-1.58c-5.29-5.07-5.09.06-3.07,1.58Zm17.34,11.85c0-.15-.42-.78-.92-.54a.59.59,0,0,0,.92.54Zm-13.46-6.69h0a4,4,0,0,1,1.61.58c2.92-1.43-3.47-3.69-1.61-.58Zm2,1.82h0c1.06-.45.57-.59-.55-.79-.57.28.13.47.55.79Zm5.55,1.53h0c1,.12,2-.06.37-.56a2.13,2.13,0,0,0-.56-.18c-2.82-.67-3,.63-3,1.69,1.76.58,1.65-1.57,3.19-1Zm-8.62.44h0c2.92-1.43-.66-2.71-.68-1.56,1.39.83.33,1,.68,1.56ZM101,53.31h0c2.64-1.29-2.15-1.9-.56-.1.42.17.42.17.56.1Zm.16,4h0c.43-.36.44-.82-.84-.88-.65.39-.3,1,.84.88Z"/><path class="cls-1" d="M73.56,39.83l.24.56a.77.77,0,0,0-.52.09l.28-.65Zm.76,1.76,1.25,2.89c-1.59,0-2.44-.89-3.38-1.48l.87-2v.06c.67.4,1,.55,1.27.53Zm1.4,3.23a2.83,2.83,0,0,1-2.82,2.09h0c-.81-.71-.49-2-1.3-2.54l-1.25,2.89-.91.09c.39.45.43,1.24-.67,1h0a6.64,6.64,0,0,1-.23-.89L62.28,48l.31.27c.46-.66,1.73-.5,4.18,1.85a3.72,3.72,0,0,1-1.06.91l2.64,2.33-.43,1.94c1.15-.06,3.17,1.21,1.27,2.14a4,4,0,0,0-1.61-.58h0l-.44,2c.61.3,1,1-.39,1.72l-.16.73,7-4.13,7,4.13-.08-.35c-.77-.26-1.86-1-1.12-1.7a2,2,0,0,1,.75.05l-.31-1.4-.2.09h0c0-.28-.26-.93,0-1.12l-.46-2.06-.37,0h0c-1.63-.3-.67-.92.17-1l-.12-.52L84.84,48l-8.07-.76-1.06-2.45Zm4.75,6h0a1.84,1.84,0,0,0-.13-.62c1.33-.2.76,1,.13.62Zm-4.09-.65c-.4-1.25,3-1.85,1.69.08l-1.69-.08Zm1.87,2.5c-.28-.24-.63-.45-.13-.7.84.19.48.52.13.7ZM74.59,51h0c-.34-.21-.27-.32.09-.5-.9-1.53,1.91-.48-.09.5Zm-5.28-.68h0c-.13-.31-.11-1.92.52-1.55-.43.59,5,2.42-.52,1.54ZM68.83,54h0a.78.78,0,0,0-.28-.24c1.22-1.2,2.24,1.41.29.24Zm4,2.75h0a2,2,0,0,0-.49-.45c0-2.06,5.21,1.55.49.45Zm-3.21,2h0c-.42-.32-1.12-.51-.55-.79,1.12.2,1.61.35.55.79Z"/><path class="cls-1" d="M146.45,39.83l3.21,7.44,8.07.76-6.08,5.36,1.77,7.91-7-4.13-7,4.13,1.77-7.91L135.17,48l8.07-.76,3.21-7.44Zm.91,9.46-2-.11a3.25,3.25,0,0,0-.2,2h0a1.1,1.1,0,0,0,1.5,1.43c.15-.5.1-1.52.28-1.52a1.84,1.84,0,0,0-.16-.64,1.59,1.59,0,0,0,.62-1.19Zm-5.82,6.95c.45.26,1.14.65,2.21,1.28h0a1.5,1.5,0,0,1,.74-.1c-3-6.67-.15-5.32-2.7-4.6Z"/><path class="cls-1" d="M41.21,125.82a1.67,1.67,0,0,1-3.25.74,73.93,73.93,0,0,1,22-71A1.67,1.67,0,1,1,62.27,58a70.6,70.6,0,0,0-21.06,67.81Z"/><path class="cls-1" d="M179.77,125.82a1.67,1.67,0,0,0,3.25.74,73.93,73.93,0,0,0-22-71A1.67,1.67,0,1,0,158.72,58a70.61,70.61,0,0,1,21.06,67.81Z"/><path class="cls-2" d="M69.62,150.13l-6.05-3.74-2.88,2.08-3.09-1.91,13.86-9.44,3,1.84-2.22,16.63-3.17-2Zm.47-2.88,1-6.27L66,144.7Z"/><path class="cls-2" d="M89.1,161.55l2.8-8.75-6.62,5.82-1.52-.49-2-8.4L79,158.29l-3.17-1,4.71-14.58,2.79.9,2.53,10.82,8.3-7.32,2.77.89-4.66,14.59Z"/><path class="cls-2" d="M108.55,160.9l-7.09-.49-1.58,3.18-3.62-.25,7.87-14.81,3.49.24,5.78,15.75-3.71-.26Zm-.93-2.76-2-6-2.83,5.68Z"/><path class="cls-2" d="M128.92,159.61l.38,2.87L116,164.23l-.3-2.28,7-11.14-8.16,1.07-.38-2.86L127,147.33l.3,2.28-7,11.14Z"/><path class="cls-2" d="M136,159.8a7.65,7.65,0,0,1-3.77-1.67,8.15,8.15,0,0,1-2.71-7.65,7.64,7.64,0,0,1,1.88-3.67,9.48,9.48,0,0,1,8.1-2.87,7.81,7.81,0,0,1,4.6,13,9.49,9.49,0,0,1-8.1,2.87Zm5.49-4.72a4.47,4.47,0,0,0,1-2.21,5.48,5.48,0,0,0-1.7-4.79,4.48,4.48,0,0,0-2.2-1.07,5.13,5.13,0,0,0-4.62,1.64,4.47,4.47,0,0,0-1,2.21,5.48,5.48,0,0,0,1.69,4.79,4.47,4.47,0,0,0,2.2,1.07,5.13,5.13,0,0,0,4.62-1.64Z"/><path class="cls-2" d="M156.15,133.45l8.32,12.86L162,147.89l-11.46-3.66,5,7.81-2.94,1.9-8.32-12.86,2.46-1.59,11.44,3.68-5-7.81Z"/><path class="cls-2" d="M49.09,164.35a7.39,7.39,0,0,1,0-4,8,8,0,0,1,5.79-5.44,7.4,7.4,0,0,1,4,.23,9.24,9.24,0,0,1,5.46,5.37,7,7,0,0,1,.37,3.26l-3-.22a4.77,4.77,0,0,0-1.29-3.93,5,5,0,0,0-2.13-1.39,4.32,4.32,0,0,0-2.4-.08,5.33,5.33,0,0,0-3.61,3.38,4.32,4.32,0,0,0-.08,2.39,5,5,0,0,0,1.25,2.22,4.75,4.75,0,0,0,3.86,1.53l0,3a6.91,6.91,0,0,1-3.25-.57,8.76,8.76,0,0,1-2.9-2.1A8.55,8.55,0,0,1,49.09,164.35Z"/><path class="cls-2" d="M61.57,176.07a7.45,7.45,0,0,1-.84-3.93,7.94,7.94,0,0,1,4.47-6.52,7.43,7.43,0,0,1,4-.62,9.23,9.23,0,0,1,6.9,4.73,7.61,7.61,0,0,1-7.6,11.07,9.24,9.24,0,0,1-6.9-4.73Zm6.86,1.62a4.36,4.36,0,0,0,2.34-.45,5.33,5.33,0,0,0,2.8-4.08,4.37,4.37,0,0,0-.42-2.34,5,5,0,0,0-3.94-2.7,4.35,4.35,0,0,0-2.34.45,5.33,5.33,0,0,0-2.8,4.08A4.36,4.36,0,0,0,64.5,175a5,5,0,0,0,3.94,2.7Z"/><path class="cls-2" d="M88.53,190.62l3-8.42-6.64,5.43-1.46-.53-1.66-8.24-3,8.23-3-1.1,5.09-14,2.68,1,2.09,10.62L94,176.72l2.66,1-5,14Z"/><path class="cls-2" d="M108.66,179.72a5.35,5.35,0,0,1,1.36,7.82,5,5,0,0,1-2.45,1.61,8.42,8.42,0,0,1-3.49.25l-3-.34-.47,4.09-3.43-.39,1.71-14.82,6.41.74A8.31,8.31,0,0,1,108.66,179.72Zm-2,6.47a2.34,2.34,0,0,0,1-1.8,2.37,2.37,0,0,0-.58-2,3.63,3.63,0,0,0-2.27-.94l-2.79-.32-.59,5.14,2.79.32A3.62,3.62,0,0,0,106.64,186.19Z"/><path class="cls-2" d="M113.19,179.24l3.44-.24.83,12.08,7.46-.52.19,2.81-10.9.75Z"/><path class="cls-2" d="M144.8,184.9l-6.53,2.29-.19,3.45-3.34,1.17,1.33-16.28,3.22-1.13,11.23,11.87-3.42,1.2Zm-1.89-2.11-4.12-4.6-.34,6.17Z"/><path class="cls-2" d="M126.61,177.83l3.44-.56,2,15.34-3.44.56Z"/><path class="cls-2" d="M157,164l8.11,12.52-2.38,1.54-11.17-3.56,4.92,7.6L153.61,184l-8.11-12.52,2.4-1.55L159,173.49l-4.92-7.6Z"/><path class="cls-2" d="M162.94,162.21l-3.42,3.33-2-2,9.3-9.08,2,2-3.42,3.33,8.45,8.66-2.47,2.41Z"/></g></g></svg>