<svg xmlns="http://www.w3.org/2000/svg" viewBox="0 0 260.44 34.58"><defs><style>.cls-1{fill:#95165b;}</style></defs><title>stars</title><g id="Layer_2" data-name="Layer 2"><g id="feedback"><path class="cls-1" d="M40.2,13.82c-1.24-.23-2.5-.35-3.75-.5l-1.64-.22a.44.44,0,0,0-.35-.05c-2.65-.42-5.08-1.17-6.8-3.55-2.15-3-3.51-6.44-5.7-9.39-.43-.58-3.38,1.14-3.08,1.79S18.33,3.61,18.1,4c-.39.73-.83,1.44-1.25,2.16a41.72,41.72,0,0,1-2.24,3.71c-.39.54-.81,1-1.21,1.53l-.78,0-4,.24-5.93.36c-.46,0-3.33,1.57-2.63,2,2.17,1.19,4.32,2.43,6.51,3.58,1.1.58,2.8,1,3.81,2,0,.08.05.12.14.14a2.58,2.58,0,0,1,.55.84c.42,1.07-.17,2.14-.51,3.14S10,26,9.66,27.19l-.95,3.59a15.5,15.5,0,0,0-.88,3.56c0,.73,2-.43,2.19-.59L15,30c1.07-.8,2.79-2.95,4.2-2.36a13,13,0,0,1,2.25,1.53L24.06,31c1.66,1.16,3.3,2.35,5,3.47.62.42,3.28-1,3.08-1.79l-1.82-7.3c-.29-1.17-.6-2.33-.87-3.5A5.4,5.4,0,0,1,29.17,20s0-.15.08-.27c.85-.29,1.7-.69,2.51-1.06,1-.48,2.06-1,3.08-1.54l1.31-.67a5.15,5.15,0,0,1,1.43-.7,4,4,0,0,0,2-.95C39.71,14.75,40.7,13.91,40.2,13.82ZM29.59,18.43a8.22,8.22,0,0,0-2.87,1.83c-1,1-.65,2.41-.31,3.68a26.38,26.38,0,0,1-2,3.26,9.46,9.46,0,0,0-2.18-1.4.17.17,0,0,0,0-.13c-.3-.41,1.61-2.35,2-2.8l2.35-2.93,4.1-5.12,1.08.19A39.78,39.78,0,0,1,29.59,18.43ZM14.2,18.8a2.69,2.69,0,0,0-.53-.82q4.25-5.27,8.58-10.47c.43.78.88,1.56,1.35,2.32a3.61,3.61,0,0,0-.27.26Q20,13.66,16.91,17.36c-.84,1-1.73,2-2.6,3A2.66,2.66,0,0,0,14.2,18.8Zm-1.37,6.63.2-.74a2.4,2.4,0,0,0,.83-.79c1.43-2.65,3.69-5,5.62-7.26q2.4-2.85,4.91-5.61l.46.63a7.32,7.32,0,0,0,.67.75l-.2.2A173.12,173.12,0,0,0,12,28.73ZM5.93,13.78c1.25-.06,2.5-.14,3.74-.23l-.14.13q-.65.68-1.28,1.38C7.47,14.65,6.7,14.22,5.93,13.78Zm3.62,2a4,4,0,0,0,.3-.31c.6-.7,1.23-1.39,1.86-2.06a5.89,5.89,0,0,0,3.82-1.94,50.34,50.34,0,0,0,3.24-4.59q.79-1.35,1.56-2.72c.4.66.77,1.33,1.14,2a4,4,0,0,0-.36.37q-4.38,5.25-8.69,10.57c-.85-.47-1.81-.8-2.55-1.16Zm5.63,12.81c-.74.61-1.5,1.2-2.27,1.78a168.71,168.71,0,0,1,13.66-17,9.27,9.27,0,0,0,2.52,1.16,4,4,0,0,0-.83.76L22.9,21.9l-2.68,3.35c-.1.13-.28.31-.47.52A13.78,13.78,0,0,0,15.18,28.54ZM25.42,28l0,0a4.22,4.22,0,0,0,1.16-1c.17-.21.33-.42.49-.63l.83,3.35ZM29,19.83l.2-.07C28.94,20,28.34,20,29,19.83Zm.23-.09.07-.24C29.38,19.59,29.33,19.67,29.25,19.74Zm3.31-2.54q.63-.94,1.2-1.9l2.07.25C34.74,16.1,33.67,16.67,32.56,17.2Z"/><path class="cls-1" d="M95.23,13.82c-1.24-.23-2.5-.35-3.75-.5l-1.64-.22a.44.44,0,0,0-.35-.05c-2.65-.42-5.08-1.17-6.8-3.55-2.15-3-3.51-6.44-5.7-9.39-.43-.58-3.38,1.14-3.08,1.79S73.36,3.61,73.13,4c-.39.73-.83,1.44-1.25,2.16a41.72,41.72,0,0,1-2.24,3.71c-.39.54-.81,1-1.21,1.53l-.78,0-4,.24-5.93.36c-.46,0-3.33,1.57-2.63,2,2.17,1.19,4.32,2.43,6.51,3.58,1.1.58,2.8,1,3.81,2,0,.08.05.12.14.14a2.58,2.58,0,0,1,.55.84c.42,1.07-.17,2.14-.51,3.14S65,26,64.69,27.19l-.95,3.59a15.5,15.5,0,0,0-.88,3.56c0,.73,2-.43,2.19-.59l5-3.72c1.07-.8,2.79-2.95,4.2-2.36a13,13,0,0,1,2.25,1.53L79.09,31c1.66,1.16,3.3,2.35,5,3.47.62.42,3.28-1,3.08-1.79l-1.82-7.3c-.29-1.17-.6-2.33-.87-3.5A5.4,5.4,0,0,1,84.19,20s0-.15.08-.27c.85-.29,1.7-.69,2.51-1.06,1-.48,2.06-1,3.08-1.54l1.31-.67a5.15,5.15,0,0,1,1.43-.7,4,4,0,0,0,2-.95C94.74,14.75,95.73,13.91,95.23,13.82ZM84.61,18.43a8.22,8.22,0,0,0-2.87,1.83c-1,1-.65,2.41-.31,3.68a26.38,26.38,0,0,1-2,3.26,9.46,9.46,0,0,0-2.18-1.4.17.17,0,0,0,0-.13c-.3-.41,1.61-2.35,2-2.8l2.35-2.93,4.1-5.12,1.08.19A39.78,39.78,0,0,1,84.61,18.43Zm-15.38.37A2.69,2.69,0,0,0,68.7,18q4.25-5.27,8.58-10.47c.43.78.88,1.56,1.35,2.32a3.61,3.61,0,0,0-.27.26q-3.28,3.57-6.41,7.26c-.84,1-1.73,2-2.6,3A2.66,2.66,0,0,0,69.23,18.8Zm-1.37,6.63.2-.74a2.4,2.4,0,0,0,.83-.79c1.43-2.65,3.69-5,5.62-7.26q2.4-2.85,4.91-5.61l.46.63a7.32,7.32,0,0,0,.67.75l-.2.2A173.12,173.12,0,0,0,67,28.73ZM61,13.78c1.25-.06,2.5-.14,3.74-.23l-.14.13q-.65.68-1.28,1.38C62.5,14.65,61.73,14.22,61,13.78Zm3.62,2a4,4,0,0,0,.3-.31c.6-.7,1.23-1.39,1.86-2.06a5.89,5.89,0,0,0,3.82-1.94A50.34,50.34,0,0,0,73.8,6.83q.79-1.35,1.56-2.72c.4.66.77,1.33,1.14,2a4,4,0,0,0-.36.37q-4.38,5.25-8.69,10.57c-.85-.47-1.81-.8-2.55-1.16Zm5.63,12.81c-.74.61-1.5,1.2-2.27,1.78a168.71,168.71,0,0,1,13.66-17,9.27,9.27,0,0,0,2.52,1.16,4,4,0,0,0-.83.76L77.93,21.9l-2.68,3.35c-.1.13-.28.31-.47.52A13.78,13.78,0,0,0,70.21,28.54ZM80.45,28l0,0a4.22,4.22,0,0,0,1.16-1c.17-.21.33-.42.49-.63l.83,3.35ZM84,19.83l.2-.07C84,20,83.37,20,84,19.83Zm.23-.09.07-.24C84.4,19.59,84.36,19.67,84.27,19.74Zm3.31-2.54q.63-.94,1.2-1.9l2.07.25C89.77,16.1,88.69,16.67,87.59,17.2Z"/><path class="cls-1" d="M150.25,13.82c-1.24-.23-2.5-.35-3.75-.5l-1.64-.22a.44.44,0,0,0-.35-.05c-2.65-.42-5.08-1.17-6.8-3.55-2.15-3-3.51-6.44-5.7-9.39-.43-.58-3.38,1.14-3.08,1.79s-.55,1.71-.78,2.14c-.39.73-.83,1.44-1.25,2.16a41.72,41.72,0,0,1-2.24,3.71c-.39.54-.81,1-1.21,1.53l-.78,0-4,.24-5.93.36c-.46,0-3.33,1.57-2.63,2,2.17,1.19,4.32,2.43,6.51,3.58,1.1.58,2.8,1,3.81,2,0,.08.05.12.14.14a2.58,2.58,0,0,1,.55.84c.42,1.07-.17,2.14-.51,3.14s-.64,2.31-.95,3.47l-.95,3.59a15.5,15.5,0,0,0-.88,3.56c0,.73,2-.43,2.19-.59l5-3.72c1.07-.8,2.79-2.95,4.2-2.36a13,13,0,0,1,2.25,1.53L134.11,31c1.66,1.16,3.3,2.35,5,3.47.62.42,3.28-1,3.08-1.79l-1.82-7.3c-.29-1.17-.6-2.33-.87-3.5a5.4,5.4,0,0,1-.27-1.87s0-.15.08-.27c.85-.29,1.7-.69,2.51-1.06,1-.48,2.06-1,3.08-1.54l1.31-.67a5.15,5.15,0,0,1,1.43-.7,4,4,0,0,0,2-.95C149.76,14.75,150.75,13.91,150.25,13.82Zm-10.62,4.61a8.22,8.22,0,0,0-2.87,1.83c-1,1-.65,2.41-.31,3.68a26.38,26.38,0,0,1-2,3.26,9.46,9.46,0,0,0-2.18-1.4.17.17,0,0,0,0-.13c-.3-.41,1.61-2.35,2-2.8l2.35-2.93,4.1-5.12,1.08.19A39.78,39.78,0,0,1,139.64,18.43Zm-15.38.37a2.69,2.69,0,0,0-.53-.82Q128,12.72,132.3,7.51c.43.78.88,1.56,1.35,2.32a3.61,3.61,0,0,0-.27.26q-3.28,3.57-6.41,7.26c-.84,1-1.73,2-2.6,3A2.66,2.66,0,0,0,124.25,18.8Zm-1.37,6.63.2-.74a2.4,2.4,0,0,0,.83-.79c1.43-2.65,3.69-5,5.62-7.26q2.4-2.85,4.91-5.61l.46.63a7.32,7.32,0,0,0,.67.75l-.2.2A173.12,173.12,0,0,0,122,28.73ZM116,13.78c1.25-.06,2.5-.14,3.74-.23l-.14.13q-.65.68-1.28,1.38C117.52,14.65,116.75,14.22,116,13.78Zm3.62,2a4,4,0,0,0,.3-.31c.6-.7,1.23-1.39,1.86-2.06a5.89,5.89,0,0,0,3.82-1.94,50.34,50.34,0,0,0,3.24-4.59q.79-1.35,1.56-2.72c.4.66.77,1.33,1.14,2a4,4,0,0,0-.36.37q-4.38,5.25-8.69,10.57c-.85-.47-1.81-.8-2.55-1.16Zm5.63,12.81c-.74.61-1.5,1.2-2.27,1.78a168.71,168.71,0,0,1,13.66-17,9.27,9.27,0,0,0,2.52,1.16,4,4,0,0,0-.83.76L133,21.9l-2.68,3.35c-.1.13-.28.31-.47.52A13.78,13.78,0,0,0,125.23,28.54ZM135.47,28l0,0a4.22,4.22,0,0,0,1.16-1c.17-.21.33-.42.49-.63l.83,3.35Zm3.59-8.18.2-.07C139,20,138.39,20,139.06,19.83Zm.23-.09.07-.24C139.43,19.59,139.38,19.67,139.3,19.74Zm3.31-2.54q.63-.94,1.2-1.9l2.07.25C144.79,16.1,143.72,16.67,142.61,17.2Z"/><path class="cls-1" d="M205.28,13.82c-1.24-.23-2.5-.35-3.75-.5l-1.64-.22a.44.44,0,0,0-.35-.05c-2.65-.42-5.08-1.17-6.8-3.55-2.15-3-3.51-6.44-5.7-9.39-.43-.58-3.38,1.14-3.08,1.79s-.55,1.71-.78,2.14c-.39.73-.83,1.44-1.25,2.16a41.72,41.72,0,0,1-2.24,3.71c-.39.54-.81,1-1.21,1.53l-.78,0-4,.24-5.93.36c-.46,0-3.33,1.57-2.63,2,2.17,1.19,4.32,2.43,6.51,3.58,1.1.58,2.8,1,3.81,2,0,.08.05.12.14.14a2.58,2.58,0,0,1,.55.84c.42,1.07-.17,2.14-.51,3.14s-.64,2.31-.95,3.47l-.95,3.59a15.5,15.5,0,0,0-.88,3.56c0,.73,2-.43,2.19-.59l5-3.72c1.07-.8,2.79-2.95,4.2-2.36a13,13,0,0,1,2.25,1.53L189.14,31c1.66,1.16,3.3,2.35,5,3.47.62.42,3.28-1,3.08-1.79l-1.82-7.3c-.29-1.17-.6-2.33-.87-3.5a5.4,5.4,0,0,1-.27-1.87s0-.15.08-.27c.85-.29,1.7-.69,2.51-1.06,1-.48,2.06-1,3.08-1.54l1.31-.67a5.15,5.15,0,0,1,1.43-.7,4,4,0,0,0,2-.95C204.79,14.75,205.78,13.91,205.28,13.82Zm-10.62,4.61a8.22,8.22,0,0,0-2.87,1.83c-1,1-.65,2.41-.31,3.68a26.38,26.38,0,0,1-2,3.26,9.46,9.46,0,0,0-2.18-1.4.17.17,0,0,0,0-.13c-.3-.41,1.61-2.35,2-2.8l2.35-2.93,4.1-5.12,1.08.19A39.78,39.78,0,0,1,194.66,18.43Zm-15.38.37a2.69,2.69,0,0,0-.53-.82q4.25-5.27,8.58-10.47c.43.78.88,1.56,1.35,2.32a3.61,3.61,0,0,0-.27.26q-3.28,3.57-6.41,7.26c-.84,1-1.73,2-2.6,3A2.66,2.66,0,0,0,179.28,18.8Zm-1.37,6.63.2-.74a2.4,2.4,0,0,0,.83-.79c1.43-2.65,3.69-5,5.62-7.26q2.4-2.85,4.91-5.61l.46.63a7.32,7.32,0,0,0,.67.75l-.2.2A173.12,173.12,0,0,0,177,28.73ZM171,13.78c1.25-.06,2.5-.14,3.74-.23l-.14.13q-.65.68-1.28,1.38C172.55,14.65,171.78,14.22,171,13.78Zm3.62,2a4,4,0,0,0,.3-.31c.6-.7,1.23-1.39,1.86-2.06a5.89,5.89,0,0,0,3.82-1.94,50.34,50.34,0,0,0,3.24-4.59q.79-1.35,1.56-2.72c.4.66.77,1.33,1.14,2a4,4,0,0,0-.36.37q-4.38,5.25-8.69,10.57c-.85-.47-1.81-.8-2.55-1.16Zm5.63,12.81c-.74.61-1.5,1.2-2.27,1.78a168.71,168.71,0,0,1,13.66-17,9.27,9.27,0,0,0,2.52,1.16,4,4,0,0,0-.83.76L188,21.9l-2.68,3.35c-.1.13-.28.31-.47.52A13.78,13.78,0,0,0,180.26,28.54ZM190.5,28l0,0a4.22,4.22,0,0,0,1.16-1c.17-.21.33-.42.49-.63l.83,3.35Zm3.59-8.18.2-.07C194,20,193.42,20,194.09,19.83Zm.23-.09.07-.24C194.45,19.59,194.41,19.67,194.32,19.74Zm3.31-2.54q.63-.94,1.2-1.9l2.07.25C199.82,16.1,198.74,16.67,197.64,17.2Z"/><path class="cls-1" d="M260.3,13.82c-1.24-.23-2.5-.35-3.75-.5l-1.64-.22a.44.44,0,0,0-.35-.05c-2.65-.42-5.08-1.17-6.8-3.55-2.15-3-3.51-6.44-5.7-9.39-.43-.58-3.38,1.14-3.08,1.79s-.55,1.71-.78,2.14c-.39.73-.83,1.44-1.25,2.16a41.72,41.72,0,0,1-2.24,3.71c-.39.54-.81,1-1.21,1.53l-.78,0-4,.24-5.93.36c-.46,0-3.33,1.57-2.63,2,2.17,1.19,4.32,2.43,6.51,3.58,1.1.58,2.8,1,3.81,2,0,.08.05.12.14.14a2.58,2.58,0,0,1,.55.84c.42,1.07-.17,2.14-.51,3.14s-.64,2.31-.95,3.47l-.95,3.59a15.5,15.5,0,0,0-.88,3.56c0,.73,2-.43,2.19-.59l5-3.72c1.07-.8,2.79-2.95,4.2-2.36a13,13,0,0,1,2.25,1.53L244.16,31c1.66,1.16,3.3,2.35,5,3.47.62.42,3.28-1,3.08-1.79l-1.82-7.3c-.29-1.17-.6-2.33-.87-3.5a5.4,5.4,0,0,1-.27-1.87s0-.15.08-.27c.85-.29,1.7-.69,2.51-1.06,1-.48,2.06-1,3.08-1.54l1.31-.67a5.15,5.15,0,0,1,1.43-.7,4,4,0,0,0,2-.95C259.81,14.75,260.8,13.91,260.3,13.82Zm-10.62,4.61a8.22,8.22,0,0,0-2.87,1.83c-1,1-.65,2.41-.31,3.68a26.38,26.38,0,0,1-2,3.26,9.46,9.46,0,0,0-2.18-1.4.17.17,0,0,0,0-.13c-.3-.41,1.61-2.35,2-2.8l2.35-2.93,4.1-5.12,1.08.19A39.78,39.78,0,0,1,249.69,18.43Zm-15.38.37a2.69,2.69,0,0,0-.53-.82q4.25-5.27,8.58-10.47c.43.78.88,1.56,1.35,2.32a3.61,3.61,0,0,0-.27.26q-3.28,3.57-6.41,7.26c-.84,1-1.73,2-2.6,3A2.66,2.66,0,0,0,234.3,18.8Zm-1.37,6.63.2-.74a2.4,2.4,0,0,0,.83-.79c1.43-2.65,3.69-5,5.62-7.26q2.4-2.85,4.91-5.61l.46.63a7.32,7.32,0,0,0,.67.75l-.2.2a173.12,173.12,0,0,0-13.35,16.14ZM226,13.78c1.25-.06,2.5-.14,3.74-.23l-.14.13q-.65.68-1.28,1.38C227.57,14.65,226.8,14.22,226,13.78Zm3.62,2a4,4,0,0,0,.3-.31c.6-.7,1.23-1.39,1.86-2.06a5.89,5.89,0,0,0,3.82-1.94,50.34,50.34,0,0,0,3.24-4.59q.79-1.35,1.56-2.72c.4.66.77,1.33,1.14,2a4,4,0,0,0-.36.37q-4.38,5.25-8.69,10.57c-.85-.47-1.81-.8-2.55-1.16Zm5.63,12.81c-.74.61-1.5,1.2-2.27,1.78a168.71,168.71,0,0,1,13.66-17,9.27,9.27,0,0,0,2.52,1.16,4,4,0,0,0-.83.76L243,21.9l-2.68,3.35c-.1.13-.28.31-.47.52A13.78,13.78,0,0,0,235.28,28.54ZM245.52,28l0,0a4.22,4.22,0,0,0,1.16-1c.17-.21.33-.42.49-.63l.83,3.35Zm3.59-8.18.2-.07C249,20,248.44,20,249.11,19.83Zm.23-.09.07-.24C249.47,19.59,249.43,19.67,249.35,19.74Zm3.31-2.54q.63-.94,1.2-1.9l2.07.25C254.84,16.1,253.77,16.67,252.66,17.2Z"/></g></g></svg>