<svg xmlns="http://www.w3.org/2000/svg" viewBox="0 0 141.29 104.42"><defs><style>.cls-1{fill:white;}</style></defs><title>campaign_ico</title><g id="Layer_2" data-name="Layer 2"><g id="features"><path class="cls-1" d="M36.66,58.07A178.06,178.06,0,0,0,43,75.2c2,4.6,4,9.86,7.31,13.7,1.75,2,3,2.15,5.43,1.32A100.93,100.93,0,0,0,66,85.79,292,292,0,0,0,93.14,71.42c1.61-1,4.66-2.33,5.57-4.14C99.87,65,98,61.1,97.2,59A224.79,224.79,0,0,0,86.48,34.92c-.44-.87-1.75-.11-1.31.77,3,6,5.86,12.1,8.45,18.29,1.42,3.4,3.16,7.08,3.73,10.76.39,2.53-1.63,3.27-3.59,4.52A245.21,245.21,0,0,1,71,81.63c-3.81,1.9-7.65,3.76-11.55,5.45-1.71.75-5,2.8-6.89,1.93-1.67-.78-3-3.71-3.8-5.22-1.45-2.59-2.7-5.3-3.89-8a174,174,0,0,1-6.78-18.11c-.29-.93-1.76-.53-1.47.4Z"/><path class="cls-1" d="M36.85,58.4C39,61.1,46,61.07,48.95,61.53c6.91,1.07,13.92,1.92,20.63,3.94a.77.77,0,0,0,.93-.53c.92-3,2.83-5.87,4.4-8.58,2.22-3.84,4.53-7.63,6.79-11.45.81-1.38,6.81-9.4,4-10.55-1.09-.45-3.31.62-4.3.95-2.84.94-5.62,2.07-8.38,3.21q-11,4.54-21.63,9.87c-3.42,1.71-6.84,3.47-10.1,5.48-1.55,1-3.55,2-4.55,3.61-.52.83.79,1.59,1.31.77,2.06-3.25,8-5.39,11.22-7.08,6.33-3.29,12.8-6.3,19.34-9.14,4.9-2.13,10-4.62,15.24-5.89a4,4,0,0,1,1.55-.29c-.41-.1-.17-.54-.56.14s-.54,1.17-.82,1.72c-1.42,2.79-3.07,5.48-4.67,8.17C75.87,51.75,71,57.95,69,64.53L70,64c-6.09-1.83-12.44-2.69-18.7-3.64C48.5,59.94,45.71,59.54,43,59c-1.36-.27-4.1-.47-5-1.66C37.33,56.56,36.26,57.64,36.85,58.4Z"/><path class="cls-1" d="M75.86,79.5a23.73,23.73,0,0,0-1.95,6.72.78.78,0,0,0,.53.93,246.88,246.88,0,0,1,34.48,11.52c3,1.26,5.95,2.58,8.89,3.94,1.51.7,3.28,1.76,5,1.8,3,.07,4.08-2.08,5.09-4.59,4.4-10.89,9.14-21.66,13.35-32.63.35-.91-1.12-1.31-1.47-.4C135.87,77,131.49,87,127.38,97.05c-.32.79-.63,1.59-1,2.37a8.75,8.75,0,0,1-.93,2.09c-1.81,1.72-4.43.92-6.29.09-4.55-2-9.06-4.11-13.69-6a247.69,247.69,0,0,0-30.67-10l.53.93a22.13,22.13,0,0,1,1.79-6.36c.4-.88-.91-1.66-1.31-.77Z"/><path class="cls-1" d="M95.94,69.23c2.39,3.66,4.54,7.49,6.65,11.32a.77.77,0,0,0,.86.35q9.42-3.38,18.84-6.72,6.75-2.39,13.51-4.76c1.13-.39,5.74-1,5.45-2.75-.16-1-2.38-1.6-3.06-1.9-2.51-1.12-5.08-2.1-7.64-3.09-7.38-2.84-14.82-5.52-22.26-8.19q-7.51-2.69-15-5.32c-.93-.32-1.32,1.15-.4,1.47,11.67,4.06,23.31,8.2,34.87,12.57,3,1.13,5.94,2.25,8.86,3.5A18,18,0,0,0,139,66.84c.26.06.49.36.75.41s.07.06.15.11q.26-1.2-.43-.82l-.85.29c-1.77.2-3.8,1.31-5.48,1.9l-7,2.45-13.73,4.88c-3,1.08-6.1,2.45-9.21,3.29-.24.06.72.8.38,0a23.28,23.28,0,0,0-1.44-2.58c-1.58-2.8-3.19-5.58-4.95-8.27-.53-.82-1.85-.06-1.31.77Z"/><path class="cls-1" d="M39.85,59.31l-1.63,3.59c-.4.88.91,1.66,1.31.77l1.63-3.59c.4-.88-.91-1.66-1.31-.77Z"/><path class="cls-1" d="M42.53,59.44a11.81,11.81,0,0,0-2.77,6.79c-.08,1,1.44,1,1.52,0a10,10,0,0,1,2.33-5.72c.62-.75-.45-1.83-1.07-1.07Z"/><path class="cls-1" d="M44.69,60.27,41,68.7c-.39.89.92,1.66,1.31.77L46,61c.39-.89-.92-1.66-1.31-.77Z"/><path class="cls-1" d="M48.08,61.31a105.67,105.67,0,0,0-5.61,11.82c-.36.91,1.1,1.3,1.47.4a102.53,102.53,0,0,1,5.46-11.45c.47-.86-.84-1.62-1.31-.77Z"/><path class="cls-1" d="M122.41,98.47a22.28,22.28,0,0,0,5.34-8.53c.32-.93-1.15-1.32-1.47-.4a20.54,20.54,0,0,1-4.95,7.86.76.76,0,0,0,1.07,1.07Z"/><path class="cls-1" d="M128.15,82.88l-.69,1.29c-.46.86.85,1.63,1.31.77l.69-1.29c.46-.86-.85-1.63-1.31-.77Z"/><path class="cls-1" d="M90.68,57.64a11.51,11.51,0,0,1,.22,6.8.76.76,0,0,0,1.47.4,13,13,0,0,0-.22-7.61c-.31-.92-1.78-.53-1.47.4Z"/><path class="cls-1" d="M88.77,52.18A3.08,3.08,0,0,0,90,54.68c.76.6,1.84-.47,1.07-1.07a1.74,1.74,0,0,1-.75-1.43.76.76,0,0,0-1.52,0Z"/><path class="cls-1" d="M7,27.78A69.85,69.85,0,0,1,56.83,1.69,64.59,64.59,0,0,1,85,5.76C90.64,8,96.21,11.33,98.9,17c1.49,3.12,2.06,7,.6,10.2C98.59,29.22,97,31,94.62,31c-.9,0-3.29-.63-3.61-1.71-.52-1.76.95-4.32,2.48-5.11,5.2-2.71,12.4-1.06,17.25,1.62a22.54,22.54,0,0,1,11,13.84.76.76,0,0,0,1.47-.4c-3-11.17-14.64-19.38-26.29-17.62-3.69.56-10,3.72-7.18,8.45,2.38,4,7.79,2.88,10.18-.38,3.62-4.92,1.89-11.92-1.47-16.46C94.4,7.83,87.87,4.92,81.61,3a69.64,69.64,0,0,0-38.86-.39A70.18,70.18,0,0,0,5.93,26.7c-.6.76.47,1.84,1.07,1.07Z"/><path class="cls-1" d="M11.67,2.7c-1.38,1-3.33,1.54-4.93,2.88C4.89,7.14,3,9.18,1.45,10.75c-.13,1.32-1.58,1.8-1.44,3,1.64.77,1.73-1.12,2.28-1.92.2-.3.66-.47,1-.84s.36-.79.6-1.08c.59-.7,1.7-1.37,2.52-2.16A16.32,16.32,0,0,1,8.9,5.58c1.3-.77,2.93-1,3.73-2.4C12.47,2.87,12,2.48,11.67,2.7Z"/><path class="cls-1" d="M15.22,7.45a36.39,36.39,0,0,0-5,3.6,22.19,22.19,0,0,0-6.25,6.61c-.55.17-1,.55-.72,1.2,1.89.51,2.42-1.79,3.37-2.89,1.95-2.25,4.31-3.77,6.61-5.65.36-.3,3.5-2,3.49-2.41C16.63,7.2,15.75,7.2,15.22,7.45Z"/></g></g></svg>